<svg xmlns="http://www.w3.org/2000/svg" xmlns:xlink="http://www.w3.org/1999/xlink" width="118" height="118" viewBox="0 0 118 118">
  <defs>
    <filter id="Elipse_12115" x="0" y="0" width="118" height="118" filterUnits="userSpaceOnUse">
      <feOffset dy="3" input="SourceAlpha"/>
      <feGaussianBlur stdDeviation="3" result="blur"/>
      <feFlood flood-opacity="0.161"/>
      <feComposite operator="in" in2="blur"/>
      <feComposite in="SourceGraphic"/>
    </filter>
  </defs>
  <g id="Grupo_1189704" data-name="Grupo 1189704" transform="translate(-1162 -2805.99)">
    <g id="Grupo_1189057" data-name="Grupo 1189057" transform="translate(416.219 -1040.01)">
      <g id="Grupo_1181949" data-name="Grupo 1181949" transform="translate(-54 1303)">
        <g transform="matrix(1, 0, 0, 1, 799.78, 2543)" filter="url(#Elipse_12115)">
          <g id="Elipse_12115-2" data-name="Elipse 12115" transform="translate(9 6)" fill="#ffc006" stroke="#b18603" stroke-width="2">
            <circle cx="50" cy="50" r="50" stroke="none"/>
            <circle cx="50" cy="50" r="49" fill="none"/>
          </g>
        </g>
      </g>
    </g>
    <g id="_26-Falen_Hein" data-name="26-Falen Hein" transform="translate(1193.001 2833)">
      <path id="Trazado_1053988" data-name="Trazado 1053988" d="M24,40.6a12,12,0,1,1-12,0V7A6,6,0,1,1,24,7Z" fill="#a4eaff"/>
      <g id="Grupo_1189703" data-name="Grupo 1189703">
        <path id="Trazado_1053989" data-name="Trazado 1053989" d="M18,63A12.005,12.005,0,0,1,7.2,45.763a2,2,0,0,1,3.6,1.748A7.916,7.916,0,0,0,10,51a8,8,0,1,0,15.335-3.2A2,2,0,1,1,29,46.2,12,12,0,0,1,18,63Z" fill="#5ec8e6"/>
        <rect id="Rect치ngulo_412184" data-name="Rect치ngulo 412184" width="3" height="33" rx="1.5" transform="translate(12 6)" fill="#5ec8e6"/>
        <rect id="Rect치ngulo_412185" data-name="Rect치ngulo 412185" width="3" height="33" rx="1.5" transform="translate(21 6)" fill="#5ec8e6"/>
        <circle id="Elipse_12439" data-name="Elipse 12439" cx="3" cy="3" r="3" transform="translate(52 1)" fill="#5ec8e6"/>
        <path id="Trazado_1053990" data-name="Trazado 1053990" d="M48,7v5H34v6H46v4H34V39H30V9a2.006,2.006,0,0,1,2-2Z" fill="#5ec8e6"/>
      </g>
      <path id="Trazado_1053991" data-name="Trazado 1053991" d="M11,13h2v2H11Z"/>
      <path id="Trazado_1053992" data-name="Trazado 1053992" d="M25,40.038V7A7,7,0,0,0,11,7v4h2V7A5,5,0,1,1,23,7v4H18v2h5v4H18v2h5v4H18v2h5v4H18v2h5v4H18v2h5v3.6a1,1,0,0,0,.5.865,11,11,0,1,1-11,0A1,1,0,0,0,13,40.6V17H11V40.038a13,13,0,1,0,14,0Z"/>
      <path id="Trazado_1053993" data-name="Trazado 1053993" d="M22.36,43.125l-.97,1.75A7.007,7.007,0,0,1,25,51h2a9.011,9.011,0,0,0-4.64-7.875Z"/>
      <path id="Trazado_1053994" data-name="Trazado 1053994" d="M24.064,54.5l1.731,1a8.928,8.928,0,0,0,.921-2.251l-1.936-.5a6.965,6.965,0,0,1-.716,1.751Z"/>
      <path id="Trazado_1053995" data-name="Trazado 1053995" d="M55,0a4,4,0,1,0,4,4A4,4,0,0,0,55,0Zm0,6a2,2,0,1,1,2-2A2,2,0,0,1,55,6Z"/>
      <path id="Trazado_1053996" data-name="Trazado 1053996" d="M48,6H32a3,3,0,0,0-3,3V19h2V9a1,1,0,0,1,1-1H47v3H34a1,1,0,0,0-1,1v6a1,1,0,0,0,1,1H45v2H34a1,1,0,0,0-1,1V38H31V25H29V39a1,1,0,0,0,1,1h4a1,1,0,0,0,1-1V23H46a1,1,0,0,0,1-1V18a1,1,0,0,0-1-1H35V13H48a1,1,0,0,0,1-1V7A1,1,0,0,0,48,6Z"/>
      <path id="Trazado_1053997" data-name="Trazado 1053997" d="M29,21h2v2H29Z"/>
    </g>
  </g>
</svg>
