<svg xmlns="http://www.w3.org/2000/svg" width="85" height="82" viewBox="0 0 85 82">
  <g id="Grupo_1188943" data-name="Grupo 1188943" transform="translate(-180 -959)">
    <rect id="Rect치ngulo_410550" data-name="Rect치ngulo 410550" width="85" height="82" rx="8" transform="translate(180 959)" fill="#ffe69b"/>
    <g id="la-cuna-de-newton" transform="translate(192.499 970)">
      <rect id="Rect치ngulo_411817" data-name="Rect치ngulo 411817" width="58" height="8" rx="1" transform="translate(1 51)" fill="#ff9801"/>
      <path id="Trazado_1053419" data-name="Trazado 1053419" d="M58,51H55a1,1,0,0,1,1,1v6a1,1,0,0,1-1,1h3a1,1,0,0,0,1-1V52A1,1,0,0,0,58,51Z" fill="#f57c00"/>
      <path id="Trazado_1053420" data-name="Trazado 1053420" d="M58,39.74V51H54V41.75" fill="#707070"/>
      <path id="Trazado_1053421" data-name="Trazado 1053421" d="M54,31.75V6a1,1,0,0,0-1-1H7A1,1,0,0,0,6,6V51H2V5A4,4,0,0,1,6,1H54a4,4,0,0,1,4,4V33.76" fill="#9e9e9e"/>
      <path id="Trazado_1053422" data-name="Trazado 1053422" d="M54,1H51a4,4,0,0,1,4,4V32.253l3,1.507V5a4,4,0,0,0-4-4Z" fill="#707070"/>
      <g id="Grupo_1188942" data-name="Grupo 1188942">
        <circle id="Elipse_12415" data-name="Elipse 12415" cx="5" cy="5" r="5" transform="translate(10 33)" fill="#607d8b"/>
        <circle id="Elipse_12416" data-name="Elipse 12416" cx="5" cy="5" r="5" transform="translate(20 33)" fill="#607d8b"/>
        <circle id="Elipse_12417" data-name="Elipse 12417" cx="5" cy="5" r="5" transform="translate(30 33)" fill="#607d8b"/>
        <path id="Trazado_1053423" data-name="Trazado 1053423" d="M18,5V8a2,2,0,0,1-2,2H14a2,2,0,0,1-2-2V5" fill="#607d8b"/>
        <path id="Trazado_1053424" data-name="Trazado 1053424" d="M28,5V8a2,2,0,0,1-2,2H24a2,2,0,0,1-2-2V5" fill="#607d8b"/>
        <path id="Trazado_1053425" data-name="Trazado 1053425" d="M38,5V8a2,2,0,0,1-2,2H34a2,2,0,0,1-2-2V5" fill="#607d8b"/>
        <path id="Trazado_1053426" data-name="Trazado 1053426" d="M55.36,41.56a5,5,0,1,1,3-2.37,5,5,0,0,1-3,2.37Z" fill="#607d8b"/>
      </g>
      <path id="Trazado_1053427" data-name="Trazado 1053427" d="M58.81,35.39a5.01,5.01,0,0,0-6.18-3.45c-.044.013-.082.036-.125.05a4.986,4.986,0,0,1-.019,9.52,4.994,4.994,0,0,0,6.324-6.12Z" fill="#37474f"/>
      <path id="Trazado_1053428" data-name="Trazado 1053428" d="M48.12,5l.58,2.07a1.991,1.991,0,0,1-1.37,2.47l-1.93.54A2,2,0,0,1,42.93,8.7L41.88,5" fill="#607d8b"/>
      <path id="Trazado_1053429" data-name="Trazado 1053429" d="M59.237,39.675A5.964,5.964,0,0,0,59,33.445V5a5.006,5.006,0,0,0-5-5H6A5.006,5.006,0,0,0,1,5V50.278A1.993,1.993,0,0,0,0,52v6a2,2,0,0,0,2,2H58a2,2,0,0,0,2-2V52a1.993,1.993,0,0,0-1-1.722V40.017C59.076,39.9,59.169,39.8,59.237,39.675ZM7,50V6h4V8a3,3,0,0,0,3,3V32.09a6,6,0,1,0,6,9.22,5.992,5.992,0,0,0,10,0,6,6,0,1,0,6-9.22V11a3,3,0,0,0,3-3V6h2.124l.843,2.971a3,3,0,0,0,2.883,2.186,3.033,3.033,0,0,0,.82-.114l5.753,20.3A5.987,5.987,0,0,0,53,42.66V50ZM35,34a4,4,0,1,1-4,4A4,4,0,0,1,35,34ZM34,9a1,1,0,0,1-1-1V6h4V8a1,1,0,0,1-1,1Zm0,2V32.09a6.008,6.008,0,0,0-4,2.6,6.008,6.008,0,0,0-4-2.6V11a3,3,0,0,0,3-3V6h2V8A3,3,0,0,0,34,11ZM25,34a4,4,0,1,1-4,4A4,4,0,0,1,25,34ZM27,8a1,1,0,0,1-1,1H24a1,1,0,0,1-1-1V6h4Zm-3,3V32.09a6.008,6.008,0,0,0-4,2.6,6.008,6.008,0,0,0-4-2.6V11a3,3,0,0,0,3-3V6h2V8A3,3,0,0,0,24,11ZM15,34a4,4,0,1,1-4,4,4,4,0,0,1,4-4ZM17,8a1,1,0,0,1-1,1H14a1,1,0,0,1-1-1V6h4ZM57.849,35.662a4.012,4.012,0,1,1-3.864-2.91A4.012,4.012,0,0,1,57.849,35.662ZM53,29.565,47.6,10.5a2.993,2.993,0,0,0,2.06-3.7L49.439,6H53ZM47.362,6l.378,1.351a.992.992,0,0,1-.679,1.226l-1.933.541a1,1,0,0,1-1.236-.69L43.2,6ZM55,42.654a6.12,6.12,0,0,0,.632-.132,5.981,5.981,0,0,0,1.368-.6V50H55ZM3,5A3,3,0,0,1,6,2H54a3,3,0,0,1,3,3V31.571a6.017,6.017,0,0,0-2-.724V6a2,2,0,0,0-2-2H7A2,2,0,0,0,5,6V50H3ZM58,58H2V52H58Z"/>
    </g>
  </g>
</svg>
