<svg xmlns="http://www.w3.org/2000/svg" xmlns:xlink="http://www.w3.org/1999/xlink" width="400" height="240.043" viewBox="0 0 400 240.043">
  <defs>
    <clipPath id="clip-path">
      <rect id="Rectángulo_411857" data-name="Rectángulo 411857" width="194.762" height="226.247" fill="none"/>
    </clipPath>
    <clipPath id="clip-path-3">
      <rect id="Rectángulo_411852" data-name="Rectángulo 411852" width="11.675" height="11.675" fill="none"/>
    </clipPath>
    <clipPath id="clip-path-4">
      <rect id="Rectángulo_411853" data-name="Rectángulo 411853" width="30.782" height="28.594" fill="none"/>
    </clipPath>
    <clipPath id="clip-path-5">
      <rect id="Rectángulo_411854" data-name="Rectángulo 411854" width="9.117" height="12.687" fill="none"/>
    </clipPath>
    <clipPath id="clip-path-6">
      <rect id="Rectángulo_411855" data-name="Rectángulo 411855" width="10.64" height="14.405" fill="none"/>
    </clipPath>
  </defs>
  <g id="Grupo_1189032" data-name="Grupo 1189032" transform="translate(-1020.051 -5970.957)">
    <rect id="Rectángulo_411858" data-name="Rectángulo 411858" width="400" height="220" rx="19" transform="translate(1020.051 5991)" fill="#fff3cd"/>
    <g id="Grupo_1189031" data-name="Grupo 1189031" transform="translate(1120.238 5970.957)">
      <g id="Grupo_1189030" data-name="Grupo 1189030" clip-path="url(#clip-path)">
        <g id="Grupo_1189029" data-name="Grupo 1189029">
          <g id="Grupo_1189028" data-name="Grupo 1189028" clip-path="url(#clip-path)">
            <path id="Trazado_1053511" data-name="Trazado 1053511" d="M186.227,412.628c0,3.067-8.654,5.554-19.328,5.554s-19.328-2.487-19.328-5.554,8.654-5.554,19.328-5.554,19.328,2.487,19.328,5.554" transform="translate(-69.579 -191.935)" fill="#96c25c"/>
            <path id="Trazado_1053512" data-name="Trazado 1053512" d="M175.966,375.244c5.374,10.378,8.809,17.2,10.257,20.856,0,2.581-4.592,4.673-10.257,4.673s-10.257-2.092-10.257-4.673c1.448-3.66,4.883-10.479,10.257-20.856" transform="translate(-78.132 -176.927)" fill="#ff8fa3"/>
            <path id="Trazado_1053513" data-name="Trazado 1053513" d="M177.427,383.146a24,24,0,0,0,11.824,7.418c-1.831-3.8-4.421-8.87-7.761-15.32q-2.262,4.367-4.064,7.9" transform="translate(-83.657 -176.927)" fill="#e66e84"/>
            <path id="Trazado_1053514" data-name="Trazado 1053514" d="M17.018,366.319l179.527,11.576.583-3.711L16.8,362.553Z" transform="translate(-7.921 -170.943)" fill="#ffc25e"/>
            <path id="Trazado_1053515" data-name="Trazado 1053515" d="M197.1,374.349l.026-.165L16.8,362.553l.01.168Z" transform="translate(-7.921 -170.943)" fill="#ffd48f"/>
            <path id="Trazado_1053516" data-name="Trazado 1053516" d="M24.046,353.946l167.67,10.3,5.412,5.877L16.8,358.494Z" transform="translate(-7.921 -166.885)" fill="#ffb338"/>
            <path id="Trazado_1053517" data-name="Trazado 1053517" d="M332.617,376.829c-.022.851-4.5,1.426-10,1.285s-9.946-.945-9.924-1.8,4.5-1.426,10-1.285,9.946.945,9.924,1.8" transform="translate(-147.433 -176.818)" fill="#fa9128"/>
            <path id="Trazado_1053518" data-name="Trazado 1053518" d="M21.063,357.8a23.028,23.028,0,0,0,7.1,1.219c4.526.207,8.231-.411,8.275-1.379s-3.589-1.92-8.115-2.127a34.883,34.883,0,0,0-3.643.016Z" transform="translate(-9.931 -167.605)" fill="#fa9128"/>
            <path id="Trazado_1053519" data-name="Trazado 1053519" d="M38.839,311.063c-4.409-6.186-15.722-20.083-21.56-27.64L2.837,296.929c-4.361,3.4-3.611,11.651,1.674,18.426s13.694,8.821,17.745,6.472Z" transform="translate(0 -133.634)" fill="#de2f42"/>
            <path id="Trazado_1053520" data-name="Trazado 1053520" d="M48.872,290.337C54.826,297.97,56.3,306.774,52.159,310s-12.319-.342-18.273-7.975S26.461,285.59,30.6,282.362s12.319.342,18.273,7.975" transform="translate(-13.32 -132.573)" fill="#f74559"/>
            <path id="Trazado_1053521" data-name="Trazado 1053521" d="M38.558,235.242A16.811,16.811,0,1,1,21.746,218.43a16.812,16.812,0,0,1,16.812,16.812" transform="translate(-2.327 -102.989)" fill="#fed80c"/>
            <g id="Grupo_1189018" data-name="Grupo 1189018" transform="translate(6.588 118.401)" opacity="0.22" style="mix-blend-mode: overlay;isolation: isolate">
              <g id="Grupo_1189017" data-name="Grupo 1189017">
                <g id="Grupo_1189016" data-name="Grupo 1189016" clip-path="url(#clip-path-3)">
                  <path id="Trazado_1053522" data-name="Trazado 1053522" d="M21.473,233.038c-2.707,2.707-6.32,3.482-8.071,1.732s-.976-5.364,1.731-8.071,6.32-3.482,8.071-1.731.975,5.364-1.732,8.071" transform="translate(-12.466 -224.031)" fill="#fff"/>
                </g>
              </g>
            </g>
            <g id="Grupo_1189021" data-name="Grupo 1189021" transform="translate(5.449 120.469)" opacity="0.45">
              <g id="Grupo_1189020" data-name="Grupo 1189020">
                <g id="Grupo_1189019" data-name="Grupo 1189019" clip-path="url(#clip-path-4)">
                  <path id="Trazado_1053523" data-name="Trazado 1053523" d="M36.269,227.945c1.056,5.6-1.271,12.214-6.553,16.994-5.895,5.336-13.694,6.783-19.4,4.14a16.811,16.811,0,1,0,25.958-21.135" transform="translate(-10.311 -227.945)" fill="#feb600"/>
                </g>
              </g>
            </g>
            <path id="Trazado_1053524" data-name="Trazado 1053524" d="M294.86,311.72l4.1,12.5,18.8-15.469L313.863,296.1Z" transform="translate(-139.026 -139.609)" fill="#fed80c"/>
            <path id="Trazado_1053525" data-name="Trazado 1053525" d="M302.613,335.505l15.93,15.417,18.9-15.776-16.032-15.11Z" transform="translate(-142.682 -150.897)" fill="#feb600"/>
            <path id="Trazado_1053526" data-name="Trazado 1053526" d="M330.816,296.1l15.776,14.923,4.149,12.839-16.032-15.11Z" transform="translate(-155.979 -139.609)" fill="#fe9800"/>
            <path id="Trazado_1053527" data-name="Trazado 1053527" d="M293.051,267.934c1.62,6.364,7.713,16.338,21.519,13.588s15.663-15.326,13.385-22.082Z" transform="translate(-138.173 -122.325)" fill="#de2f42"/>
            <path id="Trazado_1053528" data-name="Trazado 1053528" d="M327.908,257c.745,3.063-6.464,7.447-16.1,9.793s-18.057,1.765-18.8-1.3,6.464-7.447,16.1-9.793,18.057-1.765,18.8,1.3" transform="translate(-138.126 -119.882)" fill="#f74559"/>
            <path id="Trazado_1053529" data-name="Trazado 1053529" d="M127.275,297.994a61.8,61.8,0,0,0,9.819.308c.03-2.549-.016-8.494-.882-12.013l-8.876-1.1-.253.776-1.184,4.307c-2.874,1.962-7.9,3.326-8.439,3.859a8.787,8.787,0,0,0-1.388,2.6c1.052.242,6.4.773,11.2,1.263" transform="translate(-54.728 -134.466)" fill="#333"/>
            <g id="Grupo_1189024" data-name="Grupo 1189024" transform="translate(73.074 151.224)" style="mix-blend-mode: multiply;isolation: isolate">
              <g id="Grupo_1189023" data-name="Grupo 1189023">
                <g id="Grupo_1189022" data-name="Grupo 1189022" clip-path="url(#clip-path-5)">
                  <path id="Trazado_1053530" data-name="Trazado 1053530" d="M138.267,298.491a69.129,69.129,0,0,0,7.487.327,27.534,27.534,0,0,1,1.63-6.849,32.617,32.617,0,0,0-.707-5.233l-4.828-.6a32.038,32.038,0,0,0-3.582,12.354" transform="translate(-138.267 -286.137)" fill="#333"/>
                </g>
              </g>
            </g>
            <path id="Trazado_1053531" data-name="Trazado 1053531" d="M136.88,308.6a61.809,61.809,0,0,1-9.819-.308c-4.806-.489-10.15-1.021-11.2-1.263-.036.106-.068.206-.091.29a3.378,3.378,0,0,0-.143,1.155s5.371.71,11.262,1.31a52.529,52.529,0,0,0,9.815.253A4.124,4.124,0,0,0,136.88,308.6Z" transform="translate(-54.514 -144.764)" fill="#fc9362"/>
            <path id="Trazado_1053532" data-name="Trazado 1053532" d="M155.933,153.88s-15.218,25.575-16.045,27.85a28.3,28.3,0,0,0-1.378,6.962c-.345,2.9-4.619,37.983-4.619,37.983s8.272,2.9,11.374.414c2.482-9.651,6.962-27.988,7.376-30.4s.62-9.237.62-9.237l16.82-15.717,5.3-17.251Z" transform="translate(-63.129 -72.554)" fill="#4d4d4d"/>
            <g id="Grupo_1189027" data-name="Grupo 1189027" transform="translate(74.855 141.135)" opacity="0.67" style="mix-blend-mode: multiply;isolation: isolate">
              <g id="Grupo_1189026" data-name="Grupo 1189026">
                <g id="Grupo_1189025" data-name="Grupo 1189025" clip-path="url(#clip-path-6)">
                  <path id="Trazado_1053533" data-name="Trazado 1053533" d="M148.918,280.447c.942-3.664,2.172-8.579,3.359-13.4a26.642,26.642,0,0,0-10.639,14.048c2.546.473,5.638.666,7.281-.647" transform="translate(-141.636 -267.047)" fill="#333"/>
                </g>
              </g>
            </g>
            <path id="Trazado_1053534" data-name="Trazado 1053534" d="M188.828,169.347s-3.343-3.067-4.791-4.24-3.826-2.585-3.481-2.585a32.266,32.266,0,0,1,4.687,2.517c.758.551.655,1.137,1.138,1.585s2.033,1.93,2.033,1.551-1.31-2.792-1-4.516,1.413-8.41,1.413-8.41l.673.178s-1.742,7.267-1.707,8.473a21.99,21.99,0,0,0,1.339,4.443Z" transform="translate(-85.116 -73.2)" fill="#333"/>
            <path id="Trazado_1053535" data-name="Trazado 1053535" d="M166.912,312.5a.72.72,0,0,1-.076,0l-13.511-1.275a.793.793,0,1,1,.149-1.578l13.511,1.275a.793.793,0,0,1-.073,1.582" transform="translate(-71.954 -145.992)" fill="#dbdbdb"/>
            <path id="Trazado_1053536" data-name="Trazado 1053536" d="M174.11,287a2.149,2.149,0,0,1-.306-.022,2.114,2.114,0,0,1-1.789-2.4l3.946-27.2a7.27,7.27,0,0,1,1.248-3.136,2.114,2.114,0,1,1,3.454,2.437,3,3,0,0,0-.518,1.306l-3.946,27.2A2.115,2.115,0,0,1,174.11,287" transform="translate(-81.095 -119.455)" fill="#fed80c"/>
            <path id="Trazado_1053537" data-name="Trazado 1053537" d="M193.414,225.632a2.145,2.145,0,0,1-.306-.022,2.115,2.115,0,0,1-1.789-2.4l3.946-27.2a7.278,7.278,0,0,1,1.248-3.136,2.114,2.114,0,1,1,3.455,2.437,3,3,0,0,0-.518,1.306l-3.945,27.2a2.115,2.115,0,0,1-2.09,1.811" transform="translate(-90.196 -90.518)" fill="#fed80c"/>
            <path id="Trazado_1053538" data-name="Trazado 1053538" d="M196.623,275.277c6.739,2.6,11.55,10.939,11.36,20.839-.183,9.53-4.945,17.619-11.4,20.525,7.841-2.609,13.709-10.818,13.927-20.547.226-10.094-5.7-18.552-13.885-20.817" transform="translate(-92.688 -129.793)" fill="#4d4d4d"/>
            <path id="Trazado_1053539" data-name="Trazado 1053539" d="M165.43,261.815c-12.592,0-22.8,12.523-22.8,27.97s10.207,27.97,22.8,27.97,22.8-12.523,22.8-27.97-10.208-27.97-22.8-27.97m5.714,48.478a12.726,12.726,0,0,1-5.248,1.155,12.4,12.4,0,0,1-4.864-1c-6.525-2.768-11.14-10.979-10.954-20.68s5.115-17.913,11.748-20.68a12.668,12.668,0,0,1,4.9-1,12.35,12.35,0,0,1,4.459.841c8.183,2.264,14.112,10.722,13.886,20.817-.219,9.729-6.087,17.938-13.928,20.547" transform="translate(-67.25 -123.445)" fill="#333"/>
            <path id="Trazado_1053540" data-name="Trazado 1053540" d="M177.772,304.953c-1.981,0-3.629,2.145-3.679,4.791s1.515,4.791,3.5,4.791l4.819.6c1.982,0,3.629-2.145,3.68-4.791s-1.515-4.791-3.5-4.791Z" transform="translate(-82.084 -143.785)" fill="#4d4d4d"/>
            <path id="Trazado_1053541" data-name="Trazado 1053541" d="M188.585,286.533a2.228,2.228,0,0,1-.306-.022,2.115,2.115,0,0,1-1.789-2.4l3.946-27.2a3.023,3.023,0,0,0-5.464-2.174,2.114,2.114,0,0,1-3.455-2.437,7.251,7.251,0,0,1,13.1,5.218l-3.945,27.2a2.115,2.115,0,0,1-2.09,1.811" transform="translate(-85.403 -117.51)" fill="#fed80c"/>
            <path id="Trazado_1053542" data-name="Trazado 1053542" d="M212.061,316.756a.728.728,0,0,1-.076,0l-15.977-1.507a.793.793,0,0,1,.148-1.579l15.978,1.508a.793.793,0,0,1-.073,1.582" transform="translate(-92.079 -147.891)" fill="#dbdbdb"/>
            <path id="Trazado_1053543" data-name="Trazado 1053543" d="M223.06,318.049H212.926a1.525,1.525,0,0,1,0-3.051H223.06a1.525,1.525,0,1,1,0,3.051" transform="translate(-99.675 -148.522)" fill="#fff"/>
            <path id="Trazado_1053544" data-name="Trazado 1053544" d="M61.63,114.994a7.118,7.118,0,0,0-1.5,1.822c-.168.375-.711,2.133-.892,2.637s-.543,1.279-.349,1.37a1.687,1.687,0,0,0,1.823-1.111c.581-1.319.917-2.21.917-2.21l2.081-1.37v-1.137Z" transform="translate(-27.74 -54.22)" fill="#d97250"/>
            <path id="Trazado_1053545" data-name="Trazado 1053545" d="M65.775,115.627a7.12,7.12,0,0,0-1.141,2.066c-.1.4-.308,2.227-.394,2.756s-.3,1.357-.092,1.411a1.687,1.687,0,0,0,1.588-1.426c.33-1.4.5-2.341.5-2.341l1.795-1.728-.208-1.118Z" transform="translate(-30.204 -54.338)" fill="#d97250"/>
            <path id="Trazado_1053546" data-name="Trazado 1053546" d="M69.591,116.066a6.406,6.406,0,0,0-.6,2.038c-.007.369.16,2.017.188,2.5s0,1.251.192,1.258a1.518,1.518,0,0,0,1.12-1.562c.018-1.3-.016-2.155-.016-2.155l1.244-1.867-.4-.943Z" transform="translate(-32.528 -54.38)" fill="#d97250"/>
            <path id="Trazado_1053547" data-name="Trazado 1053547" d="M106.35,109.974s-4.688,1.723-5.067,1.723c-4,.413-32.709-.242-32.709-.242s-1.723.586-2.344.862a13.265,13.265,0,0,1-2.326.508,3.188,3.188,0,0,1-1.473.8c-.982.258-1.629-.155-1.629-.414s.957-1.292,1.189-1.628a3.33,3.33,0,0,1,.776-.7c.31-.258,1.448-1.008,1.37-1.086s-3.748-1.008-3.748-1.008l-2.508.827s-1.318,1.194-1.964,1.631-2.326.23-2.042-.209,2.507-2.766,3-3.335a5.5,5.5,0,0,1,1.37-1.111,22.628,22.628,0,0,1,2.714-1.4,3.341,3.341,0,0,1,1.784,0c.879.207,4.653,1.345,4.653,1.345l31.374-4.257,2.62-1.1Z" transform="translate(-25.386 -47.709)" fill="#fc9362"/>
            <path id="Trazado_1053548" data-name="Trazado 1053548" d="M146.983,109.974l-4.963-8.789-2,.841a23.449,23.449,0,0,0,3.214,9.28c1.508-.508,3.749-1.332,3.749-1.332" transform="translate(-66.02 -47.709)" fill="#d97250"/>
            <path id="Trazado_1053549" data-name="Trazado 1053549" d="M325.154,28.984a7.119,7.119,0,0,1,2.312.476c.366.186,1.893,1.212,2.351,1.491s1.226.654,1.132.847a1.687,1.687,0,0,1-2.116.28c-1.281-.66-2.1-1.143-2.1-1.143l-2.48.242-.715-.885Z" transform="translate(-152.546 -13.666)" fill="#d97250"/>
            <path id="Trazado_1053550" data-name="Trazado 1053550" d="M323.1,31.739a7.13,7.13,0,0,1,2.185.891c.326.25,1.639,1.538,2.038,1.9s1.086.868.958,1.04a1.686,1.686,0,0,1-2.131-.112c-1.138-.883-1.858-1.508-1.858-1.508l-2.482-.216-.541-1Z" transform="translate(-151.479 -14.965)" fill="#d97250"/>
            <path id="Trazado_1053551" data-name="Trazado 1053551" d="M321.4,34.1a6.409,6.409,0,0,1,1.749,1.207c.238.283,1.144,1.671,1.425,2.062s.786.973.641,1.1a1.519,1.519,0,0,1-1.853-.511c-.83-1-1.341-1.686-1.341-1.686l-2.14-.671-.282-.985Z" transform="translate(-150.692 -16.078)" fill="#d97250"/>
            <path id="Trazado_1053552" data-name="Trazado 1053552" d="M257.6,57.77s4.73-1.605,5.024-1.843c3.37-2.191,25.294-20.742,25.294-20.742s1.709-.627,2.365-.8a13.239,13.239,0,0,0,2.129-1.067,3.187,3.187,0,0,0,1.65-.3c.926-.416,1.169-1.144,1.007-1.345a9.482,9.482,0,0,0-1.948-.52,3.341,3.341,0,0,0-1.042-.055,10.015,10.015,0,0,1-1.748.016c.012-.109,2.282-3.14,2.282-3.14l2.471-.932s1.775.1,2.553.034,1.955-1.283,1.458-1.445-3.689-.577-4.428-.71a5.5,5.5,0,0,0-1.764,0,22.618,22.618,0,0,0-2.989.62,3.329,3.329,0,0,0-1.387,1.12c-.554.713-2.775,3.97-2.775,3.97l-27.081,16.4-2.731.788Z" transform="translate(-120.674 -11.713)" fill="#fc9362"/>
            <path id="Trazado_1053553" data-name="Trazado 1053553" d="M257.6,77.728l-1.662-9.956,2.084-.6a23.438,23.438,0,0,1,3.331,9.238c-1.492.552-3.753,1.319-3.753,1.319" transform="translate(-120.674 -31.671)" fill="#d97250"/>
            <path id="Trazado_1053554" data-name="Trazado 1053554" d="M212.068,302.77a61.83,61.83,0,0,0,9.782-.9c-.284-2.534-1.06-8.428-2.352-11.814h-8.944l-.155.8-.646,4.42c-2.611,2.3-5.041,3.9-5.506,4.5a8.8,8.8,0,0,0-1.057,2.751,74.147,74.147,0,0,0,8.879.245" transform="translate(-95.803 -136.76)" fill="#333"/>
            <path id="Trazado_1053555" data-name="Trazado 1053555" d="M221.761,312.407a61.807,61.807,0,0,1-9.782.9,74.165,74.165,0,0,1-8.88-.245c-.023.109-.042.212-.053.3a3.368,3.368,0,0,0,0,1.163,63.515,63.515,0,0,0,8.944.284,52.482,52.482,0,0,0,9.771-.957A4.131,4.131,0,0,0,221.761,312.407Z" transform="translate(-95.714 -147.299)" fill="#fc9362"/>
            <path id="Trazado_1053556" data-name="Trazado 1053556" d="M194.653,154.727l-.689,13.505c-2.068,14.476-2.964,24.54-3.1,26.057a14.26,14.26,0,0,0,1.034,6.2c.9,2.068,11.718,26.54,11.856,26.954s.931.379,1.517.345,7.169-1.31,8.1-1.448.827-.62.724-1.137-5.17-20.267-6.273-22.99-3.413-7.376-3.413-7.376,12.6-20.7,14.046-24.42,1.861-12.74.672-16.658Z" transform="translate(-89.975 -72.499)" fill="#4d4d4d"/>
            <path id="Trazado_1053557" data-name="Trazado 1053557" d="M198.46,168.824l-.384-.1c.867-3.338,2.231-12.332,2.245-12.422l.393.059c-.014.091-1.382,9.105-2.253,12.463" transform="translate(-93.393 -73.697)" fill="#333"/>
            <path id="Trazado_1053558" data-name="Trazado 1053558" d="M175.959,149.576a13.635,13.635,0,0,0-.362,2.275c5.584,2.223,21.482,3.177,36.941.62l-.181-2.516Z" transform="translate(-82.794 -70.525)" fill="#fc9362"/>
            <path id="Trazado_1053559" data-name="Trazado 1053559" d="M176.282,52.873l.59,1.944.41,8.328h10.133L187.1,52.08s-1.3-.429-1.68-2.9c-4.035-1.371-9.136,3.7-9.136,3.7" transform="translate(-83.117 -23.076)" fill="#fc9362"/>
            <path id="Trazado_1053560" data-name="Trazado 1053560" d="M159.185,58.843s-7.928,7.308-8.238,7.756-10.926,12.236-10.926,12.236a31.822,31.822,0,0,0,2.861,6.652c1.93,3.309,3.343,4.032,3.343,4.032l10.72-3.757L160.6,97.619s-2.447,4.1-2.413,4.688a14.516,14.516,0,0,0,1,2.619s2.137,1.379,13.856,1.861a115.987,115.987,0,0,0,22.542-1.482,17.634,17.634,0,0,0,1.172-2.964c0-.517-1.586-17.061-3.585-24.437,7.79-3.033,11.03-5.308,11.03-5.308s0-8.135-1.723-12.064c-6.825-1.93-17.371-4.481-17.371-4.481-5.86-.758-15.1-1.172-15.1-1.172l-5.928,9.487-.312.026Z" transform="translate(-66.02 -25.876)" fill="#fff"/>
            <path id="Trazado_1053561" data-name="Trazado 1053561" d="M178.2,125.6a22.3,22.3,0,0,0,2.8.793c.724.078,11.685-6.566,14.735-8.815s4.886-3.367,4.421-3.351a68.109,68.109,0,0,0-6.8,3.248c-1.473.8-4.885,4.343-5.635,4.834s-6.514,2.9-6.7,2.9-3.673-2.35-3.673-2.35a17.979,17.979,0,0,0,.846,2.746" transform="translate(-83.623 -53.859)" fill="#dbdbdb"/>
            <path id="Trazado_1053562" data-name="Trazado 1053562" d="M201.668,129.108c7.471-2.249,14.761-6.8,14.476-6.876s-5.661,2.4-6.85,2.766-7.626,4.11-7.626,4.11" transform="translate(-95.086 -57.631)" fill="#dbdbdb"/>
            <path id="Trazado_1053563" data-name="Trazado 1053563" d="M180.394,72.482l3.033-.414,1.034-1.275,1.758,1.172-1.379,1.654-1.585,3.068s3.723,23.283,5.015,31.865c.052,1.189-1.807,5.416-4.522,7.055-2.766-1.32-3.956-6.383-3.956-6.383l.8-32.417-1.37-2.929-1.31-1.259,1.345-1.137Z" transform="translate(-83.885 -33.379)" fill="#5c81c9"/>
            <path id="Trazado_1053564" data-name="Trazado 1053564" d="M191.139,71.965l-1.758-1.172-1.034,1.275,1.413,1.551Z" transform="translate(-88.805 -33.379)" fill="#3d5ea1"/>
            <path id="Trazado_1053565" data-name="Trazado 1053565" d="M179.257,72.1l-1.344,1.137,1.31,1.259,1.172-1.4Z" transform="translate(-83.886 -33.994)" fill="#3d5ea1"/>
            <path id="Trazado_1053566" data-name="Trazado 1053566" d="M186.058,51.083a5.155,5.155,0,0,1-.64-1.906c-4.035-1.371-9.136,3.7-9.136,3.7l.59,1.944.01.2a6.86,6.86,0,0,0,4.378,1.917c1.115-.083,3.42-3.481,4.8-5.853" transform="translate(-83.117 -23.076)" fill="#d97250"/>
            <path id="Trazado_1053567" data-name="Trazado 1053567" d="M160.9,38.163c-.87-1.2-1.617-1.089-1.9-.71a3.117,3.117,0,0,0-.032,2.436,4.1,4.1,0,0,0,1.783,2.176,2.539,2.539,0,0,0,1.386.142Z" transform="translate(-74.849 -17.537)" fill="#fc9362"/>
            <path id="Trazado_1053568" data-name="Trazado 1053568" d="M161.789,39.207c-.382,2.008-.266,2.368.089,2.878s1.784.61,1.784.61l-1.142-3.479Z" transform="translate(-76.172 -18.486)" fill="#d9604e"/>
            <path id="Trazado_1053569" data-name="Trazado 1053569" d="M196.748,33.217c.406-1.425,1.145-1.577,1.545-1.32a3.118,3.118,0,0,1,.866,2.277,4.107,4.107,0,0,1-.929,2.656,2.542,2.542,0,0,1-1.254.608Z" transform="translate(-92.766 -14.991)" fill="#fc9362"/>
            <path id="Trazado_1053570" data-name="Trazado 1053570" d="M196.966,34.375c1.047,1.756,1.061,2.133.9,2.734s-1.467,1.185-1.467,1.185l-.12-3.659Z" transform="translate(-92.547 -16.208)" fill="#d9604e"/>
            <path id="Trazado_1053571" data-name="Trazado 1053571" d="M167.921,9.729c7.162-1.244,10.166,3.493,11.119,6.647a23.245,23.245,0,0,1,.7,10.7c-.593,4.853-5.03,8.082-7.338,8.711-2.388.143-7.624-1.5-9.738-5.906A23.244,23.244,0,0,1,159.9,19.519c-.106-3.294,1.225-8.743,8.408-9.854Z" transform="translate(-75.392 -4.491)" fill="#fc9362"/>
            <path id="Trazado_1053572" data-name="Trazado 1053572" d="M168.936,35.691a1.923,1.923,0,0,1,1.614,1.783,2.116,2.116,0,0,1-1.782.932,1.717,1.717,0,0,1-1.9-1.108c.02-.822.612-1.656,2.067-1.607" transform="translate(-78.678 -16.827)" fill="#fff"/>
            <path id="Trazado_1053573" data-name="Trazado 1053573" d="M168.022,37.19A1.3,1.3,0,1,0,169.09,35.7a1.3,1.3,0,0,0-1.068,1.494" transform="translate(-79.214 -16.822)" fill="#4d4d4d"/>
            <path id="Trazado_1053574" data-name="Trazado 1053574" d="M167.683,37.009a.4.4,0,0,0,.491.262c.24-.04.411-.222.38-.406a.4.4,0,0,0-.492-.262c-.24.04-.411.222-.38.407" transform="translate(-79.061 -17.254)" fill="#fff"/>
            <path id="Trazado_1053575" data-name="Trazado 1053575" d="M170.265,37.231a2.2,2.2,0,0,0-2.083-1.475,1.536,1.536,0,0,0-1.683,1.519c.057.205.144.451.144.451a2.447,2.447,0,0,1-.838-.434c.142-.116.281-.246.281-.246a2.085,2.085,0,0,1,2.065-1.714c1.8-.046,2.115,1.9,2.115,1.9" transform="translate(-78.177 -16.659)" fill="#1f1f1f"/>
            <path id="Trazado_1053576" data-name="Trazado 1053576" d="M170.336,31.438a8.85,8.85,0,0,0-5,.466,7.52,7.52,0,0,1,4.05-1.419.973.973,0,0,1,.955.953" transform="translate(-77.953 -14.368)" fill="#1f1f1f"/>
            <path id="Trazado_1053577" data-name="Trazado 1053577" d="M186.662,32.729a1.924,1.924,0,0,0-.95,2.209,2.117,2.117,0,0,0,1.988.3,1.716,1.716,0,0,0,1.438-1.663c-.285-.772-1.116-1.368-2.476-.851" transform="translate(-87.541 -15.34)" fill="#fff"/>
            <path id="Trazado_1053578" data-name="Trazado 1053578" d="M188.765,33.737a1.3,1.3,0,1,1-1.494-1.068,1.3,1.3,0,0,1,1.494,1.068" transform="translate(-87.786 -15.395)" fill="#4d4d4d"/>
            <path id="Trazado_1053579" data-name="Trazado 1053579" d="M186.927,34.039c.031.184-.14.367-.38.407a.4.4,0,0,1-.492-.262c-.031-.184.14-.366.38-.406a.4.4,0,0,1,.492.262" transform="translate(-87.723 -15.922)" fill="#fff"/>
            <path id="Trazado_1053580" data-name="Trazado 1053580" d="M185.3,34.761a2.2,2.2,0,0,1,1.493-2.07,1.536,1.536,0,0,1,2.085.893c.013.212.01.473.01.473a2.449,2.449,0,0,0,.652-.683c-.171-.063-.345-.142-.345-.142a2.083,2.083,0,0,0-2.508-.952,2.209,2.209,0,0,0-1.386,2.481" transform="translate(-87.356 -15.164)" fill="#1f1f1f"/>
            <path id="Trazado_1053581" data-name="Trazado 1053581" d="M182.907,29.6a8.855,8.855,0,0,1,4.886-1.181,7.521,7.521,0,0,0-4.291-.031.972.972,0,0,0-.595,1.211" transform="translate(-86.218 -13.243)" fill="#1f1f1f"/>
            <path id="Trazado_1053582" data-name="Trazado 1053582" d="M179.967,47.11c.139-.085.406.139.488.355,0,0-.571.11-.643.046s.016-.317.155-.4" transform="translate(-84.769 -22.204)" fill="#d9604e"/>
            <path id="Trazado_1053583" data-name="Trazado 1053583" d="M182.454,46.685c.159.035.324.245.276.329s-.623.165-.623.165c.007-.231.188-.529.347-.494" transform="translate(-85.863 -22.01)" fill="#d9604e"/>
            <path id="Trazado_1053584" data-name="Trazado 1053584" d="M182.565,49.292a16.686,16.686,0,0,1-5.172,1.514.043.043,0,0,0,0,.084,7.15,7.15,0,0,0,5.22-1.538.04.04,0,0,0-.053-.059" transform="translate(-83.625 -23.237)" fill="#821e28"/>
            <path id="Trazado_1053585" data-name="Trazado 1053585" d="M171.033,9.737a13.3,13.3,0,0,1-3.447,4.722,21.367,21.367,0,0,1,.138-2.585c-2.189,2.672-4.25,4.485-4.808,4.481a9.858,9.858,0,0,1,.155-2.654s-2.982,2.981-3.861,3.671a22.38,22.38,0,0,0-1.192,3.946,14.032,14.032,0,0,1-2.324-4.123c-1.034.522-1.31,0-1.31,0s.827-1.012.551-1.857c-.241-1.172-.982-3.809.448-6.376-1.086-.6-1.068-.259-1.6-1.258a14.523,14.523,0,0,0,5.256-3.033,9.191,9.191,0,0,1,6.2-2.516A5.041,5.041,0,0,1,165.208,0c2.1,1.517,5.067,2.258,5.825,3.5a4.042,4.042,0,0,0,.758-2.172,3.845,3.845,0,0,1,.586,2.723c.828.362,2.464.534,3.74,1.913s2.016,2.481,3.1,2.585A3.164,3.164,0,0,1,177.7,9.617a6.053,6.053,0,0,1,1.209,2.821,15.071,15.071,0,0,1-1,4.366L177.15,18.3s-.309-1.149-.464-1.632a14.4,14.4,0,0,1-2.58-2.62l.115,1.275a7.577,7.577,0,0,1-3.188-5.584" transform="translate(-72.508)" fill="#4d4d4d"/>
            <path id="Trazado_1053586" data-name="Trazado 1053586" d="M175.888,58.655s2.41,5.553,4.116,7.208a6.5,6.5,0,0,0-1.5.336s-2.613,2.43-2.769,2.56-.491,0-.543-.543-.724-7.833-.724-8.04A20.548,20.548,0,0,1,175.688,58Z" transform="translate(-82.263 -27.346)" fill="#fff"/>
            <path id="Trazado_1053587" data-name="Trazado 1053587" d="M190.1,51.994s-2.5,7.91-4.573,11.012c.954-.026,1.988-.1,1.988-.1s3.878,1.887,4.213,2.042.646.078.646-.491-.232-10.857-.336-11.012-1.939-1.448-1.939-1.448" transform="translate(-87.478 -24.515)" fill="#fff"/>
            <path id="Trazado_1053588" data-name="Trazado 1053588" d="M220.954,68.881c-1.693-4.285-2.668-9.591-.739-12.269l-.31-.032c-1.867,2.81-.889,8.112.8,12.4,1.712,4.332,6.512,7.9,9.657,9.724.107-.041.2-.081.308-.122-3.172-1.823-8.062-5.506-9.72-9.7" transform="translate(-103.207 -26.677)" fill="#dbdbdb"/>
            <path id="Trazado_1053589" data-name="Trazado 1053589" d="M160.849,76.656a2.419,2.419,0,0,0-.192.21l-.043.054c.4,3.316,1.792,12.209,5.75,19.165l0,.048.274-.1v-.012l-.021-.036c-4.048-7.092-5.4-16.236-5.765-19.334" transform="translate(-75.729 -36.143)" fill="#dbdbdb"/>
            <path id="Trazado_1053590" data-name="Trazado 1053590" d="M167.106,108.076c-2.469-1.9-4.9-5.623-4.911-5.532a9.2,9.2,0,0,0,1.422,3.115c.789.866,1.2.581,1.6.9a6.61,6.61,0,0,1,.8,2.155l1.238-.434Z" transform="translate(-76.475 -48.349)" fill="#dbdbdb"/>
            <path id="Trazado_1053591" data-name="Trazado 1053591" d="M232.224,94.857c-4.739-1.31-9.427-3.86-9.22-3.6a11.529,11.529,0,0,0,3.361,2.206,14.388,14.388,0,0,0,3.223.767c.5.1,3.438,3.986,3.438,3.986s-.43-2.065-.724-3.17c.008-.028.084-.08.084-.08Z" transform="translate(-105.143 -43.018)" fill="#dbdbdb"/>
            <path id="Trazado_1053592" data-name="Trazado 1053592" d="M182.946,82.066l2.663-.121.083.517L182.9,83.755Z" transform="translate(-86.239 -38.637)" fill="#3d5ea1"/>
            <path id="Trazado_1053593" data-name="Trazado 1053593" d="M212.022,228.8c-4.688-2.929-5.273-3.067-4.981-3a6.454,6.454,0,0,1,2.723.845,12.349,12.349,0,0,1,2.258,2.154" transform="translate(-97.59 -106.461)" fill="#333"/>
            <path id="Trazado_1053594" data-name="Trazado 1053594" d="M211.42,225.644c-.861-1.137-2.43-2.016-2.137-1.982a3.094,3.094,0,0,1,1.413.569,5.121,5.121,0,0,1,.724,1.413" transform="translate(-98.66 -105.456)" fill="#333"/>
            <path id="Trazado_1053595" data-name="Trazado 1053595" d="M196.76,174.99c7.307-3.033,17.027-6.962,16.51-6.894s-6.687,1.448-7.479,1.965a13.317,13.317,0,0,0-1.745,1.481L196.79,174.4Z" transform="translate(-92.772 -79.257)" fill="#333"/>
            <path id="Trazado_1053596" data-name="Trazado 1053596" d="M182.949,193.652l7.329-13.627-1,7.717Z" transform="translate(-86.26 -84.882)" fill="#333"/>
          </g>
        </g>
      </g>
    </g>
  </g>
</svg>
