<svg xmlns="http://www.w3.org/2000/svg" xmlns:xlink="http://www.w3.org/1999/xlink" width="92" height="92" viewBox="0 0 92 92">
  <defs>
    <filter id="Elipse_12115" x="0" y="0" width="92" height="92" filterUnits="userSpaceOnUse">
      <feOffset dy="3" input="SourceAlpha"/>
      <feGaussianBlur stdDeviation="3" result="blur"/>
      <feFlood flood-opacity="0.161"/>
      <feComposite operator="in" in2="blur"/>
      <feComposite in="SourceGraphic"/>
    </filter>
    <clipPath id="clip-path">
      <path id="path319" d="M0-682.665H47.277v47.277H0Z" transform="translate(0 682.665)"/>
    </clipPath>
    <clipPath id="clip-path-2">
      <path id="path335" d="M0-682.665H47.277v47.277H0Z" transform="translate(0 682.665)" fill="#f855fc"/>
    </clipPath>
  </defs>
  <g id="Grupo_1188956" data-name="Grupo 1188956" transform="translate(-859.051 -855)">
    <g id="Grupo_1188932" data-name="Grupo 1188932" transform="translate(113.27 -2991)">
      <g id="Grupo_1181949" data-name="Grupo 1181949" transform="translate(754.781 3852)">
        <g transform="matrix(1, 0, 0, 1, -9, -6)" filter="url(#Elipse_12115)">
          <g id="Elipse_12115-2" data-name="Elipse 12115" transform="translate(9 6)" fill="#ffe69b" stroke="#b18603" stroke-width="2">
            <circle cx="37" cy="37" r="37" stroke="none"/>
            <circle cx="37" cy="37" r="36" fill="none"/>
          </g>
        </g>
      </g>
    </g>
    <g id="g309" transform="translate(882.703 1556.7)">
      <g id="g311" transform="translate(0.923 -666.277)">
        <path id="path313" d="M-249.184-293.233h-18.541v-21.819l45.431,21.819h-18.541" transform="translate(267.725 315.051)" fill="#fff3cd"/>
      </g>
      <g id="g315" transform="translate(0 -682.665)">
        <g id="g317" clip-path="url(#clip-path)">
          <g id="g323" transform="translate(0 15.464)">
            <path id="path325" d="M-234.7-304.719h-18.541a.923.923,0,0,1-.923-.923.923.923,0,0,1,.923-.923h14.485l-40.452-19.427v19.427h17.618a.923.923,0,0,1,.923.923.923.923,0,0,1-.923.923h-18.541a.923.923,0,0,1-.923-.923v-21.819a.923.923,0,0,1,.432-.782.923.923,0,0,1,.891-.051l45.431,21.819a.923.923,0,0,1,.5,1.037A.923.923,0,0,1-234.7-304.719Z" transform="translate(281.058 328.384)"/>
          </g>
        </g>
      </g>
      <g id="g327" transform="translate(23.656 -644.459)">
        <path id="path329"/>
      </g>
      <g id="g331" transform="translate(0 -682.665)">
        <g id="g333" clip-path="url(#clip-path-2)">
          <g id="g339" transform="translate(11.197 9.358)">
            <path id="path341" d="M-196.18-98.089a7.3,7.3,0,0,1-7.3,7.3,7.3,7.3,0,0,1-7.3-7.3,7.3,7.3,0,0,1,7.3-7.3,7.3,7.3,0,0,1,7.3,7.3" transform="translate(210.777 105.388)" fill="#f855fc"/>
          </g>
          <g id="g343" transform="translate(10.274 8.434)">
            <path id="path345" d="M-215.888-118.721a8.231,8.231,0,0,1,8.222,8.222,8.231,8.231,0,0,1-8.222,8.222,8.231,8.231,0,0,1-8.222-8.222A8.231,8.231,0,0,1-215.888-118.721Zm0,14.6a6.382,6.382,0,0,0,6.375-6.375,6.382,6.382,0,0,0-6.375-6.375,6.382,6.382,0,0,0-6.375,6.375A6.382,6.382,0,0,0-215.888-104.124Z" transform="translate(224.11 118.721)"/>
          </g>
          <g id="g347" transform="translate(0 10.158)">
            <path id="path349" d="M-4.659-7.765a.92.92,0,0,1-.4-.091l-7.755-3.724a.923.923,0,0,1-.433-1.232.923.923,0,0,1,1.232-.433l7.755,3.724a.923.923,0,0,1,.433,1.232A.923.923,0,0,1-4.659-7.765Z" transform="translate(13.336 13.336)"/>
          </g>
          <g id="g351" transform="translate(4.742 8.147)">
            <path id="path353" d="M-9.523-10.1a.92.92,0,0,1-.4-.091l-2.891-1.388a.923.923,0,0,1-.433-1.232.923.923,0,0,1,1.232-.433l2.891,1.388a.923.923,0,0,1,.433,1.232A.923.923,0,0,1-9.523-10.1Z" transform="translate(13.336 13.336)"/>
          </g>
          <g id="g355" transform="translate(28.073 19.279)">
            <path id="path357" d="M-245.689-145.364l-3.6-6.811-1.174,2.313-11.834-6.317-1.677,3.306,11.834,6.317-1.174,2.313Z" transform="translate(263.97 156.18)" fill="#d1aee4"/>
          </g>
          <g id="g359" transform="translate(27.149 18.355)">
            <path id="path361" d="M-265.722-155.73a.923.923,0,0,1-.749-.384.923.923,0,0,1-.074-.957l.764-1.506-11.036-5.892a.923.923,0,0,1-.389-1.232l1.677-3.306a.923.923,0,0,1,.546-.463.924.924,0,0,1,.713.066l11,5.873.747-1.472a.923.923,0,0,1,.816-.506.923.923,0,0,1,.824.492l3.6,6.811a.923.923,0,0,1,.007.849.923.923,0,0,1-.689.5l-7.62,1.12A.926.926,0,0,1-265.722-155.73Zm-9.428-9.942,11.036,5.892a.923.923,0,0,1,.389,1.232l-.366.722,4.563-.671-2.153-4.079-.366.722a.923.923,0,0,1-.546.463.923.923,0,0,1-.713-.066l-11-5.873Z" transform="translate(277.306 169.513)"/>
          </g>
        </g>
      </g>
    </g>
  </g>
</svg>
