<svg xmlns="http://www.w3.org/2000/svg" xmlns:xlink="http://www.w3.org/1999/xlink" width="91" height="91" viewBox="0 0 91 91">
  <defs>
    <filter id="Elipse_12115" x="0" y="0" width="91" height="91" filterUnits="userSpaceOnUse">
      <feOffset dy="3" input="SourceAlpha"/>
      <feGaussianBlur stdDeviation="3" result="blur"/>
      <feFlood flood-opacity="0.161"/>
      <feComposite operator="in" in2="blur"/>
      <feComposite in="SourceGraphic"/>
    </filter>
    <clipPath id="clip-path">
      <path id="path1206" d="M0-682.665H45.093v45.093H0Z" transform="translate(0 682.665)"/>
    </clipPath>
  </defs>
  <g id="Grupo_1191046" data-name="Grupo 1191046" transform="translate(-749.051 -2858)">
    <g id="Grupo_1190753" data-name="Grupo 1190753" transform="translate(151 1214)">
      <g id="Grupo_1190746" data-name="Grupo 1190746" transform="translate(607.051 1650)">
        <g id="Grupo_1188930" data-name="Grupo 1188930" transform="translate(0)">
          <g id="Grupo_1181949" data-name="Grupo 1181949" transform="translate(0 0)">
            <g transform="matrix(1, 0, 0, 1, -9, -6)" filter="url(#Elipse_12115)">
              <g id="Elipse_12115-2" data-name="Elipse 12115" transform="translate(9 6)" fill="#ffc006" stroke="#b18603" stroke-width="2">
                <circle cx="36.5" cy="36.5" r="36.5" stroke="none"/>
                <circle cx="36.5" cy="36.5" r="35.5" fill="none"/>
              </g>
            </g>
          </g>
        </g>
      </g>
    </g>
    <g id="g1200" transform="translate(772.005 3559.572)">
      <g id="g1202" transform="translate(0 -682.665)">
        <g id="g1204" clip-path="url(#clip-path)">
          <g id="g1210" transform="translate(0.661 8.732)">
            <path id="path1212" d="M-387.158-390.636a3.815,3.815,0,0,1-3.816-3.815V-395.5h-19.59a3.977,3.977,0,0,1-3.977-3.977v-9.94a3.977,3.977,0,0,1,3.977-3.977h19.59v-1.053a3.819,3.819,0,0,1,3.816-3.815,3.826,3.826,0,0,1,2.371.829l12.578,10a3.794,3.794,0,0,1,1.44,2.985,3.794,3.794,0,0,1-1.44,2.985l-12.578,10a3.826,3.826,0,0,1-2.371.829Z" transform="translate(414.54 418.264)" fill="#f5f5f5"/>
          </g>
          <g id="g1214" transform="translate(4.037 12.109)">
            <path id="path1216" d="M-521.077-142.738l-12.578-10a.437.437,0,0,0-.709.342v3.992a.437.437,0,0,1-.437.437h-21.915a1.214,1.214,0,0,0-1.214,1.214v8.712a1.214,1.214,0,0,0,1.214,1.214H-534.8a.437.437,0,0,1,.437.437v3.992a.437.437,0,0,0,.709.342l12.578-10a.437.437,0,0,0,0-.684" transform="translate(557.931 152.834)" fill="#ffe076"/>
          </g>
          <g id="g1218" transform="translate(26.716 8.732)">
            <path id="path1220" d="M-230.116-153.11l-12.578-10a3.826,3.826,0,0,0-2.371-.829,3.8,3.8,0,0,0-1.325.238,3.819,3.819,0,0,1,1.054.592l12.578,10a3.794,3.794,0,0,1,1.44,2.985,3.794,3.794,0,0,1-1.44,2.985l-12.578,10a3.822,3.822,0,0,1-1.055.592,3.808,3.808,0,0,0,1.326.237h0a3.826,3.826,0,0,0,2.371-.829l12.578-10a3.794,3.794,0,0,0,1.44-2.985,3.794,3.794,0,0,0-1.44-2.985" transform="translate(246.391 163.938)" fill="#eee6ee"/>
          </g>
          <g id="g1222" transform="translate(27.603 12.109)">
            <path id="path1224" d="M-187.867-142.738l-12.578-10a.437.437,0,0,0-.709.342v1.195l10.645,8.463a.437.437,0,0,1,0,.684l-10.645,8.463v1.195a.437.437,0,0,0,.709.342l12.578-10a.437.437,0,0,0,0-.684" transform="translate(201.154 152.834)" fill="#ffcf5a"/>
          </g>
          <g id="g1226" transform="translate(0 8.072)">
            <path id="path1228" d="M-209.358-325.629a4.481,4.481,0,0,1-4.476-4.476v-.391h-5.243a.661.661,0,0,1-.661-.661.661.661,0,0,1,.661-.661h5.9a.661.661,0,0,1,.661.661v1.052a3.159,3.159,0,0,0,3.155,3.155,3.163,3.163,0,0,0,1.96-.686l12.578-10a3.137,3.137,0,0,0,1.191-2.468,3.137,3.137,0,0,0-1.191-2.468l-12.578-10a3.162,3.162,0,0,0-1.96-.686,3.158,3.158,0,0,0-3.155,3.154v1.053a.661.661,0,0,1-.661.661h-19.59a3.32,3.32,0,0,0-3.316,3.316v9.94a3.32,3.32,0,0,0,3.316,3.316h11.044a.661.661,0,0,1,.661.661.661.661,0,0,1-.661.661h-11.044a4.643,4.643,0,0,1-4.637-4.637v-9.94a4.643,4.643,0,0,1,4.637-4.637h18.929v-.392a4.481,4.481,0,0,1,4.476-4.475,4.488,4.488,0,0,1,2.782.973l12.578,10a4.451,4.451,0,0,1,1.69,3.5,4.451,4.451,0,0,1-1.69,3.5l-12.578,10A4.489,4.489,0,0,1-209.358-325.629Z" transform="translate(237.401 354.578)"/>
          </g>
          <g id="g1230" transform="translate(3.376 11.448)">
            <path id="path1232" d="M-72.612-61.5a1.1,1.1,0,0,1-.479-.11,1.09,1.09,0,0,1-.621-.989v-3.769H-95.4a1.877,1.877,0,0,1-1.875-1.875v-8.712A1.877,1.877,0,0,1-95.4-78.827h4.551a.661.661,0,0,1,.661.661.661.661,0,0,1-.661.661H-95.4a.554.554,0,0,0-.553.553v8.712a.554.554,0,0,0,.553.553h21.915a1.1,1.1,0,0,1,1.1,1.1v3.529l12-9.537-12-9.537V-78.6a1.1,1.1,0,0,1-1.1,1.1H-88.211a.661.661,0,0,1-.661-.661.661.661,0,0,1,.661-.661h14.5V-82.6a1.09,1.09,0,0,1,.621-.989,1.089,1.089,0,0,1,1.16.129l12.578,10a1.092,1.092,0,0,1,.415.859,1.092,1.092,0,0,1-.415.859l-12.578,10A1.092,1.092,0,0,1-72.612-61.5Z" transform="translate(97.278 83.695)"/>
          </g>
        </g>
      </g>
    </g>
  </g>
</svg>
