<svg xmlns="http://www.w3.org/2000/svg" xmlns:xlink="http://www.w3.org/1999/xlink" width="400" height="246" viewBox="0 0 400 246">
  <defs>
    <clipPath id="clip-path">
      <rect id="Rectángulo_412182" data-name="Rectángulo 412182" width="212.949" height="206.505" fill="none"/>
    </clipPath>
    <clipPath id="clip-path-3">
      <rect id="Rectángulo_412174" data-name="Rectángulo 412174" width="190.369" height="187.209" fill="none"/>
    </clipPath>
    <clipPath id="clip-path-4">
      <rect id="Rectángulo_412175" data-name="Rectángulo 412175" width="47.26" height="3.569" fill="none"/>
    </clipPath>
    <clipPath id="clip-path-5">
      <rect id="Rectángulo_412176" data-name="Rectángulo 412176" width="47.26" height="3.568" fill="none"/>
    </clipPath>
    <clipPath id="clip-path-6">
      <rect id="Rectángulo_412177" data-name="Rectángulo 412177" width="20.037" height="12.858" fill="none"/>
    </clipPath>
    <clipPath id="clip-path-7">
      <rect id="Rectángulo_412178" data-name="Rectángulo 412178" width="22.468" height="4.728" fill="none"/>
    </clipPath>
    <clipPath id="clip-path-8">
      <rect id="Rectángulo_412179" data-name="Rectángulo 412179" width="20.123" height="12.623" fill="none"/>
    </clipPath>
  </defs>
  <g id="Grupo_1189635" data-name="Grupo 1189635" transform="translate(-390.051 -4179)">
    <rect id="Rectángulo_411804" data-name="Rectángulo 411804" width="400" height="246" transform="translate(390.051 4179)" fill="#d2e4e7"/>
    <g id="Grupo_1189634" data-name="Grupo 1189634" transform="translate(472.051 4199)">
      <g id="Grupo_1189633" data-name="Grupo 1189633" clip-path="url(#clip-path)">
        <g id="Grupo_1189632" data-name="Grupo 1189632">
          <g id="Grupo_1189631" data-name="Grupo 1189631" clip-path="url(#clip-path)">
            <g id="Grupo_1189615" data-name="Grupo 1189615" transform="translate(14.744)" opacity="0.3">
              <g id="Grupo_1189614" data-name="Grupo 1189614">
                <g id="Grupo_1189613" data-name="Grupo 1189613" clip-path="url(#clip-path-3)">
                  <path id="Trazado_1053689" data-name="Trazado 1053689" d="M55.93,187.209H187.006c18.26-14.38,29.646-34.7,29.646-57.232,0-20.789-9.7-39.7-25.542-53.791a44.186,44.186,0,0,0,3.855-17.955C194.966,26.072,159.395,0,115.517,0S36.068,26.072,36.068,58.231A45.768,45.768,0,0,0,44.189,83.9c-11.265,12.965-17.906,28.879-17.906,46.079,0,22.529,11.387,42.852,29.647,57.232" transform="translate(-26.283)" fill="#91c9d1"/>
                </g>
              </g>
            </g>
            <path id="Trazado_1053690" data-name="Trazado 1053690" d="M276.381,190.332a6.78,6.78,0,0,0-6.38-4.5c-.1,0-.2.011-.3.016a11.677,11.677,0,0,0-22.875-.923,7.427,7.427,0,1,0-2.343,14.474h31.69a4.537,4.537,0,0,0,.21-9.068" transform="translate(-104.076 -77.279)" fill="#fff"/>
            <path id="Trazado_1053691" data-name="Trazado 1053691" d="M105.645,76.835a3.625,3.625,0,0,0-3.411-2.4c-.054,0-.107.006-.161.008a6.242,6.242,0,0,0-12.227-.493,3.97,3.97,0,1,0-1.252,7.736h16.939a2.425,2.425,0,0,0,.112-4.847" transform="translate(-37.153 -30.374)" fill="#fff"/>
            <path id="Trazado_1053692" data-name="Trazado 1053692" d="M90.485,166.621a3.624,3.624,0,0,0-3.411-2.4c-.054,0-.107.006-.16.008a6.242,6.242,0,0,0-12.228-.493,3.969,3.969,0,1,0-1.252,7.735H90.374a2.424,2.424,0,0,0,.112-4.846" transform="translate(-30.498 -69.794)" fill="#fff"/>
            <path id="Trazado_1053693" data-name="Trazado 1053693" d="M220.264,112.877a3.088,3.088,0,0,0-2.907-2.049c-.046,0-.091,0-.137.006a5.32,5.32,0,0,0-10.421-.42,3.383,3.383,0,1,0-1.068,6.593h14.437a2.067,2.067,0,0,0,.1-4.131" transform="translate(-88.839 -46.694)" fill="#fff"/>
            <path id="Trazado_1053694" data-name="Trazado 1053694" d="M212.949,327.107c0-2.518-22.955-4.706-56.651-5.809,4.184-.856,6.529-1.814,6.529-2.824,0-3.63-30.169-6.573-67.383-6.573s-67.383,2.943-67.383,6.573c0,1.312,3.945,2.534,10.738,3.559C15.105,323.239,0,325.064,0,327.107c0,2.234,18.061,4.207,45.656,5.394-12.722,1.162-20.456,2.693-20.456,4.371,0,3.629,36.171,6.572,80.789,6.572s80.789-2.943,80.789-6.572c0-1.665-7.61-3.185-20.147-4.341,27.969-1.185,46.319-3.171,46.319-5.423" transform="translate(0 -136.938)" fill="#98a200"/>
            <g id="Grupo_1189618" data-name="Grupo 1189618" transform="translate(123.483 186.652)" style="mix-blend-mode: multiply;isolation: isolate">
              <g id="Grupo_1189617" data-name="Grupo 1189617">
                <g id="Grupo_1189616" data-name="Grupo 1189616" clip-path="url(#clip-path-4)">
                  <path id="Trazado_1053695" data-name="Trazado 1053695" d="M267.388,334.523c0,.985-10.579,1.785-23.63,1.785s-23.63-.8-23.63-1.785,10.58-1.785,23.63-1.785,23.63.8,23.63,1.785" transform="translate(-220.128 -332.738)" fill="#bababa"/>
                </g>
              </g>
            </g>
            <g id="Grupo_1189621" data-name="Grupo 1189621" transform="translate(38.672 186.652)" style="mix-blend-mode: multiply;isolation: isolate">
              <g id="Grupo_1189620" data-name="Grupo 1189620">
                <g id="Grupo_1189619" data-name="Grupo 1189619" clip-path="url(#clip-path-5)">
                  <path id="Trazado_1053696" data-name="Trazado 1053696" d="M116.2,334.522c0,.986-10.579,1.785-23.63,1.785s-23.63-.8-23.63-1.785,10.58-1.784,23.63-1.784,23.63.8,23.63,1.784" transform="translate(-68.94 -332.738)" fill="#bababa"/>
                </g>
              </g>
            </g>
            <path id="Trazado_1053697" data-name="Trazado 1053697" d="M190.5,173.9l14.819,1.528a5.086,5.086,0,0,0,1.385-5.236c-.433-1.332-1.073-3.059-5.04-5.344-3.809-2.194-11.772-5.582-11.772-5.582Z" transform="translate(-83.371 -69.925)" fill="#e89669"/>
            <path id="Trazado_1053698" data-name="Trazado 1053698" d="M173.352,169.9a112.878,112.878,0,0,1-19.62-3.615c-14.13-5.177-2.307-17.817,3.615-16.417,8.314,1.965,18.63,7.391,18.63,7.391Z" transform="translate(-64.569 -65.75)" fill="#681914"/>
            <path id="Trazado_1053699" data-name="Trazado 1053699" d="M197.037,181.166c.463-3.095-6.581-5.094-11.363-.418s-11.526,22.145-16.575,30.574c-3.514,5.867,4.548,9.518,6.232,3.866s21.244-30.928,21.707-34.023" transform="translate(-73.856 -78.138)" fill="#e89669"/>
            <path id="Trazado_1053700" data-name="Trazado 1053700" d="M175.1,239.834c.128,1.964-5.45-2.062-5.45-2.062s-3.038-4.088-1.588-5.308,3.743-5.557,3.743-5.557l5.964,4.124s-2.8,6.838-2.67,8.8" transform="translate(-73.613 -99.622)" fill="#ece1be"/>
            <path id="Trazado_1053701" data-name="Trazado 1053701" d="M166.834,251.225l-2.609-1.525-.567-1.561,4.732,2.641Z" transform="translate(-71.853 -108.943)" fill="#49a7b5"/>
            <path id="Trazado_1053702" data-name="Trazado 1053702" d="M175.151,253.8l-11.47-8.714a7.028,7.028,0,0,0-.057,1.714c.356,1.139,3,1.894,5.582,4.021a47.979,47.979,0,0,0,5.4,3.95,18.422,18.422,0,0,0,8.569,2.381s.238-.231.016-.421c.254-.955-8.037-2.931-8.037-2.931" transform="translate(-71.819 -107.602)" fill="#002b46"/>
            <path id="Trazado_1053703" data-name="Trazado 1053703" d="M170.272,238.994c-1.528-.555-2.05-2.543-2.386-2.936-.428-.5-1.914-.231-2.238.109-.852.89-2.662,3.4-2.162,5.214.552,2,3.463,2.477,6.045,4.606,2.258,1.862,4.252,3.8,5.127,4.327,3.465,2.095,8.451,2.331,8.451,2.331s.955-2.528-.56-3.111a13.709,13.709,0,0,1-4.843-4.439c-1.751-2.492-3.715-5.4-5.464-5.975" transform="translate(-71.739 -103.518)" fill="#c2c5d2"/>
            <path id="Trazado_1053704" data-name="Trazado 1053704" d="M165.338,239.093c-.173-.278-.344-.55-.51-.824-.83,1.166-1.709,2.873-1.342,4.2.28,1.018,1.171,1.641,2.317,2.287a6.46,6.46,0,0,0-.466-5.667" transform="translate(-71.74 -104.61)" fill="#59adba"/>
            <path id="Trazado_1053705" data-name="Trazado 1053705" d="M164.442,239.307a5,5,0,0,0-.956,3.622,3.774,3.774,0,0,0,1.986,2.095c.4-1.984.42-4.234-1.029-5.717" transform="translate(-71.74 -105.066)" fill="#c2c5d2"/>
            <path id="Trazado_1053706" data-name="Trazado 1053706" d="M191.627,260.9a2.226,2.226,0,0,1-.984,1.015c-2.165,1.3-5.69-2.049-7.774-.849.125.093.238.172.337.231,3.465,2.095,8.451,2.331,8.451,2.331s.766-1.774-.03-2.728" transform="translate(-80.287 -114.504)" fill="#59adba"/>
            <path id="Trazado_1053707" data-name="Trazado 1053707" d="M169.235,236.245a17.656,17.656,0,0,1,1.584,1.869,3.617,3.617,0,0,0,3.183.87,13.748,13.748,0,0,1-1.918-.3c-1.527-.555-2.049-2.543-2.386-2.937-.428-.5-1.913-.229-2.237.11l-.053.174c.627.021,1.365-.158,1.827.214" transform="translate(-73.499 -103.383)" fill="#59adba"/>
            <g id="Grupo_1189624" data-name="Grupo 1189624" transform="translate(91.662 136.269)" style="mix-blend-mode: multiply;isolation: isolate">
              <g id="Grupo_1189623" data-name="Grupo 1189623">
                <g id="Grupo_1189622" data-name="Grupo 1189622" clip-path="url(#clip-path-6)">
                  <path id="Trazado_1053708" data-name="Trazado 1053708" d="M181.094,254.79c-2.928-.063-5.036-1.547-7.3-3.378a33.962,33.962,0,0,0-4.787-3.586,18.79,18.79,0,0,1-3.518-2.109,6.59,6.59,0,0,1-1.959-2.8,3.121,3.121,0,0,0-.044,1.594c.552,2,3.463,2.477,6.045,4.605,2.258,1.863,4.252,3.8,5.127,4.327,3.465,2.1,8.451,2.332,8.451,2.332a4.477,4.477,0,0,0,.317-1.843c-.551,1.08-1.533.87-2.334.853" transform="translate(-163.403 -242.922)" fill="#aeb1c1"/>
                </g>
              </g>
            </g>
            <path id="Trazado_1053709" data-name="Trazado 1053709" d="M176.806,242.485l.327.459c.2.3.5.719.821,1.243.165.259.34.542.526.843s.377.619.576.947l.613,1.014c.21.344.429.691.648,1.034.111.172.224.341.337.512s.229.335.348.5.233.325.355.481c.06.077.119.157.179.23s.125.147.188.214a3.47,3.47,0,0,0,.867.652,4.068,4.068,0,0,0,.913.349,4.441,4.441,0,0,0,1.465.13,3.5,3.5,0,0,0,.411-.057c.094-.02.144-.034.144-.034s-.049.016-.142.042a3.243,3.243,0,0,1-.41.079,4.473,4.473,0,0,1-1.489-.071,4.187,4.187,0,0,1-.946-.335,3.617,3.617,0,0,1-.915-.653c-.07-.071-.139-.144-.2-.218s-.124-.154-.187-.233c-.126-.154-.245-.316-.366-.478-.242-.325-.472-.668-.7-1.011-.448-.691-.867-1.4-1.253-2.062s-.739-1.289-1.052-1.818l-.427-.723-.335-.554-.3-.479" transform="translate(-77.625 -106.461)" fill="#8b92a7"/>
            <path id="Trazado_1053710" data-name="Trazado 1053710" d="M164.018,241.73l.021.061a1.722,1.722,0,0,0,.07.172,3.387,3.387,0,0,0,.375.6,7.929,7.929,0,0,0,.732.816c.3.3.659.615,1.057.952s.844.685,1.322,1.045.99.73,1.521,1.11,1.087.762,1.654,1.149l1.723,1.165c.577.391,1.155.782,1.719,1.174s1.12.784,1.617,1.213a7.674,7.674,0,0,0,1.562,1.015,4.983,4.983,0,0,0,1.591.483,2.077,2.077,0,0,0,1.354-.234.991.991,0,0,0,.371-.436,1.19,1.19,0,0,0,.091-.485,2.158,2.158,0,0,0-.14-.687c-.029-.075-.053-.135-.07-.172l-.026-.059.028.058c.019.038.044.1.076.17a2.131,2.131,0,0,1,.163.69,1.22,1.22,0,0,1-.082.5,1.044,1.044,0,0,1-.378.468,2.117,2.117,0,0,1-1.4.278,5.087,5.087,0,0,1-1.632-.467,7.82,7.82,0,0,1-1.607-1.009,19.991,19.991,0,0,0-1.613-1.2c-.565-.388-1.145-.775-1.724-1.162s-1.154-.783-1.72-1.171-1.119-.779-1.65-1.161c-1.064-.762-2.026-1.517-2.819-2.2q-.3-.259-.559-.5c-.173-.164-.334-.324-.481-.477a7.836,7.836,0,0,1-.712-.843,3.206,3.206,0,0,1-.356-.613,1.651,1.651,0,0,1-.063-.176c-.012-.041-.019-.061-.019-.061" transform="translate(-72.011 -106.13)" fill="#8b92a7"/>
            <path id="Trazado_1053711" data-name="Trazado 1053711" d="M184.1,248.616a4.654,4.654,0,0,0,3.114,1.434,17.5,17.5,0,0,1-2.586-2.9c-1.751-2.493-1.538-5.795-2.9-6.61-.52-.311-1.382.383-2.562.634.891,1.08,4.183,6.749,4.936,7.442" transform="translate(-78.661 -105.573)" fill="#6f7991"/>
            <path id="Trazado_1053712" data-name="Trazado 1053712" d="M184.187,248.834c-.71-.653-3.682-5.738-4.763-7.216-.086.024-.172.046-.261.065.891,1.08,4.183,6.749,4.936,7.442a4.651,4.651,0,0,0,3.114,1.434c-.127-.113-.254-.239-.381-.36a4.418,4.418,0,0,1-2.645-1.364" transform="translate(-78.661 -106.08)" fill="#59adba"/>
            <path id="Trazado_1053713" data-name="Trazado 1053713" d="M178.979,245.04a.38.38,0,0,1-.243-.3l-.332-1.8a.342.342,0,0,1,.234-.423l.5-.091a.346.346,0,0,1,.369.311l.332,1.806a.34.34,0,0,1-.234.422l-.5.092a.273.273,0,0,1-.126-.008m-.237-2.2a.133.133,0,0,0,0,.028l.332,1.8a.115.115,0,0,0,.008.026l.413-.076a.17.17,0,0,0,0-.027l-.332-1.806a.135.135,0,0,0-.008-.026Z" transform="translate(-78.323 -106.429)" fill="#209bab"/>
            <path id="Trazado_1053714" data-name="Trazado 1053714" d="M179.117,245.016a.249.249,0,0,1-.154-.2l-.332-1.806c-.025-.135.033-.254.13-.271l.5-.092c.1-.017.194.077.218.209l.332,1.8c.025.135-.033.254-.13.271l-.5.092a.126.126,0,0,1-.065,0m.181-2.284a.049.049,0,0,0-.024,0l-.5.092c-.042.007-.076.079-.06.17l.333,1.8c.017.1.076.145.116.138l.5-.091c.042-.008.077-.08.06-.171l-.332-1.8a.168.168,0,0,0-.093-.136" transform="translate(-78.424 -106.53)" fill="#59adba"/>
            <path id="Trazado_1053715" data-name="Trazado 1053715" d="M182.35,241.234c-.505-.2-2.938.818-3.056,1.045s.089,1.782.337,1.861a8,8,0,0,1,1.847.51c.991.483,2.384,1.749,2.455,1.511a13.119,13.119,0,0,0-.619-2.3,9.105,9.105,0,0,0-.964-2.624" transform="translate(-78.702 -105.901)" fill="#e0e1e8"/>
            <path id="Trazado_1053716" data-name="Trazado 1053716" d="M183.794,246.191h0a4.891,4.891,0,0,1-.882-.57,11.545,11.545,0,0,0-1.487-.965,4.3,4.3,0,0,0-.609-.235,7.959,7.959,0,0,0-.9-.2,3.084,3.084,0,0,1-.324-.068c-.064-.018-.117-.087-.168-.209a3.838,3.838,0,0,1-.2-1.713,6.653,6.653,0,0,1,3.088-1.075l.024.009c.194.077.491.87.99,2.652.1.357.211.714.31,1.029a3.979,3.979,0,0,1,.309,1.3.081.081,0,0,1-.063.058.183.183,0,0,1-.084-.007m-2.953-1.854a4.227,4.227,0,0,1,.622.24,11.655,11.655,0,0,1,1.5.972,4.986,4.986,0,0,0,.857.557c.031.01.041.006.041.006a4.859,4.859,0,0,0-.312-1.245c-.1-.315-.211-.673-.311-1.031a10.507,10.507,0,0,0-.938-2.6c-.505-.195-2.913.855-3,1.025a3.907,3.907,0,0,0,.2,1.639c.056.134.1.151.107.159.072.021.181.04.319.066a7.939,7.939,0,0,1,.912.207" transform="translate(-78.668 -105.867)" fill="#b1b4c3"/>
            <path id="Trazado_1053717" data-name="Trazado 1053717" d="M179.661,245.516s.47-.114.531-.109a4.544,4.544,0,0,1,.509.052,6.291,6.291,0,0,1,.7.144c.127.03.256.066.387.109s.268.081.393.135a3.072,3.072,0,0,1,.379.178,3.538,3.538,0,0,1,.342.214,3.689,3.689,0,0,1,.537.463,3.02,3.02,0,0,1,.424.539,3.1,3.1,0,0,0-.465-.5,3.627,3.627,0,0,0-.562-.4,3.381,3.381,0,0,0-.717-.314c-.132-.042-.256-.067-.389-.1s-.257-.059-.381-.08a5.91,5.91,0,0,0-.681-.089,4.069,4.069,0,0,0-.479-.016c-.059,0-.1,0-.127.006s-.265.17-.323.174a1.054,1.054,0,0,1-.077-.408" transform="translate(-78.879 -107.744)" fill="#59adba"/>
            <path id="Trazado_1053718" data-name="Trazado 1053718" d="M182.889,241.873c-.13,0-.294-.007-.43,0a4.126,4.126,0,0,0-.413.035,3.024,3.024,0,0,0-.412.082,3.259,3.259,0,0,0-.383.124,3.757,3.757,0,0,0-.633.319,3.09,3.09,0,0,0-.542.421,3.045,3.045,0,0,1,.571-.369,3.645,3.645,0,0,1,.643-.256,3.29,3.29,0,0,1,.378-.087,2.738,2.738,0,0,1,.394-.043c.139-.009.265,0,.4,0s.405.022.531.033a.824.824,0,0,0-.1-.259" transform="translate(-79.06 -106.191)" fill="#59adba"/>
            <path id="Trazado_1053719" data-name="Trazado 1053719" d="M183.724,243.665a.182.182,0,0,1-.056.185.378.378,0,0,1-.17.08l-.523.115c-.029.007-.047-.007-.054-.04l-.148-.673c-.008-.033,0-.052.033-.058l.516-.114a.582.582,0,0,1,.13-.016.233.233,0,0,1,.118.04.179.179,0,0,1,.073.109.6.6,0,0,1,.016.1.068.068,0,0,1,0,.02c0,.01,0,.022-.009.038a.279.279,0,0,0-.011.049.339.339,0,0,0,.03.036l.023.027a.06.06,0,0,1,.012.018c0,.006.006.017.01.031s.008.033.013.056m-.132-.012c-.012-.053-.068-.068-.171-.047l-.438.1.046.208.43-.094c.1-.022.147-.058.144-.108l0-.017-.008-.038m-.056-.268c0-.014-.009-.035-.017-.064-.015-.054-.075-.068-.178-.045l-.429.093.048.217.434-.095c.105-.024.153-.058.142-.106" transform="translate(-80.244 -106.75)" fill="#59adba"/>
            <path id="Trazado_1053720" data-name="Trazado 1053720" d="M184.7,243.709c.007.033,0,.053-.033.059l-.032.006a.129.129,0,0,1-.022,0c-.019,0-.031-.016-.037-.041l-.148-.673a.043.043,0,0,1,.016-.052l.019-.007a.233.233,0,0,1,.034-.008c.029-.007.047.007.054.039Z" transform="translate(-80.969 -106.685)" fill="#59adba"/>
            <path id="Trazado_1053721" data-name="Trazado 1053721" d="M185.365,243.525l-.391-.16.059.269c.007.033,0,.053-.033.059a.247.247,0,0,1-.053.007c-.018,0-.03-.016-.035-.04l-.149-.673c-.005-.025,0-.042.015-.052a.223.223,0,0,1,.05-.015c.03-.007.048.006.055.039l.057.26.238-.239.062.156-.176.13.255.1Z" transform="translate(-81.118 -106.652)" fill="#59adba"/>
            <path id="Trazado_1053722" data-name="Trazado 1053722" d="M173.552,248.749a.372.372,0,0,1-.381.164.952.952,0,0,1-.409-.172l-1.052-.712a.094.094,0,0,1-.027-.147l.8-1.185a.093.093,0,0,1,.146-.027l1.038.7a1.676,1.676,0,0,1,.239.195.56.56,0,0,1,.135.254.338.338,0,0,1-.048.274,1.434,1.434,0,0,1-.122.162.186.186,0,0,1-.037.024c-.019.01-.044.022-.074.036a.59.59,0,0,0-.1.052.693.693,0,0,0-.006.1c0,.031,0,.057,0,.077a.15.15,0,0,1-.009.044.4.4,0,0,1-.031.061c-.016.026-.038.061-.066.1m-.2-.237q.1-.141-.213-.348l-.881-.6-.249.367.864.586c.2.135.337.165.409.089a.24.24,0,0,0,.023-.03l.046-.067m.326-.467c.017-.025.04-.065.071-.118q.084-.15-.226-.36l-.861-.584-.259.382.871.59c.212.145.347.174.4.09" transform="translate(-75.365 -108.288)" fill="#59adba"/>
            <path id="Trazado_1053723" data-name="Trazado 1053723" d="M175.25,250.3a.093.093,0,0,1-.146.029c-.026-.017-.047-.032-.064-.045l-.04-.033a.093.093,0,0,1,0-.12l.8-1.184a.091.091,0,0,1,.108-.047l.042.022.07.045a.093.093,0,0,1,.028.146Z" transform="translate(-76.823 -109.275)" fill="#59adba"/>
            <path id="Trazado_1053724" data-name="Trazado 1053724" d="M177.2,251.627c-.037.054-.089.059-.156.013a.468.468,0,0,1-.121-.1l-.671-1.258-.321.473a.094.094,0,0,1-.148.029.4.4,0,0,1-.1-.078.089.089,0,0,1,0-.114l.8-1.185a.088.088,0,0,1,.1-.047.564.564,0,0,1,.108.064.093.093,0,0,1,.029.147l-.309.457,1.367.146a.68.68,0,0,1,.141.082c.066.045.081.094.045.148a.114.114,0,0,1-.116.044l-1.3-.149.64,1.2a.116.116,0,0,1,0,.125" transform="translate(-77.124 -109.479)" fill="#59adba"/>
            <path id="Trazado_1053725" data-name="Trazado 1053725" d="M180.6,253.113c-.049.072-.1.089-.166.046l-1.194-.808-.151.223c-.065.1.008.217.22.361l.876.593a.094.094,0,0,1,.027.147c-.053.078-.108.1-.166.058l-.887-.6a1.106,1.106,0,0,1-.31-.31.353.353,0,0,1-.015-.407l.457-.674a.323.323,0,0,1,.185-.132.772.772,0,0,1,.625.176l.242.164c.057.039.061.1.009.173a.093.093,0,0,1-.145.03l-.036-.025-.022-.016-.012-.007-.013-.01-.047-.034-.033-.023c-.272-.185-.441-.227-.508-.129l-.161.237,1.2.811a.1.1,0,0,1,.026.158" transform="translate(-78.491 -110.459)" fill="#59adba"/>
            <path id="Trazado_1053726" data-name="Trazado 1053726" d="M184.375,246.5a5.014,5.014,0,0,0-2.957-1.282,1.136,1.136,0,0,0-.278-.039,2.979,2.979,0,0,0,.71-.024,2.568,2.568,0,0,1,.728.067,3.442,3.442,0,0,1,1.379.505,1.086,1.086,0,0,1,.386.778" transform="translate(-79.528 -107.631)" fill="#c2c5d2"/>
            <path id="Trazado_1053727" data-name="Trazado 1053727" d="M185.22,245.315c-.1-.021-.188-.138-.276-.194a2.807,2.807,0,0,0-.316-.168,1.63,1.63,0,0,0-.723-.218,3.972,3.972,0,0,0,.93-.113c.2-.022.205.08.257.246.048.151.088.321.12.475" transform="translate(-80.742 -107.398)" fill="#c2c5d2"/>
            <path id="Trazado_1053728" data-name="Trazado 1053728" d="M180.075,244.015a2.03,2.03,0,0,1,.5-.827,1.355,1.355,0,0,1,.638-.462c-.076.112-.215.21-.308.321-.112.132-.2.271-.3.409a3.109,3.109,0,0,1-.521.545" transform="translate(-79.06 -106.567)" fill="#c2c5d2"/>
            <path id="Trazado_1053729" data-name="Trazado 1053729" d="M181.575,248.84a.524.524,0,1,1,.653-.349.525.525,0,0,1-.653.349m.2-.644a.149.149,0,1,0,.1.186.149.149,0,0,0-.1-.186" transform="translate(-79.556 -108.801)" fill="#8890a5"/>
            <path id="Trazado_1053730" data-name="Trazado 1053730" d="M181.574,248.724a.49.49,0,1,1,.611-.326.49.49,0,0,1-.611.326m.182-.6a.139.139,0,1,0,.093.173.139.139,0,0,0-.093-.173" transform="translate(-79.566 -108.779)" fill="#59adba"/>
            <path id="Trazado_1053731" data-name="Trazado 1053731" d="M181.716,248.7a.358.358,0,1,1,.447-.239.357.357,0,0,1-.447.239m.182-.6a.271.271,0,1,0,.18.338.271.271,0,0,0-.18-.338" transform="translate(-79.669 -108.883)" fill="#dc0f18"/>
            <path id="Trazado_1053732" data-name="Trazado 1053732" d="M185.836,255.137a.524.524,0,1,1,.653-.348.524.524,0,0,1-.653.348m.2-.643a.148.148,0,1,0,.1.185.148.148,0,0,0-.1-.185" transform="translate(-81.427 -111.566)" fill="#8890a5"/>
            <path id="Trazado_1053733" data-name="Trazado 1053733" d="M185.835,255.023a.49.49,0,1,1,.611-.327.491.491,0,0,1-.611.327m.182-.6a.139.139,0,1,0,.093.173.139.139,0,0,0-.093-.173" transform="translate(-81.437 -111.545)" fill="#59adba"/>
            <path id="Trazado_1053734" data-name="Trazado 1053734" d="M185.975,255a.358.358,0,1,1,.447-.24.359.359,0,0,1-.447.24m.182-.6a.27.27,0,1,0,.181.337.27.27,0,0,0-.181-.337" transform="translate(-81.539 -111.648)" fill="#dc0f18"/>
            <path id="Trazado_1053735" data-name="Trazado 1053735" d="M188.338,256.3a.269.269,0,1,1-.18-.337.269.269,0,0,1,.18.337" transform="translate(-82.457 -112.374)" fill="#8890a5"/>
            <path id="Trazado_1053736" data-name="Trazado 1053736" d="M183.847,252.49a8.214,8.214,0,0,1-1.328-1.939c.03-.061.047-.187.18-.2a.8.8,0,0,1,.417.142,15.613,15.613,0,0,1,1.4,1.868c-.059.109-.515.168-.673.126" transform="translate(-80.133 -109.916)" fill="#272228"/>
            <path id="Trazado_1053737" data-name="Trazado 1053737" d="M184.967,252.352c-.191.03-1.648-1.786-1.4-1.868a10.031,10.031,0,0,1,2.155-.141c.392.062,1.3,1.439,1.121,1.54a17.479,17.479,0,0,1-1.873.469" transform="translate(-80.58 -109.903)" fill="#272228"/>
            <path id="Trazado_1053738" data-name="Trazado 1053738" d="M184,252.33a8.206,8.206,0,0,1-1.328-1.94c.059-.122.53-.141.6-.054a14.573,14.573,0,0,1,1.315,1.838.748.748,0,0,1-.585.157" transform="translate(-80.199 -109.884)" fill="#e0e1e8"/>
            <path id="Trazado_1053739" data-name="Trazado 1053739" d="M183.949,252.337a9.159,9.159,0,0,1-1.332-1.872c-.029-.066-.035-.1-.022-.129.067-.136.437-.156.59-.111a.153.153,0,0,1,.081.048l.01.012c1.381,1.742,1.331,1.833,1.309,1.873a.764.764,0,0,1-.634.179Zm-.789-2.027c-.148-.045-.452,0-.486.065a9.342,9.342,0,0,0,1.3,1.879.754.754,0,0,0,.531-.131,13.85,13.85,0,0,0-1.3-1.782l-.01-.012s-.007-.01-.038-.019" transform="translate(-80.164 -109.85)" fill="#b1b4c3"/>
            <path id="Trazado_1053740" data-name="Trazado 1053740" d="M185.03,252.09c-.191.03-1.561-1.754-1.315-1.837a9.989,9.989,0,0,1,2.155-.141c.392.062,1.16,1.428.979,1.528a16.616,16.616,0,0,1-1.819.45" transform="translate(-80.646 -109.802)" fill="#e0e1e8"/>
            <path id="Trazado_1053741" data-name="Trazado 1053741" d="M184.962,252.1a5.139,5.139,0,0,1-1.355-1.821.091.091,0,0,1,.059-.1,9.888,9.888,0,0,1,2.177-.142c.375.057,1.006,1.139,1.042,1.47.007.071-.008.118-.048.14A15.791,15.791,0,0,1,185,252.1a.1.1,0,0,1-.041,0m-1.267-1.835a.242.242,0,0,0,.03.119,5.7,5.7,0,0,0,1.263,1.631h0a16.585,16.585,0,0,0,1.8-.445s.017-.024-.012-.131c-.111-.4-.666-1.269-.952-1.316a10.138,10.138,0,0,0-2.134.14" transform="translate(-80.611 -109.768)" fill="#b1b4c3"/>
            <path id="Trazado_1053742" data-name="Trazado 1053742" d="M185.771,252.289a2.732,2.732,0,0,0,.863-.472c.25-.234.329-.627.676-.736.065.106.112.174.162.263-.306.01-.619.448-.775.605a2.221,2.221,0,0,1-.926.34" transform="translate(-81.561 -110.235)" fill="#59adba"/>
            <path id="Trazado_1053743" data-name="Trazado 1053743" d="M183.909,250.707l1.883-.145-1.772.379Z" transform="translate(-80.744 -110.007)" fill="#c2c5d2"/>
            <path id="Trazado_1053744" data-name="Trazado 1053744" d="M184.477,251.45l1.506-.364-1.337.576Z" transform="translate(-80.993 -110.237)" fill="#c2c5d2"/>
            <path id="Trazado_1053745" data-name="Trazado 1053745" d="M190.707,258.761a.146.146,0,1,1-.1-.182.147.147,0,0,1,.1.182" transform="translate(-83.603 -113.524)" fill="#8890a5"/>
            <path id="Trazado_1053746" data-name="Trazado 1053746" d="M192.173,258.236a.146.146,0,1,1-.1-.182.145.145,0,0,1,.1.182" transform="translate(-84.246 -113.294)" fill="#8890a5"/>
            <path id="Trazado_1053747" data-name="Trazado 1053747" d="M191.9,259.126a.146.146,0,1,1-.28-.085.146.146,0,1,1,.28.085" transform="translate(-84.128 -113.684)" fill="#8890a5"/>
            <path id="Trazado_1053748" data-name="Trazado 1053748" d="M193.022,259.191a.147.147,0,0,1-.28-.085.147.147,0,1,1,.28.085" transform="translate(-84.619 -113.712)" fill="#8890a5"/>
            <path id="Trazado_1053749" data-name="Trazado 1053749" d="M191.367,260a.146.146,0,0,1-.28-.084.147.147,0,0,1,.183-.1.145.145,0,0,1,.1.182" transform="translate(-83.893 -114.067)" fill="#8890a5"/>
            <path id="Trazado_1053750" data-name="Trazado 1053750" d="M193.041,258.226a.146.146,0,1,1-.1-.182.147.147,0,0,1,.1.182" transform="translate(-84.628 -113.289)" fill="#8890a5"/>
            <path id="Trazado_1053751" data-name="Trazado 1053751" d="M191.552,260.151c1.117-.024,2.229-1.1,1.492-2,.154.1.759.606,1.154.839.473.28.931.45.993.512a1.956,1.956,0,0,0-1.134-.057c-.466.22-.114.684.169.846a6.428,6.428,0,0,1-2.674-.144" transform="translate(-84.099 -113.341)" fill="#abafbf"/>
            <path id="Trazado_1053752" data-name="Trazado 1053752" d="M178.68,278.669a.925.925,0,0,0,1.185-.555l5.826-12.127a5.836,5.836,0,0,1-1.69-.771l-5.877,12.27a.925.925,0,0,0,.556,1.184" transform="translate(-78.179 -116.441)" fill="#8c8b8b"/>
            <path id="Trazado_1053753" data-name="Trazado 1053753" d="M190.752,266.513c-.151.447-.358.779-1.182.5l-7.378-2.5c-.823-.279-.922-.716-.77-1.162s.495-.733,1.318-.453l7.378,2.5c.823.279.785.669.634,1.115" transform="translate(-79.626 -115.373)" fill="#bababa"/>
            <path id="Trazado_1053754" data-name="Trazado 1053754" d="M181.406,263.914c-.117.421.008.826.789,1.091l7.378,2.5c.78.265,1.006-.022,1.156-.431Z" transform="translate(-79.628 -115.869)" fill="#9e9e9e"/>
            <path id="Trazado_1053755" data-name="Trazado 1053755" d="M108.062,280.848a4.2,4.2,0,1,1-4.2-4.2,4.2,4.2,0,0,1,4.2,4.2" transform="translate(-43.757 -121.461)" fill="#5d5c5c"/>
            <path id="Trazado_1053756" data-name="Trazado 1053756" d="M233.767,181.834a1.509,1.509,0,0,1-1.471-1.182l-2.408-10.875a1.508,1.508,0,0,1,1.125-1.793c.043-.01,4.3-1.015,8.7-1.794,8.883-1.572,10.4-.877,11.194-.031,2.7,2.886-3.647,13.224-3.688,13.31-.982,2.068-4.328,2.734-5.331,2.889-.822.126-1.282-2.853-.459-2.98,1.332-.209,2.854-.806,3.068-1.2.838-1.765,4.894-8.522,4.274-9.841-1.686-.439-9.019.758-15.62,2.25L235.24,180a1.509,1.509,0,0,1-1.473,1.834" transform="translate(-100.915 -72.552)" fill="#bababa"/>
            <path id="Trazado_1053757" data-name="Trazado 1053757" d="M257.236,165.243c-1.8-2.446-13.134.064-13.519.863-.017.2-.033.395-.038.595a15.5,15.5,0,0,0-.008,2.478c1.011.707,9.553-1.648,10.626-.857,1.306,2.573-3.256,7.322-4.1,9.086-.214.4-1.834,1.011-3.167,1.221-.823.127.2,3.866,1.027,3.739,1-.154,4.554-.946,5.537-3.014.041-.087,6.917-9.643,3.637-14.111" transform="translate(-106.959 -72.09)" fill="#272228"/>
            <path id="Trazado_1053758" data-name="Trazado 1053758" d="M149.8,196.432l-3.042-10.237a1.4,1.4,0,0,1,2.668-.865l3.042,10.237c.239.737-2.476,1.458-2.668.866" transform="translate(-64.402 -80.942)" fill="#bababa"/>
            <line id="Línea_575" data-name="Línea 575" y1="51.304" transform="translate(60.071 134.163)" fill="none" stroke="#bababa" stroke-miterlimit="10" stroke-width="0.724"/>
            <line id="Línea_576" data-name="Línea 576" x2="51.304" transform="translate(34.419 159.815)" fill="none" stroke="#bababa" stroke-miterlimit="10" stroke-width="0.724"/>
            <line id="Línea_577" data-name="Línea 577" y1="36.277" x2="36.277" transform="translate(41.932 141.676)" fill="none" stroke="#bababa" stroke-miterlimit="10" stroke-width="0.724"/>
            <line id="Línea_578" data-name="Línea 578" x2="36.277" y2="36.277" transform="translate(41.932 141.676)" fill="none" stroke="#bababa" stroke-miterlimit="10" stroke-width="0.724"/>
            <line id="Línea_579" data-name="Línea 579" y1="47.424" x2="19.571" transform="translate(50.285 136.103)" fill="none" stroke="#bababa" stroke-miterlimit="10" stroke-width="0.724"/>
            <line id="Línea_580" data-name="Línea 580" x2="47.424" y2="19.572" transform="translate(36.359 150.029)" fill="none" stroke="#bababa" stroke-miterlimit="10" stroke-width="0.724"/>
            <line id="Línea_581" data-name="Línea 581" y1="20.023" x2="47.235" transform="translate(36.453 149.804)" fill="none" stroke="#bababa" stroke-miterlimit="10" stroke-width="0.724"/>
            <line id="Línea_582" data-name="Línea 582" x2="20.023" y2="47.235" transform="translate(50.059 136.197)" fill="none" stroke="#bababa" stroke-miterlimit="10" stroke-width="0.724"/>
            <path id="Trazado_1053759" data-name="Trazado 1053759" d="M83.413,230.131a30.247,30.247,0,1,0,30.247,30.247,30.247,30.247,0,0,0-30.247-30.247m0,55.74a25.492,25.492,0,1,1,25.492-25.493,25.492,25.492,0,0,1-25.492,25.493" transform="translate(-23.342 -101.037)" fill="#272228"/>
            <path id="Trazado_1053760" data-name="Trazado 1053760" d="M85.436,234.741A27.661,27.661,0,1,0,113.1,262.4a27.661,27.661,0,0,0-27.661-27.661m0,52.963a25.3,25.3,0,1,1,25.3-25.3,25.3,25.3,0,0,1-25.3,25.3" transform="translate(-25.366 -103.061)" fill="#181418"/>
            <path id="Trazado_1053761" data-name="Trazado 1053761" d="M86.215,236.514a26.667,26.667,0,1,0,26.667,26.666,26.666,26.666,0,0,0-26.667-26.666m0,50.9a24.231,24.231,0,1,1,24.231-24.231,24.23,24.23,0,0,1-24.231,24.231" transform="translate(-26.144 -103.84)" fill="#e8e8e8"/>
            <path id="Trazado_1053762" data-name="Trazado 1053762" d="M107.583,282.261a2.288,2.288,0,1,1-2.288-2.287,2.288,2.288,0,0,1,2.288,2.287" transform="translate(-45.225 -122.92)" fill="#a3a3a3"/>
            <path id="Trazado_1053763" data-name="Trazado 1053763" d="M107.422,282.841a1.546,1.546,0,1,1-1.546-1.545,1.546,1.546,0,0,1,1.546,1.545" transform="translate(-45.805 -123.501)" fill="#d2d1d1"/>
            <path id="Trazado_1053764" data-name="Trazado 1053764" d="M104.959,283.117a1.193,1.193,0,0,1,1.193-1.193c.659,0-1.193,1.853-1.193,1.193" transform="translate(-46.081 -123.776)" fill="#f4f4f4"/>
            <line id="Línea_583" data-name="Línea 583" y1="51.304" transform="translate(145.566 134.163)" fill="none" stroke="#bababa" stroke-miterlimit="10" stroke-width="0.724"/>
            <line id="Línea_584" data-name="Línea 584" x2="51.304" transform="translate(119.914 159.815)" fill="none" stroke="#bababa" stroke-miterlimit="10" stroke-width="0.724"/>
            <line id="Línea_585" data-name="Línea 585" y1="36.277" x2="36.277" transform="translate(127.428 141.676)" fill="none" stroke="#bababa" stroke-miterlimit="10" stroke-width="0.724"/>
            <line id="Línea_586" data-name="Línea 586" x2="36.277" y2="36.277" transform="translate(127.428 141.676)" fill="none" stroke="#bababa" stroke-miterlimit="10" stroke-width="0.724"/>
            <line id="Línea_587" data-name="Línea 587" y1="47.424" x2="19.571" transform="translate(135.781 136.103)" fill="none" stroke="#bababa" stroke-miterlimit="10" stroke-width="0.724"/>
            <line id="Línea_588" data-name="Línea 588" x2="47.424" y2="19.572" transform="translate(121.854 150.029)" fill="none" stroke="#bababa" stroke-miterlimit="10" stroke-width="0.724"/>
            <line id="Línea_589" data-name="Línea 589" y1="20.023" x2="47.235" transform="translate(121.949 149.804)" fill="none" stroke="#bababa" stroke-miterlimit="10" stroke-width="0.724"/>
            <line id="Línea_590" data-name="Línea 590" x2="20.023" y2="47.235" transform="translate(135.555 136.197)" fill="none" stroke="#bababa" stroke-miterlimit="10" stroke-width="0.724"/>
            <path id="Trazado_1053765" data-name="Trazado 1053765" d="M235.823,230.131a30.247,30.247,0,1,0,30.247,30.247,30.247,30.247,0,0,0-30.247-30.247m0,55.74a25.492,25.492,0,1,1,25.492-25.493,25.493,25.493,0,0,1-25.492,25.493" transform="translate(-90.256 -101.037)" fill="#272228"/>
            <path id="Trazado_1053766" data-name="Trazado 1053766" d="M237.846,234.741A27.661,27.661,0,1,0,265.508,262.4a27.661,27.661,0,0,0-27.661-27.661m0,52.963a25.3,25.3,0,1,1,25.3-25.3,25.3,25.3,0,0,1-25.3,25.3" transform="translate(-92.28 -103.061)" fill="#181418"/>
            <path id="Trazado_1053767" data-name="Trazado 1053767" d="M238.624,236.514a26.667,26.667,0,1,0,26.667,26.666,26.667,26.667,0,0,0-26.667-26.666m0,50.9a24.231,24.231,0,1,1,24.231-24.231,24.231,24.231,0,0,1-24.231,24.231" transform="translate(-93.058 -103.84)" fill="#e8e8e8"/>
            <path id="Trazado_1053768" data-name="Trazado 1053768" d="M259.993,282.261a2.288,2.288,0,1,1-2.288-2.287,2.288,2.288,0,0,1,2.288,2.287" transform="translate(-112.139 -122.92)" fill="#7c7b7b"/>
            <path id="Trazado_1053769" data-name="Trazado 1053769" d="M259.832,282.841a1.546,1.546,0,1,1-1.546-1.545,1.546,1.546,0,0,1,1.546,1.545" transform="translate(-112.72 -123.501)" fill="#cacaca"/>
            <path id="Trazado_1053770" data-name="Trazado 1053770" d="M257.369,283.117a1.194,1.194,0,0,1,1.194-1.193c.659,0-1.194,1.853-1.194,1.193" transform="translate(-112.996 -123.776)" fill="#f4f4f4"/>
            <path id="Trazado_1053771" data-name="Trazado 1053771" d="M165.269,250.657l-.715-1.949c-.461-1.239-1.081-3.021-1.844-5.154l-1.226-3.445-1.345-3.853c-.935-2.672-1.907-5.529-2.878-8.388l-2.825-8.405c-.9-2.683-1.724-5.192-2.427-7.344l-1.7-5.2-.274-.837a1.066,1.066,0,0,1-.084-.659,1.625,1.625,0,0,1,.426-.707,4.7,4.7,0,0,1,3.735-1.211,1.619,1.619,0,0,1,.76.324,1.056,1.056,0,0,1,.319.582l.27.839,1.672,5.209c.693,2.155,1.5,4.67,2.344,7.372l2.644,8.464c.89,2.885,1.78,5.77,2.591,8.482.407,1.355.8,2.666,1.172,3.909s.71,2.423,1.028,3.509c.633,2.174,1.177,3.982,1.531,5.255s.565,2,.565,2a1.965,1.965,0,0,1-3.735,1.211" transform="translate(-65.823 -89.333)" fill="#004a81"/>
            <path id="Trazado_1053772" data-name="Trazado 1053772" d="M107.684,278.485a7.325,7.325,0,0,0,1.682.49,13.043,13.043,0,0,0,1.951.225l2.54.144,13.65.767,7.295.342c2.327.116,4.5.2,6.365.268l4.5.163,1.709.049a1.964,1.964,0,0,1-.114,3.927c-.041,0-.088,0-.127-.008l-1.7-.16-4.49-.392c-1.858-.166-4.025-.345-6.35-.516l-7.281-.558-13.641-.917-2.539-.169a13.1,13.1,0,0,0-1.964-.016,7.33,7.33,0,0,0-1.729.279,2.118,2.118,0,1,1,.242-3.92" transform="translate(-45.946 -122.176)" fill="#004a81"/>
            <path id="Trazado_1053773" data-name="Trazado 1053773" d="M152.8,179.445c-2.933-1.081-8.878,3.859-14.281,3.782-3.066-.043-6.181-2.745-8.3-5.076-1.619-1.777-1.281-2.968.692-2.519,2.254.514,5.98.822,8.615,1.111,4.941.54,10.885-.309,13.278.617s2.933,3.165,0,2.085" transform="translate(-56.72 -77.068)" fill="#39aeb0"/>
            <g id="Grupo_1189627" data-name="Grupo 1189627" transform="translate(75.599 101.432)" style="mix-blend-mode: multiply;isolation: isolate">
              <g id="Grupo_1189626" data-name="Grupo 1189626">
                <g id="Grupo_1189625" data-name="Grupo 1189625" clip-path="url(#clip-path-7)">
                  <path id="Trazado_1053774" data-name="Trazado 1053774" d="M150.8,181.377a25.718,25.718,0,0,1-7.568,1.551c-3.186.214-5.883.335-8.467-.387,1.848,1.616,4.037,2.975,6.2,3.006,5.4.076,11.348-4.863,14.281-3.783,1.264.466,1.88.314,1.984-.083a7.68,7.68,0,0,0-6.432-.3" transform="translate(-134.768 -180.819)" fill="#e8e8e8"/>
                </g>
              </g>
            </g>
            <path id="Trazado_1053775" data-name="Trazado 1053775" d="M247.579,250.314a7.518,7.518,0,0,0-.182-2.22c-.141-.686-.4-1.5-.657-2.436l-.89-3.15c-.319-1.156-.694-2.4-1.082-3.72s-6.929-23.612-7.5-25.582.282-3.124,1.776-3.459a2.877,2.877,0,0,1,3.615,2.111c.412,1.819,5.075,24.773,5.351,26.12s.535,2.621.8,3.791l.7,3.2c.215.95.37,1.787.568,2.458a7.52,7.52,0,0,0,.885,2.044,1.864,1.864,0,1,1-3.378.845" transform="translate(-104.09 -92.05)" fill="#a3a3a3"/>
            <path id="Trazado_1053776" data-name="Trazado 1053776" d="M200.594,196.623l1.19-.188c.775-.759-.706-5.808-1.482-5.05L158.5,200.091c-.775.758.355,3.464.737,3.09,0,0,33.924-5.365,36.427-5.776s2,2.152.68,4.2l-27.085,41.873a1.964,1.964,0,1,0,3.054,2.469L201.9,201.6c.5-.615-.479-3.686-1.308-4.98" transform="translate(-69.47 -83.992)" fill="#004a81"/>
            <path id="Trazado_1053777" data-name="Trazado 1053777" d="M259.4,281.618a1.094,1.094,0,1,1-1.094-1.094,1.094,1.094,0,0,1,1.094,1.094" transform="translate(-112.928 -123.162)" fill="#bababa"/>
            <path id="Trazado_1053778" data-name="Trazado 1053778" d="M257.675,281.82a.835.835,0,0,1,.836-.835c.462,0-.836,1.3-.836.835" transform="translate(-113.13 -123.364)" fill="#e8e8e8"/>
            <path id="Trazado_1053779" data-name="Trazado 1053779" d="M152.312,280.829a7.839,7.839,0,0,1-7.84,7.839c-3.547,0-32.845-1.552-42.983-5.333-2.235-.835-2.665-3.988-2.665-4.77a5.117,5.117,0,0,1,3.441-4.057c10.3-2.644,38.681-1.52,42.206-1.52A7.84,7.84,0,0,1,152.312,280.829Z" transform="translate(-43.388 -119.749)" fill="none" stroke="#5d5c5c" stroke-linecap="round" stroke-linejoin="round" stroke-width="1" stroke-dasharray="0 1.849"/>
            <path id="Trazado_1053780" data-name="Trazado 1053780" d="M174.3,273.7a7.544,7.544,0,1,0,7.544,7.544A7.544,7.544,0,0,0,174.3,273.7m0,12a4.458,4.458,0,1,1,4.458-4.458A4.458,4.458,0,0,1,174.3,285.7" transform="translate(-73.211 -120.166)" fill="#bababa"/>
            <path id="Trazado_1053781" data-name="Trazado 1053781" d="M180.716,285.291a2.375,2.375,0,1,1-2.375-2.376,2.375,2.375,0,0,1,2.375,2.376" transform="translate(-77.256 -124.212)" fill="#bababa"/>
            <path id="Trazado_1053782" data-name="Trazado 1053782" d="M180.567,285.826a1.692,1.692,0,1,1-1.692-1.692,1.692,1.692,0,0,1,1.692,1.692" transform="translate(-77.791 -124.747)" fill="#9e9e9e"/>
            <path id="Trazado_1053783" data-name="Trazado 1053783" d="M174.771,285.953a.925.925,0,0,0-1.2.511l-6.274,11.9a5.854,5.854,0,0,1,1.659.834l6.33-12.043a.925.925,0,0,0-.512-1.2" transform="translate(-73.449 -125.516)" fill="#8c8b8b"/>
            <path id="Trazado_1053784" data-name="Trazado 1053784" d="M170.73,308.521c-.151.446-.358.779-1.182.5l-7.378-2.5c-.823-.279-.921-.717-.77-1.162s.495-.733,1.318-.453l7.378,2.5c.823.279.785.669.634,1.115" transform="translate(-70.835 -133.816)" fill="#bababa"/>
            <path id="Trazado_1053785" data-name="Trazado 1053785" d="M161.383,305.921c-.117.421.008.827.789,1.092l7.378,2.5c.78.265,1.007-.022,1.157-.431Z" transform="translate(-70.838 -134.312)" fill="#9e9e9e"/>
            <path id="Trazado_1053786" data-name="Trazado 1053786" d="M235.379,201.527a1.1,1.1,0,0,1-1.269-.774c-.342-.982-2.038-11.816-2.038-11.816-.28-1.2,4.514-2.849,4.793-1.649,0,0,2.891,10.87,3.1,11.619a1.5,1.5,0,0,1-.441,1.361Z" transform="translate(-101.884 -82.044)" fill="#003c68"/>
            <path id="Trazado_1053787" data-name="Trazado 1053787" d="M232.23,187.706a.568.568,0,0,1-.673-.489c-.068-.413-.176-1.6-.176-1.6-.018-.239-.194-.99.369-1.14s3.352-.954,4.107-1.139c.59-.143.758.176.835.661.125.783.078.75.167,1.516s-.269.993-.269.993-4.132,1.136-4.361,1.195" transform="translate(-101.569 -80.479)" fill="#a3a3a3"/>
            <path id="Trazado_1053788" data-name="Trazado 1053788" d="M148.759,205.059a.772.772,0,0,1-.91-.435c-.137-.407-.418-1.579-.418-1.579-.052-.237-.366-.972.326-1.166s4.115-1.218,5.047-1.462c.727-.19.979.115,1.136.592.254.77.19.743.4,1.5s-.217,1.013-.217,1.013-5.079,1.461-5.362,1.538" transform="translate(-64.678 -87.966)" fill="#a3a3a3"/>
            <path id="Trazado_1053789" data-name="Trazado 1053789" d="M268.054,164.94l.875-.412a5.66,5.66,0,0,1,.768-1.082c.27-.205.918.3,1.791.878.905.6.712,2.557.411,3.1s-3.094,1.935-3.094,1.935-.077-2.925-.4-3.239a2.273,2.273,0,0,1-.356-1.181" transform="translate(-117.687 -71.739)" fill="#1f1a1f"/>
            <path id="Trazado_1053790" data-name="Trazado 1053790" d="M271.261,170.3a8.062,8.062,0,0,0-.1,1.066c0,.444.928,3.158.731,4.056s-.895,1.831-.84,2.343c.06.564.719.269.753.438.075.366-.51.757-.51.757s-1.117.033-1.2-.78.726-1.669.645-2.762a15.626,15.626,0,0,0-.559-3.459,3.615,3.615,0,0,1,.122-1.821Z" transform="translate(-118.578 -74.699)" fill="#1f1a1f"/>
            <path id="Trazado_1053791" data-name="Trazado 1053791" d="M105.11,250.1a13.581,13.581,0,0,0,1.461-1.352c.436-.452.938-1.021,1.484-1.7s1.115-1.473,1.754-2.329c1.276-1.714,2.748-3.725,4.31-5.892s3.205-4.495,4.86-6.814,3.289-4.655,4.858-6.816,3-4.2,4.286-5.91c.64-.855,1.213-1.649,1.748-2.334l1.372-1.78c.771-.979,1.223-1.53,1.223-1.53a1.965,1.965,0,0,1,3.14,2.357s-.4.588-1.128,1.6l-1.326,1.815c-.508.7-1.109,1.477-1.752,2.33-1.279,1.711-2.84,3.656-4.476,5.767s-3.416,4.337-5.187,6.569l-5.185,6.57c-1.644,2.105-3.164,4.08-4.453,5.785-.643.853-1.248,1.623-1.746,2.335s-.9,1.355-1.214,1.9a13.562,13.562,0,0,0-.889,1.781,2.045,2.045,0,1,1-3.141-2.357" transform="translate(-45.789 -93.485)" fill="#004a81"/>
            <path id="Trazado_1053792" data-name="Trazado 1053792" d="M108.72,281.309a.785.785,0,1,1-.785-.785.785.785,0,0,1,.785.785" transform="translate(-47.043 -123.162)" fill="#bababa"/>
            <path id="Trazado_1053793" data-name="Trazado 1053793" d="M236.616,67.285a27.475,27.475,0,0,0-.878,4.09,14.491,14.491,0,0,0,.873,5.874c.163.4.814,1.609-.23,1.4a4.632,4.632,0,0,0-2.2-.121,5.842,5.842,0,0,0-.63,1.428c-.277.938-.741,1.638-1.092,2.536-.852,2.177-1.092,4.018-3.217,5.133-2.349,1.233-6.949-1.087-11.289-.21s-9.042,5.726-9.042,5.726L204.167,78.9s5.047-2.6,6.178-4.993.5-9.019.5-9.019,26.245.479,25.774,2.394" transform="translate(-89.638 -28.49)" fill="#f9ab78"/>
            <path id="Trazado_1053794" data-name="Trazado 1053794" d="M209.262,66.928s3.589,1.171,6.242-.624c-1.17-.468-.257-6.116,2.185-6.32,2.809-.233,1.561,4.876,1.561,4.876l1.482-.7s2.265-3.787,4.838-4.8c4-1.573,12.639-1.171,13.42-1.794s.7-2.5.7-2.5-3.279-11.1-15.553-11.781c-2.925-2.036-8.608,1.47-11.06,4.278s-2.8,6.967-2.958,10c-.179,3.35.712,4.7.2,6.592a22.678,22.678,0,0,1-1.056,2.769" transform="translate(-91.875 -18.739)" fill="#562c0c"/>
            <path id="Trazado_1053795" data-name="Trazado 1053795" d="M216.083,74.481l6.747,9.238,1.423-.41-6.78-9.866Z" transform="translate(-94.87 -32.245)" fill="#312b33"/>
            <path id="Trazado_1053796" data-name="Trazado 1053796" d="M209.926,75.02s6.663-.415,6.371-1.652-.977-.821-.977-.821l-5.315-.509Z" transform="translate(-92.166 -31.628)" fill="#bababa"/>
            <path id="Trazado_1053797" data-name="Trazado 1053797" d="M209.926,74.742a10.441,10.441,0,0,0,1.819-1.145c.391-.413,0-1.147,0-1.147L209.927,71.4Z" transform="translate(-92.166 -31.35)" fill="#939292"/>
            <path id="Trazado_1053798" data-name="Trazado 1053798" d="M209.229,74.586c0,.511.174.926.391.926s.393-.414.393-.926-.175-.926-.392-.926-.392.415-.392.926" transform="translate(-91.86 -32.34)" fill="#e13510"/>
            <path id="Trazado_1053799" data-name="Trazado 1053799" d="M231.35,103.546l.365-.031.253-.537a3.2,3.2,0,0,0-.042-.8c-.235-.359-.749-.172-.749-.172Z" transform="translate(-101.496 -44.763)" fill="#252026"/>
            <path id="Trazado_1053800" data-name="Trazado 1053800" d="M227.619,90.633l.766,5.373,1.55-.132-.638-5.386Z" transform="translate(-99.934 -39.728)" fill="#312b33"/>
            <path id="Trazado_1053801" data-name="Trazado 1053801" d="M228.11,82.253l5.538-12.122,1.908-.027L229.569,82.27Z" transform="translate(-100.15 -30.779)" fill="#312b33"/>
            <path id="Trazado_1053802" data-name="Trazado 1053802" d="M227.117,90.4a.8.8,0,0,0,.866.728l.852-.073a.8.8,0,0,0-.138-1.594l-.852.074A.8.8,0,0,0,227.117,90.4Z" transform="translate(-99.712 -39.277)" fill="none" stroke="#e13510" stroke-miterlimit="10" stroke-width="0.943"/>
            <path id="Trazado_1053803" data-name="Trazado 1053803" d="M228.894,100.532a.518.518,0,0,0,.6.4l.6-.053a.464.464,0,1,0-.079-.9l-.6.051A.519.519,0,0,0,228.894,100.532Z" transform="translate(-100.493 -43.895)" fill="none" stroke="#312b33" stroke-miterlimit="10" stroke-width="0.597"/>
            <path id="Trazado_1053804" data-name="Trazado 1053804" d="M229.633,103.676l-.365.031-.341-.486a3.2,3.2,0,0,1-.1-.8c.17-.394.709-.3.709-.3Z" transform="translate(-100.462 -44.834)" fill="#252026"/>
            <path id="Trazado_1053805" data-name="Trazado 1053805" d="M229,102.892s.255-.015.257-.433a5.965,5.965,0,0,0-.141-1.057l.763-.066h.008l.763-.067a5.943,5.943,0,0,0,.042,1.066c.075.411.328.383.328.383s.071.762.082.884a.337.337,0,0,1-.323.335l-.662.057h-.008l-.662.058a.336.336,0,0,1-.376-.275c-.01-.122-.071-.884-.071-.884" transform="translate(-100.542 -44.461)" fill="#312b33"/>
            <path id="Trazado_1053806" data-name="Trazado 1053806" d="M205.194,60.477c.667,2.055,1.811,9.112,7.469,8.236,1.371-.213,5.394-1.923,7.655-1.868s17.184,1.994,18.2-1.153c-4.652-3.024-27.743-5.085-33.32-5.215" transform="translate(-90.089 -26.552)" fill="#272228"/>
            <path id="Trazado_1053807" data-name="Trazado 1053807" d="M235.841,55.263c-1.2.926-11.442.047-18.413-.45-7.154-.51-18-6.346-17.916-7.221s2.221-2.155,2.221-2.155a14.172,14.172,0,0,1-.1-4.6c.182-.754,2.345-.252,4.5-1.042,2.845-1.043,6.163-3.311,9.718-3.536,6.4-.4,13.456,4.194,15.926,8.495,2.61,4.543,5.267,9.588,4.071,10.515" transform="translate(-87.593 -15.906)" fill="#b2251e"/>
            <path id="Trazado_1053808" data-name="Trazado 1053808" d="M239.12,62.447s-12.656,1.191-14.576.568-10.407-3.692-10.407-3.692,9.605,1.248,11.4,1.664,13.58,1.46,13.58,1.46" transform="translate(-94.015 -26.045)" fill="#821e16"/>
            <path id="Trazado_1053809" data-name="Trazado 1053809" d="M237.65,57.79s-9.583-2.171-14.08-3.276C220.414,53.739,210.79,52,210.79,52s9.349-1.353,13.643.075,13.217,5.72,13.217,5.72" transform="translate(-92.546 -22.574)" fill="#821e16"/>
            <path id="Trazado_1053810" data-name="Trazado 1053810" d="M251.856,55.094a21.826,21.826,0,0,0-3.315-3.774,43.787,43.787,0,0,0-5.395-3.1s6.37.7,7.343,2.24a14.584,14.584,0,0,1,1.366,4.637" transform="translate(-106.752 -21.169)" fill="#821e16"/>
            <path id="Trazado_1053811" data-name="Trazado 1053811" d="M230,45.694s-4.9-3.106-6.813-3.521-6.549.364-6.549.364a15.243,15.243,0,0,1,8.013-3.318c4.31-.241,10.662,4.3,10.662,4.3l-8.336-1.438Z" transform="translate(-95.112 -17.215)" fill="#821e16"/>
            <path id="Trazado_1053812" data-name="Trazado 1053812" d="M142.191,164.547c-5.9,0-12.944-4.585-12.944-10.759a39.826,39.826,0,0,1,1.513-10.926s22.08-2.145,22.69,1.009c.6,3.082-1.5,9.969-1.5,9.969s-1.522,8.522-9.76,10.707" transform="translate(-56.745 -62.41)" fill="#8e1d19"/>
            <path id="Trazado_1053813" data-name="Trazado 1053813" d="M208.5,103.287,197.277,88.572l4.33-1.91,9.362,14.358Z" transform="translate(-86.613 -38.049)" fill="#b2251e"/>
            <path id="Trazado_1053814" data-name="Trazado 1053814" d="M179.817,104.618c.178-3.866-7.638-13.582-11.224-14.714-7.116-2.311-36.817,14.967-36.648,29.929,0,2.69,22.858,3.026,22.69,1.009.5-8.741,22-2.606,25.183-16.223" transform="translate(-57.929 -39.379)" fill="#ca3020"/>
            <path id="Trazado_1053815" data-name="Trazado 1053815" d="M150.915,190.387l7.978,12.086,11.234-1.765a20.626,20.626,0,0,0-1.6-7.025c-1.619-4.087-7.249-14.578-7.249-14.578Z" transform="translate(-66.258 -78.635)" fill="#f9ab78"/>
            <path id="Trazado_1053816" data-name="Trazado 1053816" d="M168.825,215.763c-.139-3.126-7.434-3.74-11.233,1.764s-5.9,24.481-9.243,33.721c-2.326,6.431,6.286,8.471,6.857,2.6s13.759-34.961,13.62-38.087" transform="translate(-64.957 -93.689)" fill="#f9ab78"/>
            <path id="Trazado_1053817" data-name="Trazado 1053817" d="M155.285,281.606c.5,1.9-5.744-.981-5.744-.981s-3.763-3.431-2.574-4.906,2.61-6.171,2.61-6.171l7.036,2.782s-1.83,7.371-1.328,9.275" transform="translate(-64.423 -118.343)" fill="#ece1be"/>
            <path id="Trazado_1053818" data-name="Trazado 1053818" d="M145.1,182.477s-8.428-11.144-13.6-19.7c-5.782-13.894,13.267-15.169,15.715-9.6s9.228,21.2,9.228,21.2Z" transform="translate(-57.258 -65.896)" fill="#8e1d19"/>
            <path id="Trazado_1053819" data-name="Trazado 1053819" d="M146.533,294.629l-2.622-1.492-.583-1.555,4.754,2.586Z" transform="translate(-62.927 -128.017)" fill="#49a7b5"/>
            <path id="Trazado_1053820" data-name="Trazado 1053820" d="M154.878,297.107l-11.552-8.573a7,7,0,0,0-.037,1.71c.369,1.134,3.016,1.859,5.618,3.955a47.91,47.91,0,0,0,5.434,3.884,18.414,18.414,0,0,0,8.584,2.284s.234-.233.012-.421c.243-.957-8.059-2.839-8.059-2.839" transform="translate(-62.889 -126.679)" fill="#002b46"/>
            <path id="Trazado_1053821" data-name="Trazado 1053821" d="M149.873,282.346c-1.533-.537-2.076-2.516-2.417-2.906-.433-.495-1.912-.208-2.233.135-.84.9-2.62,3.427-2.1,5.231.574,1.994,3.487,2.436,6.089,4.532,2.276,1.834,4.288,3.746,5.168,4.263,3.483,2.055,8.465,2.235,8.465,2.235s.924-2.536-.594-3.1a13.674,13.674,0,0,1-4.885-4.379c-1.777-2.47-3.77-5.353-5.523-5.906" transform="translate(-62.796 -122.57)" fill="#c2c5d2"/>
            <path id="Trazado_1053822" data-name="Trazado 1053822" d="M144.935,282.519c-.176-.275-.35-.546-.518-.816-.816,1.174-1.674,2.887-1.294,4.213.291,1.013,1.188,1.626,2.339,2.258a6.452,6.452,0,0,0-.527-5.654" transform="translate(-62.796 -123.679)" fill="#49a7b5"/>
            <path id="Trazado_1053823" data-name="Trazado 1053823" d="M144.038,282.746a5,5,0,0,0-.915,3.628,3.77,3.77,0,0,0,2.006,2.069c.381-1.985.372-4.233-1.091-5.7" transform="translate(-62.796 -124.137)" fill="#c2c5d2"/>
            <path id="Trazado_1053824" data-name="Trazado 1053824" d="M171.4,304.01a2.215,2.215,0,0,1-.972,1.024c-2.147,1.32-5.7-1.982-7.772-.761.126.091.241.169.339.227,3.483,2.054,8.465,2.235,8.465,2.235s.746-1.78-.061-2.725" transform="translate(-71.413 -133.467)" fill="#49a7b5"/>
            <path id="Trazado_1053825" data-name="Trazado 1053825" d="M148.768,279.633a17.727,17.727,0,0,1,1.6,1.848,3.606,3.606,0,0,0,3.189.834,13.545,13.545,0,0,1-1.92-.278c-1.531-.536-2.075-2.515-2.415-2.905-.432-.495-1.913-.208-2.233.135l-.05.173c.626.014,1.363-.171,1.827.194" transform="translate(-64.513 -122.434)" fill="#49a7b5"/>
            <g id="Grupo_1189630" data-name="Grupo 1189630" transform="translate(80.236 160.644)" style="mix-blend-mode: multiply;isolation: isolate">
              <g id="Grupo_1189629" data-name="Grupo 1189629">
                <g id="Grupo_1189628" data-name="Grupo 1189628" clip-path="url(#clip-path-8)">
                  <path id="Trazado_1053826" data-name="Trazado 1053826" d="M160.82,298.031c-2.924-.03-5.046-1.489-7.325-3.292a34.02,34.02,0,0,0-4.82-3.528,18.76,18.76,0,0,1-3.537-2.065,6.581,6.581,0,0,1-1.987-2.771,3.116,3.116,0,0,0-.027,1.592c.574,1.994,3.486,2.435,6.089,4.532,2.276,1.834,4.288,3.745,5.168,4.263,3.483,2.054,8.465,2.235,8.465,2.235a4.473,4.473,0,0,0,.3-1.845c-.539,1.084-1.521.886-2.321.878" transform="translate(-143.033 -286.375)" fill="#aeb1c1"/>
                </g>
              </g>
            </g>
            <path id="Trazado_1053827" data-name="Trazado 1053827" d="M156.393,285.791l.326.459c.21.291.505.709.837,1.227s.72,1.121,1.119,1.777.84,1.345,1.284,2.03c.229.338.457.677.694,1,.252.317.467.64.735.918a3.764,3.764,0,0,0,1.786.977,4.435,4.435,0,0,0,1.464.114,2.871,2.871,0,0,0,.554-.1,2.934,2.934,0,0,1-.55.122,4.4,4.4,0,0,1-1.487-.053,3.862,3.862,0,0,1-1.872-.967,11.618,11.618,0,0,1-.756-.92c-.242-.324-.476-.663-.709-1-.9-1.373-1.713-2.8-2.348-3.848-.32-.523-.58-.964-.777-1.264l-.3-.477" transform="translate(-68.663 -125.474)" fill="#8b92a7"/>
            <path id="Trazado_1053828" data-name="Trazado 1053828" d="M143.615,285.18l.094.232a3.517,3.517,0,0,0,.381.592,12.364,12.364,0,0,0,1.806,1.746c.806.662,1.786,1.385,2.859,2.124s2.241,1.5,3.4,2.267,2.336,1.521,3.351,2.353a6.279,6.279,0,0,0,3.172,1.453,2.088,2.088,0,0,0,1.35-.249,1.037,1.037,0,0,0,.452-.924,2.182,2.182,0,0,0-.146-.685l-.1-.229.1.227a2.186,2.186,0,0,1,.167.687,1.08,1.08,0,0,1-.447.971,2.1,2.1,0,0,1-1.39.293,6.389,6.389,0,0,1-3.242-1.446c-1.014-.814-2.205-1.542-3.366-2.309a70.637,70.637,0,0,1-6.229-4.459,10.96,10.96,0,0,1-1.769-1.8,3.493,3.493,0,0,1-.364-.608l-.086-.234" transform="translate(-63.053 -125.206)" fill="#8b92a7"/>
            <path id="Trazado_1053829" data-name="Trazado 1053829" d="M163.752,291.813a4.639,4.639,0,0,0,3.125,1.4,17.4,17.4,0,0,1-2.614-2.867c-1.777-2.469-1.6-5.768-2.971-6.568-.523-.305-1.376.4-2.551.662.9,1.069,4.253,6.693,5.012,7.375" transform="translate(-69.694 -124.556)" fill="#6f7991"/>
            <path id="Trazado_1053830" data-name="Trazado 1053830" d="M163.836,292.047c-.716-.644-3.741-5.69-4.837-7.152-.085.024-.171.047-.26.067.9,1.069,4.253,6.693,5.012,7.376a4.641,4.641,0,0,0,3.125,1.4c-.127-.112-.256-.236-.384-.355a4.415,4.415,0,0,1-2.656-1.333" transform="translate(-69.694 -125.081)" fill="#49a7b5"/>
            <path id="Trazado_1053831" data-name="Trazado 1053831" d="M158.595,288.311a.381.381,0,0,1-.246-.3l-.351-1.8a.342.342,0,0,1,.229-.425l.5-.1a.348.348,0,0,1,.372.307l.352,1.8a.341.341,0,0,1-.229.425l-.5.1a.267.267,0,0,1-.126-.007m-.26-2.193a.135.135,0,0,0,0,.027l.352,1.8a.114.114,0,0,0,.008.026l.412-.08a.124.124,0,0,0,0-.027l-.352-1.8a.1.1,0,0,0-.008-.026Z" transform="translate(-69.364 -125.428)" fill="#209bab"/>
            <path id="Trazado_1053832" data-name="Trazado 1053832" d="M158.733,288.289a.25.25,0,0,1-.155-.2l-.352-1.8c-.026-.135.03-.255.126-.274l.5-.1c.1-.019.195.074.22.2l.351,1.8c.026.134-.029.254-.127.273l-.5.1a.138.138,0,0,1-.064,0m.156-2.284a.043.043,0,0,0-.024,0l-.5.1c-.042.008-.076.081-.058.171l.352,1.8c.019.1.077.144.117.136l.5-.1c.042-.009.076-.08.058-.171l-.352-1.8a.168.168,0,0,0-.094-.135" transform="translate(-69.465 -125.529)" fill="#59adba"/>
            <path id="Trazado_1053833" data-name="Trazado 1053833" d="M162.084,284.456c-.508-.193-2.731.841-2.846,1.07s.175,1.683.425,1.759a10.142,10.142,0,0,1,1.589.592c.995.471,2.4,1.72,2.469,1.481a13.217,13.217,0,0,0-.645-2.293,9.076,9.076,0,0,0-.992-2.609" transform="translate(-69.9 -124.878)" fill="#e0e1e8"/>
            <path id="Trazado_1053834" data-name="Trazado 1053834" d="M163.64,289.4h0a3.131,3.131,0,0,1-.947-.57,11.442,11.442,0,0,0-1.495-.946,9.719,9.719,0,0,0-1.5-.565l-.082-.025c-.068-.02-.133-.106-.2-.263a3.352,3.352,0,0,1-.251-1.558,6.546,6.546,0,0,1,2.722-1.118.51.51,0,0,1,.18.027c.2.073.5.863,1.018,2.637.1.355.219.709.321,1.022a3.972,3.972,0,0,1,.324,1.3.086.086,0,0,1-.088.061m-1.754-4.957a6.67,6.67,0,0,0-2.644,1.07A3.469,3.469,0,0,0,159.5,287c.078.18.131.208.145.213l.081.024a9.85,9.85,0,0,1,1.513.569,11.63,11.63,0,0,1,1.507.954,3.866,3.866,0,0,0,.9.554h.007a4.871,4.871,0,0,0-.326-1.241c-.1-.314-.218-.67-.322-1.024a10.457,10.457,0,0,0-.965-2.58.423.423,0,0,0-.148-.022" transform="translate(-69.866 -124.844)" fill="#b1b4c3"/>
            <path id="Trazado_1053835" data-name="Trazado 1053835" d="M154.142,289.161c-.8.108-1.789-1.747-.915-1.878a17.064,17.064,0,0,1,2.727-.178,3.2,3.2,0,0,1,.49,1.534,9.031,9.031,0,0,1-2.3.522" transform="translate(-67.123 -126.044)" fill="#0f304b"/>
            <path id="Trazado_1053836" data-name="Trazado 1053836" d="M154.416,288.832c-.8.108-1.881-1.583-1.008-1.714a26.4,26.4,0,0,1,2.82-.343,3.54,3.54,0,0,1,.317,1.654,8.57,8.57,0,0,1-2.129.4" transform="translate(-67.21 -125.903)" fill="#e0e1e8"/>
            <path id="Trazado_1053837" data-name="Trazado 1053837" d="M154.307,288.847a1.685,1.685,0,0,1-1.3-1.348.39.39,0,0,1,.36-.458c1-.15,2.38-.351,2.746-.351a.261.261,0,0,1,.1.011c.024.009.079.03.171.348a3.38,3.38,0,0,1,.166,1.373,5.516,5.516,0,0,1-1.848.378l-.31.042a.559.559,0,0,1-.081.006m1.807-2.069c-.4,0-2.1.254-2.733.349a.3.3,0,0,0-.286.365c.039.523.754,1.335,1.281,1.263l.31-.041a7.375,7.375,0,0,0,1.789-.344,1.853,1.853,0,0,0-.054-.747,2.478,2.478,0,0,0-.246-.841.34.34,0,0,0-.062,0" transform="translate(-67.176 -125.869)" fill="#b1b4c3"/>
            <path id="Trazado_1053838" data-name="Trazado 1053838" d="M156.672,288.7c-.03.022-.163.416-.2.434a3.081,3.081,0,0,1-2.071.3,3.882,3.882,0,0,1-1-.565c.255.44.74.863,1.154.807a8.57,8.57,0,0,0,2.129-.4,1.3,1.3,0,0,0-.013-.577" transform="translate(-67.35 -126.752)" fill="#bfc2cf"/>
            <path id="Trazado_1053839" data-name="Trazado 1053839" d="M153.175,287.853a1.476,1.476,0,0,1,.157-.033,2.26,2.26,0,0,1,.405-.022,2.382,2.382,0,0,1,.555.1,3.691,3.691,0,0,1,.582.253,2.131,2.131,0,0,0,.57.2,2.7,2.7,0,0,0,.533.037c.157-.007.289-.016.381-.029l.144-.016-.143.028c-.09.02-.221.039-.38.058a2.72,2.72,0,0,1-.548,0,2.221,2.221,0,0,1-.61-.165,3.522,3.522,0,0,0-.572-.2,1.559,1.559,0,0,0-.272-.043,2.022,2.022,0,0,0-.243-.008,2.061,2.061,0,0,0-.356.048,1.417,1.417,0,0,0-.2.079c-.07-.207-.008-.292-.008-.292" transform="translate(-67.239 -126.355)" fill="#59adba"/>
            <path id="Trazado_1053840" data-name="Trazado 1053840" d="M159.672,288.713a2.542,2.542,0,0,1,.31-.047,4.611,4.611,0,0,1,.509.047,6.168,6.168,0,0,1,.7.136c.127.029.257.063.388.1s.268.077.393.128a2.952,2.952,0,0,1,.38.176,3.278,3.278,0,0,1,.344.209,3.629,3.629,0,0,1,.541.456,3.047,3.047,0,0,1,.43.534,3.038,3.038,0,0,0-.471-.491,3.583,3.583,0,0,0-.565-.4,3.162,3.162,0,0,0-.347-.172,2.757,2.757,0,0,0-.374-.134c-.132-.04-.257-.065-.389-.094s-.257-.056-.382-.075a6.009,6.009,0,0,0-.68-.082,4.465,4.465,0,0,0-.478-.01c-.059,0-.1.005-.127.006l-.048,0a1.378,1.378,0,0,1-.135-.3" transform="translate(-70.103 -126.736)" fill="#59adba"/>
            <path id="Trazado_1053841" data-name="Trazado 1053841" d="M162.47,285.09c-.13,0-.294,0-.43.009a4.124,4.124,0,0,0-.412.039,3.026,3.026,0,0,0-.41.087,3.357,3.357,0,0,0-.382.128,3.694,3.694,0,0,0-.629.326,3.022,3.022,0,0,0-.536.427,3.023,3.023,0,0,1,.567-.376,3.726,3.726,0,0,1,.639-.263,3.412,3.412,0,0,1,.376-.09,2.722,2.722,0,0,1,.393-.048c.138-.011.265-.007.4-.008s.405.017.531.027a.829.829,0,0,0-.108-.258" transform="translate(-70.102 -125.166)" fill="#59adba"/>
            <path id="Trazado_1053842" data-name="Trazado 1053842" d="M153.551,288.375c.04.145.229.274.335.375a2.118,2.118,0,0,0,.42.35,1.331,1.331,0,0,0,1.049-.031c.13-.043.267-.1.388-.155-.063-.033-.176,0-.249,0-.109-.006-.223-.014-.335-.012a2.308,2.308,0,0,1-.587-.031,2.241,2.241,0,0,1-.541-.258,2.391,2.391,0,0,0-.257-.135.7.7,0,0,1-.24-.116" transform="translate(-67.407 -126.602)" fill="#c2c5d2"/>
            <path id="Trazado_1053843" data-name="Trazado 1053843" d="M157.216,288.066a1.055,1.055,0,0,1-.5-.008,1.881,1.881,0,0,1-.475-.13,2.037,2.037,0,0,0-1.171-.314c.177-.019.352-.1.533-.118a2.686,2.686,0,0,1,.522.047c.184.025.358.1.543.136.144.027.38-.026.486.083.061.063.125.241.073.307" transform="translate(-68.082 -126.222)" fill="#c2c5d2"/>
            <path id="Trazado_1053844" data-name="Trazado 1053844" d="M156.737,287.137a2.249,2.249,0,0,0,.3-.017,2.7,2.7,0,0,1,.344.023c.1.019.2.053.3.076s.179.045.163-.079a.322.322,0,0,0-.137-.245.621.621,0,0,0-.3.018,2.919,2.919,0,0,0-.563.129.233.233,0,0,0-.077.035" transform="translate(-68.814 -125.952)" fill="#c2c5d2"/>
            <path id="Trazado_1053845" data-name="Trazado 1053845" d="M163.318,286.888a.181.181,0,0,1-.053.184.378.378,0,0,1-.169.083l-.521.12c-.029.007-.048-.006-.055-.039l-.155-.67c-.007-.033,0-.053.031-.059l.514-.12a.573.573,0,0,1,.128-.016.225.225,0,0,1,.119.038.174.174,0,0,1,.074.108.814.814,0,0,1,.018.1.1.1,0,0,1,0,.021c0,.01-.005.023-.008.037a.055.055,0,0,0,.019.085c.01.011.019.02.024.027a.094.094,0,0,1,.012.019.222.222,0,0,1,.01.03.555.555,0,0,1,.015.057m-.132-.011c-.012-.053-.069-.068-.171-.045l-.436.1.047.208.429-.1c.1-.022.146-.059.143-.109,0,0,0-.009,0-.018s-.005-.022-.008-.038m-.058-.268c0-.013-.01-.035-.018-.063-.017-.053-.076-.068-.179-.044l-.426.1.05.215.431-.1q.158-.036.141-.108" transform="translate(-71.284 -125.729)" fill="#59adba"/>
            <path id="Trazado_1053846" data-name="Trazado 1053846" d="M164.287,286.925c.008.034,0,.053-.031.06l-.033.006-.021,0c-.019,0-.031-.015-.037-.04l-.156-.67a.044.044,0,0,1,.016-.052.071.071,0,0,1,.019-.007.2.2,0,0,1,.034-.009c.029-.006.047.007.054.04Z" transform="translate(-72.006 -125.66)" fill="#59adba"/>
            <path id="Trazado_1053847" data-name="Trazado 1053847" d="M164.954,286.733l-.393-.154.062.267q.012.051-.032.061a.212.212,0,0,1-.053.007.044.044,0,0,1-.035-.039l-.155-.67a.043.043,0,0,1,.015-.051.151.151,0,0,1,.05-.016c.03-.007.048.006.056.039l.059.258.236-.242.063.155-.174.132.256.1Z" transform="translate(-72.155 -125.626)" fill="#59adba"/>
            <path id="Trazado_1053848" data-name="Trazado 1053848" d="M153.225,292.075a.372.372,0,0,1-.379.168.959.959,0,0,1-.41-.166l-1.059-.7a.093.093,0,0,1-.029-.146l.789-1.193a.093.093,0,0,1,.145-.03l1.044.691a1.524,1.524,0,0,1,.241.192.546.546,0,0,1,.138.251.34.34,0,0,1-.044.275,1.327,1.327,0,0,1-.12.163.178.178,0,0,1-.037.024c-.019.011-.043.023-.073.038a.488.488,0,0,0-.094.052.519.519,0,0,0-.006.1c0,.031,0,.057,0,.077a.153.153,0,0,1-.008.044.433.433,0,0,1-.031.062c-.016.026-.038.061-.064.1m-.2-.236c.062-.094-.01-.209-.216-.345l-.886-.586-.245.369.869.575c.2.134.338.162.41.085l.022-.03c.011-.016.027-.038.045-.068m.32-.469c.016-.025.039-.065.068-.119.056-.1-.021-.219-.229-.356l-.866-.573-.254.384.876.581q.321.21.4.084" transform="translate(-66.438 -127.315)" fill="#59adba"/>
            <path id="Trazado_1053849" data-name="Trazado 1053849" d="M154.938,293.6a.094.094,0,0,1-.146.031l-.064-.045a.455.455,0,0,1-.04-.033.091.091,0,0,1,0-.118l.789-1.193a.089.089,0,0,1,.107-.047.353.353,0,0,1,.042.022c.019.011.042.025.071.044a.093.093,0,0,1,.03.145Z" transform="translate(-67.905 -128.286)" fill="#59adba"/>
            <path id="Trazado_1053850" data-name="Trazado 1053850" d="M156.9,294.91c-.036.055-.087.059-.155.015a.47.47,0,0,1-.122-.1l-.684-1.249-.315.477a.094.094,0,0,1-.148.03.486.486,0,0,1-.1-.076.093.093,0,0,1,0-.116l.788-1.192a.089.089,0,0,1,.1-.047.55.55,0,0,1,.109.063.093.093,0,0,1,.031.146l-.3.459,1.367.131a.82.82,0,0,1,.142.08c.066.045.082.094.046.148a.115.115,0,0,1-.115.045l-1.3-.135.652,1.193a.117.117,0,0,1,0,.126" transform="translate(-68.208 -128.486)" fill="#59adba"/>
            <path id="Trazado_1053851" data-name="Trazado 1053851" d="M160.309,296.355c-.048.073-.1.088-.165.048l-1.2-.795-.149.224q-.1.146.224.357l.881.583a.094.094,0,0,1,.029.147q-.077.117-.165.059l-.892-.59a1.078,1.078,0,0,1-.312-.306.35.35,0,0,1-.02-.4l.449-.679a.326.326,0,0,1,.183-.133.772.772,0,0,1,.627.169l.244.161q.087.057.011.172a.092.092,0,0,1-.145.031l-.036-.023-.022-.015-.012-.008-.013-.01-.047-.034-.034-.023q-.41-.271-.508-.123l-.158.24,1.2.8a.1.1,0,0,1,.029.157" transform="translate(-69.581 -129.45)" fill="#59adba"/>
            <path id="Trazado_1053852" data-name="Trazado 1053852" d="M164,289.709a5.01,5.01,0,0,0-2.968-1.247,1.12,1.12,0,0,0-.277-.035,2.94,2.94,0,0,0,.708-.033,2.6,2.6,0,0,1,.728.059,3.424,3.424,0,0,1,1.382.489,1.085,1.085,0,0,1,.4.772" transform="translate(-70.577 -126.614)" fill="#c2c5d2"/>
            <path id="Trazado_1053853" data-name="Trazado 1053853" d="M164.828,288.515c-.1-.021-.19-.136-.278-.191a2.941,2.941,0,0,0-.318-.165,1.635,1.635,0,0,0-.725-.209,3.968,3.968,0,0,0,.928-.123c.2-.025.206.078.26.243s.091.32.125.473" transform="translate(-71.786 -126.367)" fill="#c2c5d2"/>
            <path id="Trazado_1053854" data-name="Trazado 1053854" d="M159.686,287.273a2.022,2.022,0,0,1,.489-.831,1.356,1.356,0,0,1,.632-.469c-.075.113-.213.213-.3.324-.109.133-.2.273-.3.411a3.11,3.11,0,0,1-.514.551" transform="translate(-70.109 -125.554)" fill="#c2c5d2"/>
            <path id="Trazado_1053855" data-name="Trazado 1053855" d="M161.231,292.08a.523.523,0,1,1,.648-.356.524.524,0,0,1-.648.356m.188-.645a.148.148,0,0,0-.183.1.148.148,0,1,0,.183-.1" transform="translate(-70.622 -127.786)" fill="#8890a5"/>
            <path id="Trazado_1053856" data-name="Trazado 1053856" d="M161.229,291.965a.489.489,0,1,1,.606-.333.488.488,0,0,1-.606.333m.175-.6a.138.138,0,1,0,.095.172.14.14,0,0,0-.095-.172" transform="translate(-70.631 -127.764)" fill="#49a7b5"/>
            <path id="Trazado_1053857" data-name="Trazado 1053857" d="M161.369,291.942a.358.358,0,1,1,.443-.244.36.36,0,0,1-.443.244m.175-.6a.27.27,0,1,0,.184.334.271.271,0,0,0-.184-.334" transform="translate(-70.734 -127.867)" fill="#dc0f18"/>
            <path id="Trazado_1053858" data-name="Trazado 1053858" d="M165.556,298.321a.523.523,0,1,1,.649-.356.523.523,0,0,1-.649.356m.188-.644a.148.148,0,1,0,.1.184.149.149,0,0,0-.1-.184" transform="translate(-72.521 -130.526)" fill="#8890a5"/>
            <path id="Trazado_1053859" data-name="Trazado 1053859" d="M165.552,298.207a.489.489,0,1,1,.607-.334.49.49,0,0,1-.607.334m.176-.6a.139.139,0,1,0,.094.172.139.139,0,0,0-.094-.172" transform="translate(-72.53 -130.504)" fill="#49a7b5"/>
            <path id="Trazado_1053860" data-name="Trazado 1053860" d="M165.692,298.183a.358.358,0,1,1,.444-.243.358.358,0,0,1-.444.243m.175-.6a.27.27,0,1,0,.185.335.27.27,0,0,0-.185-.335" transform="translate(-72.633 -130.607)" fill="#dc0f18"/>
            <path id="Trazado_1053861" data-name="Trazado 1053861" d="M160.7,295.4a2.68,2.68,0,0,0,.87.618,5.284,5.284,0,0,0,1.03.027l-.305-.361-.687.026-.5-.37Z" transform="translate(-70.555 -129.666)" fill="#59adba"/>
            <path id="Trazado_1053862" data-name="Trazado 1053862" d="M168.066,299.459a.269.269,0,1,1-.183-.334.27.27,0,0,1,.183.334" transform="translate(-73.556 -131.324)" fill="#6f7991"/>
            <path id="Trazado_1053863" data-name="Trazado 1053863" d="M161.171,295.639c-.808-.018-2.247-1.86-1.373-1.992a29.182,29.182,0,0,1,3.969-.076c.392.058,1.341,1.45,1.134,1.485a23.77,23.77,0,0,1-3.73.583" transform="translate(-70.039 -128.874)" fill="#0f304b"/>
            <path id="Trazado_1053864" data-name="Trazado 1053864" d="M161.349,295.36c-.809-.019-2.207-1.689-1.334-1.819a32.15,32.15,0,0,1,3.929-.249c.393.058,1.2,1.481,1,1.515a21.983,21.983,0,0,1-3.59.553" transform="translate(-70.132 -128.762)" fill="#e0e1e8"/>
            <path id="Trazado_1053865" data-name="Trazado 1053865" d="M161.393,295.371h-.079a2.3,2.3,0,0,1-1.653-1.551.321.321,0,0,1,.314-.356c.744-.112,2.832-.26,3.661-.26a2.4,2.4,0,0,1,.282.012c.38.056,1.062,1.22,1.065,1.5,0,.083-.048.1-.07.1s-.122.025-.253.052a20.125,20.125,0,0,1-3.266.5m2.243-2.079c-.826,0-2.905.148-3.648.259-.171.026-.249.112-.239.264a2.227,2.227,0,0,0,1.568,1.468,19.464,19.464,0,0,0,3.324-.5c.132-.029.223-.048.259-.054a.9.9,0,0,0-.127-.363c-.234-.478-.648-1.033-.868-1.065a2.041,2.041,0,0,0-.268-.011" transform="translate(-70.098 -128.729)" fill="#b1b4c3"/>
            <path id="Trazado_1053866" data-name="Trazado 1053866" d="M160.024,294.724c-.114.015.844-.128.941-.144a2.271,2.271,0,0,1,.4-.021,2.325,2.325,0,0,1,.556.1,3.592,3.592,0,0,1,.582.253,2.092,2.092,0,0,0,.57.2,2.626,2.626,0,0,0,.533.038c.158-.007,1.317-.186,1.317-.186s-1.156.208-1.315.227a2.672,2.672,0,0,1-.547,0,2.234,2.234,0,0,1-.611-.165,3.617,3.617,0,0,0-.572-.2,1.789,1.789,0,0,0-.271-.042,2.123,2.123,0,0,0-.242-.007,2.013,2.013,0,0,0-.356.048c-.084.022-.8.15-.832.164-.113-.18-.157-.266-.157-.266" transform="translate(-70.253 -129.323)" fill="#59adba"/>
            <path id="Trazado_1053867" data-name="Trazado 1053867" d="M162.46,295.465a2.068,2.068,0,0,1,.933.192c.1.061.264.29.365.305a1.153,1.153,0,0,0,.348-.159,2.765,2.765,0,0,0-.791-.349c-.321-.093-.574-.232-.871-.039" transform="translate(-71.32 -129.657)" fill="#c2c5d2"/>
            <path id="Trazado_1053868" data-name="Trazado 1053868" d="M165.6,293.552a9.2,9.2,0,0,0-1.142.212,6.033,6.033,0,0,1-.636.047c-.171.01-.422.077-.555.067a2.167,2.167,0,0,0,.625.057c.233,0,.468.026.707.023a5.784,5.784,0,0,0,.677-.076,4.07,4.07,0,0,0,.539-.067.893.893,0,0,0-.187-.253" transform="translate(-71.682 -128.882)" fill="#c2c5d2"/>
            <path id="Trazado_1053869" data-name="Trazado 1053869" d="M166.561,294.383a7.907,7.907,0,0,0-.944.138,5.17,5.17,0,0,1-.528.021c-.141,0-.349.05-.459.04a1.92,1.92,0,0,0,.52.056c.194.006.389.03.588.033a5.369,5.369,0,0,0,.561-.044,3.54,3.54,0,0,0,.447-.041.762.762,0,0,0-.161-.2" transform="translate(-72.279 -129.247)" fill="#c2c5d2"/>
            <path id="Trazado_1053870" data-name="Trazado 1053870" d="M170.457,301.89a.146.146,0,1,1-.1-.181.147.147,0,0,1,.1.181" transform="translate(-74.712 -132.46)" fill="#6f7991"/>
            <path id="Trazado_1053871" data-name="Trazado 1053871" d="M171.916,301.348a.146.146,0,1,1-.1-.181.145.145,0,0,1,.1.181" transform="translate(-75.353 -132.222)" fill="#6f7991"/>
            <path id="Trazado_1053872" data-name="Trazado 1053872" d="M171.657,302.239a.146.146,0,1,1-.1-.181.146.146,0,0,1,.1.181" transform="translate(-75.239 -132.614)" fill="#6f7991"/>
            <path id="Trazado_1053873" data-name="Trazado 1053873" d="M172.773,302.293a.146.146,0,1,1-.1-.182.145.145,0,0,1,.1.182" transform="translate(-75.729 -132.637)" fill="#6f7991"/>
            <path id="Trazado_1053874" data-name="Trazado 1053874" d="M171.131,303.116a.146.146,0,1,1-.1-.181.146.146,0,0,1,.1.181" transform="translate(-75.008 -132.999)" fill="#6f7991"/>
            <path id="Trazado_1053875" data-name="Trazado 1053875" d="M172.782,301.329a.146.146,0,1,1-.1-.181.146.146,0,0,1,.1.181" transform="translate(-75.733 -132.214)" fill="#6f7991"/>
            <path id="Trazado_1053876" data-name="Trazado 1053876" d="M171.333,303.255c1.115-.036,2.214-1.12,1.467-2.009.155.1.764.6,1.161.826.476.274.935.438,1,.5a1.95,1.95,0,0,0-1.133-.044c-.462.225-.106.684.179.843a6.413,6.413,0,0,1-2.671-.114" transform="translate(-75.222 -132.26)" fill="#abafbf"/>
            <path id="Trazado_1053877" data-name="Trazado 1053877" d="M204.713,117.383l8.127,20.373-5.861,4.719a12.737,12.737,0,0,1-2.954-3.846c-2.948-5.7-8.568-17.241-8.568-17.241Z" transform="translate(-85.814 -51.536)" fill="#f9ab78"/>
            <path id="Trazado_1053878" data-name="Trazado 1053878" d="M215.678,158.311c-1.491-1.383,1.274-5.257,5.6-4.824s13.73,9.047,17.718,11.007-1.826,3.9-1.826,3.9-20-8.7-21.492-10.088" transform="translate(-94.513 -67.372)" fill="#f9ab78"/>
            <path id="Trazado_1053879" data-name="Trazado 1053879" d="M205.746,116.6a91.468,91.468,0,0,0-3.387-10.056c-3.189-8.424-6.665-6.654-9.8-5.468s-4.64,4.884-1.452,13.309a40.209,40.209,0,0,0,3.121,6.484Z" transform="translate(-83.127 -43.933)" fill="#ab2b1a"/>
            <path id="Trazado_1053880" data-name="Trazado 1053880" d="M252.72,170.719l2.013,1.018a11.432,11.432,0,0,1,3.112,0c.732.275,2.875,3.295,2.993,3.752s-2.639,4.217-2.976,4.419a9.76,9.76,0,0,1-4.226-.438c-.687-.457-2.128-3.314-2.128-3.314l-1.948-.692Z" transform="translate(-109.567 -74.953)" fill="#ab2b1a"/>
            <path id="Trazado_1053881" data-name="Trazado 1053881" d="M265.9,176.109l.666-.777s1.565,1.264,1.446,2.179l-2.112-1.4" transform="translate(-116.742 -76.978)" fill="#f9ab78"/>
            <path id="Trazado_1053882" data-name="Trazado 1053882" d="M264.943,176.109l.2-.228-1.419-.549Z" transform="translate(-115.784 -76.978)" fill="#511c11"/>
            <rect id="Rectángulo_412180" data-name="Rectángulo 412180" width="2.974" height="1.129" transform="matrix(0.519, -0.855, 0.855, 0.519, 142.809, 100.55)" fill="#f9ab78"/>
          </g>
        </g>
      </g>
    </g>
  </g>
</svg>
