<svg xmlns="http://www.w3.org/2000/svg" xmlns:xlink="http://www.w3.org/1999/xlink" width="92" height="92" viewBox="0 0 92 92">
  <defs>
    <filter id="Elipse_12115" x="0" y="0" width="92" height="92" filterUnits="userSpaceOnUse">
      <feOffset dy="3" input="SourceAlpha"/>
      <feGaussianBlur stdDeviation="3" result="blur"/>
      <feFlood flood-opacity="0.161"/>
      <feComposite operator="in" in2="blur"/>
      <feComposite in="SourceGraphic"/>
    </filter>
  </defs>
  <g id="Grupo_1189698" data-name="Grupo 1189698" transform="translate(-449.051 -6646)">
    <g id="Grupo_1188939" data-name="Grupo 1188939" transform="translate(-296.73 2800)">
      <g id="Grupo_1181949" data-name="Grupo 1181949" transform="translate(754.781 3852)">
        <g transform="matrix(1, 0, 0, 1, -9, -6)" filter="url(#Elipse_12115)">
          <g id="Elipse_12115-2" data-name="Elipse 12115" transform="translate(9 6)" fill="#ffe69b" stroke="#b18603" stroke-width="2">
            <circle cx="37" cy="37" r="37" stroke="none"/>
            <circle cx="37" cy="37" r="36" fill="none"/>
          </g>
        </g>
      </g>
    </g>
    <g id="ley-del-movimiento" transform="translate(479.357 6625.888)">
      <circle id="Elipse_12437" data-name="Elipse 12437" cx="4.774" cy="4.774" r="4.774" transform="translate(27.055 59.747)" fill="#ffe177"/>
      <path id="Trazado_1053883" data-name="Trazado 1053883" d="M422.191,227.654a4.784,4.784,0,0,0-1.063.12,4.774,4.774,0,0,1,0,9.308,4.774,4.774,0,1,0,1.063-9.429Z" transform="translate(-390.361 -167.907)" fill="#ffd15b"/>
      <path id="Trazado_1053884" data-name="Trazado 1053884" d="M378.7,231.081a5.464,5.464,0,1,1,1.646-10.674.689.689,0,0,1-.415,1.314,4.091,4.091,0,1,0,1.9,1.273.689.689,0,0,1,1.056-.886,5.463,5.463,0,0,1-4.186,8.973Z" transform="translate(-346.868 -161.096)"/>
      <path id="Trazado_1053885" data-name="Trazado 1053885" d="M53.165,198.727H7.5V174.133H18.11l35.055,18.644Z" transform="translate(-14.738 -119.304)" fill="#fea95c"/>
      <path id="Trazado_1053886" data-name="Trazado 1053886" d="M16.664,175.969l33.984,18.075a1.428,1.428,0,0,1,.757,1.26v3.423h1.76v-5.949L18.11,174.133H7.5V175.8h8.494A1.429,1.429,0,0,1,16.664,175.969Z" transform="translate(-14.738 -119.304)" fill="#fe9738"/>
      <path id="Elipse_12438" data-name="Elipse 12438" d="M5.437,0A5.5,5.5,0,0,1,6.572.118a.689.689,0,1,1-.285,1.348,4.161,4.161,0,0,0-.852-.088H5.43A.694.694,0,0,1,4.742.69.684.684,0,0,1,5.424,0ZM3.485.416a.689.689,0,0,1,.282,1.318,4.089,4.089,0,0,0-.738.429A.689.689,0,1,1,2.216,1.05,5.469,5.469,0,0,1,3.2.476.687.687,0,0,1,3.485.416Zm4.759.5a.686.686,0,0,1,.4.132,5.5,5.5,0,0,1,.848.764.689.689,0,0,1-1.024.923,4.12,4.12,0,0,0-.635-.572A.689.689,0,0,1,8.243.911ZM1.3,2.395a.689.689,0,0,1,.6,1.033,4.068,4.068,0,0,0-.346.78A.689.689,0,0,1,.236,3.785,5.449,5.449,0,0,1,.7,2.74.689.689,0,0,1,1.3,2.395Zm8.681.9a.689.689,0,0,1,.655.476,5.452,5.452,0,0,1,.237,1.118A.689.689,0,0,1,9.5,5.033,4.071,4.071,0,0,0,9.323,4.2a.69.69,0,0,1,.655-.9ZM.69,5.282a.689.689,0,0,1,.684.617,4.071,4.071,0,0,0,.178.834.689.689,0,1,1-1.31.428A5.452,5.452,0,0,1,0,6.043a.689.689,0,0,1,.613-.758A.7.7,0,0,1,.69,5.282Zm9.29.965a.69.69,0,0,1,.656.9,5.449,5.449,0,0,1-.464,1.044A.689.689,0,1,1,8.978,7.5a4.068,4.068,0,0,0,.347-.779A.689.689,0,0,1,9.98,6.247ZM1.893,7.975A.687.687,0,0,1,2.4,8.2a4.12,4.12,0,0,0,.636.571.689.689,0,0,1-.809,1.116,5.5,5.5,0,0,1-.849-.763.689.689,0,0,1,.511-1.151Zm6.353.66a.689.689,0,0,1,.407,1.246,5.469,5.469,0,0,1-.988.573A.689.689,0,1,1,7.1,9.2a4.088,4.088,0,0,0,.739-.428A.686.686,0,0,1,8.247,8.635Zm-3.8.812a.692.692,0,0,1,.142.015,4.117,4.117,0,0,0,.845.087.689.689,0,0,1,.006,1.378H5.437a5.5,5.5,0,0,1-1.129-.117.689.689,0,0,1,.141-1.364Z" transform="translate(-8.729 52.504) rotate(-63.666)"/>
      <path id="Línea_591" data-name="Línea 591" d="M3.264-6.122H-6.811A.689.689,0,0,1-7.5-6.811.689.689,0,0,1-6.811-7.5H3.264a.689.689,0,0,1,.689.689A.689.689,0,0,1,3.264-6.122Z" transform="translate(4.387 82.41)"/>
      <g id="Grupo_1189636" data-name="Grupo 1189636" transform="translate(12.13 53.056)">
        <path id="Línea_592" data-name="Línea 592" d="M1.661-1.684a.686.686,0,0,1-.319-.079L-7.132-6.2a.689.689,0,0,1-.291-.93.689.689,0,0,1,.93-.291L1.981-2.983a.689.689,0,0,1,.291.93A.689.689,0,0,1,1.661-1.684Z" transform="translate(7.502 7.502)"/>
        <path id="Trazado_1053887" data-name="Trazado 1053887" d="M292.877,186.527a.689.689,0,0,1-.179-1.355l1.568-.423-.545-1.53a.689.689,0,0,1,1.3-.463l.8,2.232a.689.689,0,0,1-.47.9l-2.288.617A.69.69,0,0,1,292.877,186.527Z" transform="translate(-285.399 -179.776)"/>
      </g>
      <g id="Grupo_1189637" data-name="Grupo 1189637" transform="translate(20.604 46.688)">
        <path id="Trazado_1053888" data-name="Trazado 1053888" d="M311.206,90.738a.689.689,0,0,1-.556-1.1l2.806-3.837a.689.689,0,0,1,.556-.282h7.731a.689.689,0,0,1,0,1.378h-7.381l-2.6,3.555A.688.688,0,0,1,311.206,90.738Z" transform="translate(-310.517 -85.522)"/>
        <path id="Línea_593" data-name="Línea 593" d="M-.779-6.122H-6.811A.689.689,0,0,1-7.5-6.811.689.689,0,0,1-6.811-7.5H-.779a.689.689,0,0,1,.689.689A.689.689,0,0,1-.779-6.122Z" transform="translate(12.005 9.883)"/>
        <path id="Línea_594" data-name="Línea 594" d="M-.779-6.122H-6.811A.689.689,0,0,1-7.5-6.811.689.689,0,0,1-6.811-7.5H-.779a.689.689,0,0,1,.689.689A.689.689,0,0,1-.779-6.122Z" transform="translate(12.005 12.126)"/>
      </g>
      <path id="Trazado_1053889" data-name="Trazado 1053889" d="M204.624,221.008H187.137a.689.689,0,1,1,0-1.378h16.8v-4.846l-29.286-15.576a.689.689,0,0,1,.647-1.217l29.652,15.77a.689.689,0,0,1,.366.608v5.949A.689.689,0,0,1,204.624,221.008Z" transform="translate(-166.196 -140.895)"/>
      <path id="Trazado_1053890" data-name="Trazado 1053890" d="M26.2,192.6H.689A.689.689,0,0,1,0,191.916V167.322a.689.689,0,0,1,.689-.689H11.3a.689.689,0,0,1,.324.081l3.04,1.617a.689.689,0,1,1-.647,1.217l-2.888-1.536H1.378v23.215H26.2a.689.689,0,0,1,0,1.378Z" transform="translate(-7.927 -112.493)"/>
    </g>
  </g>
</svg>
