<svg xmlns="http://www.w3.org/2000/svg" xmlns:xlink="http://www.w3.org/1999/xlink" width="410" height="246" viewBox="0 0 410 246">
  <defs>
    <clipPath id="clip-path">
      <rect id="Rectángulo_411833" data-name="Rectángulo 411833" width="328.967" height="199.535" fill="none"/>
    </clipPath>
    <clipPath id="clip-path-3">
      <rect id="Rectángulo_411823" data-name="Rectángulo 411823" width="6.605" height="7.325" fill="none"/>
    </clipPath>
    <clipPath id="clip-path-4">
      <rect id="Rectángulo_411824" data-name="Rectángulo 411824" width="5.311" height="3.496" fill="none"/>
    </clipPath>
    <clipPath id="clip-path-5">
      <rect id="Rectángulo_411825" data-name="Rectángulo 411825" width="79.45" height="76.483" fill="none"/>
    </clipPath>
    <clipPath id="clip-path-6">
      <rect id="Rectángulo_411826" data-name="Rectángulo 411826" width="15.744" height="16.534" fill="none"/>
    </clipPath>
    <clipPath id="clip-path-7">
      <rect id="Rectángulo_411827" data-name="Rectángulo 411827" width="20.132" height="18.123" fill="none"/>
    </clipPath>
    <clipPath id="clip-path-8">
      <rect id="Rectángulo_411828" data-name="Rectángulo 411828" width="23.082" height="17.602" fill="none"/>
    </clipPath>
    <clipPath id="clip-path-9">
      <rect id="Rectángulo_411829" data-name="Rectángulo 411829" width="16.446" height="25.063" fill="none"/>
    </clipPath>
    <clipPath id="clip-path-10">
      <rect id="Rectángulo_411830" data-name="Rectángulo 411830" width="23.365" height="15.519" fill="none"/>
    </clipPath>
    <clipPath id="clip-path-11">
      <rect id="Rectángulo_411831" data-name="Rectángulo 411831" width="25.974" height="25.202" fill="none"/>
    </clipPath>
  </defs>
  <g id="Grupo_1189001" data-name="Grupo 1189001" transform="translate(-390.051 -8049)">
    <rect id="Rectángulo_411821" data-name="Rectángulo 411821" width="410" height="246" transform="translate(390.051 8049)" fill="#fff3cd"/>
    <g id="Grupo_1188996" data-name="Grupo 1188996" transform="translate(408.142 8083.267)">
      <g id="Grupo_1188995" data-name="Grupo 1188995" clip-path="url(#clip-path)">
        <g id="Grupo_1188994" data-name="Grupo 1188994">
          <g id="Grupo_1188993" data-name="Grupo 1188993" clip-path="url(#clip-path)">
            <path id="Trazado_1053465" data-name="Trazado 1053465" d="M55.63,84.783c123.25-48.362,202.121,3.911,227.515,22.426,9.358,7.549,25.784,20.022,29.893,32.15,10.307,29.827-28.377,51.439-63.437,57.756,0,0-.558.93,8.2,1.481s20.187-1.975,20.187-1.975c30.451-9.951,45.938-21.471,52.985-45.179,7.315-27.638-17.476-55-35.99-73.043C270.972,54.053,178.771-23.038,36.156,8.424Z" transform="translate(-3.732 -0.102)" fill="#edeced"/>
            <path id="Trazado_1053466" data-name="Trazado 1053466" d="M28.848,11.214c3.039-1.805,7.013-2.541,10.45-3.169,3.834-.7,7.676-1.384,11.524-2C60.8,4.429,70.847,3.205,80.929,2.5a289.357,289.357,0,0,1,53.986,1.21,274.348,274.348,0,0,1,47.3,9.873,281.7,281.7,0,0,1,71.635,33.264A272.709,272.709,0,0,1,277.7,64.2c5.358,4.366,10.542,8.959,15.438,13.84,12.257,12.222,24.644,24.886,32.211,40.689,3.873,8.088,6.156,16.891,5.526,25.9-.528,7.546-3.5,15.02-7.421,21.444-7.653,12.551-20.466,20.309-33.769,25.764-4.114,1.687-8.3,3.184-12.515,4.6-.1.033-.057.19.043.158,14.542-4.635,29.856-10.7,40.5-22.084,9.925-10.61,16.022-25.907,13.695-40.447-2.909-18.178-15.42-33.807-27.658-46.849-6.278-6.691-12.836-13.207-19.733-19.266a259.748,259.748,0,0,0-21.747-17.124,280.17,280.17,0,0,0-68.463-35.3,273.658,273.658,0,0,0-46.241-11.8A281.062,281.062,0,0,0,94.344.1q-14.794.4-29.5,2.275A227.375,227.375,0,0,0,38.249,7.1c-3.311.828-6.888,1.551-9.7,3.6-.3.222-.037.715.3.515" transform="translate(-2.933 0)" fill="#1c191d"/>
            <path id="Trazado_1053467" data-name="Trazado 1053467" d="M57.929,92.4c16.9-6.061,33.977-11.448,51.632-14.872a248.321,248.321,0,0,1,45.56-4.636A223.741,223.741,0,0,1,194.5,76.08,210.941,210.941,0,0,1,227.639,84.6a208.778,208.778,0,0,1,26.593,11.341,216.8,216.8,0,0,1,19.9,11.522A199.806,199.806,0,0,1,291.716,120.4a133.066,133.066,0,0,1,16.166,15.282c4.425,5.069,7.764,10.962,8.644,17.719,1.6,12.306-6.4,22.892-15.549,30.16-11.3,8.975-25.078,14.4-38.891,18.147-3.41.925-6.847,1.9-10.326,2.527-.17.031-.1.291.072.26,3.693-.671,7.372-1.268,11.01-2.211q5.4-1.4,10.652-3.3a112.946,112.946,0,0,0,19.526-9.181c10.22-6.147,20.36-14.923,23.24-27a30.463,30.463,0,0,0-.817-16.911c-2.24-6.569-7.3-12.2-12.174-16.961a179.114,179.114,0,0,0-23.58-19.253q-8.875-6.115-18.3-11.376a214.052,214.052,0,0,0-95.2-26.9,235.165,235.165,0,0,0-44.572,2.459A274.14,274.14,0,0,0,70.524,86.724c-4.344,1.542-8.651,3.168-12.893,4.972-.4.17-.115.856.3.708" transform="translate(-5.929 -7.35)" fill="#1c191d"/>
            <path id="Trazado_1053468" data-name="Trazado 1053468" d="M76.687,63.917c2.2-3.338,4.352-10.329,3.228-15.857,1.868-10.437-8.229-26.4-13.888-29.868l-.351.055c-1.8-2.37-9.908-8.077-15.043-7.945-7.686-3.371-25.954.718-29.7,3.985-6.1,2.756-11,9.1-10.966,10.691C7.156,26.306-1.592,37.229,1.381,50.526c.213,7.445,4.478,16.922,6.4,19.375,6.914,12.864,20.464,16.378,26.833,17.018,5.224.674,13.168.982,16.239-.724,7.128-.885,22.525-10.6,25.837-22.279" transform="translate(-0.08 -0.933)" fill="#fff"/>
            <g id="Grupo_1188968" data-name="Grupo 1188968" transform="translate(63.73 15.485)" style="mix-blend-mode: multiply;isolation: isolate">
              <g id="Grupo_1188967" data-name="Grupo 1188967">
                <g id="Grupo_1188966" data-name="Grupo 1188966" clip-path="url(#clip-path-3)">
                  <path id="Trazado_1053469" data-name="Trazado 1053469" d="M71.164,17.481a21.76,21.76,0,0,1,2.205,7.111,10.007,10.007,0,0,1,4.3-1.415,19.564,19.564,0,0,0-4.389-4.136l-.35.055a12.6,12.6,0,0,0-1.866-1.829c.034.074.066.14.1.214" transform="translate(-71.065 -17.267)" fill="#edeced"/>
                </g>
              </g>
            </g>
            <g id="Grupo_1188971" data-name="Grupo 1188971" transform="translate(45.819 8.255)" style="mix-blend-mode: multiply;isolation: isolate">
              <g id="Grupo_1188970" data-name="Grupo 1188970">
                <g id="Grupo_1188969" data-name="Grupo 1188969" clip-path="url(#clip-path-4)">
                  <path id="Trazado_1053470" data-name="Trazado 1053470" d="M51.991,12.7A16.269,16.269,0,0,1,56.4,10.346c-.194-.011-.392-.03-.578-.027a15.906,15.906,0,0,0-4.733-1.113,8.278,8.278,0,0,1,.9,3.495" transform="translate(-51.093 -9.205)" fill="#edeced"/>
                </g>
              </g>
            </g>
            <g id="Grupo_1188974" data-name="Grupo 1188974" transform="translate(0.693 10.041)" style="mix-blend-mode: multiply;isolation: isolate">
              <g id="Grupo_1188973" data-name="Grupo 1188973">
                <g id="Grupo_1188972" data-name="Grupo 1188972" clip-path="url(#clip-path-5)">
                  <path id="Trazado_1053471" data-name="Trazado 1053471" d="M76.687,64.138c2.194-3.338,4.352-10.329,3.228-15.857a17.781,17.781,0,0,0,.012-5.4,2.284,2.284,0,0,1-.853.234,8.061,8.061,0,0,1-5.02-1.144c-1.61-1.2-2.4-3.016-3.5-4.57.2,2.847.506,5.834-1.649,8.017-2.186,2.222-5.512,3.152-8.3,1.317-3.744-2.463-5.9-7.736-7.928-11.572-.893-1.693-2.131-3.928-1.842-5.942.013-.087.044-.167.062-.254-.826,1.1-1.655,2.2-2.564,3.231-1.2,1.351-2.078,1.758-3.784,1.124-1.418-.528-2.533-1.436-4.132-1.509-1.108-.054-2.234-.012-3.343-.108a7.291,7.291,0,0,1-4.332-1.389c-4.932-4.444-.174-10.458,4.493-13.281-3.288-.032-7.406.282-8.968-2.567a2.958,2.958,0,0,1,.607-3.267c-3.679.982-6.661,2.2-7.941,3.313-6.1,2.755-11,9.094-10.966,10.691C7.156,26.527-1.592,37.451,1.38,50.749c.213,7.444,4.478,16.922,6.4,19.374C14.692,82.987,28.24,86.5,34.61,87.142c5.225.674,13.169.982,16.239-.725,7.128-.885,22.525-10.6,25.838-22.279M6.909,46.529a2.424,2.424,0,0,1-2.6-.574c-1.67-1.982-.838-5.335-.244-7.567a73.841,73.841,0,0,1,3.508-9.064.737.737,0,0,1,.365-.387c0-.161,0-.319.006-.48,0-.318.436-.3.518-.03.048.162.109.32.16.479a.614.614,0,0,1,.412.71c-.017.115-.022.231-.037.344.386,1.012.817,2,1.2,3.01.248.656.917,1.629.665,2.381-.594,1.766-1.711,3.136-1.933,5.091-.106.932-.006,1.863-.089,2.8-.132,1.477-.482,2.675-1.934,3.289m19.2,1.178c-3.181,1.933-5.742,2.863-8.126-.465S13.1,39.606,14.851,35.43c1.083-2.578,5.475-6.795,8.444-7.255,2.647.7,4.964,3.676,6.759,5.99.2.255-.571.473-.761.752-2.075,3.089-2.376,6.36-2,9.953a2.869,2.869,0,0,1-1.183,2.837m-4.716,9.7a73.375,73.375,0,0,1,7.945-4.274C32.012,56.6,36.41,58.82,40.355,60.6a26.818,26.818,0,0,1-.528,7.047c-.294,1.386-.777,3.045-2.047,3.857-2.957,1.9-6.937.409-9.729-1.132-3.324-1.834-6.529-4.728-7.361-8.621a5.393,5.393,0,0,1,.7-4.342m7.8,24.151c-4.7,1.7-11.965-3.153-13.827-7.393a.892.892,0,0,1,.415-1.183c1.608-.643,2.156-1.09,3.687.15,2.256,1.824,2.958,3.436,9.046,4.442.35.059.213,1.821.42,2.472.394,1.242.728,1.342.26,1.512M51.373,68.385c-5.118-.1-7.655-7.517-3.7-10.781,1.579-1.3,3.7-4.181,5.926-5.266a4.335,4.335,0,0,1,5.355-.466c2.634,1.4,4.818,3.187,3.672,6.448-1.556,4.421-5.988,10.165-11.254,10.065m4.517,5.52c.3-1.438,1.279-1.981,2.449-2.727a27.671,27.671,0,0,0,5.644-5c.358-.4,1.489.311,1.9.552a10.824,10.824,0,0,0,7.849.72c.13,1.227-1.507,2.838-2.155,3.8a18.271,18.271,0,0,1-3.159,3.593c-2.267,1.959-4.791,3.4-7.871,3.115-1.713-.159-5.1-1.924-4.658-4.058" transform="translate(-0.773 -11.197)" fill="#edeced"/>
                </g>
              </g>
            </g>
            <path id="Trazado_1053472" data-name="Trazado 1053472" d="M78.191,48.081c-1.393,3.426-2.9,5.516-6.083,9,.112,4.742.251,6.587-1.234,9.84,6.263,7.29,12.88,1.612,13.049,1.012,2.2-3.338,4.352-10.329,3.228-15.857a9.175,9.175,0,0,0-8.96-4" transform="translate(-7.316 -4.953)" fill="#2b2932"/>
            <g id="Grupo_1188977" data-name="Grupo 1188977" transform="translate(63.558 49.12)" style="mix-blend-mode: multiply;isolation: isolate">
              <g id="Grupo_1188976" data-name="Grupo 1188976">
                <g id="Grupo_1188975" data-name="Grupo 1188975" clip-path="url(#clip-path-6)">
                  <path id="Trazado_1053473" data-name="Trazado 1053473" d="M83.923,68.637a22.751,22.751,0,0,0,2.695-6.467c-2,2.991-4.932,5.424-7.6,5.913-3.229.6-4.258-2.6-4.522-5.111a25.9,25.9,0,0,1,.193-8.2c-.725.923-1.559,1.89-2.58,3.01.112,4.742.251,6.587-1.234,9.84,6.263,7.29,12.88,1.612,13.049,1.012" transform="translate(-70.873 -54.774)" fill="#d5d3d5"/>
                </g>
              </g>
            </g>
            <path id="Trazado_1053474" data-name="Trazado 1053474" d="M12.418,35.034c2.507-2.964,6.284-5.069,11.872-6.477,3.952-3.873,4.71-6.738,8.741-8.966-2.095-1.592-6.225-4.457-11.1-4.7-6.1,2.756-11,9.1-10.966,10.691-.8.38-1,5.66,1.455,9.452" transform="translate(-1.076 -1.537)" fill="#2b2932"/>
            <g id="Grupo_1188980" data-name="Grupo 1188980" transform="translate(9.346 15.374)" style="mix-blend-mode: multiply;isolation: isolate">
              <g id="Grupo_1188979" data-name="Grupo 1188979">
                <g id="Grupo_1188978" data-name="Grupo 1188978" clip-path="url(#clip-path-7)">
                  <path id="Trazado_1053475" data-name="Trazado 1053475" d="M30.554,21.593a11.309,11.309,0,0,0-3.294,1.7c-1.551,1.176-2.7,2.881-4.453,3.742a4.678,4.678,0,0,1-1.926.117c-1.193-.048-2.173.458-3.292.422a2.473,2.473,0,0,1-2.451-1.38c-1.2-3.052.83-6.03,2.684-8.338.182-.224.393-.468.627-.716-4.381,3.081-7.514,7.4-7.486,8.671-.8.38-1,5.66,1.455,9.452C14.925,32.3,18.7,30.2,24.29,28.789c2.978-2.92,4.145-5.267,6.264-7.2" transform="translate(-10.422 -17.144)" fill="#d5d3d5"/>
                </g>
              </g>
            </g>
            <path id="Trazado_1053476" data-name="Trazado 1053476" d="M48.836,16.235c2.95,1.327,6.782,2.648,10.764,7.44,4.874.909,6.992,1.628,11.116,4.371,3.147-6.264-.079-9.655-.079-9.655-1.8-2.37-9.908-8.077-15.043-7.945-2.774.319-6.066,3.511-6.758,5.79" transform="translate(-5.041 -1.078)" fill="#2b2932"/>
            <g id="Grupo_1188983" data-name="Grupo 1188983" transform="translate(43.795 9.366)" style="mix-blend-mode: multiply;isolation: isolate">
              <g id="Grupo_1188982" data-name="Grupo 1188982">
                <g id="Grupo_1188981" data-name="Grupo 1188981" clip-path="url(#clip-path-8)">
                  <path id="Trazado_1053477" data-name="Trazado 1053477" d="M71.918,24.574a3.372,3.372,0,0,1-.654.432c-4.073,1.959-6.682-4.592-10.856-3.268a.728.728,0,0,1-.713-.248c-1.87-2.544-5.77-4.979-4.427-8.594a4.121,4.121,0,0,1,2.251-2.262,9.074,9.074,0,0,0-1.926-.188c-2.774.319-6.066,3.511-6.758,5.79,2.95,1.327,6.782,2.649,10.764,7.441,4.874.909,6.992,1.627,11.116,4.37a13.024,13.024,0,0,0,1.2-3.472" transform="translate(-48.836 -10.444)" fill="#d5d3d5"/>
                </g>
              </g>
            </g>
            <path id="Trazado_1053478" data-name="Trazado 1053478" d="M17.9,74.185c-.952-3.436-3.376-7.8-2.16-11.91A25.01,25.01,0,0,1,8.868,51.14a12.466,12.466,0,0,0-7.417,3.731c.213,7.444,4.477,16.922,6.4,19.374,3.286,2.122,6.641,3.082,10.049-.061" transform="translate(-0.15 -5.279)" fill="#2b2932"/>
            <g id="Grupo_1188986" data-name="Grupo 1188986" transform="translate(1.301 45.861)" style="mix-blend-mode: multiply;isolation: isolate">
              <g id="Grupo_1188985" data-name="Grupo 1188985">
                <g id="Grupo_1188984" data-name="Grupo 1188984" clip-path="url(#clip-path-9)">
                  <path id="Trazado_1053479" data-name="Trazado 1053479" d="M17.474,72.837a2.562,2.562,0,0,1-2.8.387C10.364,71.286,11.55,66,8.865,62.694,6.929,60.31,5.758,57.55,7.381,54.68A2.109,2.109,0,0,1,9.8,53.69c-.359-.865-.659-1.716-.93-2.55A12.468,12.468,0,0,0,1.45,54.871c.213,7.444,4.478,16.922,6.4,19.374,3.285,2.122,6.64,3.082,10.049-.061q-.182-.655-.423-1.348" transform="translate(-1.45 -51.14)" fill="#d5d3d5"/>
                </g>
              </g>
            </g>
            <path id="Trazado_1053480" data-name="Trazado 1053480" d="M56.214,80.341c-5.712.246-7.259.218-11.794-1.162a25.175,25.175,0,0,1-11.435,4.756c-.454,5.012,3.151,10.041,4.948,10.225,5.224.674,13.168.981,16.238-.725,3.769-4.487,2.749-9.973,2.044-13.094" transform="translate(-3.401 -8.173)" fill="#2b2932"/>
            <g id="Grupo_1188989" data-name="Grupo 1188989" transform="translate(29.544 71.005)" style="mix-blend-mode: multiply;isolation: isolate">
              <g id="Grupo_1188988" data-name="Grupo 1188988">
                <g id="Grupo_1188987" data-name="Grupo 1188987" clip-path="url(#clip-path-10)">
                  <path id="Trazado_1053481" data-name="Trazado 1053481" d="M56.31,89.511c-4.15,3.368-10.778,4.166-14.729.448-2.51-2.361-1.443-4.215,1.168-5.73,1.847-1.072,2.6-2.35,4.862-2.456a10.791,10.791,0,0,0,4.578-1.316,22.915,22.915,0,0,1-7.771-1.279,25.176,25.176,0,0,1-11.434,4.756c-.454,5.012,3.151,10.041,4.947,10.225,5.225.674,13.169.981,16.239-.725a11.2,11.2,0,0,0,2.14-3.924" transform="translate(-32.945 -79.178)" fill="#d5d3d5"/>
                </g>
              </g>
            </g>
            <path id="Trazado_1053482" data-name="Trazado 1053482" d="M67.1,17.914a5.268,5.268,0,0,0-1.511-1.762,30.288,30.288,0,0,0-2.574-1.986,31.619,31.619,0,0,0-6.582-3.578,15.046,15.046,0,0,0-3.309-.913c-.263-.037-.527-.07-.792-.088-.12-.008-.24-.014-.361-.017-.058,0-.118,0-.177,0-.19.01.229.1-.015.019-.424-.145-.83-.329-1.262-.458A22.827,22.827,0,0,0,44.362,8.3a53.879,53.879,0,0,0-14.211,1.843,41.751,41.751,0,0,0-5.647,1.9,15.982,15.982,0,0,0-2.059.992c-.281.168-.533.366-.8.551-.451.31-1.016.512-1.506.786a26.721,26.721,0,0,0-6.418,5.1,14.5,14.5,0,0,0-3.273,4.66,2.3,2.3,0,0,0-.15.769.655.655,0,0,0,1.309,0c0-.044.022-.175-.01,0,.01-.051.017-.1.031-.153.036-.121.071-.24.117-.357a8.056,8.056,0,0,1,.452-.854,16.934,16.934,0,0,1,1.681-2.276A26.356,26.356,0,0,1,19.7,16.165c.907-.578,2.144-1.1,2.9-1.666a10.609,10.609,0,0,1,1.643-.985,28.152,28.152,0,0,1,5.049-1.781A55.249,55.249,0,0,1,42.7,9.639a27.41,27.41,0,0,1,6.153.424,17.768,17.768,0,0,1,2.43.726,6.444,6.444,0,0,0,1.412.14,10.964,10.964,0,0,1,1.628.334,25.784,25.784,0,0,1,7.19,3.467A30.16,30.16,0,0,1,64.4,16.853c.65.548,1.247,1.143,1.9,1.675a.509.509,0,0,0,.8-.614" transform="translate(-1.063 -0.856)" fill="#1c191d"/>
            <path id="Trazado_1053483" data-name="Trazado 1053483" d="M65.616,19.733a19.855,19.855,0,0,1,4.83,4.739,47.332,47.332,0,0,1,4.913,7.756,39.8,39.8,0,0,1,3.407,9.006,23.137,23.137,0,0,1,.629,4.427,16.91,16.91,0,0,1-.048,2.11c-.026.3-.064.6-.111.9a4.621,4.621,0,0,0,.114,1.383A22.887,22.887,0,0,1,77.785,61.05a20.642,20.642,0,0,1-.952,2.147,12.152,12.152,0,0,0-.977,1.927A20.789,20.789,0,0,1,74.015,69.3c-3.135,5.495-8.17,9.91-13.52,13.182a33.415,33.415,0,0,1-7.223,3.439c-.508.161-1.022.3-1.543.421a6.7,6.7,0,0,0-1.464.357,11.7,11.7,0,0,1-3.784.9,50.379,50.379,0,0,1-10.449-.184,41.029,41.029,0,0,1-6.391-1.1,36.38,36.38,0,0,1-14.683-7.584,32.711,32.711,0,0,1-3.45-3.574,28.831,28.831,0,0,1-3.066-4.317C7.973,70,7.291,69.09,6.8,68.144a41.324,41.324,0,0,1-1.844-4.128,43.107,43.107,0,0,1-2.8-10.395c-.106-.889-.085-1.8-.268-2.676a23.174,23.174,0,0,1-.419-2.94,24.964,24.964,0,0,1,.161-5.445,28.007,28.007,0,0,1,3-9.154,22.783,22.783,0,0,1,4.144-5.744,5.265,5.265,0,0,1,1.463-1.13c.777-.375.1-1.532-.676-1.158a12.027,12.027,0,0,0-3.92,3.831,29.152,29.152,0,0,0-4.109,7.857A26.369,26.369,0,0,0,.467,50.845c.174.92.195,1.846.3,2.776A37.451,37.451,0,0,0,1.878,59.2a47.558,47.558,0,0,0,3.731,9.5c.526,1,1.179,1.914,1.72,2.9.45.818.857,1.658,1.376,2.437.49.736,1.017,1.447,1.567,2.14A33.178,33.178,0,0,0,25.693,86.659a53.99,53.99,0,0,0,15.825,2.417,38.249,38.249,0,0,0,5.334-.208,18.643,18.643,0,0,0,2.268-.392,5.02,5.02,0,0,0,1.807-.647c.052-.042.265-.1-.074-.013a2.249,2.249,0,0,1,.257-.035c.1-.014.2-.03.3-.047.255-.042.508-.094.76-.152.542-.123,1.076-.276,1.6-.448a30.325,30.325,0,0,0,3.646-1.484,43.478,43.478,0,0,0,15.1-11.863A26.475,26.475,0,0,0,77.139,65.4a16.058,16.058,0,0,1,1.018-1.933,25.1,25.1,0,0,0,1.005-2.381,27.253,27.253,0,0,0,1.386-5.516,20.729,20.729,0,0,0,.065-5.865,2.8,2.8,0,0,1-.066-1c.054-.376.1-.752.126-1.131a17.3,17.3,0,0,0,.021-2.188,30.115,30.115,0,0,0-2.174-9.313A49.624,49.624,0,0,0,73.974,27.2a37.018,37.018,0,0,0-5.315-6.689A14.517,14.517,0,0,0,66.276,18.6c-.718-.446-1.377.687-.661,1.131" transform="translate(0 -1.91)" fill="#1c191d"/>
            <path id="Trazado_1053484" data-name="Trazado 1053484" d="M34.255,37.812a24.307,24.307,0,0,0-.952,15.68c3.92,3.331,8.032,7.046,12.69,7.905A44,44,0,0,0,58.4,51.875c-.41-4.455-3.095-10.826-6.352-16.63a53.775,53.775,0,0,0-17.793,2.567" transform="translate(-3.347 -3.638)" fill="#2b2932"/>
            <g id="Grupo_1188992" data-name="Grupo 1188992" transform="translate(29.079 32.558)" style="mix-blend-mode: multiply;isolation: isolate">
              <g id="Grupo_1188991" data-name="Grupo 1188991">
                <g id="Grupo_1188990" data-name="Grupo 1188990" clip-path="url(#clip-path-11)">
                  <path id="Trazado_1053485" data-name="Trazado 1053485" d="M58.4,51.984a23.331,23.331,0,0,0-.943-4.426,8.3,8.3,0,0,1-2.063,4.3c-3.281,3.466-8.282,2.794-12.006.334-4.493-2.971-7.254-7.626-4.877-12.845A12.6,12.6,0,0,1,40.5,36.305a45.185,45.185,0,0,0-6.242,1.617A24.31,24.31,0,0,0,33.3,53.6c3.921,3.33,8.032,7.046,12.691,7.9A44.016,44.016,0,0,0,58.4,51.984" transform="translate(-32.426 -36.305)" fill="#d5d3d5"/>
                </g>
              </g>
            </g>
            <path id="Trazado_1053486" data-name="Trazado 1053486" d="M33.624,37.408a18.97,18.97,0,0,0-1.668,5.66,23.97,23.97,0,0,0-.137,6.283c.118.924.264,1.851.434,2.766.076.409.165.815.271,1.217.159.606.662.9,1.122,1.3A64.115,64.115,0,0,0,39.2,59.018a17.754,17.754,0,0,0,6.121,2.792,1.721,1.721,0,0,0,1.45-.262q.889-.473,1.754-.991c.986-.588,1.952-1.2,2.889-1.868a48.1,48.1,0,0,0,5.069-4.157c.762-.715,1.548-1.435,2.246-2.215.354-.4.222-.838.156-1.323s-.15-.962-.249-1.439c-1.082-5.208-3.544-10.1-6.056-14.747a.691.691,0,0,0-.608-.349c-4.92.37-9.928.044-14.749,1.283a10.542,10.542,0,0,0-3.375,1.422c-.69.475-.035,1.612.661,1.132,2.385-1.645,5.638-1.826,8.434-2.016,3-.2,6.034-.1,9.029-.413l-.608-.349a65.23,65.23,0,0,1,4.206,8.644,28.562,28.562,0,0,1,2.1,7.631c.064-.155.128-.309.192-.464a59.544,59.544,0,0,1-5.347,5.052,36.839,36.839,0,0,1-6.9,4.416l.462-.061c-4.22-.845-7.715-3.817-10.908-6.529a14.9,14.9,0,0,0-1.186-1.01c-.188-.128-.169-.11-.228-.343s-.107-.444-.153-.668a14.407,14.407,0,0,1-.3-2.517,44.9,44.9,0,0,1,.1-5.634,19.7,19.7,0,0,1,1.334-5.983c.322-.74-.744-1.4-1.1-.646" transform="translate(-3.269 -3.557)" fill="#1c191d"/>
            <path id="Trazado_1053487" data-name="Trazado 1053487" d="M60.551,50.984c3.2,1.331,6.613,2.178,9.47,4.238a.669.669,0,0,0,.9-.236c1.385-1.89,3.124-3.931,4.522-5.974a9.26,9.26,0,0,0,1.6-2.949A9.5,9.5,0,0,0,77,43.537c-.059-.982-.152-1.96-.286-2.934a25.424,25.424,0,0,0-4.037-10.439,5.361,5.361,0,0,0-.992-1.36,12.06,12.06,0,0,0-1.646-.934c-1.035-.557-2.093-1.073-3.173-1.537a22.76,22.76,0,0,0-5.536-1.753,6.558,6.558,0,0,0-1.162-.111c-.573.021-1.042.69-1.4,1.082a18.69,18.69,0,0,0-2.1,2.825c-.587.96-1.1,1.96-1.619,2.959-.244.472-.488.942-.744,1.407a4.784,4.784,0,0,0-.333.619,3.786,3.786,0,0,0-.117.771.4.4,0,0,0,.6.345,2.323,2.323,0,0,0,.83-.8c.209-.365.4-.736.6-1.108.408-.779.8-1.566,1.227-2.339a18.242,18.242,0,0,1,3.465-4.644c-.154.064-.308.127-.463.193a12.513,12.513,0,0,1,3.615.75,33.414,33.414,0,0,1,4.73,1.994q.6.3,1.192.627a6.753,6.753,0,0,1,1.218.7,4.831,4.831,0,0,1,.673.98q.35.537.68,1.086a24.68,24.68,0,0,1,1.965,3.958,27.127,27.127,0,0,1,1.542,8.475c.018.4.022.81.042,1.214,0,.033-.021.291.01.106a1.31,1.31,0,0,1-.048.19,4.985,4.985,0,0,1-.406.873,26.371,26.371,0,0,1-1.711,2.6c-1.231,1.7-2.594,3.306-3.836,5l.9-.236a21.38,21.38,0,0,0-4.544-2.406,13.258,13.258,0,0,0-5.526-1.151.231.231,0,0,0-.061.451" transform="translate(-5.559 -2.526)" fill="#1c191d"/>
            <path id="Trazado_1053488" data-name="Trazado 1053488" d="M69.066,58.088a62.443,62.443,0,0,1-1.04,7.275c-.1.524-.2,1.048-.3,1.574a5.959,5.959,0,0,1-.094.661,3.944,3.944,0,0,1-.646.734c-.818.918-1.664,1.811-2.524,2.69-1.891,1.935-3.864,3.832-5.93,5.581-.235.2-.47.4-.708.592-.143.117-.43.412-.463.422a3.417,3.417,0,0,1-.8.047c-.816.041-1.633.063-2.45.034a29.926,29.926,0,0,1-8.274-1.36q.226.4.454.8c.467-2.333.807-4.693,1.042-7.059.113-1.143.2-2.288.248-3.434a12.778,12.778,0,0,0-.091-3.152c-.144-.686-1.056-.439-1.126.152-.115.961-.048,1.945-.084,2.914-.044,1.144-.126,2.287-.236,3.427a64.5,64.5,0,0,1-1.005,6.806.669.669,0,0,0,.454.8,25.065,25.065,0,0,0,7.831,1.2c.96,0,1.924-.017,2.884-.065.31-.015.621-.035.932-.057a1.6,1.6,0,0,0,1.006-.425,76.579,76.579,0,0,0,6.535-5.594q1.477-1.446,2.863-2.98a12.422,12.422,0,0,0,1.176-1.34,5.52,5.52,0,0,0,.414-1.813c.53-2.741,1.33-5.739.665-8.522-.1-.43-.7-.3-.734.1" transform="translate(-4.647 -5.958)" fill="#1c191d"/>
            <path id="Trazado_1053489" data-name="Trazado 1053489" d="M42.735,76.3a35.3,35.3,0,0,1-6.6,3.222,26.109,26.109,0,0,1-3.512,1.077,5.933,5.933,0,0,1-1.336.22,9.26,9.26,0,0,1-1.948-.378,17.836,17.836,0,0,1-7.1-3.792c-.595-.5-1.157-1.036-1.7-1.594a2.752,2.752,0,0,1-.754-.959c-.282-.719-.582-1.43-.84-2.159a23.893,23.893,0,0,1-1.262-9.422l-.479.63q3.822-1.56,7.576-3.282,1.827-.835,3.636-1.712a21.321,21.321,0,0,0,3.349-1.78c.481-.352.222-1.28-.441-1.047a29.89,29.89,0,0,0-3.236,1.54q-1.838.9-3.7,1.757c-2.486,1.147-5,2.244-7.534,3.267a.689.689,0,0,0-.479.629,23.13,23.13,0,0,0,1.327,9.047c.3.866.634,1.713.984,2.558a5.072,5.072,0,0,0,.34.808,13.252,13.252,0,0,0,1.75,1.9,17.831,17.831,0,0,0,7.311,4.626,9.141,9.141,0,0,0,3.873.6,19.591,19.591,0,0,0,3.48-.892A28.834,28.834,0,0,0,39.855,79.3a11.719,11.719,0,0,0,3.333-2.422c.266-.3-.077-.828-.453-.586" transform="translate(-1.686 -5.706)" fill="#1c191d"/>
            <path id="Trazado_1053490" data-name="Trazado 1053490" d="M16.777,59.749a45.983,45.983,0,0,1-4.3-6.358,33.9,33.9,0,0,1-1.757-3.527,3.873,3.873,0,0,1-.424-1.264,9.566,9.566,0,0,1,.059-1.075A55.677,55.677,0,0,1,11.487,40.7a21.1,21.1,0,0,1,.951-3.276c.482-1.224,1.888-2.087,2.947-2.8A28.575,28.575,0,0,1,24.992,30.5l-.5-.065a21.278,21.278,0,0,1,3.321,2.92q.955.978,1.837,2.025c.61.727,1.131,1.529,1.778,2.22.474.506,1.155-.135.9-.694a11.319,11.319,0,0,0-1.756-2.449c-.662-.787-1.36-1.544-2.087-2.272-.621-.622-1.263-1.224-1.934-1.791-.421-.356-1.146-1.15-1.733-1.164a5.662,5.662,0,0,0-1.457.345c-.543.148-1.082.309-1.618.488a26.19,26.19,0,0,0-2.91,1.156,23.477,23.477,0,0,0-4.981,3.158q-.542.451-1.065.924a4.542,4.542,0,0,0-1.012,1.049,12.7,12.7,0,0,0-.736,1.936,38.311,38.311,0,0,0-1.3,4.738,44.206,44.206,0,0,0-.691,4.4,9.1,9.1,0,0,0-.066,1.371,6.8,6.8,0,0,0,.768,2.12,38.307,38.307,0,0,0,2.941,5.369,13.543,13.543,0,0,0,3.63,4.054c.379.251.7-.28.453-.586" transform="translate(-0.927 -3.017)" fill="#1c191d"/>
            <path id="Trazado_1053491" data-name="Trazado 1053491" d="M26.106,28.953c1.07-1.061,1.978-2.275,2.958-3.418.96-1.119,1.976-2.194,3.04-3.215q.713-.683,1.459-1.332c.254-.22.509-.438.769-.65a4.719,4.719,0,0,1,.481-.347c.724-.348,1.527-.557,2.279-.832A27.258,27.258,0,0,1,43.7,17.518q.772-.077,1.546-.091c.2,0,.408-.007.612,0a1.191,1.191,0,0,1,.709.169c1.156.541,2.333,1.032,3.481,1.589a20.29,20.29,0,0,1,3.57,2.139A13.4,13.4,0,0,1,55.2,22.768c.565.6.995,1.328,1.582,1.9.382.375,1.171,0,.958-.558a9.126,9.126,0,0,0-2.7-3.3,18.469,18.469,0,0,0-3.334-2.233C50.5,17.94,49.249,17.372,48,16.824a5.462,5.462,0,0,0-1.8-.646,9.355,9.355,0,0,0-1.608.072,56.025,56.025,0,0,0-7.055,1.521,26.811,26.811,0,0,0-2.739.854,3.657,3.657,0,0,0-1.008.5q-.868.671-1.681,1.4a44.1,44.1,0,0,0-3.718,3.787,15.771,15.771,0,0,0-2.912,4.276c-.148.361.378.606.624.363" transform="translate(-2.628 -1.669)" fill="#1c191d"/>
            <path id="Trazado_1053492" data-name="Trazado 1053492" d="M34.551,18.992a3.478,3.478,0,0,0-1.309-1.175c-.466-.322-.943-.631-1.432-.917a19.9,19.9,0,0,0-3.035-1.416A21.784,21.784,0,0,0,23.3,14.093c-.83-.078-.986,1.245-.2,1.442,1.722.429,3.448.7,5.132,1.291a21.637,21.637,0,0,1,2.808,1.212,14.23,14.23,0,0,1,1.464.859,4.794,4.794,0,0,0,1.427.9.555.555,0,0,0,.618-.8" transform="translate(-2.331 -1.454)" fill="#1c191d"/>
            <path id="Trazado_1053493" data-name="Trazado 1053493" d="M12.8,36.052a6.283,6.283,0,0,0-.275-1.216c-.145-.43-.258-.873-.369-1.311-.233-.912-.422-1.842-.565-2.773A15.229,15.229,0,0,1,11.4,28.32a7.484,7.484,0,0,1,.056-.943c.064-.425.217-.865-.152-1.206q.094.229.189.457c0-.024,0-.049,0-.074-.027-.482-.692-.885-1.056-.438.23-.114.268-.137.114-.069a.532.532,0,0,0-.231.149.835.835,0,0,0-.21.294,2.037,2.037,0,0,0-.121.528,8.488,8.488,0,0,0-.094,1.187,17.3,17.3,0,0,0,.246,2.8,20.3,20.3,0,0,0,.671,2.887c.149.477.326.942.5,1.411a3.621,3.621,0,0,0,.733,1.187c.334.387.816-.047.761-.443" transform="translate(-1.021 -2.676)" fill="#1c191d"/>
            <path id="Trazado_1053494" data-name="Trazado 1053494" d="M8.917,50.67a5.377,5.377,0,0,0-2.741.357,13.774,13.774,0,0,0-2.383.992,11.422,11.422,0,0,0-1.828,1.217c-.391.319-1.012.806-1.132,1.318s.45,1.047.931.716a1.194,1.194,0,0,0,.226-.2c.005-.005.135-.175.058-.078.069-.087.141-.17.217-.252a6.282,6.282,0,0,1,.593-.552,9.735,9.735,0,0,1,1.6-1.038,13.462,13.462,0,0,1,2.058-.9,15.654,15.654,0,0,0,2.508-.792.435.435,0,0,0-.1-.786" transform="translate(-0.084 -5.223)" fill="#1c191d"/>
            <path id="Trazado_1053495" data-name="Trazado 1053495" d="M18.39,76.6a7.366,7.366,0,0,1-1.341.749,4.727,4.727,0,0,1-1.264.562,6.645,6.645,0,0,1-2.829.057,10.982,10.982,0,0,1-2.524-.743,7.579,7.579,0,0,1-.943-.49,1.5,1.5,0,0,1-.5-.39c-.589-.651-1.549.314-.962.962a5.294,5.294,0,0,0,1.846,1.148,11.488,11.488,0,0,0,3,.86,8.125,8.125,0,0,0,3.367-.171,4.835,4.835,0,0,0,1.6-.769,3.5,3.5,0,0,0,.918-1.49.236.236,0,0,0-.369-.285" transform="translate(-0.81 -7.858)" fill="#1c191d"/>
            <path id="Trazado_1053496" data-name="Trazado 1053496" d="M32.706,84.39a5.649,5.649,0,0,0,.143,3.374,13.809,13.809,0,0,0,1.331,3.231,15.136,15.136,0,0,0,1.981,2.716,9.9,9.9,0,0,0,1.09,1.043,2.786,2.786,0,0,0,1.414.493c.179.029.4-.16.266-.345a7.535,7.535,0,0,0-.7-1.025c-.334-.337-.708-.63-1.036-.977a13.512,13.512,0,0,1-1.883-2.566,15.172,15.172,0,0,1-1.337-2.969c-.313-.994-.422-2.082-.829-3.032-.091-.214-.373-.108-.439.057" transform="translate(-3.354 -8.692)" fill="#1c191d"/>
            <path id="Trazado_1053497" data-name="Trazado 1053497" d="M58.358,80.313a1.965,1.965,0,0,0-.091,1.2q.093.728.185,1.455a17.733,17.733,0,0,1,.107,3.372,11.4,11.4,0,0,1-2.48,6.731c-.546.638.376,1.568.925.926a12.728,12.728,0,0,0,2.843-7.349,17.844,17.844,0,0,0-.084-3.68c-.1-.806-.237-2.314-1.047-2.752a.265.265,0,0,0-.357.093" transform="translate(-5.771 -8.277)" fill="#1c191d"/>
            <path id="Trazado_1053498" data-name="Trazado 1053498" d="M70.636,69.929l.316.257c-.023-.09-.048-.179-.071-.268-.081.567.472.924.9,1.2a12.689,12.689,0,0,0,1.791.929,12.243,12.243,0,0,0,3.549.994,9.333,9.333,0,0,0,7.053-2.288.639.639,0,0,0,.165-.624.538.538,0,0,0-.3-.383.644.644,0,0,0-.647,0,11.821,11.821,0,0,1-3.165,1.715,7.638,7.638,0,0,1-3.112.27,10.634,10.634,0,0,1-3.059-.89c-.56-.25-1.093-.545-1.639-.821-.4-.2-.989-.555-1.413-.266h.279c-.125-.06-.248-.121-.371-.185-.219-.111-.493.187-.279.361" transform="translate(-7.283 -7.178)" fill="#1c191d"/>
            <path id="Trazado_1053499" data-name="Trazado 1053499" d="M79,48.325c.121.012-.017-.008.072.009.132.025.261.069.393.092a15.136,15.136,0,0,0,1.565.078,8.2,8.2,0,0,1,4.167,1.4,7.284,7.284,0,0,1,1.166,1.038c.426.462.714,1.072,1.16,1.5a.624.624,0,0,0,1.035-.6,4.793,4.793,0,0,0-1.021-1.546,8.353,8.353,0,0,0-1.146-1.12,8.865,8.865,0,0,0-2.538-1.426,8,8,0,0,0-4.2-.393,2.53,2.53,0,0,0-.811.373.326.326,0,0,0,.163.6" transform="translate(-8.121 -4.875)" fill="#1c191d"/>
            <path id="Trazado_1053500" data-name="Trazado 1053500" d="M73.4,29.109a4.75,4.75,0,0,0,1.089-1.268,5.436,5.436,0,0,0,.58-1.617,11.084,11.084,0,0,0,.044-3.343,14.078,14.078,0,0,0-.613-2.743,5.9,5.9,0,0,0-.375-.932.8.8,0,0,0-.627-.429c-.069-.014-.336.076-.056.009-.055.013-.117.013-.174.022a.467.467,0,0,0-.327.328s.088-.134.111-.178c-.071.141-.161.209-.184.376a.981.981,0,0,0,.147.578,1.66,1.66,0,0,1,.1.229c.054.14.1.28.151.421a13.076,13.076,0,0,1,.548,2.376,10.2,10.2,0,0,1,0,2.941,8.3,8.3,0,0,1-.865,2.883.288.288,0,0,0,.45.347" transform="translate(-7.521 -1.938)" fill="#1c191d"/>
            <path id="Trazado_1053501" data-name="Trazado 1053501" d="M49.142,16.372a9.264,9.264,0,0,1,2.821-3.412,12.011,12.011,0,0,1,2.029-1.315,7.6,7.6,0,0,1,.9-.4c.394-.143.869-.171,1.113-.548a.616.616,0,0,0-.218-.83c-.385-.244-.925,0-1.316.143a10.776,10.776,0,0,0-1.14.507,13.624,13.624,0,0,0-2.295,1.519c-1.227.988-2.651,2.445-2.658,4.132,0,.377.6.6.763.206" transform="translate(-4.994 -1.007)" fill="#1c191d"/>
            <path id="Trazado_1053502" data-name="Trazado 1053502" d="M56.653,30.264c5.64-.7,11.2-1.959,16.813-2.892,5.486-.913,11-1.69,16.538-2.22,5.913-.567,11.837-.822,17.775-.908,6.661-.1,13.366.075,20.008.612,7.924.64,15.8,1.622,23.656,2.823,1.04.159,2.075.325,3.122.436.175.019.208-.264.041-.3-4.131-1-8.4-1.516-12.6-2.154-3.818-.58-7.632-1.133-11.472-1.554-6.8-.748-13.616-1.335-20.462-1.492a160.04,160.04,0,0,0-17.993.622q-8.448.763-16.8,2.307c-2.766.517-5.53,1.062-8.27,1.7-2.779.646-5.565,1.264-8.3,2.064-.7.206-1.394.477-2.088.714-.126.043-.117.267.033.248" transform="translate(-5.835 -2.33)" fill="#1c191d"/>
            <path id="Trazado_1053503" data-name="Trazado 1053503" d="M76.315,77.485c3.482-.951,6.883-2.13,10.329-3.206q7.026-2.2,14.177-3.957c6.053-1.5,12.175-2.729,18.33-3.731q11.217-1.824,22.576-2.526c9-.563,18.044-.676,27.059-.491,1.226.025,2.453.046,3.679.076.249.006.243-.365,0-.384a224.143,224.143,0,0,0-27.811-.411c-7.73.361-15.451,1.054-23.114,2.139q-9.559,1.353-18.955,3.6c-4.953,1.184-9.848,2.578-14.695,4.137-3.6,1.158-7.226,2.307-10.708,3.788-.338.143-.678.284-1.018.425-.325.134-.211.641.15.543" transform="translate(-7.842 -6.462)" fill="#1c191d"/>
            <path id="Trazado_1053504" data-name="Trazado 1053504" d="M339.766,137.089c.563.668,1,1.413,1.519,2.112.494.662.973,1.334,1.443,2.012.944,1.365,1.834,2.775,2.7,4.192a37.309,37.309,0,0,1,3.954,9.058,24.034,24.034,0,0,1,.558,2.779c.158.929.388,1.844.543,2.776a.115.115,0,0,0,.221,0,17.084,17.084,0,0,0,.263-2.454,11.943,11.943,0,0,0-.311-2.5,23.638,23.638,0,0,0-1.466-4.965,35.627,35.627,0,0,0-2.329-4.563,29.3,29.3,0,0,0-3.019-4.248c-.627-.713-1.235-1.442-1.868-2.149-.671-.751-1.434-1.4-2.107-2.143-.06-.067-.155.03-.1.1" transform="translate(-35.069 -14.138)" fill="#1c191d"/>
            <path id="Trazado_1053505" data-name="Trazado 1053505" d="M340.718,186.073a72.633,72.633,0,0,1-10.956,12.889,70.844,70.844,0,0,1-7.261,5.817,83.372,83.372,0,0,1-7.812,4.719,64.065,64.065,0,0,1-16.538,6.377,77.533,77.533,0,0,1-9.857,1.55c-2.973.281-5.96.273-8.942.336-2.295.049-4.581.01-6.875-.1-1.234-.06-2.493-.21-3.73-.147-.113.005-.225.018-.334.031-.2.022-.2.333,0,.309a4.627,4.627,0,0,1,.958.1c.64.067,1.282.132,1.924.19q3.192.291,6.393.463a86.377,86.377,0,0,0,18.7-.958,52.24,52.24,0,0,0,9.322-2.364,64.6,64.6,0,0,0,7.9-3.518,82.447,82.447,0,0,0,15.3-10.656,63.943,63.943,0,0,0,6.459-6.376,32.16,32.16,0,0,0,4.815-6.894c.266-.544.462-1.135.677-1.7.035-.091-.1-.135-.149-.063" transform="translate(-27.691 -19.203)" fill="#1c191d"/>
          </g>
        </g>
      </g>
    </g>
  </g>
</svg>
