<svg xmlns="http://www.w3.org/2000/svg" xmlns:xlink="http://www.w3.org/1999/xlink" width="410" height="246" viewBox="0 0 410 246">
  <defs>
    <clipPath id="clip-path">
      <rect id="Rect치ngulo_411836" data-name="Rect치ngulo 411836" width="251.49" height="207.617" fill="none"/>
    </clipPath>
  </defs>
  <g id="Grupo_1189000" data-name="Grupo 1189000" transform="translate(-800.051 -8551)">
    <rect id="Rect치ngulo_411834" data-name="Rect치ngulo 411834" width="410" height="246" transform="translate(800.051 8551)" fill="#fff3cd"/>
    <g id="Grupo_1188999" data-name="Grupo 1188999" transform="translate(879.306 8571)">
      <g id="Grupo_1188998" data-name="Grupo 1188998" clip-path="url(#clip-path)">
        <path id="Trazado_1053508" data-name="Trazado 1053508" d="M250.128,47.463a21.253,21.253,0,0,1-3.275,2.454l-4.128,2.827L234.315,58.5c-.888.608-1.723-.837-.842-1.441,4.793-3.282,9.685-6.457,14.392-9.862a4.652,4.652,0,0,0,1.887-2.122l-21.02-.288v4.664a.835.835,0,0,1-1.668,0V44.767l-21.108-.289v4.976a.835.835,0,0,1-1.668,0v-5L176.3,44.072c1,1.763,1.94,3.563,2.81,5.406,6.048,12.819,9.2,26.754,11.849,40.605q4.62,24.123,7.633,48.517,3.026,24.449,4.421,49.064.338,5.963.579,11.93c.044,1.074-1.625,1.072-1.668,0q-.983-24.15-3.53-48.2-2.559-24.109-6.7-48.015c-2.481-14.321-5.019-28.819-9.79-42.588a96.4,96.4,0,0,0-7.563-16.746l-8.835-.121v3.491a.834.834,0,0,1-1.668,0V43.9l-11.164-.153-11.3-.155v3.142a.835.835,0,0,1-1.668,0V43.571l-20.226-.277q.351,16.261.7,32.523h6.081a.835.835,0,0,1,0,1.668h-6.045l.078,3.626q.354,16.39.707,32.78h5.94a.835.835,0,0,1,0,1.668h-5.9q.341,15.824.682,31.647h5.562a.835.835,0,0,1,0,1.668h-5.526q.131,6.066.261,12.132l.289,13.4h4.976a.834.834,0,0,1,0,1.668h-4.94q.3,14.011.6,28.022a79.338,79.338,0,0,0,7-17.929.835.835,0,0,1,1.609.444,80.992,80.992,0,0,1-8.435,20.6.841.841,0,0,1-1.44,0l-10.434-20.663c-.483-.956.956-1.8,1.44-.842l8.566,16.963q-.287-13.3-.573-26.6h-5.97a.834.834,0,0,1,0-1.668h5.934l-.55-25.528h-6.4a.835.835,0,0,1,0-1.668h6.368q-.231-10.718-.462-21.436l-.22-10.211h-6.365a.835.835,0,0,1,0-1.668h6.329l-.785-36.406h-4.865a.835.835,0,0,1,0-1.668H118.5l-.645-29.942-.056-2.6-54.969-.753c-.674,1.195-1.326,2.4-1.943,3.626C54.439,58.955,50.783,73.113,47.44,86.993a417.171,417.171,0,0,0-11.591,94.09q-.051,5.768.058,11.537a.834.834,0,0,1-1.668,0,420.06,420.06,0,0,1,9.275-95.892q2.525-11.77,5.728-23.382a182.21,182.21,0,0,1,6.593-20.025,99.184,99.184,0,0,1,5.146-10.828l-5.405-.074-9.737-.133v3.43a.834.834,0,0,1-1.668,0V42.263l-23.828-.326v2.419a.835.835,0,0,1-1.668,0V41.913L.805,41.669A.835.835,0,0,1,.805,40l17.869.245V34.5a.835.835,0,0,1,1.668,0v5.771l23.828.326V34.5a.834.834,0,0,1,1.668,0v6.12l16.086.22A65.586,65.586,0,0,1,79.439,20.79,64.556,64.556,0,0,1,116.36,8.361c.23,0,.459,0,.689,0L116.887.806a.834.834,0,0,1,1.668,0q.081,3.781.163,7.562a66.585,66.585,0,0,1,34.688,10.938A70.632,70.632,0,0,1,175.32,42.391l20.17.276,8.8.121V35.177a.835.835,0,0,1,1.668,0V42.81l21.108.289V37.556a.835.835,0,0,1,1.668,0v5.566l20.621.282a11.393,11.393,0,0,0-1.623-1.553l-6.635-5.921c-.8-.716.38-1.892,1.18-1.18,2.467,2.2,4.975,4.363,7.4,6.607a4.638,4.638,0,0,1,1.813,3.177,4.17,4.17,0,0,1-1.361,2.928m-186.336-6.6,16.578.227L69.153,33.033a71.243,71.243,0,0,0-5.362,7.83m8.684-11.689c-.782.835-1.53,1.7-2.263,2.574l11.977,8.6a.841.841,0,0,1,.36.768l15.105.207q-9.61-8.96-20.015-17.009a57.478,57.478,0,0,0-5.164,4.856m15.561-11.82a60.954,60.954,0,0,0-9.073,5.9q10.956,8.482,21.06,17.983a.909.909,0,0,1,.1.12l16.743.229Q103.226,28.778,88.608,17.065c-.19.1-.384.189-.573.289m29.05-7.327a62.747,62.747,0,0,0-16.334,2.284,178.414,178.414,0,0,1,16.688,14.13q-.177-8.207-.354-16.414m.4,18.526a.8.8,0,0,1-.479-.234A175.376,175.376,0,0,0,98.917,13a.914.914,0,0,1-.123-.111,63.11,63.11,0,0,0-8.564,3.362q14.207,11.4,27.5,23.872l-.249-11.565m43.07-1.7A66.63,66.63,0,0,0,125.85,10.6a59.613,59.613,0,0,0-7.1-.57q.34,15.8.681,31.593L139.7,41.9V35.177a.835.835,0,0,1,1.668,0v6.749l22.468.308V36.2a.834.834,0,0,1,1.668,0v6.06l7.842.107a68.52,68.52,0,0,0-12.788-15.506" transform="translate(0 0)" fill="#020202"/>
      </g>
    </g>
  </g>
</svg>
