<svg xmlns="http://www.w3.org/2000/svg" width="203.492" height="40.375" viewBox="0 0 203.492 40.375">
  <g id="Grupo_1191045" data-name="Grupo 1191045" transform="translate(-877.197 -7597.125)">
    <path id="Trazado_1055169" data-name="Trazado 1055169" d="M.146,0,3.936-5.391.43-10.371h2.2L4.219-7.939q.449.693.723,1.162.43-.645.791-1.143L7.48-10.371h2.1L6-5.488,9.854,0H7.7L5.566-3.223,5-4.092,2.275,0ZM10.484,2.882A7.642,7.642,0,0,1,10.789.5,2.965,2.965,0,0,1,11.695-.9a2.315,2.315,0,0,1,1.512-.49,2.467,2.467,0,0,1,1.179.271,2.254,2.254,0,0,1,.837.78A4.187,4.187,0,0,1,15.742.908a8.25,8.25,0,0,1,.188,1.974,7.663,7.663,0,0,1-.3,2.373,2.966,2.966,0,0,1-.9,1.4,2.315,2.315,0,0,1-1.518.493,2.292,2.292,0,0,1-1.9-.866A5.5,5.5,0,0,1,10.484,2.882Zm1.054,0a5.236,5.236,0,0,0,.481,2.737,1.375,1.375,0,0,0,2.375,0,5.238,5.238,0,0,0,.481-2.734,5.235,5.235,0,0,0-.481-2.74,1.429,1.429,0,0,0-1.2-.678,1.314,1.314,0,0,0-1.128.6A5.3,5.3,0,0,0,11.538,2.882Zm49.782-5.2V-6.24h-3.9V-7.881h3.9v-3.9h1.66v3.9h3.9V-6.24h-3.9v3.926ZM79.181,0,73.635-14.316h2.051l3.721,10.4q.449,1.25.752,2.344.332-1.172.771-2.344l3.867-10.4H86.73L81.125,0Zm8.092,3.975a3.118,3.118,0,0,1,.934-2.489,2.815,2.815,0,0,1,1.9-.672,2.714,2.714,0,0,1,2.039.817,3.11,3.11,0,0,1,.792,2.259,4,4,0,0,1-.35,1.837,2.48,2.48,0,0,1-1.02,1.04,2.969,2.969,0,0,1-1.461.37,2.719,2.719,0,0,1-2.054-.815A3.254,3.254,0,0,1,87.274,3.975Zm1.054,0a2.577,2.577,0,0,0,.507,1.74,1.688,1.688,0,0,0,2.546,0,2.638,2.638,0,0,0,.507-1.772,2.5,2.5,0,0,0-.51-1.7,1.69,1.69,0,0,0-2.543,0A2.565,2.565,0,0,0,88.328,3.975Zm8.055,2.108.148.906a3.8,3.8,0,0,1-.775.091A1.754,1.754,0,0,1,94.89,6.9a.989.989,0,0,1-.433-.464,3.671,3.671,0,0,1-.125-1.21V1.748H93.58v-.8h.752v-1.5l1.02-.615V.951h1.031v.8H95.351V5.285a1.787,1.787,0,0,0,.054.564.427.427,0,0,0,.177.2.682.682,0,0,0,.35.074A3.335,3.335,0,0,0,96.382,6.083Z" transform="translate(877.051 7623)" fill="#fff"/>
    <path id="Trazado_1053461" data-name="Trazado 1053461" d="M-3619.832-4075h10.346" transform="translate(4597.397 11693)" fill="none" stroke="#fff" stroke-width="1"/>
    <path id="Trazado_1055170" data-name="Trazado 1055170" d="M7.451,0H5.693V-11.2A9.085,9.085,0,0,1,4.028-9.99a11.8,11.8,0,0,1-1.851.908v-1.7a10.616,10.616,0,0,0,2.578-1.68,6.607,6.607,0,0,0,1.563-1.914H7.451Z" transform="translate(1006.832 7611.5)" fill="#fff"/>
    <path id="Trazado_1053462" data-name="Trazado 1053462" d="M-3619.832-4075h22.435" transform="translate(4620.832 11692.5)" fill="none" stroke="#fff" stroke-width="1"/>
    <path id="Trazado_1055171" data-name="Trazado 1055171" d="M10.068-1.689V0H.605A3.11,3.11,0,0,1,.811-1.221a6.458,6.458,0,0,1,1.157-1.9,18.13,18.13,0,0,1,2.3-2.168A19.5,19.5,0,0,0,7.422-8.325a3.631,3.631,0,0,0,.82-2.114A2.349,2.349,0,0,0,7.5-12.2a2.7,2.7,0,0,0-1.948-.718,2.745,2.745,0,0,0-2.031.762,2.882,2.882,0,0,0-.771,2.109L.938-10.234a4.447,4.447,0,0,1,1.4-3.081,4.764,4.764,0,0,1,3.252-1.06,4.538,4.538,0,0,1,3.262,1.143,3.751,3.751,0,0,1,1.2,2.832A4.3,4.3,0,0,1,9.7-8.711,6.556,6.556,0,0,1,8.53-6.963a28.43,28.43,0,0,1-2.71,2.52q-1.582,1.328-2.031,1.8a5.78,5.78,0,0,0-.742.952Z" transform="translate(1006.832 7637.5)" fill="#fff"/>
    <path id="Trazado_1055172" data-name="Trazado 1055172" d="M1,.859l1.709.254a1.629,1.629,0,0,0,.6,1.152,2.926,2.926,0,0,0,1.787.488,3.138,3.138,0,0,0,1.885-.488A2.4,2.4,0,0,0,7.871.9,11.227,11.227,0,0,0,8-1.357,3.616,3.616,0,0,1,5.127,0,3.914,3.914,0,0,1,1.816-1.543a5.942,5.942,0,0,1-1.172-3.7,6.889,6.889,0,0,1,.537-2.739A4.3,4.3,0,0,1,2.739-9.922a4.206,4.206,0,0,1,2.4-.684A3.718,3.718,0,0,1,8.164-9.121v-1.25H9.785v8.965a8.5,8.5,0,0,1-.493,3.433,3.607,3.607,0,0,1-1.562,1.6A5.415,5.415,0,0,1,5.1,4.209a4.963,4.963,0,0,1-3-.835A2.823,2.823,0,0,1,1,.859Zm1.455-6.23a4.5,4.5,0,0,0,.811,2.979,2.574,2.574,0,0,0,2.031.938,2.6,2.6,0,0,0,2.031-.933,4.353,4.353,0,0,0,.82-2.925A4.253,4.253,0,0,0,7.3-8.184,2.612,2.612,0,0,0,5.264-9.15,2.537,2.537,0,0,0,3.271-8.2,4.228,4.228,0,0,0,2.451-5.371Zm13.828,3.8L16.533-.02a6.52,6.52,0,0,1-1.328.156,3.007,3.007,0,0,1-1.484-.3,1.7,1.7,0,0,1-.742-.8,6.294,6.294,0,0,1-.215-2.075V-9H11.475v-1.367h1.289v-2.568l1.748-1.055v3.623h1.768V-9H14.512v6.064a3.063,3.063,0,0,0,.093.967.732.732,0,0,0,.3.342,1.169,1.169,0,0,0,.6.127A5.718,5.718,0,0,0,16.279-1.572ZM32.8-8.418H23.35v-1.641H32.8Zm0,4.346H23.35V-5.713H32.8Zm7.5-2.988a13.1,13.1,0,0,1,.522-4.087,5.084,5.084,0,0,1,1.553-2.388,3.97,3.97,0,0,1,2.593-.84,4.23,4.23,0,0,1,2.021.464,3.864,3.864,0,0,1,1.436,1.338,7.177,7.177,0,0,1,.889,2.129,14.144,14.144,0,0,1,.322,3.384,13.137,13.137,0,0,1-.518,4.067A5.085,5.085,0,0,1,47.573-.6a3.97,3.97,0,0,1-2.6.845A3.929,3.929,0,0,1,41.719-1.24Q40.3-3.027,40.3-7.061Zm1.807,0q0,3.525.825,4.692A2.432,2.432,0,0,0,44.971-1.2a2.43,2.43,0,0,0,2.036-1.172q.825-1.172.825-4.687,0-3.535-.825-4.7a2.449,2.449,0,0,0-2.056-1.162,2.252,2.252,0,0,0-1.934,1.025Q42.109-10.586,42.109-7.061Z" transform="translate(1031.051 7621)" fill="#fff"/>
  </g>
</svg>
