<svg xmlns="http://www.w3.org/2000/svg" width="188.68" height="36.882" viewBox="0 0 188.68 36.882">
  <g id="Grupo_1191047" data-name="Grupo 1191047" transform="translate(-811.32 -1820.274)">
    <path id="Trazado_1055172" data-name="Trazado 1055172" d="M7.594-5.023H2.82V0H1.32V-11.375H8.367v1.227H2.82v3.9H7.594ZM11.528,5.091A2.154,2.154,0,0,1,9.9,4.433a2.444,2.444,0,0,1-.629-1.761V2.516a2.959,2.959,0,0,1,.28-1.31,2.186,2.186,0,0,1,.784-.9,1.971,1.971,0,0,1,1.091-.326,1.847,1.847,0,0,1,1.495.633,2.743,2.743,0,0,1,.533,1.814v.351h-3.34a1.753,1.753,0,0,0,.426,1.178,1.339,1.339,0,0,0,1.037.449,1.468,1.468,0,0,0,.756-.182,1.9,1.9,0,0,0,.542-.483l.515.4A2.071,2.071,0,0,1,11.528,5.091Zm-.1-4.42a1.125,1.125,0,0,0-.857.371,1.805,1.805,0,0,0-.428,1.041h2.47V2.02a1.606,1.606,0,0,0-.346-1A1.059,1.059,0,0,0,11.423.671Z" transform="translate(810 1832)" fill="#fff"/>
    <path id="Trazado_1055173" data-name="Trazado 1055173" d="M7.7-6.359H1.188V-7.617H7.7Zm0,3.242H1.188v-1.25H7.7ZM20.586-8.406a2.641,2.641,0,0,1-.449,1.516,3.057,3.057,0,0,1-1.215,1.039,3.26,3.26,0,0,1,1.41,1.117,2.811,2.811,0,0,1,.52,1.664,2.972,2.972,0,0,1-1,2.352,3.827,3.827,0,0,1-2.621.875,3.81,3.81,0,0,1-2.629-.879,2.986,2.986,0,0,1-.988-2.348,2.9,2.9,0,0,1,.5-1.664,3.136,3.136,0,0,1,1.395-1.125A2.981,2.981,0,0,1,14.32-6.9a2.679,2.679,0,0,1-.437-1.508,2.94,2.94,0,0,1,.922-2.281,3.458,3.458,0,0,1,2.43-.844,3.461,3.461,0,0,1,2.426.844A2.934,2.934,0,0,1,20.586-8.406Zm-1.18,5.3A2.1,2.1,0,0,0,18.8-4.656a2.147,2.147,0,0,0-1.582-.6,2.11,2.11,0,0,0-1.566.594,2.12,2.12,0,0,0-.59,1.563,2.019,2.019,0,0,0,.574,1.523,2.2,2.2,0,0,0,1.6.555,2.2,2.2,0,0,0,1.594-.559A2.014,2.014,0,0,0,19.406-3.1Zm-2.172-7.242a1.865,1.865,0,0,0-1.379.527,1.937,1.937,0,0,0-.527,1.434,1.928,1.928,0,0,0,.52,1.4,1.844,1.844,0,0,0,1.387.535,1.844,1.844,0,0,0,1.387-.535,1.928,1.928,0,0,0,.52-1.4A1.929,1.929,0,0,0,18.6-9.8,1.839,1.839,0,0,0,17.234-10.344ZM22.852-.758a.905.905,0,0,1,.223-.625.848.848,0,0,1,.668-.25.874.874,0,0,1,.676.25.887.887,0,0,1,.23.625.839.839,0,0,1-.23.6.89.89,0,0,1-.676.242.863.863,0,0,1-.668-.242A.855.855,0,0,1,22.852-.758ZM32.422-5a3.536,3.536,0,0,1-1.082.867,2.936,2.936,0,0,1-1.379.328,3.031,3.031,0,0,1-1.715-.484,3.149,3.149,0,0,1-1.129-1.363,4.648,4.648,0,0,1-.4-1.941,4.735,4.735,0,0,1,.434-2.055,3.185,3.185,0,0,1,1.23-1.4,3.509,3.509,0,0,1,1.859-.484A3.177,3.177,0,0,1,32.9-10.27a5.5,5.5,0,0,1,.973,3.441v.422q0,3.32-1.312,4.848A5.043,5.043,0,0,1,28.6.008H28.32V-1.219h.3a3.979,3.979,0,0,0,2.75-.932A4,4,0,0,0,32.422-5ZM30.2-5a2.232,2.232,0,0,0,1.34-.445,2.625,2.625,0,0,0,.895-1.1v-.578a3.977,3.977,0,0,0-.617-2.312,1.842,1.842,0,0,0-1.562-.891,1.856,1.856,0,0,0-1.531.73,3.013,3.013,0,0,0-.578,1.926A3.136,3.136,0,0,0,28.7-5.754,1.769,1.769,0,0,0,30.2-5ZM41.406-5a3.536,3.536,0,0,1-1.082.867,2.936,2.936,0,0,1-1.379.328,3.031,3.031,0,0,1-1.715-.484A3.149,3.149,0,0,1,36.1-5.652a4.648,4.648,0,0,1-.4-1.941,4.735,4.735,0,0,1,.434-2.055,3.185,3.185,0,0,1,1.23-1.4,3.509,3.509,0,0,1,1.859-.484,3.177,3.177,0,0,1,2.66,1.262,5.5,5.5,0,0,1,.973,3.441v.422q0,3.32-1.312,4.848A5.043,5.043,0,0,1,37.586.008H37.3V-1.219h.3a3.979,3.979,0,0,0,2.75-.932A4,4,0,0,0,41.406-5ZM39.18-5a2.232,2.232,0,0,0,1.34-.445,2.625,2.625,0,0,0,.895-1.1v-.578A3.977,3.977,0,0,0,40.8-9.437a1.842,1.842,0,0,0-1.562-.891A1.856,1.856,0,0,0,37.7-9.6a3.013,3.013,0,0,0-.578,1.926,3.136,3.136,0,0,0,.559,1.918A1.769,1.769,0,0,0,39.18-5ZM51.8-5.367l1.875-3.086h1.688l-2.766,4.18L55.445,0H53.773L51.82-3.164,49.867,0h-1.68l2.852-4.273-2.766-4.18h1.672ZM65.453,0H64V-9.633l-2.914,1.07V-9.875l4.141-1.555h.227ZM76.82-4.852a6.61,6.61,0,0,1-.867,3.773A3.084,3.084,0,0,1,73.242.156a3.107,3.107,0,0,1-2.7-1.207,6.274,6.274,0,0,1-.906-3.605v-1.93a6.463,6.463,0,0,1,.867-3.727,3.108,3.108,0,0,1,2.719-1.219,3.136,3.136,0,0,1,2.7,1.176,6.237,6.237,0,0,1,.891,3.629ZM75.375-6.828A5.3,5.3,0,0,0,74.859-9.5a1.775,1.775,0,0,0-1.633-.84,1.751,1.751,0,0,0-1.617.836,5.171,5.171,0,0,0-.523,2.57v2.313A5.381,5.381,0,0,0,71.621-1.9a1.771,1.771,0,0,0,1.621.879,1.747,1.747,0,0,0,1.59-.828,5.186,5.186,0,0,0,.543-2.609Zm6.134-1.088a2.063,2.063,0,0,1-.631.506,1.712,1.712,0,0,1-.8.191,1.768,1.768,0,0,1-1-.283,1.837,1.837,0,0,1-.658-.8,2.711,2.711,0,0,1-.232-1.132,2.762,2.762,0,0,1,.253-1.2,1.858,1.858,0,0,1,.718-.816,2.047,2.047,0,0,1,1.085-.283,1.853,1.853,0,0,1,1.552.736,3.21,3.21,0,0,1,.567,2.007v.246a4.289,4.289,0,0,1-.766,2.828A2.941,2.941,0,0,1,79.281-5h-.164v-.715h.178a2.321,2.321,0,0,0,1.6-.543A2.332,2.332,0,0,0,81.509-7.917Zm-1.3,0a1.3,1.3,0,0,0,.782-.26,1.531,1.531,0,0,0,.522-.643v-.337a2.32,2.32,0,0,0-.36-1.349,1.074,1.074,0,0,0-.911-.52,1.083,1.083,0,0,0-.893.426,1.758,1.758,0,0,0-.337,1.123,1.829,1.829,0,0,0,.326,1.119A1.032,1.032,0,0,0,80.21-7.917Z" transform="translate(828 1832)" fill="#fff"/>
    <path id="Trazado_1055174" data-name="Trazado 1055174" d="M10.063,0H8.555L2.828-8.766V0H1.32V-11.375H2.828L8.57-2.57v-8.8h1.492Z" transform="translate(917 1832)" fill="#fff"/>
    <path id="Trazado_1055175" data-name="Trazado 1055175" d="M10.063,0H8.555L2.828-8.766V0H1.32V-11.375H2.828L8.57-2.57v-8.8h1.492Zm3.922-7.684-2.359-.7.359-1.178,2.359.874-.07-2.685h1.2l-.078,2.724,2.32-.859.359,1.186-2.4.71L17.219-5.5l-.969.734L14.8-7.012l-1.406,2.2-.977-.711Zm10.727-.77.039.938a3.122,3.122,0,0,1,2.508-1.094A2.417,2.417,0,0,1,29.672-7.25a3.2,3.2,0,0,1,1.1-.984,3.242,3.242,0,0,1,1.6-.375q2.781,0,2.828,2.945V0H33.75V-5.578a1.941,1.941,0,0,0-.414-1.355,1.823,1.823,0,0,0-1.391-.449,1.916,1.916,0,0,0-1.336.48,1.949,1.949,0,0,0-.617,1.293V0H28.539V-5.539a1.613,1.613,0,0,0-1.8-1.844,1.934,1.934,0,0,0-1.945,1.211V0H23.344V-8.453ZM41.18-5H36.833v-.606l2.3-2.552a5.456,5.456,0,0,0,.7-.941,1.571,1.571,0,0,0,.194-.75,1.191,1.191,0,0,0-.314-.852,1.1,1.1,0,0,0-.838-.333,1.3,1.3,0,0,0-.977.358,1.366,1.366,0,0,0-.349,1h-.843a1.957,1.957,0,0,1,.59-1.481,2.188,2.188,0,0,1,1.579-.565,2.1,2.1,0,0,1,1.463.485,1.655,1.655,0,0,1,.538,1.292,3.8,3.8,0,0,1-1.249,2.333L37.849-5.688H41.18Z" transform="translate(947 1832)" fill="#fff"/>
    <path id="Trazado_1053683" data-name="Trazado 1053683" d="M11719.5-9754h59.5" transform="translate(-10779 11593)" fill="none" stroke="#fff" stroke-width="1"/>
    <path id="Trazado_1055176" data-name="Trazado 1055176" d="M4.484-1.023a2.082,2.082,0,0,0,1.352-.469,1.649,1.649,0,0,0,.641-1.172H7.844a2.621,2.621,0,0,1-.5,1.383A3.293,3.293,0,0,1,6.113-.234,3.55,3.55,0,0,1,4.484.156,3.482,3.482,0,0,1,1.738-1,4.59,4.59,0,0,1,.719-4.148v-.242a5.089,5.089,0,0,1,.453-2.2,3.451,3.451,0,0,1,1.3-1.492,3.7,3.7,0,0,1,2-.531,3.39,3.39,0,0,1,2.363.852,3.043,3.043,0,0,1,1,2.211H6.477a1.992,1.992,0,0,0-.621-1.348,1.932,1.932,0,0,0-1.379-.527,2.023,2.023,0,0,0-1.707.793,3.724,3.724,0,0,0-.605,2.293v.273a3.65,3.65,0,0,0,.6,2.25A2.033,2.033,0,0,0,4.484-1.023ZM13.274-5H8.926v-.606l2.3-2.552a5.456,5.456,0,0,0,.7-.941,1.571,1.571,0,0,0,.194-.75,1.19,1.19,0,0,0-.314-.852,1.1,1.1,0,0,0-.838-.333,1.3,1.3,0,0,0-.977.358,1.366,1.366,0,0,0-.349,1H8.8a1.957,1.957,0,0,1,.59-1.481,2.188,2.188,0,0,1,1.579-.565,2.1,2.1,0,0,1,1.463.485,1.655,1.655,0,0,1,.538,1.292A3.8,3.8,0,0,1,11.72-7.616L9.943-5.688h3.331Z" transform="translate(961 1857)" fill="#fff"/>
  </g>
</svg>
