<svg xmlns="http://www.w3.org/2000/svg" xmlns:xlink="http://www.w3.org/1999/xlink" width="91" height="91" viewBox="0 0 91 91">
  <defs>
    <filter id="Elipse_12115" x="0" y="0" width="91" height="91" filterUnits="userSpaceOnUse">
      <feOffset dy="3" input="SourceAlpha"/>
      <feGaussianBlur stdDeviation="3" result="blur"/>
      <feFlood flood-opacity="0.161"/>
      <feComposite operator="in" in2="blur"/>
      <feComposite in="SourceGraphic"/>
    </filter>
  </defs>
  <g id="Grupo_1190815" data-name="Grupo 1190815" transform="translate(-1064.051 -2858)">
    <g id="Grupo_1190754" data-name="Grupo 1190754" transform="translate(466 1214)">
      <g id="Grupo_1190746" data-name="Grupo 1190746" transform="translate(607.051 1650)">
        <g id="Grupo_1188930" data-name="Grupo 1188930" transform="translate(0)">
          <g id="Grupo_1181949" data-name="Grupo 1181949" transform="translate(0 0)">
            <g transform="matrix(1, 0, 0, 1, -9, -6)" filter="url(#Elipse_12115)">
              <g id="Elipse_12115-2" data-name="Elipse 12115" transform="translate(9 6)" fill="#ffc006" stroke="#b18603" stroke-width="2">
                <circle cx="36.5" cy="36.5" r="36.5" stroke="none"/>
                <circle cx="36.5" cy="36.5" r="35.5" fill="none"/>
              </g>
            </g>
          </g>
        </g>
      </g>
    </g>
    <g id="ruta-equivocada_1_" data-name="ruta-equivocada (1)" transform="translate(1084.576 2874.342)">
      <g id="Grupo_1190758" data-name="Grupo 1190758" transform="translate(6.934 8.975)">
        <g id="Grupo_1190757" data-name="Grupo 1190757">
          <g id="Grupo_1190756" data-name="Grupo 1190756">
            <g id="Grupo_1190755" data-name="Grupo 1190755">
              <path id="Trazado_1054989" data-name="Trazado 1054989" d="M35.057,47.536H10.64a1.18,1.18,0,0,1-1.18-1.18v-5a1.18,1.18,0,0,1,1.18-1.18H35.166a2.636,2.636,0,0,0,2.659-2.393,2.572,2.572,0,0,0-2.564-2.748H22.374A11.44,11.44,0,0,1,10.865,24a11.319,11.319,0,0,1,11.3-11.578H40.328a1.18,1.18,0,0,1,1.18,1.18v5a1.18,1.18,0,0,1-1.18,1.18H22.272a4.017,4.017,0,0,0-4.05,3.743,3.946,3.946,0,0,0,3.934,4.139H35.248a9.95,9.95,0,0,1,9.935,9.764A10.092,10.092,0,0,1,35.057,47.536Z" transform="translate(-9.46 -12.42)" fill="#656d78"/>
            </g>
          </g>
        </g>
      </g>
      <g id="Grupo_1190762" data-name="Grupo 1190762" transform="translate(6.934 33.46)">
        <g id="Grupo_1190761" data-name="Grupo 1190761">
          <g id="Grupo_1190760" data-name="Grupo 1190760">
            <g id="Grupo_1190759" data-name="Grupo 1190759">
              <path id="Trazado_1054990" data-name="Trazado 1054990" d="M45.189,48.855A10.1,10.1,0,0,1,35.057,58.96H10.64a1.18,1.18,0,0,1-1.18-1.18V56.458a1.18,1.18,0,0,0,1.18,1.18H35.057A10.129,10.129,0,0,0,45.169,48.33C45.176,48.507,45.182,48.678,45.189,48.855Z" transform="translate(-9.46 -48.33)" fill="#545c66"/>
            </g>
          </g>
        </g>
      </g>
      <g id="Grupo_1190766" data-name="Grupo 1190766" transform="translate(6.607 8.661)">
        <g id="Grupo_1190765" data-name="Grupo 1190765" transform="translate(0 0)">
          <g id="Grupo_1190764" data-name="Grupo 1190764">
            <g id="Grupo_1190763" data-name="Grupo 1190763">
              <path id="Trazado_1054991" data-name="Trazado 1054991" d="M34.9,47.723H10.487A1.507,1.507,0,0,1,8.98,46.216v-5A1.507,1.507,0,0,1,10.487,39.7H35.013a2.288,2.288,0,0,0,2.325-2.086,2.223,2.223,0,0,0-.6-1.684,2.261,2.261,0,0,0-1.636-.709H22.222A11.815,11.815,0,0,1,10.378,23.872,11.643,11.643,0,0,1,22,11.96H40.168a1.507,1.507,0,0,1,1.507,1.507v5a1.507,1.507,0,0,1-1.507,1.507H22.119a3.664,3.664,0,0,0-3.716,3.43A3.613,3.613,0,0,0,22,27.2H35.1A10.312,10.312,0,0,1,45.357,37.284a10.076,10.076,0,0,1-2.946,7.275A10.6,10.6,0,0,1,34.9,47.723ZM10.487,40.359a.845.845,0,0,0-.846.846v5a.845.845,0,0,0,.846.846H34.9a9.944,9.944,0,0,0,7.044-2.966,9.427,9.427,0,0,0,2.755-6.8,9.648,9.648,0,0,0-9.6-9.437H22.01a4.208,4.208,0,0,1-3.089-1.33,4.258,4.258,0,0,1-1.173-3.157A4.329,4.329,0,0,1,22.126,19.3H40.182a.845.845,0,0,0,.846-.846v-5a.845.845,0,0,0-.846-.846H22.01A10.991,10.991,0,0,0,11.039,23.845,11.142,11.142,0,0,0,22.222,34.55H35.1a2.906,2.906,0,0,1,2.9,3.1,2.961,2.961,0,0,1-2.987,2.707Z" transform="translate(-8.98 -11.96)"/>
            </g>
          </g>
        </g>
      </g>
      <g id="Grupo_1190776" data-name="Grupo 1190776" transform="translate(6.607 12.336)">
        <g id="Grupo_1190769" data-name="Grupo 1190769" transform="translate(30.724 0)">
          <g id="Grupo_1190768" data-name="Grupo 1190768">
            <g id="Grupo_1190767" data-name="Grupo 1190767">
              <path id="Trazado_1054992" data-name="Trazado 1054992" d="M55.69,18H54.367a.327.327,0,0,1,0-.655H55.69a.327.327,0,0,1,.327.327A.323.323,0,0,1,55.69,18Z" transform="translate(-54.04 -17.35)"/>
            </g>
          </g>
        </g>
        <g id="Grupo_1190772" data-name="Grupo 1190772" transform="translate(4.03)">
          <g id="Grupo_1190771" data-name="Grupo 1190771">
            <g id="Grupo_1190770" data-name="Grupo 1190770">
              <path id="Trazado_1054993" data-name="Trazado 1054993" d="M37.821,45.756H36.662a.327.327,0,0,1-.327-.327.332.332,0,0,1,.327-.327h1.159a5.865,5.865,0,0,0,1.425-.17.33.33,0,0,1,.4.239.335.335,0,0,1-.239.4A7.376,7.376,0,0,1,37.821,45.756Zm-3.846,0H31.3a.327.327,0,0,1-.327-.327A.332.332,0,0,1,31.3,45.1h2.68a.327.327,0,1,1,0,.655Zm-5.359,0h-2.68a.327.327,0,0,1-.327-.327.332.332,0,0,1,.327-.327h2.68a.327.327,0,1,1,0,.655Zm-5.359,0h-2.68a.327.327,0,0,1-.327-.327.332.332,0,0,1,.327-.327h2.68a.327.327,0,1,1,0,.655Zm-5.359,0h-2.68a.327.327,0,0,1-.327-.327.332.332,0,0,1,.327-.327H17.9a.327.327,0,1,1,0,.655ZM41.707,44.4a.336.336,0,0,1-.259-.123.328.328,0,0,1,.055-.464,5.964,5.964,0,0,0,1.6-1.95.329.329,0,1,1,.586.3,6.641,6.641,0,0,1-1.773,2.168A.367.367,0,0,1,41.707,44.4Zm2.359-4.63h-.014a.329.329,0,0,1-.314-.348c.007-.082.007-.17.007-.252a5.8,5.8,0,0,0-.436-2.23.33.33,0,1,1,.614-.245,6.533,6.533,0,0,1,.484,2.475c0,.1,0,.191-.007.28a.336.336,0,0,1-.334.32ZM42.11,34.956a.314.314,0,0,1-.225-.089,6.03,6.03,0,0,0-2.155-1.3.328.328,0,0,1,.211-.62,6.562,6.562,0,0,1,2.4,1.446.332.332,0,0,1,.014.464A.346.346,0,0,1,42.11,34.956Zm-17.394-1.7a7.5,7.5,0,0,1-.961-.061.326.326,0,0,1-.286-.368.321.321,0,0,1,.368-.286,6.612,6.612,0,0,0,.893.055h1.746a.327.327,0,1,1,0,.655H24.729C24.722,33.251,24.722,33.251,24.716,33.251Zm12.478,0h-2.68a.327.327,0,0,1,0-.655h2.68a.327.327,0,1,1,0,.655Zm-5.359,0h-2.68a.327.327,0,0,1,0-.655h2.68a.327.327,0,0,1,.327.327A.332.332,0,0,1,31.834,33.251Zm-10.589-.839a.4.4,0,0,1-.15-.034,8.085,8.085,0,0,1-2.216-1.684.328.328,0,0,1,.484-.443,7.218,7.218,0,0,0,2.032,1.541.328.328,0,0,1-.15.62Zm-3.559-3.859a.331.331,0,0,1-.307-.2,7.921,7.921,0,0,1-.6-2.714.328.328,0,0,1,.314-.341.319.319,0,0,1,.341.314,7.1,7.1,0,0,0,.552,2.489.326.326,0,0,1-.177.43.25.25,0,0,1-.123.027Zm-.218-5.25a.526.526,0,0,1-.1-.014.326.326,0,0,1-.211-.416,7.911,7.911,0,0,1,1.3-2.462.33.33,0,1,1,.518.409,7.326,7.326,0,0,0-1.193,2.257.336.336,0,0,1-.314.225Zm3.225-4.139a.325.325,0,0,1-.28-.157.336.336,0,0,1,.1-.457,7.906,7.906,0,0,1,2.577-1.036.323.323,0,0,1,.389.259.328.328,0,0,1-.259.389,7.287,7.287,0,0,0-2.366.955.328.328,0,0,1-.164.048ZM39.232,18h-2.68a.327.327,0,1,1,0-.655h2.68a.327.327,0,0,1,.327.327A.319.319,0,0,1,39.232,18Zm-5.359,0h-2.68a.327.327,0,0,1,0-.655h2.68a.327.327,0,0,1,.327.327A.323.323,0,0,1,33.873,18Zm-5.359,0h-2.68a.327.327,0,0,1,0-.655h2.68a.327.327,0,0,1,.327.327A.323.323,0,0,1,28.513,18Z" transform="translate(-14.89 -17.35)"/>
            </g>
          </g>
        </g>
        <g id="Grupo_1190775" data-name="Grupo 1190775" transform="translate(0 27.752)">
          <g id="Grupo_1190774" data-name="Grupo 1190774">
            <g id="Grupo_1190773" data-name="Grupo 1190773">
              <path id="Trazado_1054994" data-name="Trazado 1054994" d="M10.63,58.7H9.307a.327.327,0,0,1-.327-.327.332.332,0,0,1,.327-.327H10.63a.327.327,0,1,1,0,.655Z" transform="translate(-8.98 -58.05)"/>
            </g>
          </g>
        </g>
      </g>
      <g id="Grupo_1190795" data-name="Grupo 1190795" transform="translate(32.913 1.59)">
        <g id="Grupo_1190779" data-name="Grupo 1190779" transform="translate(0.341 0.334)">
          <g id="Grupo_1190778" data-name="Grupo 1190778">
            <g id="Grupo_1190777" data-name="Grupo 1190777">
              <path id="Trazado_1054995" data-name="Trazado 1054995" d="M58.929,7.514c0,3.73-5.434,8.68-5.434,8.68s-5.434-4.95-5.434-8.68a5.434,5.434,0,1,1,10.869,0Z" transform="translate(-48.06 -2.08)" fill="#f76c82"/>
            </g>
          </g>
        </g>
        <g id="Grupo_1190782" data-name="Grupo 1190782" transform="translate(0.341 5.018)">
          <g id="Grupo_1190781" data-name="Grupo 1190781" transform="translate(0 0)">
            <g id="Grupo_1190780" data-name="Grupo 1190780">
              <path id="Trazado_1054996" data-name="Trazado 1054996" d="M58.929,9.7c0,3.73-5.434,8.68-5.434,8.68S48.06,13.423,48.06,9.7a5.471,5.471,0,0,1,.055-.75c.566,3.627,5.38,8.019,5.38,8.019s4.821-4.391,5.38-8.019A5.471,5.471,0,0,1,58.929,9.7Z" transform="translate(-48.06 -8.95)" fill="#eb5463"/>
            </g>
          </g>
        </g>
        <g id="Grupo_1190785" data-name="Grupo 1190785">
          <g id="Grupo_1190784" data-name="Grupo 1190784">
            <g id="Grupo_1190783" data-name="Grupo 1190783">
              <path id="Trazado_1054997" data-name="Trazado 1054997" d="M53.329,16.373a.325.325,0,0,1-.225-.089c-.225-.2-5.543-5.093-5.543-8.926a5.769,5.769,0,1,1,11.537,0c0,3.832-5.318,8.721-5.543,8.926a.346.346,0,0,1-.225.089Zm0-14.121a5.113,5.113,0,0,0-5.107,5.107c0,3.123,4.1,7.255,5.107,8.223,1.009-.975,5.107-5.107,5.107-8.223a5.113,5.113,0,0,0-5.107-5.107Z" transform="translate(-47.56 -1.59)"/>
            </g>
          </g>
        </g>
        <g id="Grupo_1190788" data-name="Grupo 1190788" transform="translate(2.755 2.755)">
          <g id="Grupo_1190787" data-name="Grupo 1190787">
            <g id="Grupo_1190786" data-name="Grupo 1190786">
              <circle id="Elipse_12440" data-name="Elipse 12440" cx="3.014" cy="3.014" r="3.014" fill="#f4f6f8"/>
            </g>
          </g>
        </g>
        <g id="Grupo_1190791" data-name="Grupo 1190791" transform="translate(2.762 5.066)">
          <g id="Grupo_1190790" data-name="Grupo 1190790" transform="translate(0 0)">
            <g id="Grupo_1190789" data-name="Grupo 1190789">
              <path id="Trazado_1054998" data-name="Trazado 1054998" d="M57.631,9.722a3.01,3.01,0,0,1-6.021,0,2.957,2.957,0,0,1,.082-.7,3.011,3.011,0,0,0,5.857,0A3,3,0,0,1,57.631,9.722Z" transform="translate(-51.61 -9.02)" fill="#d7dadf"/>
            </g>
          </g>
        </g>
        <g id="Grupo_1190794" data-name="Grupo 1190794" transform="translate(2.427 2.427)">
          <g id="Grupo_1190793" data-name="Grupo 1190793">
            <g id="Grupo_1190792" data-name="Grupo 1190792">
              <path id="Trazado_1054999" data-name="Trazado 1054999" d="M54.461,11.832A3.341,3.341,0,1,1,57.8,8.491,3.347,3.347,0,0,1,54.461,11.832Zm0-6.021a2.68,2.68,0,1,0,2.68,2.68A2.68,2.68,0,0,0,54.461,5.811Z" transform="translate(-51.12 -5.15)"/>
            </g>
          </g>
        </g>
      </g>
      <g id="Grupo_1190814" data-name="Grupo 1190814" transform="translate(1.52 29.642)">
        <g id="Grupo_1190798" data-name="Grupo 1190798" transform="translate(0.327 0.334)">
          <g id="Grupo_1190797" data-name="Grupo 1190797">
            <g id="Grupo_1190796" data-name="Grupo 1190796">
              <path id="Trazado_1055000" data-name="Trazado 1055000" d="M12.876,48.654c0,3.73-5.434,8.68-5.434,8.68S2,52.384,2,48.654a5.438,5.438,0,0,1,10.876,0Z" transform="translate(-2 -43.22)" fill="#f76c82"/>
            </g>
          </g>
        </g>
        <g id="Grupo_1190801" data-name="Grupo 1190801" transform="translate(0.327 5.018)">
          <g id="Grupo_1190800" data-name="Grupo 1190800">
            <g id="Grupo_1190799" data-name="Grupo 1190799">
              <path id="Trazado_1055001" data-name="Trazado 1055001" d="M12.876,50.84c0,3.73-5.434,8.68-5.434,8.68S2,54.57,2,50.84a5.471,5.471,0,0,1,.055-.75c.566,3.627,5.38,8.019,5.38,8.019s4.821-4.391,5.38-8.019A4.575,4.575,0,0,1,12.876,50.84Z" transform="translate(-2 -50.09)" fill="#eb5463"/>
            </g>
          </g>
        </g>
        <g id="Grupo_1190804" data-name="Grupo 1190804">
          <g id="Grupo_1190803" data-name="Grupo 1190803">
            <g id="Grupo_1190802" data-name="Grupo 1190802">
              <path id="Trazado_1055002" data-name="Trazado 1055002" d="M7.289,57.513a.325.325,0,0,1-.225-.089c-.225-.2-5.543-5.093-5.543-8.926a5.769,5.769,0,0,1,11.537,0c0,3.832-5.318,8.721-5.543,8.926A.375.375,0,0,1,7.289,57.513Zm0-14.121A5.113,5.113,0,0,0,2.181,48.5c0,3.123,4.1,7.255,5.107,8.223C8.3,55.747,12.4,51.615,12.4,48.5A5.113,5.113,0,0,0,7.289,43.391Z" transform="translate(-1.52 -42.73)"/>
            </g>
          </g>
        </g>
        <g id="Grupo_1190807" data-name="Grupo 1190807" transform="translate(2.755 2.755)">
          <g id="Grupo_1190806" data-name="Grupo 1190806">
            <g id="Grupo_1190805" data-name="Grupo 1190805">
              <circle id="Elipse_12441" data-name="Elipse 12441" cx="3.014" cy="3.014" r="3.014" fill="#f4f6f8"/>
            </g>
          </g>
        </g>
        <g id="Grupo_1190810" data-name="Grupo 1190810" transform="translate(2.755 5.066)">
          <g id="Grupo_1190809" data-name="Grupo 1190809" transform="translate(0)">
            <g id="Grupo_1190808" data-name="Grupo 1190808">
              <path id="Trazado_1055003" data-name="Trazado 1055003" d="M11.581,50.862a3.01,3.01,0,0,1-6.021,0,2.957,2.957,0,0,1,.082-.7,3.011,3.011,0,0,0,5.857,0A3,3,0,0,1,11.581,50.862Z" transform="translate(-5.56 -50.16)" fill="#d7dadf"/>
            </g>
          </g>
        </g>
        <g id="Grupo_1190813" data-name="Grupo 1190813" transform="translate(2.427 2.427)">
          <g id="Grupo_1190812" data-name="Grupo 1190812">
            <g id="Grupo_1190811" data-name="Grupo 1190811">
              <path id="Trazado_1055004" data-name="Trazado 1055004" d="M8.421,52.972a3.341,3.341,0,1,1,3.341-3.341A3.347,3.347,0,0,1,8.421,52.972Zm0-6.021a2.68,2.68,0,1,0,2.68,2.68A2.68,2.68,0,0,0,8.421,46.951Z" transform="translate(-5.08 -46.29)"/>
            </g>
          </g>
        </g>
      </g>
    </g>
  </g>
</svg>
