<svg xmlns="http://www.w3.org/2000/svg" xmlns:xlink="http://www.w3.org/1999/xlink" width="515" height="227" viewBox="0 0 515 227">
  <defs>
    <clipPath id="clip-path">
      <rect id="Rectángulo_412525" data-name="Rectángulo 412525" width="407.699" height="120.937" fill="none"/>
    </clipPath>
    <clipPath id="clip-path-3">
      <rect id="Rectángulo_412522" data-name="Rectángulo 412522" width="407.699" height="1.398" fill="none"/>
    </clipPath>
  </defs>
  <g id="Grupo_1190479" data-name="Grupo 1190479" transform="translate(-285 -648)">
    <rect id="Rectángulo_412162" data-name="Rectángulo 412162" width="515" height="227" transform="translate(285 648)" fill="#d2e4e7"/>
    <g id="Grupo_1190478" data-name="Grupo 1190478" transform="translate(331 702.344)">
      <g id="Grupo_1190477" data-name="Grupo 1190477" clip-path="url(#clip-path)">
        <g id="Grupo_1190476" data-name="Grupo 1190476">
          <g id="Grupo_1190475" data-name="Grupo 1190475" clip-path="url(#clip-path)">
            <path id="Trazado_1054676" data-name="Trazado 1054676" d="M428.157,351.354a5.083,5.083,0,0,1-4.9-3.543l-24.479-73.078-.005-.018a2.851,2.851,0,0,0-5.521.263l-14.021,69.07a5.507,5.507,0,0,1-10.624.636l-23.652-71.413a2.851,2.851,0,0,0-5.488.272l-15.912,70.924a5.507,5.507,0,0,1-10.617.475l-23.221-72.449A2.762,2.762,0,0,0,287,270.514h-.074a2.767,2.767,0,0,0-2.684,2.114l-19.631,73.5a5.507,5.507,0,0,1-10.539.336l-24.818-73.745a2.851,2.851,0,0,0-5.474.243l-17.14,71.3A5.507,5.507,0,0,1,196,344.53L175.01,273.073a2.851,2.851,0,0,0-5.486.054l-19.339,70.987a5.44,5.44,0,0,1-5.309,4.059h-.059a5.441,5.441,0,0,1-5.286-4.167L121.9,273.743a2.851,2.851,0,0,0-5.5-.11L95.654,344.209A5.507,5.507,0,0,1,85,343.886L69.551,276.451a2.851,2.851,0,0,0-5.509-.185L52.448,314.622l-2.542-.768L61.5,275.5a5.507,5.507,0,0,1,10.64.359l15.451,67.435a2.851,2.851,0,0,0,5.514.167l20.751-70.576a5.507,5.507,0,0,1,10.624.213l17.626,70.263a2.755,2.755,0,0,0,2.736,2.157h.031a2.753,2.753,0,0,0,2.749-2.1l19.339-70.987a5.507,5.507,0,0,1,10.6-.1l20.994,71.457a2.851,2.851,0,0,0,5.507-.137l17.14-71.3a5.507,5.507,0,0,1,10.573-.469l24.818,73.745a2.851,2.851,0,0,0,5.456-.174l19.631-73.5a5.4,5.4,0,0,1,5.185-4.084l.148,0a5.4,5.4,0,0,1,5.231,3.826l23.221,72.449a2.851,2.851,0,0,0,5.5-.246l15.913-70.924a5.507,5.507,0,0,1,10.6-.526l23.652,71.413a2.851,2.851,0,0,0,5.5-.329l14.021-69.07a5.507,5.507,0,0,1,10.659-.527l24.467,73.044a2.536,2.536,0,0,0,4.866-.191l8.122-32.532,2.577.643-8.122,32.532a5.091,5.091,0,0,1-4.834,3.931c-.074,0-.149,0-.223,0" transform="translate(-42.93 -230.417)" fill="#008a84"/>
            <g id="Grupo_1190474" data-name="Grupo 1190474" transform="translate(0 84.24)" opacity="0.38">
              <g id="Grupo_1190473" data-name="Grupo 1190473">
                <g id="Grupo_1190472" data-name="Grupo 1190472" clip-path="url(#clip-path-3)">
                  <rect id="Rectángulo_412520" data-name="Rectángulo 412520" width="0.839" height="1.398"/>
                  <path id="Trazado_1054677" data-name="Trazado 1054677" d="M420.634,604.066h-1.671v-1.4h1.671Zm-3.342,0h-1.671v-1.4h1.671Zm-3.342,0H412.28v-1.4h1.671Zm-3.342,0h-1.671v-1.4h1.671Zm-3.342,0H405.6v-1.4h1.671Zm-3.342,0h-1.671v-1.4h1.671Zm-3.342,0h-1.671v-1.4h1.671Zm-3.342,0h-1.671v-1.4h1.671Zm-3.342,0h-1.671v-1.4H393.9Zm-3.342,0h-1.671v-1.4h1.671Zm-3.342,0h-1.671v-1.4h1.671Zm-3.342,0H382.2v-1.4h1.671Zm-3.342,0h-1.671v-1.4h1.671Zm-3.342,0H375.52v-1.4h1.671Zm-3.342,0h-1.671v-1.4h1.671Zm-3.342,0h-1.671v-1.4h1.671Zm-3.342,0h-1.671v-1.4h1.671Zm-3.342,0h-1.671v-1.4h1.671Zm-3.342,0h-1.671v-1.4h1.671Zm-3.342,0h-1.671v-1.4h1.671Zm-3.342,0h-1.671v-1.4H353.8Zm-3.342,0h-1.671v-1.4h1.671Zm-3.342,0h-1.671v-1.4h1.671Zm-3.342,0H342.1v-1.4h1.671Zm-3.342,0H338.76v-1.4h1.671Zm-3.342,0h-1.671v-1.4h1.671Zm-3.342,0h-1.671v-1.4h1.671Zm-3.342,0h-1.671v-1.4h1.671Zm-3.342,0h-1.671v-1.4h1.671Zm-3.342,0h-1.671v-1.4h1.671Zm-3.342,0H318.71v-1.4h1.671Zm-3.342,0h-1.671v-1.4h1.671Zm-3.342,0h-1.671v-1.4H313.7Zm-3.342,0h-1.671v-1.4h1.671Zm-3.342,0h-1.671v-1.4h1.671Zm-3.342,0H302v-1.4h1.671Zm-3.342,0h-1.671v-1.4h1.671Zm-3.342,0h-1.671v-1.4h1.671Zm-3.342,0h-1.671v-1.4h1.671Zm-3.342,0h-1.671v-1.4H290.3Zm-3.342,0h-1.671v-1.4h1.671Zm-3.342,0h-1.671v-1.4h1.671Zm-3.342,0h-1.671v-1.4h1.671Zm-3.342,0h-1.671v-1.4h1.671Zm-3.342,0h-1.671v-1.4H273.6Zm-3.342,0h-1.671v-1.4h1.671Zm-3.342,0h-1.671v-1.4h1.671Zm-3.342,0H261.9v-1.4h1.671Zm-3.342,0h-1.671v-1.4h1.671Zm-3.342,0h-1.671v-1.4h1.671Zm-3.342,0h-1.671v-1.4h1.671Zm-3.342,0h-1.671v-1.4H250.2Zm-3.342,0h-1.671v-1.4h1.671Zm-3.342,0H241.85v-1.4h1.671Zm-3.342,0h-1.671v-1.4h1.671Zm-3.342,0h-1.671v-1.4h1.671Zm-3.342,0h-1.671v-1.4H233.5Zm-3.342,0h-1.671v-1.4h1.671Zm-3.342,0h-1.671v-1.4h1.671Zm-3.342,0H221.8v-1.4h1.671Zm-3.342,0h-1.671v-1.4h1.671Zm-3.342,0h-1.671v-1.4h1.671Zm-3.342,0h-1.671v-1.4h1.671Zm-3.342,0h-1.671v-1.4H210.1Zm-3.342,0h-1.671v-1.4h1.671Zm-3.342,0h-1.671v-1.4h1.671Zm-3.342,0h-1.671v-1.4h1.671Zm-3.342,0h-1.671v-1.4h1.671Zm-3.342,0h-1.671v-1.4h1.671Zm-3.342,0h-1.671v-1.4h1.671Zm-3.342,0H185.04v-1.4h1.671Zm-3.342,0H181.7v-1.4h1.671Zm-3.342,0h-1.671v-1.4h1.671Zm-3.342,0h-1.671v-1.4h1.671Zm-3.342,0h-1.671v-1.4h1.671Zm-3.342,0h-1.671v-1.4H170Zm-3.342,0H164.99v-1.4h1.671Zm-3.342,0h-1.671v-1.4h1.671Zm-3.342,0h-1.671v-1.4h1.671Zm-3.342,0h-1.671v-1.4h1.671Zm-3.342,0h-1.671v-1.4h1.671Zm-3.342,0h-1.671v-1.4h1.671Zm-3.342,0h-1.671v-1.4h1.671Zm-3.342,0H141.6v-1.4h1.671Zm-3.342,0h-1.671v-1.4h1.671Zm-3.342,0h-1.671v-1.4h1.671Zm-3.342,0h-1.671v-1.4h1.671Zm-3.342,0H128.23v-1.4H129.9Zm-3.342,0h-1.671v-1.4h1.671Zm-3.342,0h-1.671v-1.4h1.671Zm-3.342,0h-1.671v-1.4h1.671Zm-3.342,0h-1.671v-1.4h1.671Zm-3.342,0h-1.671v-1.4h1.671Zm-3.342,0H108.18v-1.4h1.671Zm-3.342,0h-1.671v-1.4h1.671Zm-3.342,0H101.5v-1.4h1.671Zm-3.342,0H98.155v-1.4h1.671Zm-3.342,0H94.813v-1.4h1.671Zm-3.342,0H91.471v-1.4h1.671Zm-3.342,0H88.13v-1.4H89.8Zm-3.342,0H84.788v-1.4h1.671Zm-3.342,0H81.446v-1.4h1.671Zm-3.342,0H78.1v-1.4h1.671Zm-3.342,0H74.763v-1.4h1.671Zm-3.342,0H71.421v-1.4h1.671Zm-3.342,0H68.079v-1.4H69.75Zm-3.342,0H64.737v-1.4h1.671Zm-3.342,0H61.4v-1.4h1.671Zm-3.342,0H58.054v-1.4h1.671Zm-3.342,0H54.712v-1.4h1.671Zm-3.342,0H51.37v-1.4h1.671Zm-3.342,0H48.029v-1.4H49.7Zm-3.342,0H44.687v-1.4h1.671Zm-3.342,0H41.345v-1.4h1.671Zm-3.342,0H38v-1.4h1.671Zm-3.342,0H34.662v-1.4h1.671Zm-3.342,0H31.32v-1.4h1.671Zm-3.342,0H27.978v-1.4h1.671Zm-3.342,0H24.636v-1.4h1.671Zm-3.342,0H21.295v-1.4h1.671Zm-3.342,0H17.953v-1.4h1.671Z" transform="translate(-15.444 -602.668)"/>
                  <rect id="Rectángulo_412521" data-name="Rectángulo 412521" width="0.839" height="1.398" transform="translate(406.86)"/>
                </g>
              </g>
            </g>
            <rect id="Rectángulo_412523" data-name="Rectángulo 412523" width="274.842" height="1.258" transform="translate(18.66 4.846)"/>
            <path id="Trazado_1054678" data-name="Trazado 1054678" d="M2074.5,15.157l1.979-4.659L2074.5,5.84l11.043,4.659Z" transform="translate(-1784.526 -5.024)"/>
            <path id="Trazado_1054679" data-name="Trazado 1054679" d="M2180.5,1.171h-2.956V.1h7.194V1.171h-2.97V9.821H2180.5Z" transform="translate(-1873.171 -0.089)"/>
            <path id="Trazado_1054680" data-name="Trazado 1054680" d="M2235.638.793a.786.786,0,0,1-1.572,0,.773.773,0,0,1,.793-.793.753.753,0,0,1,.779.793m-1.413,1.961h1.269V9.732h-1.269Z" transform="translate(-1921.792)"/>
            <path id="Trazado_1054681" data-name="Trazado 1054681" d="M2258.981,20.614c0-.721-.015-1.312-.058-1.889h1.11l.058,1.125h.043a2.406,2.406,0,0,1,2.192-1.283,2.063,2.063,0,0,1,1.975,1.4h.029a2.872,2.872,0,0,1,.779-.908,2.38,2.38,0,0,1,1.543-.49c.923,0,2.292.606,2.292,3.028V25.7h-1.24V21.753c0-1.341-.49-2.148-1.514-2.148a1.643,1.643,0,0,0-1.5,1.153,2.091,2.091,0,0,0-.1.634V25.7h-1.24V21.523c0-1.11-.49-1.918-1.456-1.918a1.892,1.892,0,0,0-1.673,1.889V25.7h-1.24Z" transform="translate(-1943.175 -15.972)"/>
            <path id="Trazado_1054682" data-name="Trazado 1054682" d="M2342.957,22.445a2.236,2.236,0,0,0,2.393,2.422,4.589,4.589,0,0,0,1.932-.36l.216.908a5.65,5.65,0,0,1-2.321.433,3.241,3.241,0,0,1-3.431-3.518c0-2.105,1.24-3.763,3.273-3.763,2.278,0,2.884,2,2.884,3.287a4.778,4.778,0,0,1-.043.591Zm3.72-.908a1.807,1.807,0,0,0-1.759-2.062,2.1,2.1,0,0,0-1.946,2.062Z" transform="translate(-2014.421 -15.972)"/>
          </g>
        </g>
      </g>
    </g>
  </g>
</svg>
