<svg xmlns="http://www.w3.org/2000/svg" xmlns:xlink="http://www.w3.org/1999/xlink" width="92" height="92" viewBox="0 0 92 92">
  <defs>
    <filter id="Elipse_12115" x="0" y="0" width="92" height="92" filterUnits="userSpaceOnUse">
      <feOffset dy="3" input="SourceAlpha"/>
      <feGaussianBlur stdDeviation="3" result="blur"/>
      <feFlood flood-opacity="0.161"/>
      <feComposite operator="in" in2="blur"/>
      <feComposite in="SourceGraphic"/>
    </filter>
  </defs>
  <g id="Grupo_1189697" data-name="Grupo 1189697" transform="translate(-764.051 -6646)">
    <g id="Grupo_1188940" data-name="Grupo 1188940" transform="translate(18.27 2800)">
      <g id="Grupo_1181949" data-name="Grupo 1181949" transform="translate(754.781 3852)">
        <g transform="matrix(1, 0, 0, 1, -9, -6)" filter="url(#Elipse_12115)">
          <g id="Elipse_12115-2" data-name="Elipse 12115" transform="translate(9 6)" fill="#ffe69b" stroke="#b18603" stroke-width="2">
            <circle cx="37" cy="37" r="37" stroke="none"/>
            <circle cx="37" cy="37" r="36" fill="none"/>
          </g>
        </g>
      </g>
    </g>
    <g id="limite-de-altura" transform="translate(783.001 6663.976)">
      <g id="Grupo_1189638" data-name="Grupo 1189638" transform="translate(35.574 4.875)">
        <path id="Trazado_1053887" data-name="Trazado 1053887" d="M48.425,16.075V12.2H50.75L46.875,6,43,12.2h2.325v3.875" transform="translate(-43 -6)" fill="#78b75b"/>
      </g>
      <g id="Grupo_1189639" data-name="Grupo 1189639" transform="translate(35.574 35.099)">
        <path id="Trazado_1053888" data-name="Trazado 1053888" d="M45.325,45v3.875H43l3.875,6.2,3.875-6.2H48.425V45" transform="translate(-43 -45)" fill="#78b75b"/>
      </g>
      <g id="Grupo_1189640" data-name="Grupo 1189640" transform="translate(10.775 14.175)">
        <path id="Trazado_1053889" data-name="Trazado 1053889" d="M23.4,34.275h1.55a1.55,1.55,0,0,0,1.55-1.55V21.1A3.1,3.1,0,0,0,23.4,18H14.1A3.1,3.1,0,0,0,11,21.1V32.725a1.55,1.55,0,0,0,1.55,1.55H14.1" transform="translate(-11 -18)" fill="#78b75b"/>
      </g>
      <g id="Grupo_1189641" data-name="Grupo 1189641" transform="translate(16.2 14.175)">
        <path id="Trazado_1053890" data-name="Trazado 1053890" d="M18,18v.775a2.325,2.325,0,1,0,4.65,0V18" transform="translate(-18 -18)" fill="#efbe9a"/>
      </g>
      <g id="Grupo_1189642" data-name="Grupo 1189642" transform="translate(10.775 27.349)">
        <path id="Trazado_1053891" data-name="Trazado 1053891" d="M14.1,38.1H12.55A1.55,1.55,0,0,1,11,36.55V35h3.1Z" transform="translate(-11 -35)" fill="#efbe9a"/>
      </g>
      <g id="Grupo_1189643" data-name="Grupo 1189643" transform="translate(23.175 27.349)">
        <path id="Trazado_1053892" data-name="Trazado 1053892" d="M28.55,38.1H27V35h3.1v1.55A1.55,1.55,0,0,1,28.55,38.1Z" transform="translate(-27 -35)" fill="#efbe9a"/>
      </g>
      <g id="Grupo_1189644" data-name="Grupo 1189644" transform="translate(13.875 27.349)">
        <path id="Trazado_1053893" data-name="Trazado 1053893" d="M15,35h9.3V52.825H15Z" transform="translate(-15 -35)" fill="#4d5d7a"/>
      </g>
      <g id="Grupo_1189645" data-name="Grupo 1189645" transform="translate(12.325 45.174)">
        <path id="Trazado_1053894" data-name="Trazado 1053894" d="M19.2,58H14.55A1.55,1.55,0,0,0,13,59.55V61.1h6.2Z" transform="translate(-13 -58)" fill="#78b75b"/>
      </g>
      <g id="Grupo_1189646" data-name="Grupo 1189646" transform="translate(18.525 45.174)">
        <path id="Trazado_1053895" data-name="Trazado 1053895" d="M21,58h4.65a1.55,1.55,0,0,1,1.55,1.55V61.1H21Z" transform="translate(-21 -58)" fill="#78b75b"/>
      </g>
      <g id="Grupo_1189647" data-name="Grupo 1189647" transform="translate(11.55 7.975)">
        <path id="Trazado_1053896" data-name="Trazado 1053896" d="M15.875,10H13.55a1.55,1.55,0,1,0,0,3.1h2.325" transform="translate(-12 -10)" fill="#db9b7c"/>
      </g>
      <g id="Grupo_1189648" data-name="Grupo 1189648" transform="translate(21.625 7.975)">
        <path id="Trazado_1053897" data-name="Trazado 1053897" d="M25,10h2.325a1.55,1.55,0,0,1,0,3.1H25" transform="translate(-25 -10)" fill="#db9b7c"/>
      </g>
      <g id="Grupo_1189649" data-name="Grupo 1189649" transform="translate(14.65 4.875)">
        <path id="Trazado_1053898" data-name="Trazado 1053898" d="M23.75,6v5.425a3.875,3.875,0,1,1-7.75,0V6" transform="translate(-16 -6)" fill="#efbe9a"/>
      </g>
      <g id="Grupo_1189650" data-name="Grupo 1189650" transform="translate(13.1 1.775)">
        <path id="Trazado_1053899" data-name="Trazado 1053899" d="M21.75,5.1c0,1.712-2.938,3.1-4.65,3.1H14V5.1A3.1,3.1,0,0,1,17.1,2h4.65a3.1,3.1,0,0,1,3.1,3.1V8.2A3.1,3.1,0,0,1,21.75,5.1Z" transform="translate(-14 -2)" fill="#976947"/>
      </g>
      <g id="Grupo_1189651" data-name="Grupo 1189651" transform="translate(13.1 18.05)">
        <path id="Trazado_1053900" data-name="Trazado 1053900" d="M14,23h1.55V50.124H14Z" transform="translate(-14 -23)"/>
      </g>
      <g id="Grupo_1189652" data-name="Grupo 1189652" transform="translate(11.55 31.224)">
        <path id="Trazado_1053901" data-name="Trazado 1053901" d="M18.975,57.825h-6.2A.774.774,0,0,1,12,57.05V55.5a2.328,2.328,0,0,1,2.325-2.325H18.2V40h1.55V57.05A.774.774,0,0,1,18.975,57.825Zm-5.425-1.55H18.2v-1.55H14.325a.775.775,0,0,0-.775.775Z" transform="translate(-12 -40)"/>
      </g>
      <g id="Grupo_1189653" data-name="Grupo 1189653" transform="translate(22.4 18.05)">
        <path id="Trazado_1053902" data-name="Trazado 1053902" d="M26,23h1.55V50.124H26Z" transform="translate(-26 -23)"/>
      </g>
      <g id="Grupo_1189654" data-name="Grupo 1189654" transform="translate(18.525 44.399)">
        <path id="Trazado_1053903" data-name="Trazado 1053903" d="M27.2,61.65H21V60.1h5.425v-.775a.775.775,0,0,0-.775-.775H21V57h4.65a2.328,2.328,0,0,1,2.325,2.325v1.55A.774.774,0,0,1,27.2,61.65Z" transform="translate(-21 -57)"/>
      </g>
      <g id="Grupo_1189655" data-name="Grupo 1189655" transform="translate(10.775 26.574)">
        <path id="Trazado_1053904" data-name="Trazado 1053904" d="M11,34H26.5v1.55H11Z" transform="translate(-11 -34)"/>
      </g>
      <g id="Grupo_1189656" data-name="Grupo 1189656" transform="translate(12.325 1)">
        <path id="Trazado_1053905" data-name="Trazado 1053905" d="M24.625,8.75a3.875,3.875,0,0,1-3.3-1.84,7.249,7.249,0,0,1-4.454,1.84h-3.1A.774.774,0,0,1,13,7.975v-3.1A3.879,3.879,0,0,1,16.875,1h4.65A3.879,3.879,0,0,1,25.4,4.875v3.1A.774.774,0,0,1,24.625,8.75ZM14.55,7.2h2.325c1.531,0,3.875-1.247,3.875-2.325a.775.775,0,1,1,1.55,0,2.329,2.329,0,0,0,1.55,2.192V4.875A2.328,2.328,0,0,0,21.525,2.55h-4.65A2.328,2.328,0,0,0,14.55,4.875Z" transform="translate(-13 -1)"/>
      </g>
      <g id="Grupo_1189657" data-name="Grupo 1189657" transform="translate(13.875 7.2)">
        <path id="Trazado_1053906" data-name="Trazado 1053906" d="M19.65,16.75A4.655,4.655,0,0,1,15,12.1V9.775h1.55V12.1a3.1,3.1,0,1,0,6.2,0V9H24.3v3.1A4.655,4.655,0,0,1,19.65,16.75Z" transform="translate(-15 -9)"/>
      </g>
      <g id="Grupo_1189658" data-name="Grupo 1189658" transform="translate(10.775 7.2)">
        <path id="Trazado_1053907" data-name="Trazado 1053907" d="M14.875,13.65h-1.55a2.325,2.325,0,1,1,0-4.65H14.1v1.55h-.775a.775.775,0,1,0,0,1.55h1.55Z" transform="translate(-11 -9)"/>
      </g>
      <g id="Grupo_1189659" data-name="Grupo 1189659" transform="translate(22.4 7.2)">
        <path id="Trazado_1053908" data-name="Trazado 1053908" d="M27.55,13.65H26V12.1h1.55a.775.775,0,1,0,0-1.55h-.775V9h.775a2.325,2.325,0,1,1,0,4.65Z" transform="translate(-26 -9)"/>
      </g>
      <g id="Grupo_1189660" data-name="Grupo 1189660" transform="translate(15.425 14.175)">
        <path id="Trazado_1053909" data-name="Trazado 1053909" d="M20.1,21.875a3.1,3.1,0,0,1-3.1-3.1V18h1.55v.775a1.55,1.55,0,1,0,3.1,0V18H23.2v.775A3.1,3.1,0,0,1,20.1,21.875Z" transform="translate(-17 -18)"/>
      </g>
      <g id="Grupo_1189661" data-name="Grupo 1189661" transform="translate(10 13.4)">
        <path id="Trazado_1053910" data-name="Trazado 1053910" d="M24.725,34.825h-1.55v-1.55h1.55A.775.775,0,0,0,25.5,32.5V20.875a2.328,2.328,0,0,0-2.325-2.325h-9.3a2.328,2.328,0,0,0-2.325,2.325V32.5a.775.775,0,0,0,.775.775h1.55v1.55h-1.55A2.328,2.328,0,0,1,10,32.5V20.875A3.879,3.879,0,0,1,13.875,17h9.3a3.879,3.879,0,0,1,3.875,3.875V32.5A2.328,2.328,0,0,1,24.725,34.825Z" transform="translate(-10 -17)"/>
      </g>
      <g id="Grupo_1189662" data-name="Grupo 1189662" transform="translate(27.05 47.499)">
        <path id="Trazado_1053911" data-name="Trazado 1053911" d="M32,61h7.75v1.55H32Z" transform="translate(-32 -61)"/>
      </g>
      <g id="Grupo_1189663" data-name="Grupo 1189663" transform="translate(28.6 1.775)">
        <path id="Trazado_1053912" data-name="Trazado 1053912" d="M34,2h1.55V48.5H34Z" transform="translate(-34 -2)"/>
      </g>
      <g id="Grupo_1189664" data-name="Grupo 1189664" transform="translate(27.05 1)">
        <path id="Trazado_1053913" data-name="Trazado 1053913" d="M32,1h7.75V2.55H32Z" transform="translate(-32 -1)"/>
      </g>
      <g id="Grupo_1189665" data-name="Grupo 1189665" transform="translate(29.375 4.1)">
        <path id="Trazado_1053914" data-name="Trazado 1053914" d="M35,5h3.875V6.55H35Z" transform="translate(-35 -5)"/>
      </g>
      <g id="Grupo_1189666" data-name="Grupo 1189666" transform="translate(29.375 7.2)">
        <path id="Trazado_1053915" data-name="Trazado 1053915" d="M35,9h3.875v1.55H35Z" transform="translate(-35 -9)"/>
      </g>
      <g id="Grupo_1189667" data-name="Grupo 1189667" transform="translate(29.375 10.3)">
        <path id="Trazado_1053916" data-name="Trazado 1053916" d="M35,13h3.875v1.55H35Z" transform="translate(-35 -13)"/>
      </g>
      <g id="Grupo_1189668" data-name="Grupo 1189668" transform="translate(29.375 13.4)">
        <path id="Trazado_1053917" data-name="Trazado 1053917" d="M35,17h3.875v1.55H35Z" transform="translate(-35 -17)"/>
      </g>
      <g id="Grupo_1189669" data-name="Grupo 1189669" transform="translate(29.375 16.5)">
        <path id="Trazado_1053918" data-name="Trazado 1053918" d="M35,21h3.875v1.55H35Z" transform="translate(-35 -21)"/>
      </g>
      <g id="Grupo_1189670" data-name="Grupo 1189670" transform="translate(29.375 19.6)">
        <path id="Trazado_1053919" data-name="Trazado 1053919" d="M35,25h3.875v1.55H35Z" transform="translate(-35 -25)"/>
      </g>
      <g id="Grupo_1189671" data-name="Grupo 1189671" transform="translate(29.375 22.699)">
        <path id="Trazado_1053920" data-name="Trazado 1053920" d="M35,29h3.875v1.55H35Z" transform="translate(-35 -29)"/>
      </g>
      <g id="Grupo_1189672" data-name="Grupo 1189672" transform="translate(29.375 25.799)">
        <path id="Trazado_1053921" data-name="Trazado 1053921" d="M35,33h3.875v1.55H35Z" transform="translate(-35 -33)"/>
      </g>
      <g id="Grupo_1189673" data-name="Grupo 1189673" transform="translate(29.375 28.899)">
        <path id="Trazado_1053922" data-name="Trazado 1053922" d="M35,37h3.875v1.55H35Z" transform="translate(-35 -37)"/>
      </g>
      <g id="Grupo_1189674" data-name="Grupo 1189674" transform="translate(29.375 31.999)">
        <path id="Trazado_1053923" data-name="Trazado 1053923" d="M35,41h3.875v1.55H35Z" transform="translate(-35 -41)"/>
      </g>
      <g id="Grupo_1189675" data-name="Grupo 1189675" transform="translate(29.375 35.099)">
        <path id="Trazado_1053924" data-name="Trazado 1053924" d="M35,45h3.875v1.55H35Z" transform="translate(-35 -45)"/>
      </g>
      <g id="Grupo_1189676" data-name="Grupo 1189676" transform="translate(29.375 38.199)">
        <path id="Trazado_1053925" data-name="Trazado 1053925" d="M35,49h3.875v1.55H35Z" transform="translate(-35 -49)"/>
      </g>
      <g id="Grupo_1189677" data-name="Grupo 1189677" transform="translate(29.375 41.299)">
        <path id="Trazado_1053926" data-name="Trazado 1053926" d="M35,53h3.875v1.55H35Z" transform="translate(-35 -53)"/>
      </g>
      <g id="Grupo_1189678" data-name="Grupo 1189678" transform="translate(29.375 44.399)">
        <path id="Trazado_1053927" data-name="Trazado 1053927" d="M35,57h3.875v1.55H35Z" transform="translate(-35 -57)"/>
      </g>
      <g id="Grupo_1189679" data-name="Grupo 1189679" transform="translate(34.799 4.124)">
        <path id="Trazado_1053928" data-name="Trazado 1053928" d="M48.975,15.857h-1.55V11.982a.774.774,0,0,1,.775-.775h.926L46.65,7.244l-2.476,3.962H45.1a.774.774,0,0,1,.775.775v3.875h-1.55v-3.1h-1.55a.775.775,0,0,1-.657-1.186l3.875-6.2a.805.805,0,0,1,1.314,0l3.875,6.2a.775.775,0,0,1-.656,1.186h-1.55Z" transform="translate(-42 -5.031)"/>
      </g>
      <g id="Grupo_1189680" data-name="Grupo 1189680" transform="translate(37.124 16.5)">
        <path id="Trazado_1053929" data-name="Trazado 1053929" d="M45,21h1.55v1.55H45Z" transform="translate(-45 -21)"/>
      </g>
      <g id="Grupo_1189681" data-name="Grupo 1189681" transform="translate(37.124 19.6)">
        <path id="Trazado_1053930" data-name="Trazado 1053930" d="M45,25h1.55v1.55H45Z" transform="translate(-45 -25)"/>
      </g>
      <g id="Grupo_1189682" data-name="Grupo 1189682" transform="translate(37.124 22.699)">
        <path id="Trazado_1053931" data-name="Trazado 1053931" d="M45,29h1.55v1.55H45Z" transform="translate(-45 -29)"/>
      </g>
      <g id="Grupo_1189683" data-name="Grupo 1189683" transform="translate(40.224 16.5)">
        <path id="Trazado_1053932" data-name="Trazado 1053932" d="M49,21h1.55v1.55H49Z" transform="translate(-49 -21)"/>
      </g>
      <g id="Grupo_1189684" data-name="Grupo 1189684" transform="translate(40.224 19.6)">
        <path id="Trazado_1053933" data-name="Trazado 1053933" d="M49,25h1.55v1.55H49Z" transform="translate(-49 -25)"/>
      </g>
      <g id="Grupo_1189685" data-name="Grupo 1189685" transform="translate(40.224 22.699)">
        <path id="Trazado_1053934" data-name="Trazado 1053934" d="M49,29h1.55v1.55H49Z" transform="translate(-49 -29)"/>
      </g>
      <g id="Grupo_1189686" data-name="Grupo 1189686" transform="translate(34.799 35.099)">
        <path id="Trazado_1053935" data-name="Trazado 1053935" d="M46.65,55.85a.776.776,0,0,1-.657-.364l-3.875-6.2a.775.775,0,0,1,.657-1.186h1.55V45h1.55v3.875a.774.774,0,0,1-.775.775h-.926l2.476,3.962,2.476-3.962H48.2a.774.774,0,0,1-.775-.775V45h1.55v3.1h1.55a.775.775,0,0,1,.657,1.186l-3.875,6.2A.777.777,0,0,1,46.65,55.85Z" transform="translate(-42 -45)"/>
      </g>
      <g id="Grupo_1189687" data-name="Grupo 1189687" transform="translate(40.224 31.999)">
        <path id="Trazado_1053936" data-name="Trazado 1053936" d="M49,41h1.55v1.55H49Z" transform="translate(-49 -41)"/>
      </g>
      <g id="Grupo_1189688" data-name="Grupo 1189688" transform="translate(40.224 28.899)">
        <path id="Trazado_1053937" data-name="Trazado 1053937" d="M49,37h1.55v1.55H49Z" transform="translate(-49 -37)"/>
      </g>
      <g id="Grupo_1189689" data-name="Grupo 1189689" transform="translate(40.224 25.799)">
        <path id="Trazado_1053938" data-name="Trazado 1053938" d="M49,33h1.55v1.55H49Z" transform="translate(-49 -33)"/>
      </g>
      <g id="Grupo_1189690" data-name="Grupo 1189690" transform="translate(37.124 31.999)">
        <path id="Trazado_1053939" data-name="Trazado 1053939" d="M45,41h1.55v1.55H45Z" transform="translate(-45 -41)"/>
      </g>
      <g id="Grupo_1189691" data-name="Grupo 1189691" transform="translate(37.124 28.899)">
        <path id="Trazado_1053940" data-name="Trazado 1053940" d="M45,37h1.55v1.55H45Z" transform="translate(-45 -37)"/>
      </g>
      <g id="Grupo_1189692" data-name="Grupo 1189692" transform="translate(37.124 25.799)">
        <path id="Trazado_1053941" data-name="Trazado 1053941" d="M45,33h1.55v1.55H45Z" transform="translate(-45 -33)"/>
      </g>
    </g>
  </g>
</svg>
