<svg xmlns="http://www.w3.org/2000/svg" xmlns:xlink="http://www.w3.org/1999/xlink" width="92" height="92" viewBox="0 0 92 92">
  <defs>
    <filter id="Elipse_12115" x="0" y="0" width="92" height="92" filterUnits="userSpaceOnUse">
      <feOffset dy="3" input="SourceAlpha"/>
      <feGaussianBlur stdDeviation="3" result="blur"/>
      <feFlood flood-opacity="0.161"/>
      <feComposite operator="in" in2="blur"/>
      <feComposite in="SourceGraphic"/>
    </filter>
  </defs>
  <g id="Grupo_1189696" data-name="Grupo 1189696" transform="translate(-1079.051 -6646)">
    <g id="Grupo_1188941" data-name="Grupo 1188941" transform="translate(333.27 2800)">
      <g id="Grupo_1181949" data-name="Grupo 1181949" transform="translate(754.781 3852)">
        <g transform="matrix(1, 0, 0, 1, -9, -6)" filter="url(#Elipse_12115)">
          <g id="Elipse_12115-2" data-name="Elipse 12115" transform="translate(9 6)" fill="#ffe69b" stroke="#b18603" stroke-width="2">
            <circle cx="37" cy="37" r="37" stroke="none"/>
            <circle cx="37" cy="37" r="36" fill="none"/>
          </g>
        </g>
      </g>
    </g>
    <g id="tiempo" transform="translate(1101.051 6645.335)">
      <path id="Trazado_1053942" data-name="Trazado 1053942" d="M37.378,63.128a8.105,8.105,0,0,1,11.177-7.5,20.9,20.9,0,1,0-9.5,12.427A8.068,8.068,0,0,1,37.378,63.128Z" transform="translate(-6.806 -6.807)" fill="#74b9df"/>
      <g id="Grupo_1189693" data-name="Grupo 1189693" transform="translate(0.696 22.361)" opacity="0.1">
        <path id="Trazado_1053943" data-name="Trazado 1053943" d="M10.044,50.069a20.9,20.9,0,0,1,19.63-20.861c-.42-.025-.844-.039-1.271-.039a20.9,20.9,0,1,0,0,41.8c.427,0,.85-.014,1.271-.039A20.9,20.9,0,0,1,10.044,50.069Z" transform="translate(-7.503 -29.168)"/>
      </g>
      <path id="Trazado_1053944" data-name="Trazado 1053944" d="M82.528,108.28a8.105,8.105,0,0,1,6.491-7.942,16.292,16.292,0,1,0-6.474,8.464C82.534,108.629,82.528,108.455,82.528,108.28Z" transform="translate(-51.956 -51.959)" fill="#fff"/>
      <g id="Grupo_1189694" data-name="Grupo 1189694" transform="translate(5.31 26.975)" opacity="0.1">
        <path id="Trazado_1053945" data-name="Trazado 1053945" d="M60.3,95.22A16.288,16.288,0,0,1,75.069,79c-.5-.046-1-.071-1.514-.071a16.287,16.287,0,1,0,0,32.574c.511,0,1.016-.025,1.514-.071A16.288,16.288,0,0,1,60.3,95.22Z" transform="translate(-57.267 -78.933)"/>
      </g>
      <circle id="Elipse_12438" data-name="Elipse 12438" cx="2.269" cy="2.269" r="2.269" transform="translate(19.328 40.993)" fill="#ef5a50"/>
      <path id="Trazado_1053946" data-name="Trazado 1053946" d="M121.318,241.455a.465.465,0,0,1-.464.464h-4.085a.465.465,0,0,1-.464-.464V239.5a.465.465,0,0,1,.464-.464h4.085a.465.465,0,0,1,.464.464Z" transform="translate(-105.521 -197.214)" fill="#abccd3"/>
      <path id="Trazado_1053947" data-name="Trazado 1053947" d="M345.931,316.152a8.1,8.1,0,1,1-8.1-8.1A8.1,8.1,0,0,1,345.931,316.152Z" transform="translate(-299.156 -259.831)" fill="#86d5b5"/>
      <g id="Grupo_1189695" data-name="Grupo 1189695" transform="translate(30.571 48.218)" opacity="0.1">
        <path id="Trazado_1053948" data-name="Trazado 1053948" d="M331.451,316.152a8.1,8.1,0,0,1,7.239-8.057,8.1,8.1,0,1,0,0,16.114A8.1,8.1,0,0,1,331.451,316.152Z" transform="translate(-329.726 -308.049)"/>
      </g>
      <path id="Trazado_1053949" data-name="Trazado 1053949" d="M365.113,367.462a1.945,1.945,0,0,1-1.381-.581l-2.376-2.425a1.458,1.458,0,0,1,2.083-2.042l1.673,1.707,3.408-3.491a1.458,1.458,0,0,1,2.087,2.038l-4.11,4.21a1.945,1.945,0,0,1-1.382.583Z" transform="translate(-327.473 -307.14)" fill="#fff"/>
      <path id="Trazado_1053950" data-name="Trazado 1053950" d="M203.918,127.308a.7.7,0,0,0-.7.7v8.224a2.964,2.964,0,1,0,3.577,3.577h6.159a.7.7,0,0,0,0-1.391H206.8a2.974,2.974,0,0,0-2.186-2.186V128A.7.7,0,0,0,203.918,127.308Zm1.573,11.8a1.574,1.574,0,1,1-1.573-1.573A1.575,1.575,0,0,1,205.491,139.11Z" transform="translate(-182.321 -95.848)"/>
      <path id="Trazado_1053951" data-name="Trazado 1053951" d="M109.961,231.529a1.161,1.161,0,0,0-1.159,1.159v1.958a1.161,1.161,0,0,0,1.159,1.159h4.085a1.161,1.161,0,0,0,1.159-1.159v-1.958a1.161,1.161,0,0,0-1.159-1.159Zm3.853,2.886h-3.621V232.92h3.621Z" transform="translate(-98.714 -190.406)"/>
      <path id="Trazado_1053952" data-name="Trazado 1053952" d="M42.569,48.433A21.6,21.6,0,1,0,21.6,64.858h0a21.735,21.735,0,0,0,4.509-.472.7.7,0,0,0-.289-1.361,20.338,20.338,0,0,1-4.22.441h0A20.192,20.192,0,1,1,41.263,47.911a8.767,8.767,0,0,0-2.589-.389q-.324,0-.643.024A17.056,17.056,0,0,0,38,38.852a.7.7,0,0,0-1.344.36,15.6,15.6,0,0,1,.514,3.353h-1.3a.7.7,0,0,0,0,1.391h1.3a15.5,15.5,0,0,1-.656,3.833,8.814,8.814,0,0,0-6.64,8.53c0,.049,0,.1,0,.146a15.489,15.489,0,0,1-7.585,2.371v-1.3a.7.7,0,0,0-1.391,0v1.3a15.532,15.532,0,0,1-9.821-4.075l.913-.913a.7.7,0,0,0-.984-.984l-.913.913A15.531,15.531,0,0,1,6.007,43.4H7.131a.7.7,0,0,0,0-1.391H6.056A15.535,15.535,0,0,1,10.1,32.745l.913.913a.7.7,0,1,0,.984-.984l-.913-.913A15.532,15.532,0,0,1,20.9,27.687v1.3a.7.7,0,0,0,1.391,0v-1.3a15.506,15.506,0,0,1,9.825,4.07l-.917.917a.7.7,0,0,0,.984.984l.916-.916a15.636,15.636,0,0,1,1.909,2.566.7.7,0,0,0,1.2-.711A16.984,16.984,0,1,0,21.6,60.244a16.875,16.875,0,0,0,8.439-2.251,8.749,8.749,0,0,0,1.2,3.029q-.847.46-1.748.844a.7.7,0,1,0,.544,1.281,21.732,21.732,0,0,0,2.049-1A8.791,8.791,0,0,0,43.5,63.675a.7.7,0,1,0-.765-1.162,7.4,7.4,0,1,1,2.354-2.495.7.7,0,1,0,1.2.7,8.8,8.8,0,0,0-3.729-12.281Z"/>
      <path id="Trazado_1053953" data-name="Trazado 1053953" d="M362.765,352.69a2.136,2.136,0,0,0-1.541.649l-2.911,2.982-1.175-1.2a2.154,2.154,0,0,0-3.076,3.015l2.376,2.425a2.645,2.645,0,0,0,1.878.789h0a2.646,2.646,0,0,0,1.879-.793l4.11-4.21a2.154,2.154,0,0,0-1.542-3.659Zm.546,2.687-4.109,4.209a1.246,1.246,0,0,1-.885.374h0a1.245,1.245,0,0,1-.884-.372l-2.376-2.425a.763.763,0,1,1,1.089-1.068l1.673,1.707a.7.7,0,0,0,.5.209h0a.7.7,0,0,0,.5-.21l3.408-3.491a.763.763,0,0,1,1.092,1.066Z" transform="translate(-320.676 -300.333)"/>
    </g>
  </g>
</svg>
