<svg xmlns="http://www.w3.org/2000/svg" width="99.68" height="37.609" viewBox="0 0 99.68 37.609">
  <g id="Grupo_1191046" data-name="Grupo 1191046" transform="translate(-811.32 -1760.391)">
    <path id="Trazado_1055169" data-name="Trazado 1055169" d="M7.594-5.023H2.82V0H1.32V-11.375H8.367v1.227H2.82v3.9H7.594Zm8.953-1.336H10.031V-7.617h6.516Zm0,3.242H10.031v-1.25h6.516Zm5.289-2.172L20.445-3.844V0h-1.5V-11.375h1.5V-5.75L25.5-11.375h1.813L22.836-6.352,27.664,0h-1.8Zm8.5,10.38a2.154,2.154,0,0,1-1.631-.658,2.444,2.444,0,0,1-.629-1.761V2.516a2.959,2.959,0,0,1,.28-1.31,2.186,2.186,0,0,1,.784-.9,1.971,1.971,0,0,1,1.091-.326A1.847,1.847,0,0,1,31.73.612a2.743,2.743,0,0,1,.533,1.814v.351h-3.34a1.753,1.753,0,0,0,.426,1.178,1.339,1.339,0,0,0,1.037.449,1.468,1.468,0,0,0,.756-.182,1.9,1.9,0,0,0,.542-.483l.515.4A2.071,2.071,0,0,1,30.34,5.091Zm-.1-4.42a1.125,1.125,0,0,0-.857.371,1.805,1.805,0,0,0-.428,1.041h2.47V2.02a1.606,1.606,0,0,0-.346-1A1.059,1.059,0,0,0,30.236.671Z" transform="translate(810 1782)" fill="#fff"/>
    <path id="Trazado_1053682" data-name="Trazado 1053682" d="M11636.93-9828.662H11690" transform="translate(-10779 11608)" fill="none" stroke="#fff" stroke-width="1"/>
    <path id="Trazado_1055170" data-name="Trazado 1055170" d="M.742-4.3a4.961,4.961,0,0,1,.914-3.152,2.962,2.962,0,0,1,2.453-1.16A2.96,2.96,0,0,1,6.477-7.6l.063-.852H7.867V3.25H6.422V-.781A3.033,3.033,0,0,1,4.094.156,2.915,2.915,0,0,1,1.652-1.035,5.072,5.072,0,0,1,.742-4.2Zm1.445.164A3.761,3.761,0,0,0,2.8-1.852a1.951,1.951,0,0,0,1.652.828A2.164,2.164,0,0,0,6.422-2.164V-6.3A2.171,2.171,0,0,0,4.469-7.422,1.965,1.965,0,0,0,2.8-6.59,4.094,4.094,0,0,0,2.188-4.133ZM12.416,5h-.848V-.619l-1.7.624V-.76l2.415-.907h.132Zm6.622-9.3a4.961,4.961,0,0,1,.914-3.152A2.962,2.962,0,0,1,22.4-8.609,2.96,2.96,0,0,1,24.772-7.6l.063-.852h1.328V3.25H24.717V-.781a3.033,3.033,0,0,1-2.328.938,2.915,2.915,0,0,1-2.441-1.191,5.072,5.072,0,0,1-.91-3.16Zm1.445.164A3.761,3.761,0,0,0,21.1-1.852a1.951,1.951,0,0,0,1.652.828,2.164,2.164,0,0,0,1.969-1.141V-6.3a2.171,2.171,0,0,0-1.953-1.117A1.965,1.965,0,0,0,21.1-6.59,4.094,4.094,0,0,0,20.483-4.133ZM34.6,5H30.251V4.394l2.3-2.552a5.457,5.457,0,0,0,.7-.941,1.571,1.571,0,0,0,.194-.75A1.191,1.191,0,0,0,33.131-.7a1.1,1.1,0,0,0-.838-.333,1.3,1.3,0,0,0-.977.358,1.366,1.366,0,0,0-.349,1h-.843a1.957,1.957,0,0,1,.59-1.481,2.188,2.188,0,0,1,1.579-.565,2.1,2.1,0,0,1,1.463.485A1.655,1.655,0,0,1,34.293.051a3.8,3.8,0,0,1-1.249,2.333L31.267,4.312H34.6Z" transform="translate(866 1769)" fill="#fff"/>
    <path id="Trazado_1055171" data-name="Trazado 1055171" d="M5.18-7.156a4.331,4.331,0,0,0-.711-.055A1.9,1.9,0,0,0,2.539-6V0H1.094V-8.453H2.5l.023.977A2.251,2.251,0,0,1,4.539-8.609,1.477,1.477,0,0,1,5.18-8.5ZM10.313-5H5.965v-.606l2.3-2.552a5.456,5.456,0,0,0,.7-.941,1.571,1.571,0,0,0,.194-.75,1.19,1.19,0,0,0-.314-.852,1.1,1.1,0,0,0-.838-.333,1.3,1.3,0,0,0-.977.358,1.366,1.366,0,0,0-.349,1H5.838a1.957,1.957,0,0,1,.59-1.481,2.188,2.188,0,0,1,1.579-.565,2.1,2.1,0,0,1,1.463.485,1.655,1.655,0,0,1,.538,1.292A3.8,3.8,0,0,1,8.759-7.616L6.982-5.688h3.331Z" transform="translate(876 1798)" fill="#fff"/>
  </g>
</svg>
