<svg xmlns="http://www.w3.org/2000/svg" width="197.689" height="51.834" viewBox="0 0 197.689 51.834">
  <g id="Grupo_1191045" data-name="Grupo 1191045" transform="translate(-877.402 -7394.375)">
    <path id="Trazado_1055169" data-name="Trazado 1055169" d="M5.156-1.572,5.41-.02A6.52,6.52,0,0,1,4.082.137,3.007,3.007,0,0,1,2.6-.166a1.7,1.7,0,0,1-.742-.8,6.294,6.294,0,0,1-.215-2.075V-9H.352v-1.367H1.641v-2.568l1.748-1.055v3.623H5.156V-9H3.389v6.064a3.063,3.063,0,0,0,.093.967.732.732,0,0,0,.3.342,1.169,1.169,0,0,0,.6.127A5.718,5.718,0,0,0,5.156-1.572ZM16.123-8.418H6.67v-1.641h9.453Zm0,4.346H6.67V-5.713h9.453ZM56.279,0l3.789-5.391-3.506-4.98h2.2l1.592,2.432q.449.693.723,1.162.43-.645.791-1.143l1.748-2.451h2.1L62.129-5.488,65.986,0H63.828L61.7-3.223l-.566-.869L58.408,0ZM76.7-8.418H67.246v-1.641H76.7Zm0,4.346H67.246V-5.713H76.7ZM77.959,0l3.789-5.391-3.506-4.98h2.2l1.592,2.432q.449.693.723,1.162.43-.645.791-1.143l1.748-2.451h2.1L83.809-5.488,87.666,0H85.508L83.379-3.223l-.566-.869L80.088,0ZM88.3,2.882A7.642,7.642,0,0,1,88.6.5,2.965,2.965,0,0,1,89.507-.9a2.315,2.315,0,0,1,1.512-.49,2.467,2.467,0,0,1,1.179.271,2.254,2.254,0,0,1,.837.78A4.187,4.187,0,0,1,93.554.908a8.25,8.25,0,0,1,.188,1.974,7.663,7.663,0,0,1-.3,2.373,2.966,2.966,0,0,1-.9,1.4,2.315,2.315,0,0,1-1.518.493,2.292,2.292,0,0,1-1.9-.866A5.5,5.5,0,0,1,88.3,2.882Zm1.054,0a5.236,5.236,0,0,0,.481,2.737,1.375,1.375,0,0,0,2.375,0,5.238,5.238,0,0,0,.481-2.734,5.234,5.234,0,0,0-.481-2.74,1.429,1.429,0,0,0-1.2-.678,1.314,1.314,0,0,0-1.128.6A5.3,5.3,0,0,0,89.35,2.882Zm15.516-5.2V-6.24h-3.9V-7.881h3.9v-3.9h1.66v3.9h3.9V-6.24h-3.9v3.926Z" transform="translate(877.051 7423)" fill="#fff"/>
    <path id="Trazado_1055172" data-name="Trazado 1055172" d="M7.451,0H5.693V-11.2A9.085,9.085,0,0,1,4.028-9.99a11.8,11.8,0,0,1-1.851.908v-1.7a10.616,10.616,0,0,0,2.578-1.68,6.607,6.607,0,0,0,1.563-1.914H7.451Z" transform="translate(1014.051 7415)" fill="#fff"/>
    <path id="Trazado_1053458" data-name="Trazado 1053458" d="M-3619.832-4075h22.435" transform="translate(4628.051 11496)" fill="none" stroke="#fff" stroke-width="1"/>
    <path id="Trazado_1055173" data-name="Trazado 1055173" d="M10.068-1.689V0H.605A3.11,3.11,0,0,1,.811-1.221a6.458,6.458,0,0,1,1.157-1.9,18.13,18.13,0,0,1,2.3-2.168A19.5,19.5,0,0,0,7.422-8.325a3.631,3.631,0,0,0,.82-2.114A2.349,2.349,0,0,0,7.5-12.2a2.7,2.7,0,0,0-1.948-.718,2.745,2.745,0,0,0-2.031.762,2.882,2.882,0,0,0-.771,2.109L.938-10.234a4.447,4.447,0,0,1,1.4-3.081,4.764,4.764,0,0,1,3.252-1.06,4.538,4.538,0,0,1,3.262,1.143,3.751,3.751,0,0,1,1.2,2.832A4.3,4.3,0,0,1,9.7-8.711,6.556,6.556,0,0,1,8.53-6.963a28.43,28.43,0,0,1-2.71,2.52q-1.582,1.328-2.031,1.8a5.78,5.78,0,0,0-.742.952Z" transform="translate(1014.051 7441)" fill="#fff"/>
    <path id="Trazado_1055174" data-name="Trazado 1055174" d="M5.635,0,.088-14.316H2.139l3.721,10.4q.449,1.25.752,2.344.332-1.172.771-2.344l3.867-10.4h1.934L7.578,0Zm8.189,2.882A7.642,7.642,0,0,1,14.129.5,2.965,2.965,0,0,1,15.034-.9a2.315,2.315,0,0,1,1.512-.49,2.467,2.467,0,0,1,1.179.271,2.254,2.254,0,0,1,.837.78A4.187,4.187,0,0,1,19.082.908a8.25,8.25,0,0,1,.188,1.974,7.663,7.663,0,0,1-.3,2.373,2.966,2.966,0,0,1-.9,1.4,2.315,2.315,0,0,1-1.518.493,2.292,2.292,0,0,1-1.9-.866A5.5,5.5,0,0,1,13.824,2.882Zm1.054,0a5.236,5.236,0,0,0,.481,2.737,1.375,1.375,0,0,0,2.375,0,5.238,5.238,0,0,0,.481-2.734,5.235,5.235,0,0,0-.481-2.74,1.429,1.429,0,0,0-1.2-.678,1.314,1.314,0,0,0-1.128.6A5.3,5.3,0,0,0,14.878,2.882Z" transform="translate(1049.051 7410)" fill="#fff"/>
    <path id="Trazado_1053459" data-name="Trazado 1053459" d="M-3619.832-4075h22.435" transform="translate(4669.051 11496)" fill="none" stroke="#fff" stroke-width="1"/>
    <path id="Trazado_1055176" data-name="Trazado 1055176" d="M6.041-1.014V0H.363A1.866,1.866,0,0,1,.486-.732a3.875,3.875,0,0,1,.694-1.143,10.878,10.878,0,0,1,1.38-1.3A11.7,11.7,0,0,0,4.453-5a2.178,2.178,0,0,0,.492-1.269A1.409,1.409,0,0,0,4.5-7.321a1.617,1.617,0,0,0-1.169-.431,1.647,1.647,0,0,0-1.219.457,1.729,1.729,0,0,0-.463,1.266L.563-6.141A2.668,2.668,0,0,1,1.4-7.989a2.858,2.858,0,0,1,1.951-.636,2.723,2.723,0,0,1,1.957.686,2.251,2.251,0,0,1,.721,1.7,2.577,2.577,0,0,1-.211,1.014,3.934,3.934,0,0,1-.7,1.049A17.058,17.058,0,0,1,3.492-2.666q-.949.8-1.219,1.081a3.468,3.468,0,0,0-.445.571Z" transform="translate(1069.051 7403)" fill="#fff"/>
    <path id="Trazado_1055175" data-name="Trazado 1055175" d="M1,.859l1.709.254a1.629,1.629,0,0,0,.6,1.152,2.926,2.926,0,0,0,1.787.488,3.138,3.138,0,0,0,1.885-.488A2.4,2.4,0,0,0,7.871.9,11.227,11.227,0,0,0,8-1.357,3.616,3.616,0,0,1,5.127,0,3.914,3.914,0,0,1,1.816-1.543a5.942,5.942,0,0,1-1.172-3.7,6.889,6.889,0,0,1,.537-2.739A4.3,4.3,0,0,1,2.739-9.922a4.206,4.206,0,0,1,2.4-.684A3.718,3.718,0,0,1,8.164-9.121v-1.25H9.785v8.965a8.5,8.5,0,0,1-.493,3.433,3.607,3.607,0,0,1-1.562,1.6A5.415,5.415,0,0,1,5.1,4.209a4.963,4.963,0,0,1-3-.835A2.823,2.823,0,0,1,1,.859Zm1.455-6.23a4.5,4.5,0,0,0,.811,2.979,2.574,2.574,0,0,0,2.031.938,2.6,2.6,0,0,0,2.031-.933,4.353,4.353,0,0,0,.82-2.925A4.253,4.253,0,0,0,7.3-8.184,2.612,2.612,0,0,0,5.264-9.15,2.537,2.537,0,0,0,3.271-8.2,4.228,4.228,0,0,0,2.451-5.371Z" transform="translate(1055.051 7441)" fill="#fff"/>
    <path id="Trazado_1055170" data-name="Trazado 1055170" d="M5.635,0,.088-14.316H2.139l3.721,10.4q.449,1.25.752,2.344.332-1.172.771-2.344l3.867-10.4h1.934L7.578,0Zm8.189,2.882A7.642,7.642,0,0,1,14.129.5,2.965,2.965,0,0,1,15.034-.9a2.315,2.315,0,0,1,1.512-.49,2.467,2.467,0,0,1,1.179.271,2.254,2.254,0,0,1,.837.78A4.187,4.187,0,0,1,19.082.908a8.25,8.25,0,0,1,.188,1.974,7.663,7.663,0,0,1-.3,2.373,2.966,2.966,0,0,1-.9,1.4,2.315,2.315,0,0,1-1.518.493,2.292,2.292,0,0,1-1.9-.866A5.5,5.5,0,0,1,13.824,2.882Zm1.054,0a5.236,5.236,0,0,0,.481,2.737,1.375,1.375,0,0,0,2.375,0,5.238,5.238,0,0,0,.481-2.734,5.235,5.235,0,0,0-.481-2.74,1.429,1.429,0,0,0-1.2-.678,1.314,1.314,0,0,0-1.128.6A5.3,5.3,0,0,0,14.878,2.882Z" transform="translate(902.051 7411)" fill="#fff"/>
    <path id="Trazado_1053460" data-name="Trazado 1053460" d="M-3619.832-4075h22.435" transform="translate(4521.883 11497)" fill="none" stroke="#fff" stroke-width="1"/>
    <path id="Trazado_1055171" data-name="Trazado 1055171" d="M1,.859l1.709.254a1.629,1.629,0,0,0,.6,1.152,2.926,2.926,0,0,0,1.787.488,3.138,3.138,0,0,0,1.885-.488A2.4,2.4,0,0,0,7.871.9,11.227,11.227,0,0,0,8-1.357,3.616,3.616,0,0,1,5.127,0,3.914,3.914,0,0,1,1.816-1.543a5.942,5.942,0,0,1-1.172-3.7,6.889,6.889,0,0,1,.537-2.739A4.3,4.3,0,0,1,2.739-9.922a4.206,4.206,0,0,1,2.4-.684A3.718,3.718,0,0,1,8.164-9.121v-1.25H9.785v8.965a8.5,8.5,0,0,1-.493,3.433,3.607,3.607,0,0,1-1.562,1.6A5.415,5.415,0,0,1,5.1,4.209a4.963,4.963,0,0,1-3-.835A2.823,2.823,0,0,1,1,.859Zm1.455-6.23a4.5,4.5,0,0,0,.811,2.979,2.574,2.574,0,0,0,2.031.938,2.6,2.6,0,0,0,2.031-.933,4.353,4.353,0,0,0,.82-2.925A4.253,4.253,0,0,0,7.3-8.184,2.612,2.612,0,0,0,5.264-9.15,2.537,2.537,0,0,0,3.271-8.2,4.228,4.228,0,0,0,2.451-5.371Z" transform="translate(902.051 7442)" fill="#fff"/>
  </g>
</svg>
