<svg xmlns="http://www.w3.org/2000/svg" xmlns:xlink="http://www.w3.org/1999/xlink" width="118" height="118" viewBox="0 0 118 118">
  <defs>
    <filter id="Elipse_12115" x="0" y="0" width="118" height="118" filterUnits="userSpaceOnUse">
      <feOffset dy="3" input="SourceAlpha"/>
      <feGaussianBlur stdDeviation="3" result="blur"/>
      <feFlood flood-opacity="0.161"/>
      <feComposite operator="in" in2="blur"/>
      <feComposite in="SourceGraphic"/>
    </filter>
  </defs>
  <g id="Grupo_1189702" data-name="Grupo 1189702" transform="translate(-747 -2806)">
    <g id="Grupo_1189055" data-name="Grupo 1189055" transform="translate(1.219 -1040)">
      <g id="Grupo_1181949" data-name="Grupo 1181949" transform="translate(-54 1303)">
        <g transform="matrix(1, 0, 0, 1, 799.78, 2543)" filter="url(#Elipse_12115)">
          <g id="Elipse_12115-2" data-name="Elipse 12115" transform="translate(9 6)" fill="#ffc006" stroke="#b18603" stroke-width="2">
            <circle cx="50" cy="50" r="50" stroke="none"/>
            <circle cx="50" cy="50" r="49" fill="none"/>
          </g>
        </g>
      </g>
    </g>
    <g id="kelvin" transform="translate(691.99 2741.8)">
      <path id="Trazado_1053967" data-name="Trazado 1053967" d="M614.422,159.2a4.725,4.725,0,0,1-1.316-3.29v-11.76h-5.544a1.155,1.155,0,0,1,0-2.311h5.545V137.5h-4.2a1.155,1.155,0,0,1,0-2.311h4.2v-4.337h-5.545a1.155,1.155,0,0,1,0-2.311h5.545v-.17a6.174,6.174,0,1,0-12.348,0V155.91a4.728,4.728,0,0,1-1.316,3.29,10.363,10.363,0,0,0-2.6,9.676,11.238,11.238,0,0,0,7.871,7.654,10.882,10.882,0,0,0,4.433,0,11.242,11.242,0,0,0,7.871-7.654A10.353,10.353,0,0,0,614.422,159.2Zm1.126,9.334a9.814,9.814,0,0,1-6.7,6.515,9.371,9.371,0,0,1-3.827,0,8.862,8.862,0,0,1-4.483-14.8,6.227,6.227,0,0,0,1.733-4.337v-3.394a4.663,4.663,0,1,1,9.326,0v3.394a6.231,6.231,0,0,0,1.733,4.337A8.857,8.857,0,0,1,615.549,168.534Z" transform="translate(-475.536 -29.689)" fill="#64b5f6"/>
      <path id="Trazado_1053968" data-name="Trazado 1053968" d="M662.469,527.32a7.6,7.6,0,0,1-4.917,4.773,7.069,7.069,0,0,1-2.892,0,7.6,7.6,0,0,1-4.917-4.772,6.6,6.6,0,0,1,1.632-6.168,8.529,8.529,0,0,0,2.383-5.937v-3.394a2.352,2.352,0,1,1,4.7,0v3.394a8.531,8.531,0,0,0,2.383,5.938A6.609,6.609,0,0,1,662.469,527.32Z" transform="translate(-524.708 -388.996)" fill="#e53935"/>
      <path id="Trazado_1053969" data-name="Trazado 1053969" d="M120.953,237.981a2.482,2.482,0,1,1-2.481-2.481A2.482,2.482,0,0,1,120.953,237.981Z" transform="translate(-29.671 -134.808)" fill="#4fc3f7"/>
      <path id="Trazado_1053970" data-name="Trazado 1053970" d="M310.422,402.509,299,412.279v-7.226l7.852-6.715a2.746,2.746,0,0,1,3.57,4.173Z" transform="translate(-199.466 -285.276)" fill="#81d4fa"/>
      <path id="Trazado_1053971" data-name="Trazado 1053971" d="M196.432,399.306v21.076a2.746,2.746,0,1,1-5.492,0V399.306a2.746,2.746,0,1,1,5.492,0Z" transform="translate(-99.209 -284.239)" fill="#81d4fa"/>
      <path id="Trazado_1053972" data-name="Trazado 1053972" d="M311.383,604.563a2.744,2.744,0,0,1-4.678,1.966L299,598.9v-.42l3.96-3.387,7.61,7.536A2.73,2.73,0,0,1,311.383,604.563Z" transform="translate(-199.466 -468.434)" fill="#81d4fa"/>
      <g id="Grupo_1189700" data-name="Grupo 1189700" transform="translate(85.597 93.233)" opacity="0.5">
        <path id="Trazado_1053973" data-name="Trazado 1053973" d="M604.422,169.2a4.725,4.725,0,0,1-1.316-3.29v-11.76h-5.544a1.155,1.155,0,1,1,0-2.311h5.545V147.5h-4.2a1.155,1.155,0,1,1,0-2.311h4.2v-4.337h-5.545a1.155,1.155,0,1,1,0-2.311h5.545v-.17a6.174,6.174,0,1,0-12.348,0V165.91a4.728,4.728,0,0,1-1.316,3.29,10.362,10.362,0,0,0-2.6,9.676,11.238,11.238,0,0,0,7.871,7.654,10.883,10.883,0,0,0,4.434,0,11.242,11.242,0,0,0,7.87-7.654A10.352,10.352,0,0,0,604.422,169.2Zm1.126,9.334a9.813,9.813,0,0,1-6.7,6.515,9.372,9.372,0,0,1-3.827,0,8.862,8.862,0,0,1-4.483-14.8,6.227,6.227,0,0,0,1.733-4.337v-3.394a4.663,4.663,0,1,1,9.326,0v3.394a6.231,6.231,0,0,0,1.733,4.337A8.857,8.857,0,0,1,605.548,178.534Z" transform="translate(-551.855 -132.2)" fill="#fff"/>
        <path id="Trazado_1053974" data-name="Trazado 1053974" d="M652.469,537.32a7.6,7.6,0,0,1-4.917,4.773,7.069,7.069,0,0,1-2.892,0,7.6,7.6,0,0,1-4.917-4.772,6.6,6.6,0,0,1,1.632-6.168,8.53,8.53,0,0,0,2.383-5.937v-3.394a2.352,2.352,0,1,1,4.7,0v3.394a8.53,8.53,0,0,0,2.383,5.938A6.61,6.61,0,0,1,652.469,537.32Z" transform="translate(-601.027 -491.506)" fill="#fff"/>
        <path id="Trazado_1053975" data-name="Trazado 1053975" d="M110.953,247.981a2.482,2.482,0,1,1-2.481-2.481A2.482,2.482,0,0,1,110.953,247.981Z" transform="translate(-105.99 -237.319)" fill="#fff"/>
        <path id="Trazado_1053976" data-name="Trazado 1053976" d="M300.422,412.509,289,422.279v-7.226l7.852-6.715a2.746,2.746,0,0,1,3.57,4.173Z" transform="translate(-275.785 -387.787)" fill="#fff"/>
        <path id="Trazado_1053977" data-name="Trazado 1053977" d="M186.432,409.306v21.076a2.746,2.746,0,0,1-5.492,0V409.306a2.746,2.746,0,1,1,5.492,0Z" transform="translate(-175.528 -386.749)" fill="#fff"/>
        <path id="Trazado_1053978" data-name="Trazado 1053978" d="M301.383,614.563a2.744,2.744,0,0,1-4.678,1.965L289,608.9v-.42l3.96-3.387,7.61,7.535A2.73,2.73,0,0,1,301.383,614.563Z" transform="translate(-275.785 -570.944)" fill="#fff"/>
      </g>
      <g id="Grupo_1189701" data-name="Grupo 1189701" transform="translate(84.01 90.2)">
        <path id="Trazado_1053979" data-name="Trazado 1053979" d="M589.441,133.2a12.727,12.727,0,0,0-3.044-5.293,2.425,2.425,0,0,1-.672-1.69V98.685a8.485,8.485,0,1,0-16.969,0V126.22a2.426,2.426,0,0,1-.673,1.691,12.723,12.723,0,0,0-3.181,11.8,13.593,13.593,0,0,0,9.655,9.4,13.181,13.181,0,0,0,5.365,0,13.591,13.591,0,0,0,9.656-9.4A12.879,12.879,0,0,0,589.441,133.2Zm-2.114,5.982a11.241,11.241,0,0,1-7.87,7.654,10.882,10.882,0,0,1-4.433,0,11.243,11.243,0,0,1-7.871-7.654,10.356,10.356,0,0,1,2.6-9.676,4.728,4.728,0,0,0,1.316-3.29V98.685a6.174,6.174,0,1,1,12.348,0V126.22a4.725,4.725,0,0,0,1.313,3.29A10.357,10.357,0,0,1,587.328,139.186Z" transform="translate(-529.852 -90.2)" fill="#413b32"/>
        <path id="Trazado_1053980" data-name="Trazado 1053980" d="M632.864,489.864a6.231,6.231,0,0,1-1.733-4.337v-3.394a4.663,4.663,0,1,0-9.326,0v3.394a6.227,6.227,0,0,1-1.733,4.337,9.06,9.06,0,0,0,4.487,14.8,9.371,9.371,0,0,0,3.827,0,8.855,8.855,0,0,0,4.478-14.8Zm-.036,7.767a7.6,7.6,0,0,1-4.917,4.773,7.069,7.069,0,0,1-2.892,0,7.6,7.6,0,0,1-4.917-4.772,6.6,6.6,0,0,1,1.632-6.168,8.53,8.53,0,0,0,2.383-5.937v-3.394a2.352,2.352,0,1,1,4.7,0v3.394a8.53,8.53,0,0,0,2.383,5.938A6.61,6.61,0,0,1,632.828,497.631Z" transform="translate(-579.076 -449.507)" fill="#413b32"/>
        <path id="Trazado_1053981" data-name="Trazado 1053981" d="M742.011,211.215a1.155,1.155,0,0,1-1.155,1.155h-6.7a1.155,1.155,0,0,1,0-2.311h6.7A1.155,1.155,0,0,1,742.011,211.215Z" transform="translate(-686.139 -201.405)" fill="#413b32"/>
        <path id="Trazado_1053982" data-name="Trazado 1053982" d="M759.259,303.275a1.155,1.155,0,0,1-1.155,1.155h-5.358a1.155,1.155,0,1,1,0-2.311H758.1A1.155,1.155,0,0,1,759.259,303.275Z" transform="translate(-703.386 -286.818)" fill="#413b32"/>
        <path id="Trazado_1053983" data-name="Trazado 1053983" d="M742.011,395.335a1.155,1.155,0,0,1-1.155,1.155h-6.7a1.155,1.155,0,0,1,0-2.311h6.7A1.155,1.155,0,0,1,742.011,395.335Z" transform="translate(-686.139 -372.231)" fill="#413b32"/>
        <path id="Trazado_1053984" data-name="Trazado 1053984" d="M88.8,203.5a4.792,4.792,0,1,0,4.792,4.792A4.791,4.791,0,0,0,88.8,203.5Zm0,7.273a2.481,2.481,0,1,1,2.482-2.481A2.481,2.481,0,0,1,88.8,210.773Z" transform="translate(-84.01 -195.319)" fill="#413b32"/>
        <path id="Trazado_1053985" data-name="Trazado 1053985" d="M169.053,369.617v4.177a1.155,1.155,0,1,1-2.311,0v-4.177a2.746,2.746,0,0,0-5.492,0v21.076a2.746,2.746,0,0,0,5.492,0v-6.632a1.155,1.155,0,1,1,2.311,0v6.632a5.057,5.057,0,0,1-10.113,0V369.617a5.057,5.057,0,0,1,10.113,0Z" transform="translate(-153.53 -344.749)" fill="#413b32"/>
        <path id="Trazado_1053986" data-name="Trazado 1053986" d="M282.79,367.486a5.062,5.062,0,0,0-7.125-.555l-6.354,5.431-1.906,1.63a1.155,1.155,0,0,0-.4.878v10.267a1.155,1.155,0,0,0,1.906.878l.176-.151.228-.195,3.96-3.387,1.763-1.507,7.2-6.16A5.063,5.063,0,0,0,282.79,367.486Zm-2.057,5.374-11.422,9.77V375.4l7.852-6.715a2.746,2.746,0,1,1,3.57,4.173Z" transform="translate(-253.787 -345.826)" fill="#413b32"/>
        <path id="Trazado_1053987" data-name="Trazado 1053987" d="M284,569.551a5.055,5.055,0,0,1-8.614,3.618l-6.079-6.02-1.968-1.95a1.155,1.155,0,0,1-.092-1.539,1.036,1.036,0,0,1,.085-.1,1.155,1.155,0,0,1,1.634-.008l.114.113.228.225,7.7,7.631a2.745,2.745,0,0,0,3.865-3.9l-7.609-7.539-.755-.748a1.155,1.155,0,1,1,1.626-1.641l.892.883,7.473,7.4A5.022,5.022,0,0,1,284,569.551Z" transform="translate(-253.784 -523.633)" fill="#413b32"/>
      </g>
    </g>
  </g>
</svg>
