<svg xmlns="http://www.w3.org/2000/svg" xmlns:xlink="http://www.w3.org/1999/xlink" width="820" height="386" viewBox="0 0 820 386">
  <defs>
    <clipPath id="clip-path">
      <circle id="Elipse_4253" data-name="Elipse 4253" cx="101.397" cy="101.397" r="101.397" fill="none"/>
    </clipPath>
  </defs>
  <g id="Grupo_63767" data-name="Grupo 63767" transform="translate(-180.051 -5466)">
    <rect id="Rectángulo_5885" data-name="Rectángulo 5885" width="820" height="386" transform="translate(180.051 5466)" fill="#f3f9ff"/>
    <g id="Grupo_63714" data-name="Grupo 63714" transform="translate(247.106 5489.558)">
      <g id="Grupo_63632" data-name="Grupo 63632" transform="translate(0 0)">
        <g id="Grupo_63623" data-name="Grupo 63623" transform="translate(408.041 135.69)">
          <g id="Grupo_63622" data-name="Grupo 63622" transform="translate(0 0)">
            <g id="Grupo_63611" data-name="Grupo 63611">
              <circle id="Elipse_4252" data-name="Elipse 4252" cx="101.397" cy="101.397" r="101.397" fill="#3dd4f2"/>
              <g id="Grupo_63610" data-name="Grupo 63610" transform="translate(3.451 19.457)">
                <path id="Trazado_110062" data-name="Trazado 110062" d="M6694.9-1051.657c-1.961-8.839-21.828-4.361-26.02.229-3.827,4.19-2.431,9.356-2.422,14.508.011,6.027-2.328,12.858-5.446,18.013-3.956,6.545-17.652,8.755-14.529,19.306.679,2.292,4.1,6.034,6.117,7.552,1.977,1.479,4.086,1.628,6.3,2.487,2.646,1.026,3.787,2.834,5.81,4.707,1.915,1.773,3.688,2.94,5.076,5.2,1.687,2.756,2.637,5.829,4.54,8.477,2.312,3.217,8.294,8.529,12.721,7.882,10.185-1.487,2.815-14.046,1.871-19.447-1.643-9.369,7.923-17.118,10.286-25.666a21.105,21.105,0,0,0,.773-7.858c-.167-1.885-1.259-4.482-.854-6.355.355-1.639,2.054-3.2,2.67-4.834a29.194,29.194,0,0,0,1.581-8.922c.192-4.256-2.92-16.825-9.681-14.07" transform="translate(-6558.207 1069.957)" fill="#61daf2"/>
                <path id="Trazado_110063" data-name="Trazado 110063" d="M6710.923-946.412c6.482,4.9,14.1,3.237,20.833,6.176,3.3,1.44,4.7,4.422,4.316,7.992-.169,1.594-1.859,3.414-2.025,4.969-.208,1.938.489,3.758.774,5.657,1.143,7.644-4.9,14.43-8.5,21.141-5.315,9.9-15.38,12.5-24.274,17.942-5.948,3.639-20.4,15.6-24.317,5.188-3.942-10.481,10.888-17.833,16.373-25.8,5.9-8.567,1.688-16.445,4.537-25.458,1.252-3.964,9.743-12.029,14.059-12.053" transform="translate(-6564.192 1048.693)" fill="#61daf2"/>
                <path id="Trazado_110064" data-name="Trazado 110064" d="M6545.839-1005.381c.1-2.357,2.1-9.3,5.667-7.9,3.007,1.176,2.75,9.813,2.744,12.23-.018,8,2.065,13.622,8.093,18.573,5.522,4.536,13.179,11.385,13.945,19.159,1.227,12.469-14.635,14.82-23.7,12.838-15.761-3.449-16.5-19.388-14.623-32.32.8-5.489,2.639-10.341,4.772-15.493,1.615-3.9,2.143-9.563,4.428-12.841" transform="translate(-6537.239 1061.618)" fill="#61daf2"/>
                <path id="Trazado_110065" data-name="Trazado 110065" d="M6602.276-946.285c-5.834-5.693-14.66,3.853-18.153,7.86-2.889,3.315-6.092,6.081-10.6,6.307-4.922.244-6.75-1.083-11.534,1.2-3.332,1.593-8.031,2.673-7.538,7.207.3,2.757,4.569,7.114,6.653,8.755,3.927,3.095,6.344,4.434,8.854,8.952,2.33,4.193,3.871,8.607,7.527,11.962,3.717,3.414,7.43,3.462,11.509,5.4,4.2,2,4.647,6.616,7.973,9.639,2.925,2.659,8.6,4.888,12.417,2.779,3.936-2.175,3.565-6.859,3.52-10.759-.059-4.846-1.392-7.771-3.433-12.041-1.682-3.517-1.537-6.7-2.855-10.084-2.868-7.36-11.87-11.348-8.212-20.366,1.246-3.074,4-5.392,5.325-8.412,1.436-3.285.861-9.912-4.106-9.74" transform="translate(-6540.549 1049.01)" fill="#61daf2"/>
                <path id="Trazado_110066" data-name="Trazado 110066" d="M6725.746-1072.241c-1.322-1.278-4.721-1.185-6.132.468-2.024,2.371.393,3.813.5,5.943.139,2.656-6.6,8.708.288,8.116,2.194-.188,3.164-2.13,4.958-3.074,1.371-.722,4.856-.562,5.739-1.51,2.839-3.046-2.423-9.409-6.123-8.8" transform="translate(-6571.945 1073.117)" fill="#61daf2"/>
              </g>
            </g>
            <g id="Grupo_63621" data-name="Grupo 63621">
              <g id="Grupo_63614" data-name="Grupo 63614">
                <g id="Grupo_63613" data-name="Grupo 63613" clip-path="url(#clip-path)">
                  <path id="Trazado_110067" data-name="Trazado 110067" d="M6620.119-981.4c-.164-.678,3.007-1.164,4.023-1.212a4.588,4.588,0,0,1,2.762.606,9.341,9.341,0,0,0,1.6,1.671c.631.388.292.679,1.26.873s1.309-.146,1.211.484-1.21,1.018-1.7.97a4.822,4.822,0,0,1-2.036-.679,13.666,13.666,0,0,0-3.1-1.89C6623.514-980.678,6620.2-981.067,6620.119-981.4Z" transform="translate(-6549.76 1075.13)" fill="#5ed15a"/>
                  <path id="Trazado_110068" data-name="Trazado 110068" d="M6642.7-974.94c.029.341-1.114.484-1.745.581a15.876,15.876,0,0,0-3.1.63c-.291.242-1.4.873-1.842.727a2.435,2.435,0,0,1-1.114-.958,4.8,4.8,0,0,1,.388-1.852c.242-.388.582-.824,1.114-.776s1.163.283,1.552,0,.774-.521,1.163-.334S6642.6-976.056,6642.7-974.94Z" transform="translate(-6552.613 1074.044)" fill="#5ed15a"/>
                  <g id="Grupo_63612" data-name="Grupo 63612" transform="translate(-20.507 -8.887)">
                    <path id="Trazado_110069" data-name="Trazado 110069" d="M6567.706-1077.436a35.134,35.134,0,0,1,8.435,2.108c1.9.843,5.693-.633,9.276,0s4.851-.212,6.537,1.476,3.795,2.53,4.639,2.109,1.687-1.9,2.319-1.055.21,5.48-2.952,6.958-5.692,1.686-5.692,4.217,1.687,2.74,3.373,3.584,2.74,2.74,4.639,3.163,4.218-.633,5.48,2.53,3.8,4.006,3.374,2.109-1.055-3.163,1.475-5.06,1.476-3.374,0-5.271-1.475-3.8.211-4.639,6.536-1.476,7.169,0,2.108,4.427,4.218,4.85,2.167-3.5,3.585-2.977c1.518.555,1.009,3.995,1.518,5.142s4.461,1.528,5.354,3.313.638,4.284.891,5.646a5.671,5.671,0,0,1,0,3.275c-.382.893-.127,2.166,1.531,2.673s1.528,1.4,0,1.911-4.077.128-4.207-1.4a2.793,2.793,0,0,0-2.548-2.807c-1.4,0-6.245.128-6.75,1.02s-.383,1.656,1.274,1.656,2.038,1.573,1.529,1.742-1.274,1.189-.639,1.443,5.681-1.784,6.534-1.02-.289,2.673-2.071,3.44-4.842,3.823-5.989,3.059,2.933-3.186,1.4-3.059-6.117,2.028-6.372,3.18,2.038,2.807.892,3.7-4.332-.255-4.715,1.274.637,4.715-2.039,7.391-6.884,4.588-6.884,6.754,1.274,5.1,1.274,6.244-.51,3.313-1.274,3.44-1.019-.765-2.038-1.02-1.146-2.038-1.784-3.44.127-3.7-2.421-3.822-3.95-.128-4.333.637.765,1.911-1.019,1.911-2.8-.892-3.823.128-3.567,2.166-4.076,3.568-1.4,4.333-.128,7.008.255,2.166.639,3.058,3.186,2.294,4.332,2.673,3.186-1.274,2.807-2.807,2.038-2.421,2.93-2.421,1.53,1.4,1.4,2.167-1.91,4.077-2.038,5.48,1.4,1.784,3.822,2.55,2.294,1.018,2.294,3.058-.6,5.735,1.932,5.607,5.331,1.02,6.349.892,3.059-4.077,4.205-3.823.255,2.807,1.656,2.931,4.205-1.911,7.264-.638,6.116,1.53,7.009,2.807,1.656,3.7,3.057,4.333,5.226.128,6.884,1.4,2.039,5.734,5.1,7.008,6.883,2.166,9.3,3.058,7.137,1.784,6.754,5.352-1.02,5.48-2.673,7.391-1.656,2.673,0,7.136.382,6.371-.764,7.645a16.144,16.144,0,0,1-7.009,4.333c-2.8.637-3.951,1.53-4.716,2.549s-1.528,4.077-.765,5.734.892,2.673.127,3.568a7.942,7.942,0,0,1-4.332,2.421c-1.784.255-3.441,1.53-3.7,2.931s-.765,4.2-3.44,5.48-4.46,1.02-5.1,2.038-1.273,3.823-.382,5.1,1.146,3.058,0,3.95-2.295,1.657-2.295,2.807-.254,2.421-1.146,2.548-4.332,4.077-5.862,3.823-1.912-2.42-1.4-3.44a5.014,5.014,0,0,0,.637-3.7c-.382-1.529-.637-2.548-.892-3.823a9.155,9.155,0,0,1-.382-3.568,59.762,59.762,0,0,1,1.019-6.371,52.7,52.7,0,0,0,.383-9.3c-.127-3.059.383-3.186.51-5.989s.254-6.627.254-8.793.893-4.206-.891-5.352-7.392-1.4-11.087-5.862-6.243-4.587-5.733-9.557,2.166-5.606,3.059-7.518a21.846,21.846,0,0,0,1.911-7.391c0-2.039,1.146-3.058,1.019-4.077a15.439,15.439,0,0,0-2.673-5.48,8.253,8.253,0,0,0-4.715-2.294c-1.657-.255-3.44-2.55-5.1-4.97a4.835,4.835,0,0,0-4.843-2.421c-1.655,0-2.931-2.039-4.843-2.548a40.092,40.092,0,0,1-6.5-2.294c-2.167-1.019-3.187-1.784-4.715-4.588s-2.422-8.665-3.187-10.066-2.166-6.883-3.44-7.264-2.673-1.657-2.931-.509.127,4.2,1.147,5.352a14.479,14.479,0,0,1,2.165,3.695c.383.892.255,2.294-.637,1.4s-2.808-4.2-3.567-4.715a9.22,9.22,0,0,1-3.313-4.969c-.892-2.931-.892-5.989-1.53-6.883a17.55,17.55,0,0,0-2.548-3.7c-1.53-1.529-1.656-3.823-1.02-6.245s.3-7.519-.36-8.283a21.614,21.614,0,0,0-4.1-3.568c-.815-.493-.426-1.733,0-2.86a16,16,0,0,0,.534-7.328c-.562-2.817.226-6.2-1.69-6.65s-3.494-.563-4.621-1.465-3.157-2.367-5.186-2.139-7.439-.225-8.341.789-3.27,1.466-3.832,2.48a7.673,7.673,0,0,1-3.609,2.593c-1.579.676-4.4,1.917-5.3,1.014s-1.127-2.93-2.139-3.494-2.931-.113-3.609-1.579-2.028-1.014-2.7-1.69.789-1.8,2.254-3.269,7.1-3.494,5.861-4.847-2.367.225-3.382-.113-2.705-.563-2.139-1.577a5.877,5.877,0,0,1,3.833-2.03c1.014,0,4.17.225,6.086-.676s4.172-2.254,5.637-2.029,2.592,1.691,3.943.563,2.818-3.043,5.071-2.818,8.68,0,10.821.9,3.832,2.139,6.313,1.353S6564.964-1077.8,6567.706-1077.436Z" transform="translate(-6507.562 1102.872)" fill="#5ed15a"/>
                    <path id="Trazado_110070" data-name="Trazado 110070" d="M6764.566-1066.656c-5.219-6.14-12.434-7.982-14.736-7.829s-7.217,1.537-8.75,3.07-5.219,3.07-5.681,4.759-1.228,2.148-2.149,3.223-2.3,2-.767,3.223,3.991,1.382,4.3,2.763.459,2.457,2.455,2.61,1.841,2.455,3.837,1.381,3.685-2.3,2.916-3.837a42.739,42.739,0,0,1-1.688-5.372c-.462-1.381-1.538-1.689-.307-2.61s1.688-1.842,3.071-1.842,1.688-1.228,2.3.461-.614,2.763-.307,4.3-.154,3.223,1.382,3.223,2.763-.767,3.378-.153,1.841.921.767,1.842-2.457.921-2.917,1.689a8.238,8.238,0,0,0-.614,2.588,3.4,3.4,0,0,1-2.877,2.325c-2.339.307-6.793,2-7.714,1.537s0-2.606-1.075-3.07-2.762.461-2.456,1.075a1.718,1.718,0,0,1,0,2.072c-.613.839-4.6.842-5.14,1.3a10.59,10.59,0,0,0-2.072,2.606c-.461.921-1.689,2.916-2.3,2.916s.306,1.228.919,2.61,2.61,5.219.769,5.833-4.605-.307-6.294.768-1.841,5.372-.614,7.217,2.457,2.763,4.3,2.606,3.529,0,4.451-1.688a15.27,15.27,0,0,0,1.843-4.605c.459-2-1.075-3.53.614-3.684s2,1.229,3.07-.153,2-2.763,3.991-2.917-.154,2.764,1.227,3.378,3.377,1.075,4.144,2.149,2,3.07,1.229,4.143-2,3.408-1.076,3.394,2.149.291,2.764-1.551,1.688-3.684.921-4.759-.921-3.223-1.842-3.53-1.38-1.229-2-2.15-3.223-1.841-.921-1.537,5.834,1.537,6.14,2.763a32.841,32.841,0,0,0,.921,3.837c.614,1.842-.306,3.224,1.689,3.684s2.3.614,2.606,1.689-.307,2.606.307,1.075a4.723,4.723,0,0,0,.153-3.531c-.308-1.382-1.537-3.223,0-3.53s2-.614,2.61,0,.153,1.228.767,2.606.615,1.689,2.3,2.15,1.228,1.688,3.07,1.841,3.991-1.16,3.991,1.109-.614,2.729,0,4.264,0,2.916-1.537,2.455a14.586,14.586,0,0,0-5.373-.921c-2,.154-2.763-2.149-4.451-1.688s-3.837.947-3.992,2.7,1.074,2.826.154,2.826a15.124,15.124,0,0,1-5.68-2.606c-1.537-1.225-3.532-1.075-4.605-1.842s-3.07-2.3-2.763-2.916,2.457-1.689,1.382-2.61-3.223-.921-5.065-.307a21.138,21.138,0,0,0-4.759,2.61c-2,1.228-3.992,2.456-4.606,2s-.153-1.382-1.381-1.075a4.733,4.733,0,0,0-2.61,1.537c-.459.614-2.839,3.07-2.8,4.452a26.049,26.049,0,0,1-2.265,8.6c-1.535,3.53-3.223,4.912-3.991,6.6s-2.606,5.68-1.687,8.443,1.537,4.759,2.3,6.448,1.842,3.991,3.377,4.3,4.912,3.07,5.219,3.684,1.537,1.537,4.143,1.688,3.684.154,5.681-.767,5.509-2.61,7.284-2.3,4.077.152,5.764,3.146.461,4.682,1.995,6.524,2.457,3.377,1.689,4.451-2.764,2.3-1.229,3.224,3.376,1.381,4.144,2.763,2.762,5.372,2.454,6.907-1.687,4.912-1.074,7.369-.459,3.838.615,5.525a57.379,57.379,0,0,0,3.99,5.527c1.075,1.228,3.685,3.838,3.224,5.372a7.443,7.443,0,0,0,1.382,5.987c1.381,1.689,4,3.991,5.3,4.452s.993,1.688,2.068,1.688,2-1.688,3.837-2.456,4.759-1.537,5.833-3.991a11.344,11.344,0,0,0,1.228-5.219c0-1.537-2-3.378,0-4.912a13.506,13.506,0,0,0,3.838-4.452,18.6,18.6,0,0,0,1.381-6.754c0-2.457-.767-3.837.768-5.066s3.224-1.841,2.457-3.07-1.382-2-2.61-6.293-2.606-5.219-2.149-6.6,0-3.07.768-5.372.613-3.07,2.455-4.3,5.134-3.991,5.134-6.448.835-1.842,0-4.912-.527-3.377-1.91-4.6-1.537-1.843-2.606-.461-1.841,5.066-3.377,3.837-3.685-5.066-4.759-6.293.307-1.537-1.842-3.223a13.874,13.874,0,0,1-4.3-4.605c-1.692-2.61-2.456-3.684-2.456-5.219s-1.537-3.224-.614-4.452,2.456,0,3.224,1.689,3.991,4.451,4.6,6.293,3.531,6.907,4.452,7.675.768,3.531,2.3,3.07,2.455-4.143,3.685-4.759,3.99,1.229,5.372-1.075,3.224-4.451,2.3-6.14-.46-3.991-1.381-4.912-3.991,1.228-5.986.154-5.833-3.838-5.681-6.14,5.526-10.592,4.144-13.967-10.745-21.951-14.429-23.178-7.675-4.452-7.217-8.287S6764.566-1066.656,6764.566-1066.656Z" transform="translate(-6547.196 1101.727)" fill="#5ed15a"/>
                    <path id="Trazado_110071" data-name="Trazado 110071" d="M6693.292-1102.328c-3.174-3.475-12.393-6.045-17.229-5.894s-11.637.755-14.206,1.057-6.209,1.059-7.485.908-5.055.151-6.718,1.964-5.138,2.418-4.685,4.685,1.964,2.418,4.076,2.874,4.535-1.057,5.14,0,0,3.627.6,4.383,3.022,1.663,3.779,2.874,2.873,1.058,3.475,3.023.755,9.672,1.511,11.032.151,2.874.906,3.929,5.592,4.232,6.95,4.232,0-3.779,1.511-5.743,5.895-3.174,9.067-4.081,4.988-2.368,7.558-3.9,6.2-2.45,5.742-4.788-1.209-2.339-.755-3.4,1.208-.756,2.116-2.874,2.116-2.874.906-5.743A33.4,33.4,0,0,0,6693.292-1102.328Z" transform="translate(-6533.653 1108.229)" fill="#5ed15a"/>
                    <path id="Trazado_110072" data-name="Trazado 110072" d="M6728.438-1053.12c-.46-.213-2.343,0-2.418.454a1.653,1.653,0,0,0,.528,1.209c.228.227.821,1.209.676,1.587s-.382,2.192,0,2.645,1.137,1.136,1.214,1.814a12.185,12.185,0,0,1-.3,2.8c-.152.755-.53,1.587-.076,2.192a1.079,1.079,0,0,0,1.361.453c.454-.151.323.076.7-.68s1.187-1.512,1.489-2.116.6-.982.529-1.587.075-.907-.529-1.511a2.4,2.4,0,0,1-.831-1.36c-.227-.68.376-.907-.3-1.512s-.378-.906-1.058-.831-.832.831-.907-.3,1.6-1.41,1.173-2.106A2.894,2.894,0,0,0,6728.438-1053.12Z" transform="translate(-6549.671 1097.623)" fill="#5ed15a"/>
                    <path id="Trazado_110073" data-name="Trazado 110073" d="M6724.45-1046.546a1.111,1.111,0,0,0-.972-.591c-.593-.043-1.522.042-1.691.591a1.727,1.727,0,0,1-.761,1.17c-.421.225-.845.182-1.057.9s-.591,1.184-.506,1.692-.534.633-.012,1.27.561.887.983.887a2.465,2.465,0,0,0,1.411-.21,6.787,6.787,0,0,0,1.971-1.1,2.759,2.759,0,0,0,.884-1.057,4.626,4.626,0,0,0,0-1.522c-.123-.253-.46-.45-.376-.859S6724.716-1046.2,6724.45-1046.546Z" transform="translate(-6548.363 1096.455)" fill="#5ed15a"/>
                    <path id="Trazado_110074" data-name="Trazado 110074" d="M6627.944-1088.044a29.857,29.857,0,0,0-5.308,0,9.394,9.394,0,0,0-2.706,1.77c-.729.52-1.872.416-1.872,1.353s-.1,2.186.833,2.394,1.662,1.117,4.109.61,4.426-.847,5.466,0,1.978.951,2.914,2.406,2.914,2.185,3.331,3.746-1.666,2.807-.833,3.956,3.851.832,4.683,2.081,1.145,2.914,2.29,3.226,2.915-.313,3.227-1.457,0-2.914-1.249-3.435-2.291-1.871-1.871-2.185,4.478.936,5.1-.1-.416-3.2-1.352-3.629-2.606-1.68-4.164-2.512-2.5-4.892-4.163-4.892-1.871,1.977-2.81,1.561-2.186-2.807-2.915-3.642a3.436,3.436,0,0,0-2.71-1.248Z" transform="translate(-6528.859 1104.36)" fill="#5ed15a"/>
                    <path id="Trazado_110075" data-name="Trazado 110075" d="M6710.682-1069.118a9.943,9.943,0,0,0-5.31-.876c-1.5.376-2.754-.128-3.757.374s-2.129,1.5-1,2.13,2.129-.5,2.5.5-.125,1.252,1.251,1.754,1.253.25,3.381,0,3.381-.376,3.757-1.5a1.831,1.831,0,0,0-.824-2.379Z" transform="translate(-6544.68 1100.879)" fill="#5ed15a"/>
                  </g>
                </g>
              </g>
              <g id="Grupo_63617" data-name="Grupo 63617">
                <g id="Grupo_63616" data-name="Grupo 63616" clip-path="url(#clip-path)">
                  <path id="Trazado_110076" data-name="Trazado 110076" d="M6620.119-981.4c-.164-.678,3.007-1.164,4.023-1.212a4.588,4.588,0,0,1,2.762.606,9.341,9.341,0,0,0,1.6,1.671c.631.388.292.679,1.26.873s1.309-.146,1.211.484-1.21,1.018-1.7.97a4.822,4.822,0,0,1-2.036-.679,13.666,13.666,0,0,0-3.1-1.89C6623.514-980.678,6620.2-981.067,6620.119-981.4Z" transform="translate(-6549.76 1075.13)" fill="#5ed15a"/>
                  <path id="Trazado_110077" data-name="Trazado 110077" d="M6642.7-974.94c.029.341-1.114.484-1.745.581a15.876,15.876,0,0,0-3.1.63c-.291.242-1.4.873-1.842.727a2.435,2.435,0,0,1-1.114-.958,4.8,4.8,0,0,1,.388-1.852c.242-.388.582-.824,1.114-.776s1.163.283,1.552,0,.774-.521,1.163-.334S6642.6-976.056,6642.7-974.94Z" transform="translate(-6552.613 1074.044)" fill="#5ed15a"/>
                  <g id="Grupo_63615" data-name="Grupo 63615" transform="translate(-20.507 -8.887)">
                    <path id="Trazado_110078" data-name="Trazado 110078" d="M6567.706-1077.436a35.134,35.134,0,0,1,8.435,2.108c1.9.843,5.693-.633,9.276,0s4.851-.212,6.537,1.476,3.795,2.53,4.639,2.109,1.687-1.9,2.319-1.055.21,5.48-2.952,6.958-5.692,1.686-5.692,4.217,1.687,2.74,3.373,3.584,2.74,2.74,4.639,3.163,4.218-.633,5.48,2.53,3.8,4.006,3.374,2.109-1.055-3.163,1.475-5.06,1.476-3.374,0-5.271-1.475-3.8.211-4.639,6.536-1.476,7.169,0,2.108,4.427,4.218,4.85,2.167-3.5,3.585-2.977c1.518.555,1.009,3.995,1.518,5.142s4.461,1.528,5.354,3.313.638,4.284.891,5.646a5.671,5.671,0,0,1,0,3.275c-.382.893-.127,2.166,1.531,2.673s1.528,1.4,0,1.911-4.077.128-4.207-1.4a2.793,2.793,0,0,0-2.548-2.807c-1.4,0-6.245.128-6.75,1.02s-.383,1.656,1.274,1.656,2.038,1.573,1.529,1.742-1.274,1.189-.639,1.443,5.681-1.784,6.534-1.02-.289,2.673-2.071,3.44-4.842,3.823-5.989,3.059,2.933-3.186,1.4-3.059-6.117,2.028-6.372,3.18,2.038,2.807.892,3.7-4.332-.255-4.715,1.274.637,4.715-2.039,7.391-6.884,4.588-6.884,6.754,1.274,5.1,1.274,6.244-.51,3.313-1.274,3.44-1.019-.765-2.038-1.02-1.146-2.038-1.784-3.44.127-3.7-2.421-3.822-3.95-.128-4.333.637.765,1.911-1.019,1.911-2.8-.892-3.823.128-3.567,2.166-4.076,3.568-1.4,4.333-.128,7.008.255,2.166.639,3.058,3.186,2.294,4.332,2.673,3.186-1.274,2.807-2.807,2.038-2.421,2.93-2.421,1.53,1.4,1.4,2.167-1.91,4.077-2.038,5.48,1.4,1.784,3.822,2.55,2.294,1.018,2.294,3.058-.6,5.735,1.932,5.607,5.331,1.02,6.349.892,3.059-4.077,4.205-3.823.255,2.807,1.656,2.931,4.205-1.911,7.264-.638,6.116,1.53,7.009,2.807,1.656,3.7,3.057,4.333,5.226.128,6.884,1.4,2.039,5.734,5.1,7.008,6.883,2.166,9.3,3.058,7.137,1.784,6.754,5.352-1.02,5.48-2.673,7.391-1.656,2.673,0,7.136.382,6.371-.764,7.645a16.144,16.144,0,0,1-7.009,4.333c-2.8.637-3.951,1.53-4.716,2.549s-1.528,4.077-.765,5.734.892,2.673.127,3.568a7.942,7.942,0,0,1-4.332,2.421c-1.784.255-3.441,1.53-3.7,2.931s-.765,4.2-3.44,5.48-4.46,1.02-5.1,2.038-1.273,3.823-.382,5.1,1.146,3.058,0,3.95-2.295,1.657-2.295,2.807-.254,2.421-1.146,2.548-4.332,4.077-5.862,3.823-1.912-2.42-1.4-3.44a5.014,5.014,0,0,0,.637-3.7c-.382-1.529-.637-2.548-.892-3.823a9.155,9.155,0,0,1-.382-3.568,59.762,59.762,0,0,1,1.019-6.371,52.7,52.7,0,0,0,.383-9.3c-.127-3.059.383-3.186.51-5.989s.254-6.627.254-8.793.893-4.206-.891-5.352-7.392-1.4-11.087-5.862-6.243-4.587-5.733-9.557,2.166-5.606,3.059-7.518a21.846,21.846,0,0,0,1.911-7.391c0-2.039,1.146-3.058,1.019-4.077a15.439,15.439,0,0,0-2.673-5.48,8.253,8.253,0,0,0-4.715-2.294c-1.657-.255-3.44-2.55-5.1-4.97a4.835,4.835,0,0,0-4.843-2.421c-1.655,0-2.931-2.039-4.843-2.548a40.092,40.092,0,0,1-6.5-2.294c-2.167-1.019-3.187-1.784-4.715-4.588s-2.422-8.665-3.187-10.066-2.166-6.883-3.44-7.264-2.673-1.657-2.931-.509.127,4.2,1.147,5.352a14.479,14.479,0,0,1,2.165,3.695c.383.892.255,2.294-.637,1.4s-2.808-4.2-3.567-4.715a9.22,9.22,0,0,1-3.313-4.969c-.892-2.931-.892-5.989-1.53-6.883a17.55,17.55,0,0,0-2.548-3.7c-1.53-1.529-1.656-3.823-1.02-6.245s.3-7.519-.36-8.283a21.614,21.614,0,0,0-4.1-3.568c-.815-.493-.426-1.733,0-2.86a16,16,0,0,0,.534-7.328c-.562-2.817.226-6.2-1.69-6.65s-3.494-.563-4.621-1.465-3.157-2.367-5.186-2.139-7.439-.225-8.341.789-3.27,1.466-3.832,2.48a7.673,7.673,0,0,1-3.609,2.593c-1.579.676-4.4,1.917-5.3,1.014s-1.127-2.93-2.139-3.494-2.931-.113-3.609-1.579-2.028-1.014-2.7-1.69.789-1.8,2.254-3.269,7.1-3.494,5.861-4.847-2.367.225-3.382-.113-2.705-.563-2.139-1.577a5.877,5.877,0,0,1,3.833-2.03c1.014,0,4.17.225,6.086-.676s4.172-2.254,5.637-2.029,2.592,1.691,3.943.563,2.818-3.043,5.071-2.818,8.68,0,10.821.9,3.832,2.139,6.313,1.353S6564.964-1077.8,6567.706-1077.436Z" transform="translate(-6507.562 1102.872)" fill="#55c752"/>
                    <path id="Trazado_110079" data-name="Trazado 110079" d="M6764.566-1066.656c-5.219-6.14-12.434-7.982-14.736-7.829s-7.217,1.537-8.75,3.07-5.219,3.07-5.681,4.759-1.228,2.148-2.149,3.223-2.3,2-.767,3.223,3.991,1.382,4.3,2.763.459,2.457,2.455,2.61,1.841,2.455,3.837,1.381,3.685-2.3,2.916-3.837a42.739,42.739,0,0,1-1.688-5.372c-.462-1.381-1.538-1.689-.307-2.61s1.688-1.842,3.071-1.842,1.688-1.228,2.3.461-.614,2.763-.307,4.3-.154,3.223,1.382,3.223,2.763-.767,3.378-.153,1.841.921.767,1.842-2.457.921-2.917,1.689a8.238,8.238,0,0,0-.614,2.588,3.4,3.4,0,0,1-2.877,2.325c-2.339.307-6.793,2-7.714,1.537s0-2.606-1.075-3.07-2.762.461-2.456,1.075a1.718,1.718,0,0,1,0,2.072c-.613.839-4.6.842-5.14,1.3a10.59,10.59,0,0,0-2.072,2.606c-.461.921-1.689,2.916-2.3,2.916s.306,1.228.919,2.61,2.61,5.219.769,5.833-4.605-.307-6.294.768-1.841,5.372-.614,7.217,2.457,2.763,4.3,2.606,3.529,0,4.451-1.688a15.27,15.27,0,0,0,1.843-4.605c.459-2-1.075-3.53.614-3.684s2,1.229,3.07-.153,2-2.763,3.991-2.917-.154,2.764,1.227,3.378,3.377,1.075,4.144,2.149,2,3.07,1.229,4.143-2,3.408-1.076,3.394,2.149.291,2.764-1.551,1.688-3.684.921-4.759-.921-3.223-1.842-3.53-1.38-1.229-2-2.15-3.223-1.841-.921-1.537,5.834,1.537,6.14,2.763a32.841,32.841,0,0,0,.921,3.837c.614,1.842-.306,3.224,1.689,3.684s2.3.614,2.606,1.689-.307,2.606.307,1.075a4.723,4.723,0,0,0,.153-3.531c-.308-1.382-1.537-3.223,0-3.53s2-.614,2.61,0,.153,1.228.767,2.606.615,1.689,2.3,2.15,1.228,1.688,3.07,1.841,3.991-1.16,3.991,1.109-.614,2.729,0,4.264,0,2.916-1.537,2.455a14.586,14.586,0,0,0-5.373-.921c-2,.154-2.763-2.149-4.451-1.688s-3.837.947-3.992,2.7,1.074,2.826.154,2.826a15.124,15.124,0,0,1-5.68-2.606c-1.537-1.225-3.532-1.075-4.605-1.842s-3.07-2.3-2.763-2.916,2.457-1.689,1.382-2.61-3.223-.921-5.065-.307a21.138,21.138,0,0,0-4.759,2.61c-2,1.228-3.992,2.456-4.606,2s-.153-1.382-1.381-1.075a4.733,4.733,0,0,0-2.61,1.537c-.459.614-2.839,3.07-2.8,4.452a26.049,26.049,0,0,1-2.265,8.6c-1.535,3.53-3.223,4.912-3.991,6.6s-2.606,5.68-1.687,8.443,1.537,4.759,2.3,6.448,1.842,3.991,3.377,4.3,4.912,3.07,5.219,3.684,1.537,1.537,4.143,1.688,3.684.154,5.681-.767,5.509-2.61,7.284-2.3,4.077.152,5.764,3.146.461,4.682,1.995,6.524,2.457,3.377,1.689,4.451-2.764,2.3-1.229,3.224,3.376,1.381,4.144,2.763,2.762,5.372,2.454,6.907-1.687,4.912-1.074,7.369-.459,3.838.615,5.525a57.379,57.379,0,0,0,3.99,5.527c1.075,1.228,3.685,3.838,3.224,5.372a7.443,7.443,0,0,0,1.382,5.987c1.381,1.689,4,3.991,5.3,4.452s.993,1.688,2.068,1.688,2-1.688,3.837-2.456,4.759-1.537,5.833-3.991a11.344,11.344,0,0,0,1.228-5.219c0-1.537-2-3.378,0-4.912a13.506,13.506,0,0,0,3.838-4.452,18.6,18.6,0,0,0,1.381-6.754c0-2.457-.767-3.837.768-5.066s3.224-1.841,2.457-3.07-1.382-2-2.61-6.293-2.606-5.219-2.149-6.6,0-3.07.768-5.372.613-3.07,2.455-4.3,5.134-3.991,5.134-6.448.835-1.842,0-4.912-.527-3.377-1.91-4.6-1.537-1.843-2.606-.461-1.841,5.066-3.377,3.837-3.685-5.066-4.759-6.293.307-1.537-1.842-3.223a13.874,13.874,0,0,1-4.3-4.605c-1.692-2.61-2.456-3.684-2.456-5.219s-1.537-3.224-.614-4.452,2.456,0,3.224,1.689,3.991,4.451,4.6,6.293,3.531,6.907,4.452,7.675.768,3.531,2.3,3.07,2.455-4.143,3.685-4.759,3.99,1.229,5.372-1.075,3.224-4.451,2.3-6.14-.46-3.991-1.381-4.912-3.991,1.228-5.986.154-5.833-3.838-5.681-6.14,5.526-10.592,4.144-13.967-10.745-21.951-14.429-23.178-7.675-4.452-7.217-8.287S6764.566-1066.656,6764.566-1066.656Z" transform="translate(-6547.196 1101.727)" fill="#5ed15a"/>
                    <path id="Trazado_110080" data-name="Trazado 110080" d="M6693.292-1102.328c-3.174-3.475-12.393-6.045-17.229-5.894s-11.637.755-14.206,1.057-6.209,1.059-7.485.908-5.055.151-6.718,1.964-5.138,2.418-4.685,4.685,1.964,2.418,4.076,2.874,4.535-1.057,5.14,0,0,3.627.6,4.383,3.022,1.663,3.779,2.874,2.873,1.058,3.475,3.023.755,9.672,1.511,11.032.151,2.874.906,3.929,5.592,4.232,6.95,4.232,0-3.779,1.511-5.743,5.895-3.174,9.067-4.081,4.988-2.368,7.558-3.9,6.2-2.45,5.742-4.788-1.209-2.339-.755-3.4,1.208-.756,2.116-2.874,2.116-2.874.906-5.743A33.4,33.4,0,0,0,6693.292-1102.328Z" transform="translate(-6533.653 1108.229)" fill="#5ed15a"/>
                    <path id="Trazado_110081" data-name="Trazado 110081" d="M6728.438-1053.12c-.46-.213-2.343,0-2.418.454a1.653,1.653,0,0,0,.528,1.209c.228.227.821,1.209.676,1.587s-.382,2.192,0,2.645,1.137,1.136,1.214,1.814a12.185,12.185,0,0,1-.3,2.8c-.152.755-.53,1.587-.076,2.192a1.079,1.079,0,0,0,1.361.453c.454-.151.323.076.7-.68s1.187-1.512,1.489-2.116.6-.982.529-1.587.075-.907-.529-1.511a2.4,2.4,0,0,1-.831-1.36c-.227-.68.376-.907-.3-1.512s-.378-.906-1.058-.831-.832.831-.907-.3,1.6-1.41,1.173-2.106A2.894,2.894,0,0,0,6728.438-1053.12Z" transform="translate(-6549.671 1097.623)" fill="#5ed15a"/>
                    <path id="Trazado_110082" data-name="Trazado 110082" d="M6724.45-1046.546a1.111,1.111,0,0,0-.972-.591c-.593-.043-1.522.042-1.691.591a1.727,1.727,0,0,1-.761,1.17c-.421.225-.845.182-1.057.9s-.591,1.184-.506,1.692-.534.633-.012,1.27.561.887.983.887a2.465,2.465,0,0,0,1.411-.21,6.787,6.787,0,0,0,1.971-1.1,2.759,2.759,0,0,0,.884-1.057,4.626,4.626,0,0,0,0-1.522c-.123-.253-.46-.45-.376-.859S6724.716-1046.2,6724.45-1046.546Z" transform="translate(-6548.363 1096.455)" fill="#5ed15a"/>
                    <path id="Trazado_110083" data-name="Trazado 110083" d="M6627.944-1088.044a29.857,29.857,0,0,0-5.308,0,9.394,9.394,0,0,0-2.706,1.77c-.729.52-1.872.416-1.872,1.353s-.1,2.186.833,2.394,1.662,1.117,4.109.61,4.426-.847,5.466,0,1.978.951,2.914,2.406,2.914,2.185,3.331,3.746-1.666,2.807-.833,3.956,3.851.832,4.683,2.081,1.145,2.914,2.29,3.226,2.915-.313,3.227-1.457,0-2.914-1.249-3.435-2.291-1.871-1.871-2.185,4.478.936,5.1-.1-.416-3.2-1.352-3.629-2.606-1.68-4.164-2.512-2.5-4.892-4.163-4.892-1.871,1.977-2.81,1.561-2.186-2.807-2.915-3.642a3.436,3.436,0,0,0-2.71-1.248Z" transform="translate(-6528.859 1104.36)" fill="#5ed15a"/>
                    <path id="Trazado_110084" data-name="Trazado 110084" d="M6710.682-1069.118a9.943,9.943,0,0,0-5.31-.876c-1.5.376-2.754-.128-3.757.374s-2.129,1.5-1,2.13,2.129-.5,2.5.5-.125,1.252,1.251,1.754,1.253.25,3.381,0,3.381-.376,3.757-1.5a1.831,1.831,0,0,0-.824-2.379Z" transform="translate(-6544.68 1100.879)" fill="#5ed15a"/>
                  </g>
                </g>
              </g>
              <g id="Grupo_63620" data-name="Grupo 63620">
                <g id="Grupo_63619" data-name="Grupo 63619" clip-path="url(#clip-path)">
                  <g id="Grupo_63618" data-name="Grupo 63618" transform="translate(-12.862 -6.925)" opacity="0.2" style="mix-blend-mode: multiply;isolation: isolate">
                    <path id="Trazado_110085" data-name="Trazado 110085" d="M6621.825-903.927c-.334,2.306.66,3.051,1.125,5.052a13.714,13.714,0,0,1-.5,6.006,73.684,73.684,0,0,1-2.405,7.431,2.78,2.78,0,0,1-1.706.642c-1.528-.251-1.908-2.422-1.4-3.437a5.029,5.029,0,0,0,.636-3.7c-.379-1.529-.636-2.544-.894-3.823a9.235,9.235,0,0,1-.379-3.565,59.77,59.77,0,0,1,1.021-6.372,52.987,52.987,0,0,0,.379-9.3c-.128-3.058.386-3.186.514-5.987s.251-6.629.251-8.794.893-4.2-.893-5.351-7.388-1.4-11.082-5.859-6.243-4.593-5.737-9.557,2.165-5.608,3.059-7.516a21.839,21.839,0,0,0,1.914-7.393c0-2.036,1.144-3.058,1.015-4.077a15.6,15.6,0,0,0-2.673-5.48,8.287,8.287,0,0,0-4.716-2.294c-1.656-.251-3.442-2.543-5.1-4.966a4.83,4.83,0,0,0-4.837-2.422c-1.651,0-2.937-2.042-4.845-2.55a39.551,39.551,0,0,1-6.5-2.294c-2.163-1.021-3.187-1.786-4.716-4.587s-2.422-8.666-3.186-10.066-2.165-6.883-3.437-7.266-2.679-1.657-2.93-.508.123,4.2,1.144,5.351a14.4,14.4,0,0,1,2.165,3.694c.385.893.257,2.294-.637,1.4s-2.8-4.2-3.564-4.709a9.258,9.258,0,0,1-3.314-4.973c-.894-2.93-.894-5.987-1.529-6.883a17.446,17.446,0,0,0-2.551-3.694c-1.529-1.528-1.656-3.828-1.016-6.244s.294-7.522-.366-8.287a21.507,21.507,0,0,0-4.1-3.565c-.814-.5-.423-1.738,0-2.862a15.956,15.956,0,0,0,.535-7.326c-.562-2.82.228-6.2-1.687-6.648s-3.5-.563-4.623-1.47-3.157-2.367-5.186-2.138-7.438-.227-8.342.789-3.267,1.47-3.829,2.477a7.7,7.7,0,0,1-3.608,2.593c-1.578.672-4.4,1.921-5.3,1.015a5.587,5.587,0,0,1-.966-1.707,4.762,4.762,0,0,0,3.62-.525c2.08-1.095,3.327-3.217,5.347-4.4a23.227,23.227,0,0,1,5.56-2.171c3.289-.831,8-.544,11.345-.043,3.871.575,7.6.062,10.177,3.547,2.35,3.18,3.173,8.164,4.22,12.012,1.59,5.847,2.507,11.467,1.865,17.528,2.406-.514,2.465,6.256,2.643,8.036.141,1.432-.312,3.051-.007,4.452.2.912,1.266,3.553,2.037,1.37,3.9-.226,7.381-1.228,9.824,2.569,1.614,2.526,1.768,5.835,2.256,8.709.8,4.635,2.984,10.893,7.218,13.424,2.555,1.529,5.778,2.392,8.464,3.724,2.606,1.29,4.642,3.664,6.722,5.773a10.126,10.126,0,0,0,2.635,1.914c.208,1,.716,1.725,1.858,1.671a11.065,11.065,0,0,1,2.375.171c.208.1.421.2.635.311,1.664.85,3.3,1.609,4.018,3.26.9,2.072.692,5.68.888,7.963.251,2.94.477,4.5,2.165,6.782,1.73,2.339,1.247,3.731.985,6.6-.374,4.092-.515,10.593,3.729,12.458,3.731,1.645,8.755-.08,10.007,4.831,1.106,4.318-.025,10.073-.661,14.341C6626.081-914.963,6622.65-909.689,6621.825-903.927Z" transform="translate(-6517.028 1097.503)" fill="#59a555"/>
                    <path id="Trazado_110086" data-name="Trazado 110086" d="M6786.366-951.512c-.458,1.382.923,2.306,2.146,6.6s1.848,5.064,2.611,6.293-.923,1.841-2.459,3.07-.766,2.606-.766,5.064a18.575,18.575,0,0,1-1.382,6.75,13.41,13.41,0,0,1-3.834,4.452c-2,1.537,0,3.376,0,4.911a11.324,11.324,0,0,1-1.229,5.223c-1.075,2.453-3.993,3.223-5.834,3.988s-2.765,2.458-3.834,2.458-.771-1.23-2.067-1.688-3.92-2.764-5.3-4.452a7.453,7.453,0,0,1-1.381-5.987c.458-1.537-2.146-4.147-3.225-5.37a57.8,57.8,0,0,1-3.992-5.529c-1.07-1.688,0-3.07-.613-5.529s.765-5.828,1.077-7.363-1.694-5.529-2.459-6.911-2.611-1.841-4.144-2.765.464-2.147,1.229-3.222-.152-2.606-1.688-4.453-.306-3.529-1.993-6.519-3.994-2.844-5.767-3.15-5.284,1.383-7.284,2.306-3.07.917-5.676.765-3.841-1.069-4.146-1.688-3.683-3.376-5.217-3.682-2.612-2.612-3.383-4.3-1.382-3.682-2.3-6.446.918-6.758,1.688-8.446,2.459-3.07,3.994-6.6a26.148,26.148,0,0,0,2.264-8.592c-.035-1.375,2.339-3.841,2.8-4.453a4.7,4.7,0,0,1,2.611-1.537c1.224-.312.766.611,1.377,1.069s2.611-.765,4.605-1.994a21.234,21.234,0,0,1,4.759-2.612,6.554,6.554,0,0,1,4.465-.061c-.9,2.043-2.839,4.4-5.578,4.214-.58,1.1-1.3,3.241-2.135,4.1-1.29,1.309-3.266,1.192-4.623,2.691-3.364,3.724-2.435,6.813-3.039,11.271-.569,4.2-3.26,9.584-1.1,13.883,1.841,3.651,8.336,1.633,11.725,2.648,4.868,1.449,9.706,2.586,14.034,5.29,4.96,3.1,7.437,6.9,9.557,12.4,1.088,2.819,2.782,5.028,2.642,8.134-.122,2.617-1.682,3.809-1.3,6.44.888,6.055,5.248,9.051,6.115,14.7.5,3.241-.862,14.636,1.958,16,5.118,2.473,7.32-4.067,6.99-7.32-.221-2.205-.527-4.422.66-6.44s3.657-2.771,4.624-4.945c4.507-10.183-3.964-21.943,3.509-31.435,1.842-2.339,3.208-3.809,5.915-4.9a15.057,15.057,0,0,0,2.514-1.27c-.782,2.11-3.357,4.227-4.9,5.26-1.842,1.23-1.688,1.993-2.459,4.3S6786.825-952.9,6786.366-951.512Z" transform="translate(-6554.844 1087.771)" fill="#59a555"/>
                    <path id="Trazado_110087" data-name="Trazado 110087" d="M6694.654-1091.588c-.91,2.116-1.663,1.816-2.116,2.874s.3,1.059.753,3.394-3.175,3.254-5.742,4.788-4.38,3-7.552,3.908-7.56,2.116-9.07,4.077-.152,5.743-1.51,5.743-6.2-3.174-6.95-4.232-.154-2.569-.906-3.932-.9-9.064-1.51-11.027-2.722-1.816-3.48-3.027-3.167-2.116-3.773-2.869,0-3.327-.605-4.385-3.021.452-5.137,0-3.627-.605-4.085-2.868,3.026-2.874,4.69-4.685c1.217-1.337,3.578-1.847,5.254-1.97a4.434,4.434,0,0,1,2.428,3.3c.287,2.232-.391,2.9,1.356,4.344,1.42,1.169,3.181.765,4.6,1.609,2.055,1.23,4.151,4.6,4.886,6.8.918,2.758-.018,5.07,0,7.859.05,6.416,3.469,5.125,8.42,4.349a17.346,17.346,0,0,0,11.161-7.6c1.437-2.214,1.6-4.19,3.461-6.257a47.311,47.311,0,0,1,6.416-5.743C6696.716-1094.419,6695.542-1093.655,6694.654-1091.588Z" transform="translate(-6541.298 1105.799)" fill="#59a555"/>
                    <path id="Trazado_110088" data-name="Trazado 110088" d="M6779.675-1015.387a48.509,48.509,0,0,1-3.419,4.648,2.075,2.075,0,0,0-.093-.257c-.611-1.537,0-2,0-4.268s-2.146-.954-3.987-1.107-1.381-1.383-3.07-1.841-1.694-.77-2.305-2.146-.153-2-.765-2.612-1.076-.306-2.612,0-.306,2.147,0,3.529a4.732,4.732,0,0,1-.153,3.529c-.612,1.535,0,0-.306-1.069s-.617-1.23-2.611-1.688-1.077-1.847-1.688-3.687a32.014,32.014,0,0,1-.923-3.835c-.305-1.229-3.834-2.458-6.14-2.764s.306.612.923,1.537,1.077,1.84,1.994,2.146,1.076,2.458,1.841,3.535-.306,2.917-.919,4.758-1.839,1.537-2.763,1.548.306-2.318,1.076-3.388-.468-3.071-1.23-4.147-2.764-1.537-4.144-2.153c-.973-.428-.2-2-.349-2.844.593-1.449.233-2.465,1.622-3.834,2.459-2.434,5.15-1.81,7.864-.141,1.48.905,2.072,1.584,3.511,1.762,1.51.177,2.991-.446,4.544-.062,3.939.972,4.745,3.284,6.018,6.728,1.78.214,2.8,1.48,4.563,1.688,1.615.2,3.236-1.486,4.875.043C6782.94-1020,6780.868-1017.136,6779.675-1015.387Z" transform="translate(-6561.528 1091.844)" fill="#59a555"/>
                    <path id="Trazado_110089" data-name="Trazado 110089" d="M6752.368-1046.764c-1.523,4.11-8.8,4.281-12.392,4.629-1.523.153-5.291.3-6.257,1.89-.947,1.554,1.211,5.058.893,7.119-.319,2.042-.875,4.256-2.69,5.413-1.37.874-5.948.477-6.324,2.116-.293,1.308,3.071,3.871,4.076,4.337a4.42,4.42,0,0,0,4.148-.325c-.25.551-.551,1.107-.917,1.78-.918,1.688-2.606,1.537-4.452,1.688s-3.071-.771-4.292-2.612-1.077-6.141.61-7.218,4.453-.154,6.294-.765-.153-4.453-.765-5.835-1.537-2.612-.924-2.612,1.842-1.994,2.3-2.911a10.562,10.562,0,0,1,2.079-2.612c.534-.458,4.525-.458,5.137-1.3a1.726,1.726,0,0,0,0-2.072c-.305-.617,1.381-1.537,2.458-1.076s.154,2.611,1.069,3.07,5.375-1.229,7.718-1.537a3.418,3.418,0,0,0,2.231-1.166Z" transform="translate(-6556.801 1094.514)" fill="#59a555"/>
                    <path id="Trazado_110090" data-name="Trazado 110090" d="M6747.517-1051.643c-1.993,1.077-1.84-1.23-3.834-1.382s-2.153-1.223-2.459-2.606-2.765-1.537-4.3-2.765-.152-2.146.771-3.222,1.688-1.537,2.146-3.223a2.078,2.078,0,0,1,.086-.239c2.887.545,1.848,5.132,3.682,7.26,2.521,2.93,4.679,1.266,5.646-1.23a19.485,19.485,0,0,0,1.181,3.572C6751.2-1053.942,6749.511-1052.714,6747.517-1051.643Z" transform="translate(-6559.282 1097.95)" fill="#59a555"/>
                    <path id="Trazado_110091" data-name="Trazado 110091" d="M6644.075-1067.474c-.312,1.144-2.087,1.768-3.229,1.456s-1.456-1.975-2.287-3.223-3.853-.942-4.685-2.085,1.248-2.392.832-3.952-2.391-2.293-3.327-3.749-1.878-1.559-2.918-2.41-3.014-.508-5.467,0-3.168-.4-4.109-.611-.833-1.456-.833-2.392c0-.843.93-.843,1.652-1.216,2.134.924,6.586.7,7.259.862,2.017.483,5.112,3.412,6.7,4.629,2.8,2.138,3.114,4.733,4.752,7.523,1.768,3,3.046,3.156,5.156,2.294A3.439,3.439,0,0,1,6644.075-1067.474Z" transform="translate(-6536.502 1101.915)" fill="#59a555"/>
                  </g>
                </g>
              </g>
            </g>
          </g>
          <path id="Trazado_110092" data-name="Trazado 110092" d="M6589.639-907.113a100.928,100.928,0,0,0,55.648,16.623,101.4,101.4,0,0,0,101.394-101.4,101.29,101.29,0,0,0-45.991-84.929C6779.712-992.223,6725.59-868.21,6589.639-907.113Z" transform="translate(-6543.887 1093.286)" fill="#4287a5" opacity="0.2" style="mix-blend-mode: multiply;isolation: isolate"/>
        </g>
        <g id="Grupo_63624" data-name="Grupo 63624" transform="translate(534.72 167.139)">
          <path id="Trazado_110093" data-name="Trazado 110093" d="M6728.217-1050.916c.361,1.713-2.238,3.6-3.988,3.113s-6.81-1.2-8.854.079a28.289,28.289,0,0,1-12.163,3.326c-2.627.973-11.09,2.432-12.744-1.849s.39-6.712,4.184-7.88,6.616,1.264,7.977,0,4.478-4.572,9.145-4.087,6.323,3.016,8.27,3.7C6722.576-1053.932,6727.438-1054.612,6728.217-1050.916Z" transform="translate(-6689.889 1058.261)" fill="#fff"/>
          <path id="Trazado_110094" data-name="Trazado 110094" d="M6728.423-1046.137c-1.752-.485-6.812-1.2-8.853.079a26.9,26.9,0,0,1-7.928,2.829c1.017-.624,1.966-1.348,2.955-2.012a13.9,13.9,0,0,1,7.5-2.61,16.2,16.2,0,0,1,4.768.823c1.056.325,2.331.651,3.268-.152.552-.471.69-1.2,1.148-1.733a3.466,3.466,0,0,1,1.031-.7,2.958,2.958,0,0,1,.1.365C6732.773-1047.531,6730.176-1045.646,6728.423-1046.137Z" transform="translate(-6694.083 1056.594)" fill="#7d8dff" opacity="0.2"/>
        </g>
        <g id="Grupo_63718" data-name="Grupo 63718" transform="translate(52.52 147.179)">
          <path id="Trazado_110093-2" data-name="Trazado 110093" d="M6775.574-1041.841c.807,3.829-5,8.047-8.916,6.959s-15.224-2.69-19.792.177-16.526,7.217-27.185,7.435c-5.871,2.175-24.793,5.437-28.489-4.132s.869-15.006,9.352-17.615,14.789,2.826,17.833,0,10.006-10.221,20.443-9.135,14.136,6.742,18.486,8.266C6762.959-1048.582,6773.831-1050.106,6775.574-1041.841Z" transform="translate(-6689.899 1058.26)" fill="#fff"/>
          <path id="Trazado_110094-2" data-name="Trazado 110094" d="M6749.156-1041.847c-3.918-1.085-15.23-2.687-19.789.177-3.236,2.034-10.168,4.8-17.725,6.325,2.272-1.4,4.4-3.014,6.6-4.5,4.871-3.281,10.839-5.834,16.761-5.834a36.219,36.219,0,0,1,10.66,1.841c2.361.727,5.213,1.455,7.305-.341,1.233-1.054,1.542-2.687,2.566-3.876a7.725,7.725,0,0,1,2.3-1.559,7.053,7.053,0,0,1,.223.817C6758.881-1044.965,6753.076-1040.749,6749.156-1041.847Z" transform="translate(-6672.399 1065.221)" fill="#7d8dff" opacity="0.2"/>
        </g>
        <g id="Grupo_63627" data-name="Grupo 63627" transform="translate(563.513 265.174)">
          <g id="Grupo_63625" data-name="Grupo 63625" transform="translate(0 0)">
            <path id="Trazado_110095" data-name="Trazado 110095" d="M6739-928.764c-1.367.027-3.9-1.021-7.792.524s-7.11,5.938-4.957,9.077,8.9,2.205,13.11-.712c2.323,1.224,5.152,3.007,10.44,2.713s9.253-5.364,10.457-5.231,5.8,3.648,14.021-.38,5.574-8.11,4.092-9.669a16.788,16.788,0,0,0-8.833-4.077c-3.086-.2-7.017,4.161-9.162,3.587s-4.611-5.261-12.288-3.484S6740.809-928.8,6739-928.764Z" transform="translate(-6725.559 936.817)" fill="#fff"/>
          </g>
          <g id="Grupo_63626" data-name="Grupo 63626" transform="translate(1.363 12.561)" opacity="0.2">
            <path id="Trazado_110096" data-name="Trazado 110096" d="M6745.956-913.752a20.141,20.141,0,0,1-6.27-2.477c-3.838,2.656-9.789,3.672-12.438,1.448,2.709-.418,5.339-2.165,7.988-2.749a10.741,10.741,0,0,1,4.637-.186c1.155.352,1.719,1.215,2.643,1.846.457.319,1.083.4,1.547.71C6744.721-914.715,6745.312-914.183,6745.956-913.752Z" transform="translate(-6727.249 920.611)" fill="#7d8dff"/>
            <path id="Trazado_110097" data-name="Trazado 110097" d="M6773.811-917.865c-4.057.233-6.455-1.434-7.278-1.527-1.049-.12-4.163,3.666-8.414,4.874,2.3-1.355,4.29-3.785,6.1-5.413a4.973,4.973,0,0,1,3.261-1.323,4.478,4.478,0,0,1,3,1.016C6771.642-919.482,6772.737-918.721,6773.811-917.865Z" transform="translate(-6733.197 921.258)" fill="#7d8dff"/>
          </g>
        </g>
        <g id="Grupo_63629" data-name="Grupo 63629" transform="translate(411.101 142.968)">
          <g id="Grupo_63628" data-name="Grupo 63628" transform="translate(0.001)">
            <path id="Trazado_110098" data-name="Trazado 110098" d="M6567.892-1082.878c-1.783.374-2.272-1.308-5.35-2.531s-8.454-2.964-12.018.5-2.862,3.36-4.334,3.328-8.434.789-9.171,3.046-.018,3.974,3.236,4.2,4.678-.768,6.215.184,3.3,3.876,9.545,4.52,8.522-2.592,9.781-1.348,6.977,3.614,12.5,3.221c3,.413,10.328,1.362,13.8-2.231,1.094-1.057,2.566-2.958.1-5.1s-5.459-2.551-5.9-3.309-2.406-8.944-8.854-9.738S6569.662-1083.249,6567.892-1082.878Z" transform="translate(-6536.754 1088.204)" fill="#fff"/>
          </g>
          <path id="Trazado_110099" data-name="Trazado 110099" d="M6592.1-1067.8c-3.475,3.593-10.8,2.644-13.8,2.232-5.518.392-11.243-1.979-12.5-3.221s-3.534,1.992-9.782,1.348-8.009-3.567-9.543-4.523-2.961.053-6.215-.179-3.971-1.938-3.247-4.184c.325-.079.65-.152.962-.239,4.138-1.1,7.563,1.029,10.433,3.9,1.368,1.369,2.657,2.955,4.729,3.188a38.759,38.759,0,0,0,5.747-.192,28.813,28.813,0,0,1,7.017.206,4.383,4.383,0,0,0,1.992-.093,17.306,17.306,0,0,1,4.429-.405c3.2.179,5.738,2.272,8.78,3.041a14.3,14.3,0,0,0,7.313-.187,5.443,5.443,0,0,0,3.632-5.91,1.279,1.279,0,0,1,.153.12C6594.659-1070.755,6593.192-1068.856,6592.1-1067.8Z" transform="translate(-6536.754 1086.018)" fill="#7d8dff" opacity="0.2"/>
        </g>
        <g id="Grupo_63716" data-name="Grupo 63716" transform="translate(0)">
          <g id="Grupo_63628-2" data-name="Grupo 63628" transform="translate(0.001)">
            <path id="Trazado_110098-2" data-name="Trazado 110098" d="M6567.892-1082.878c-1.783.374-2.272-1.308-5.35-2.531s-8.454-2.964-12.018.5-2.862,3.36-4.334,3.328-8.434.789-9.171,3.046-.018,3.974,3.236,4.2,4.678-.768,6.215.184,3.3,3.876,9.545,4.52,8.522-2.592,9.781-1.348,6.977,3.614,12.5,3.221c3,.413,10.328,1.362,13.8-2.231,1.094-1.057,2.566-2.958.1-5.1s-5.459-2.551-5.9-3.309-2.406-8.944-8.854-9.738S6569.662-1083.249,6567.892-1082.878Z" transform="translate(-6536.754 1088.204)" fill="#fff"/>
          </g>
          <path id="Trazado_110099-2" data-name="Trazado 110099" d="M6592.1-1067.8c-3.475,3.593-10.8,2.644-13.8,2.232-5.518.392-11.243-1.979-12.5-3.221s-3.534,1.992-9.782,1.348-8.009-3.567-9.543-4.523-2.961.053-6.215-.179-3.971-1.938-3.247-4.184c.325-.079.65-.152.962-.239,4.138-1.1,7.563,1.029,10.433,3.9,1.368,1.369,2.657,2.955,4.729,3.188a38.759,38.759,0,0,0,5.747-.192,28.813,28.813,0,0,1,7.017.206,4.383,4.383,0,0,0,1.992-.093,17.306,17.306,0,0,1,4.429-.405c3.2.179,5.738,2.272,8.78,3.041a14.3,14.3,0,0,0,7.313-.187,5.443,5.443,0,0,0,3.632-5.91,1.279,1.279,0,0,1,.153.12C6594.659-1070.755,6593.192-1068.856,6592.1-1067.8Z" transform="translate(-6536.754 1086.018)" fill="#7d8dff" opacity="0.2"/>
        </g>
        <g id="Grupo_63717" data-name="Grupo 63717" transform="translate(272.752 216.21)">
          <g id="Grupo_63628-3" data-name="Grupo 63628" transform="translate(0.001)">
            <path id="Trazado_110098-3" data-name="Trazado 110098" d="M6567.892-1082.878c-1.783.374-2.272-1.308-5.35-2.531s-8.454-2.964-12.018.5-2.862,3.36-4.334,3.328-8.434.789-9.171,3.046-.018,3.974,3.236,4.2,4.678-.768,6.215.184,3.3,3.876,9.545,4.52,8.522-2.592,9.781-1.348,6.977,3.614,12.5,3.221c3,.413,10.328,1.362,13.8-2.231,1.094-1.057,2.566-2.958.1-5.1s-5.459-2.551-5.9-3.309-2.406-8.944-8.854-9.738S6569.662-1083.249,6567.892-1082.878Z" transform="translate(-6536.754 1088.204)" fill="#fff"/>
          </g>
          <path id="Trazado_110099-3" data-name="Trazado 110099" d="M6592.1-1067.8c-3.475,3.593-10.8,2.644-13.8,2.232-5.518.392-11.243-1.979-12.5-3.221s-3.534,1.992-9.782,1.348-8.009-3.567-9.543-4.523-2.961.053-6.215-.179-3.971-1.938-3.247-4.184c.325-.079.65-.152.962-.239,4.138-1.1,7.563,1.029,10.433,3.9,1.368,1.369,2.657,2.955,4.729,3.188a38.759,38.759,0,0,0,5.747-.192,28.813,28.813,0,0,1,7.017.206,4.383,4.383,0,0,0,1.992-.093,17.306,17.306,0,0,1,4.429-.405c3.2.179,5.738,2.272,8.78,3.041a14.3,14.3,0,0,0,7.313-.187,5.443,5.443,0,0,0,3.632-5.91,1.279,1.279,0,0,1,.153.12C6594.659-1070.755,6593.192-1068.856,6592.1-1067.8Z" transform="translate(-6536.754 1086.018)" fill="#7d8dff" opacity="0.2"/>
        </g>
        <g id="Grupo_63631" data-name="Grupo 63631" transform="translate(397.491 246.087)">
          <g id="Grupo_63630" data-name="Grupo 63630" transform="translate(0 0)">
            <path id="Trazado_110100" data-name="Trazado 110100" d="M6519.939-950.355c-.5,2.358,3.079,4.953,5.487,4.283s9.371-1.657,12.183.109a38.9,38.9,0,0,0,16.732,4.576c3.615,1.337,15.26,3.347,17.536-2.543s-.535-9.236-5.756-10.843-9.1,1.738-10.977,0-6.158-6.292-12.584-5.622-8.7,4.149-11.378,5.086C6527.7-954.505,6521.01-955.442,6519.939-950.355Z" transform="translate(-6519.893 960.462)" fill="#fff"/>
          </g>
          <path id="Trazado_110101" data-name="Trazado 110101" d="M6575.62-943.284a12.162,12.162,0,0,1-.7,2.517c-2.278,5.89-13.919,3.876-17.538,2.544-6.554-.134-13.92-2.807-16.729-4.576a10.02,10.02,0,0,0-4.967-1c.817-.106,1.62-.186,2.391-.239a15.9,15.9,0,0,1,5.818.949c1.614.478,3.342.358,4.945.924a14.071,14.071,0,0,0,4.33.863c3.328.146,6.043,1.342,9.138,2.406,2.451.85,5.758,1.441,7.81-.511a26.451,26.451,0,0,1,2.689-2.842A6.8,6.8,0,0,1,6575.62-943.284Z" transform="translate(-6522.938 957.3)" fill="#fff"/>
          <path id="Trazado_110102" data-name="Trazado 110102" d="M6575.62-943.284a12.162,12.162,0,0,1-.7,2.517c-2.278,5.89-13.919,3.876-17.538,2.544-6.554-.134-13.92-2.807-16.729-4.576a10.02,10.02,0,0,0-4.967-1c.817-.106,1.62-.186,2.391-.239a15.9,15.9,0,0,1,5.818.949c1.614.478,3.342.358,4.945.924a14.071,14.071,0,0,0,4.33.863c3.328.146,6.043,1.342,9.138,2.406,2.451.85,5.758,1.441,7.81-.511a26.451,26.451,0,0,1,2.689-2.842A6.8,6.8,0,0,1,6575.62-943.284Z" transform="translate(-6522.938 957.3)" fill="#7d8dff" opacity="0.2"/>
        </g>
      </g>
      <g id="Grupo_63642" data-name="Grupo 63642" transform="translate(212.173 96.476)">
        <g id="Grupo_63641" data-name="Grupo 63641" transform="translate(0 0)">
          <g id="Grupo_63640" data-name="Grupo 63640">
            <g id="Grupo_63635" data-name="Grupo 63635" transform="translate(4.833 87.799)">
              <g id="Grupo_63633" data-name="Grupo 63633" transform="translate(0)">
                <path id="Trazado_110103" data-name="Trazado 110103" d="M6404.742-969.869s1.781,1.075.3,2.139-5.652,1.375-3.965,2.964,8.129,2.93,10.205,1.224c.6-.64-1.263-1.581-2.72-2.669s-.261-2.527.819-2.8C6409.744-969.1,6404.742-969.869,6404.742-969.869Z" transform="translate(-6400.685 969.869)" fill="#3ecea8"/>
              </g>
              <g id="Grupo_63634" data-name="Grupo 63634" transform="translate(3.864)">
                <path id="Trazado_110104" data-name="Trazado 110104" d="M6411.851-966.209c-1.459-1.089-.262-2.527.819-2.8.36-.092-4.642-.857-4.642-.857s1.183.713.82,1.554c.234,1.752,4.83,2.647,2.252,4.611a5.459,5.459,0,0,1-3.265.489c2.473.622,5.447.735,6.737-.323C6415.171-964.179,6413.309-965.12,6411.851-966.209Z" transform="translate(-6407.836 969.869)" fill="#24b58c"/>
              </g>
            </g>
            <g id="Grupo_63636" data-name="Grupo 63636">
              <path id="Trazado_110105" data-name="Trazado 110105" d="M6440.1-1096.77c-3.923,16.306-24.621,57.026-37.333,53.968s-12.624-48.736-8.7-65.042,17.408-27.046,30.119-23.986S6444.025-1113.077,6440.1-1096.77Z" transform="translate(-6391.741 1132.352)" fill="#3ecea8"/>
            </g>
            <g id="Grupo_63638" data-name="Grupo 63638" transform="translate(5.913 2.127)">
              <g id="Grupo_63637" data-name="Grupo 63637" transform="translate(0)">
                <path id="Trazado_110106" data-name="Trazado 110106" d="M6433.493-1128.415c6.014,5.978,8.436,17.883,5.419,30.419-3.923,16.306-22.763,57.473-33.182,54.967a5.364,5.364,0,0,1-3.044-2.346c1.407,2.339,3.1,3.9,5.113,4.382,12.711,3.059,33.409-37.662,37.333-53.968C6448.592-1109.332,6443.461-1123.227,6433.493-1128.415Z" transform="translate(-6402.687 1128.415)" fill="#24b58c"/>
              </g>
            </g>
            <g id="Grupo_63639" data-name="Grupo 63639" transform="translate(4.056 4.778)">
              <path id="Trazado_110107" data-name="Trazado 110107" d="M6399.249-1086.733s.244-12.71,4.648-22.473,13.321-14.435,18.808-14.3,5.414,8.551-3.307,9.7S6402.026-1098.727,6399.249-1086.733Z" transform="translate(-6399.249 1123.51)" fill="#5de2bc"/>
            </g>
          </g>
        </g>
      </g>
      <g id="Grupo_63653" data-name="Grupo 63653" transform="translate(82.406 18.314)">
        <g id="Grupo_63643" data-name="Grupo 63643" transform="translate(19.186 97.82)">
          <path id="Trazado_110108" data-name="Trazado 110108" d="M6252.563-971.549c.516-7.477-3.817-12.5-8.014-17.357-4.448-5.156-8.646-10.024-5.1-16.733a59.027,59.027,0,0,1,6.482-9.206c6.028-7.5,10.792-13.424,1.6-21.621a94.059,94.059,0,0,0-10.179-7.674c-5.279-3.593-9.1-6.188-9.508-10.111-.308-2.952,1.388-6.179,5.5-10.459,12.544-13.066,11.8-30.986,11.793-31.164l1.98-.1c.039.768.788,18.962-12.342,32.635-3.622,3.77-5.2,6.591-4.958,8.879.317,3.007,3.81,5.388,8.652,8.678a95.7,95.7,0,0,1,10.386,7.836c10.6,9.449,4.779,16.681-1.378,24.341a57.625,57.625,0,0,0-6.27,8.888c-2.912,5.512.515,9.484,4.853,14.509,4.248,4.922,9.062,10.5,8.487,18.79Z" transform="translate(-6227.808 1095.972)" fill="#9b9b9b"/>
        </g>
        <g id="Grupo_63651" data-name="Grupo 63651" transform="translate(0)">
          <g id="Grupo_63646" data-name="Grupo 63646" transform="translate(28.845 91.259)">
            <g id="Grupo_63644" data-name="Grupo 63644" transform="translate(0)">
              <path id="Trazado_110109" data-name="Trazado 110109" d="M6251.135-1108.112s2.989,1.323.9,3.275-8.53,3.255-5.586,5.4,13.231,2.957,16.133-.11c.8-1.111-2.277-2.211-4.765-3.62s-.906-3.884.722-4.526C6259.079-1107.908,6251.135-1108.112,6251.135-1108.112Z" transform="translate(-6245.687 1108.112)" fill="#49cadb"/>
            </g>
            <g id="Grupo_63645" data-name="Grupo 63645" transform="translate(5.449)">
              <path id="Trazado_110110" data-name="Trazado 110110" d="M6262.449-1103.167c-2.487-1.408-.907-3.884.721-4.526.544-.216-7.4-.42-7.4-.42s1.981.88,1.586,2.26c.708,2.683,8.043,3.166,4.414,6.732a8.572,8.572,0,0,1-4.986,1.408c3.973.478,8.629.073,10.425-1.836C6268.016-1100.658,6264.936-1101.755,6262.449-1103.167Z" transform="translate(-6255.771 1108.112)" fill="#35b2bc"/>
            </g>
          </g>
          <g id="Grupo_63649" data-name="Grupo 63649">
            <g id="Grupo_63647" data-name="Grupo 63647">
              <path id="Trazado_110111" data-name="Trazado 110111" d="M6279.03-1228.74c-2.637,23.872-24.773,46.989-48.647,44.356s-40.436-30.027-37.8-53.9a43.485,43.485,0,0,1,48-38.45A43.483,43.483,0,0,1,6279.03-1228.74Z" transform="translate(-6192.306 1277)" fill="#4dd0e1"/>
            </g>
            <g id="Grupo_63648" data-name="Grupo 63648" transform="translate(22.259 1.143)">
              <path id="Trazado_110112" data-name="Trazado 110112" d="M6264.6-1274.884a42.851,42.851,0,0,1,26.355,44.531c-2.607,23.563-24.21,46.411-47.468,43.844a33.423,33.423,0,0,1-9.987-2.74,35.847,35.847,0,0,0,15.82,5.839c23.873,2.633,46.01-20.484,48.646-44.356A43.487,43.487,0,0,0,6264.6-1274.884Z" transform="translate(-6233.497 1274.884)" fill="#35b2bc"/>
            </g>
          </g>
        </g>
        <g id="Grupo_63652" data-name="Grupo 63652" transform="translate(34.188 92.621)">
          <path id="Trazado_110114" data-name="Trazado 110114" d="M6256.944-1103.4c-.651-.236-1.39-.589-1.368-1.218s.8-.853,1.087-.936l.143-.04.143.044a14.2,14.2,0,0,0,4.544.668l.112-.01.2.05a1.059,1.059,0,0,1,.585,1.226c-.109.445-.573,1.155-2.44.906A15,15,0,0,1,6256.944-1103.4Zm-.167-1.151a4.075,4.075,0,0,0,.508.221,14.211,14.211,0,0,0,2.789.638c.968.128,1.3-.067,1.345-.15a.059.059,0,0,0,.006-.039,15.02,15.02,0,0,1-4.625-.678Z" transform="translate(-6255.575 1105.594)" fill="#9b9b9b"/>
        </g>
      </g>
      <g id="Grupo_63654" data-name="Grupo 63654" transform="translate(481.517 26.298)">
        <path id="Trazado_110115" data-name="Trazado 110115" d="M6632.579-1117.335a10.862,10.862,0,0,0,.738-.825c.218-.3.391-.521.565-.782.218-.217.391-.478.609-.7a5.228,5.228,0,0,1,.694-.7,8.571,8.571,0,0,1,1.043-.7,14.2,14.2,0,0,1,1.651-.912c.652-.347,1.348-.652,1.781-.869a8.206,8.206,0,0,0,.735-.391c.087-.134.174-.217.174-.26.043-.043.043-.043-.3-.174-.3-.134-.912-.392-1.215-.565s-.349-.217-.305-.347a2.788,2.788,0,0,0,.262-.7c.129-.478.3-1.347.434-1.871s.217-.783.262-1a2.559,2.559,0,0,1,.3-.869,12.336,12.336,0,0,1,.913-1.347c.218-.3.218-.3.218-.565a9.639,9.639,0,0,1,.042-1.042,2.322,2.322,0,0,1,.3-.825,4.618,4.618,0,0,1,.608-.7c.174-.133.3-.217.478-.348.129.391.261.869.739.869a.368.368,0,0,0,.3-.086c.217-.134.173-.348.173-.521h0v-.13h0a4.148,4.148,0,0,1-.043-.782c-.043-.478-.043-1.043-.086-1.3,0-.261,0-.261.042-.043.042.174.087.564.134.912s.086.7.129.956a1.529,1.529,0,0,0,.3.652.48.48,0,0,0,.436.174.522.522,0,0,0,.347-.087.34.34,0,0,0,.175-.347c.042-.13-.044-.565-.044-1.173-.044-.912-.217-1.607-.175-1.607,0,.043.13.478.218,1.043a3.331,3.331,0,0,0,.085.7.533.533,0,0,0,.315.462.535.535,0,0,0,.554-.072,1.117,1.117,0,0,0,.3-.564,1.916,1.916,0,0,0,.088-.869,2.882,2.882,0,0,0-.134-.7l-.129-.261c-.044-.043-.044-.043-.044-.174a3.705,3.705,0,0,0-.043-.565,5.186,5.186,0,0,0-.347-.955,3.089,3.089,0,0,0-.609-.826c-.173-.217-.26-.347-.39-.521a2.15,2.15,0,0,1-.217-.739c-.086-.348-.129-.826-.217-1.347-.043-.521-.134-1.043-.175-1.564a8.7,8.7,0,0,1-.087-1.52,14.35,14.35,0,0,1,0-1.955c0-.782.087-1.782.087-2.519a10.774,10.774,0,0,1,.088-1.521.9.9,0,0,1,.434-.608c.217-.174.478-.391.607-.478.175-.087.175-.087.088-.043a2.362,2.362,0,0,0-.522.174,5.9,5.9,0,0,0-.608.478.989.989,0,0,0-.262.609v1.216c.042.478,0,1,0,1.433-.043.391-.043.695-.087,1.39,0,.651-.043,1.737,0,2.649.087.913.26,1.738.348,2.3s.087.912.129,1.26a1.9,1.9,0,0,0,.3.869,3.609,3.609,0,0,0,.521.7,2.675,2.675,0,0,1,.52.782,2.8,2.8,0,0,1,.305.912,1.018,1.018,0,0,1,0,.521c0,.043,0,.043.087.174a2.485,2.485,0,0,1,.26.652,2.278,2.278,0,0,1-.128,1.086c-.087.3-.217.521-.392.521-.735,0-.607-.826-.651-1.129a5.065,5.065,0,0,0-.218-.869,1.827,1.827,0,0,0-.173-.478c-.043-.088-.043-.088-.043,0v.3a4.019,4.019,0,0,1,.087.565c.042.3.087.781.129,1a5.291,5.291,0,0,0,.087.869,1.452,1.452,0,0,1-.044.521.325.325,0,0,1-.3.217.758.758,0,0,1-.521-.174,1.7,1.7,0,0,1-.3-.739c-.043-.347-.088-.825-.129-1.259-.088-.434-.175-.782-.218-.956s-.043-.174-.043-.043c0,.174-.043.521-.043,1,.043.434.087.956.129,1.347v.348c0,.174.043.348-.042.477a.328.328,0,0,1-.305.217c-.134.043-.216-.043-.3-.086-.694-.565-.564-2.129-.564-2.91a1.917,1.917,0,0,0-.088-.652v-.086l-.043.13c-.043.087-.086.3-.173.521a2.5,2.5,0,0,1-.174.607c-.087.217-.174.3-.217.434a.47.47,0,0,0-.134.392c-.043.174,0,.478-.043.607-.086.174-.173.217-.3.217a.373.373,0,0,1-.392-.129.976.976,0,0,1-.216-.478,3.488,3.488,0,0,1-.043-.7,5.331,5.331,0,0,1,.173-.7,5.39,5.39,0,0,1,.3-.7,2.291,2.291,0,0,0,.085-.609,4.531,4.531,0,0,1-.042-1.129,10.068,10.068,0,0,1,.086-1.26v-.043a2.433,2.433,0,0,0,1.737-.086,2.92,2.92,0,0,1-1.737-.174,5.249,5.249,0,0,0-.087-1.042c-.087-.7-.262-1.78-.435-2.78s-.348-1.824-.478-2.737-.216-1.825-.3-2.651-.134-1.52-.134-2a2.634,2.634,0,0,1,.134-.956,2.92,2.92,0,0,1,.521-.869c.348-.434.869-1.086,1.173-1.39a2.462,2.462,0,0,1,2.824.392,2.172,2.172,0,0,0-2.562-.739.043.043,0,0,0,.031-.012.044.044,0,0,0,.012-.031.462.462,0,0,1,.043-.217,2.111,2.111,0,0,1,.348-.478c.261-.348.739-.955,1.129-1.39a8.807,8.807,0,0,1,.825-1.042,5.174,5.174,0,0,1,.652-.565c.13-.13.13-.13.13-.174a.972.972,0,0,1,.134-.391,6.463,6.463,0,0,1,.606-.783c.3-.3.652-.651.913-.869.218-.261.391-.434.565-.609a5.007,5.007,0,0,0,.434-.7,6.659,6.659,0,0,1,.477-.7,3.106,3.106,0,0,1,.565-.52l.3-.305a1.121,1.121,0,0,0,.173-.3c.043-.086.043-.174.13-.217.043-.043.175-.043.262-.13a1.358,1.358,0,0,0,.3-.39c.134-.174.174-.3.262-.391.043-.13.086-.174.173-.174a.26.26,0,0,0,.174-.044c.043-.043.043-.13.087-.3a3.525,3.525,0,0,0,.043-.7.961.961,0,0,0-.174-.565,13,13,0,0,1-.912-1,15.512,15.512,0,0,1-1.521-2.042,5.393,5.393,0,0,1-.825-1.954,8.676,8.676,0,0,1-.042-2.129,6.057,6.057,0,0,1,.478-2,8.792,8.792,0,0,1,1.39-2.259,5.377,5.377,0,0,1,1.738-1.347,6.458,6.458,0,0,1,1.52-.609,2.846,2.846,0,0,1,1.215-.13,9.832,9.832,0,0,1,1.955.348c.7.217,1.434.565,1.868.739a5.266,5.266,0,0,0,.735.26,2.071,2.071,0,0,0,.52,0,.877.877,0,0,0,.392-.26.393.393,0,0,0,.133-.3v-.348c0-.087,0-.087.129.043s.434.39.652.564c.175.217.3.3.391.434a1.1,1.1,0,0,1,.173.3c0,.087,0,.087.044.043l.262-.134a.913.913,0,0,1,.173-.217c0-.043,0-.043.085.087a2.165,2.165,0,0,1,.349.565c.087.174.129.348.172.435,0,.086,0,.086.088.086a.835.835,0,0,1,.3.043.839.839,0,0,1,.219.391,2.88,2.88,0,0,1,.129.7.914.914,0,0,1-.044.521c0,.134,0,.134.043.087,0-.043.088-.134.134-.217a1.774,1.774,0,0,0,.133-.348h0c.043.043.043.174.043.3-.043.174-.175.391-.217.521s-.043.13,0,.086a.919.919,0,0,1,.217-.174,1.159,1.159,0,0,0,.217-.26.754.754,0,0,0,.086-.217v.043a1.337,1.337,0,0,1-.043.391.629.629,0,0,1-.26.3c-.043.086-.043.086.042.174a3.6,3.6,0,0,1,.262.825,10.183,10.183,0,0,1-.043,1.651c-.043.392-.043.392-.043.3-.042-.043-.134-.174-.216-.261s-.174-.13-.217-.174c-.087,0-.087,0-.087.174a2.244,2.244,0,0,1-.261.7.525.525,0,0,1-.479.087c-.129,0-.129,0-.129.086a1.567,1.567,0,0,1-.134.478c-.086.261-.261.521-.347.735a.877.877,0,0,0-.134.348.825.825,0,0,0,.044.3,1.624,1.624,0,0,0,.3.521c.129.217.3.391.39.564a1.016,1.016,0,0,1,.261.392.6.6,0,0,1-.043.39c0,.087-.086.174-.217.261a1.014,1.014,0,0,1-.347.086c-.134.043-.134.043-.042.175a5.358,5.358,0,0,0,.216.651c.043.217.043.3-.087.391a4.817,4.817,0,0,1-.565.217c-.134.043-.134.043-.087.087a1.488,1.488,0,0,1,.261.261.465.465,0,0,1,.129.3.268.268,0,0,1-.086.3c-.087.087-.173.13-.262.217a.589.589,0,0,0-.26.3,1.058,1.058,0,0,0-.043.391,1.064,1.064,0,0,1-.086.3,1.093,1.093,0,0,1-.216.348,1.592,1.592,0,0,1-.695.434,5.578,5.578,0,0,1-1.217,0c-.521-.043-1.129-.086-1.434-.13-.3,0-.3,0-.348.043a.73.73,0,0,1-.087.217,2.148,2.148,0,0,1-.26.3c-.087.087-.087.087.042.217a5.5,5.5,0,0,1,.348.521c.134.134.174.217.261.3.129.086.3.217.565.39a6.894,6.894,0,0,1,.825.783,4.827,4.827,0,0,1,.52.912,2.388,2.388,0,0,1,.089.825c0,.348-.044.869-.089,1.26,0,.347-.086.608-.086.781a.486.486,0,0,0,0,.348.683.683,0,0,1-.042.391c-.043.217-.175.521-.217.782a4.773,4.773,0,0,0-.134.564v.348a1.03,1.03,0,0,0,.086.347,1.689,1.689,0,0,1,.174.565,9.486,9.486,0,0,1,.043,1.172,5.069,5.069,0,0,1-.134,1.26.972.972,0,0,1-.434.7,7.9,7.9,0,0,1-.824.434l-.218.087v.478c-.042.13-.042.13.044.174s.261.174.521.348.652.434,1.086.695c.434.3.912.609,1.26.869a8.528,8.528,0,0,0,.911.608,6.463,6.463,0,0,0,.912.564c.3.174.521.348.695.434a4.256,4.256,0,0,0,.608.261c.261.087.609.217.957.348s.608.261.782.3h.043c-.7.348-1.043.735-1.043,1.129a2.664,2.664,0,0,1,1.478-1.129h.043a2.675,2.675,0,0,1,.434-.134,4.019,4.019,0,0,1,.695-.174.948.948,0,0,1,.608.043.569.569,0,0,1,.39.3.829.829,0,0,1,.134.434c0,.174,0,.3-.087.348a.477.477,0,0,1-.348,0c-.087,0-.087,0,0,.087.043.086.174.217.3.391a4.737,4.737,0,0,0,.478.391c.218.134.478.261.739.391.217.134.478.261.564.435a.668.668,0,0,1,.134.477,1.347,1.347,0,0,1-.043.435.527.527,0,0,1-.217.217.649.649,0,0,1-.262.043c-.042,0-.042,0,0,.087a.779.779,0,0,1,.218.347.716.716,0,0,1-.086.521,1.466,1.466,0,0,1-.348.261c-.043.043-.043.043,0,.087,0,.043.087.13.087.26a.7.7,0,0,1-.134.391.827.827,0,0,1-.3.261.766.766,0,0,1-.262.043c-.043,0-.043,0,0,.043,0,.087.087.217.087.348a.533.533,0,0,1-.174.347.568.568,0,0,1-.478.087,2.839,2.839,0,0,1-.78-.478c-.349-.3-.826-.738-1.043-.956-.261-.217-.261-.217-.348-.217a1.406,1.406,0,0,1-.521-.347,5.7,5.7,0,0,1-1-1.043,4,4,0,0,1-.565-.781c-.086-.134-.086-.134-.261-.217-.173-.043-.521-.217-1.216-.478s-1.78-.609-2.823-1-2.129-.825-2.65-1.086c-.521-.217-.521-.217-.565-.174,0,.043-.087.174-.217.477-.087.348-.261.956-.392,1.3-.086.391-.129.521-.174.739-.042.26-.085.564-.128.869a4.5,4.5,0,0,1-.043.781,2.564,2.564,0,0,1-.174.609,1.065,1.065,0,0,0-.174.478,2.589,2.589,0,0,0,.086.7,9.858,9.858,0,0,1,.13,1.129c0,.348,0,.477-.086.608a1.068,1.068,0,0,1-.134.3c-.043.086-.043.086,0,.086s.134.043.261.261a5.262,5.262,0,0,1,.348.7c.086.174.086.174.134.217.043,0,.173.087.39.391s.521.826.782,1.26.391.781.695,1.216c.261.391.608.912.957,1.476s.651,1.173.824,1.477c.134.261.134.261.175.3.043,0,.087.043.217.217a3.93,3.93,0,0,1,.348.738,2.186,2.186,0,0,0,.173.609,6.448,6.448,0,0,0,.565,1.043,4.856,4.856,0,0,1,.391.869,2.255,2.255,0,0,1,.133,1c-.133,1.173-.521,2.519-2,2.085a1.346,1.346,0,0,0,1.348.174l-.087.087c-.087.26-.175.478-.261.695-.043.26-.174.564-.218.912a6.475,6.475,0,0,0-.133,1.433c0,.652.043,1.477.043,2.216-.043.735-.129,1.347-.129,2.042-.043.7-.043,1.52-.043,2.3,0,.825.043,1.607.043,2.042v.391c.042,0,.086,0,.129.174a3.027,3.027,0,0,1,.044.651c.042.134.042.134.129.175a4.961,4.961,0,0,1,.652.043,12.353,12.353,0,0,1,1.563.3,10.143,10.143,0,0,1,1.911,1.043c.173.174.173.174.565.13.348,0,1.042-.043,1.563-.043a3.363,3.363,0,0,1,.956,0,1.252,1.252,0,0,1,.607.134.661.661,0,0,1,.305.3.5.5,0,0,1,0,.26c0,.044,0,.044.043.087.043,0,.13.043.173.261.043.261.043.652-.825,1.26a19.26,19.26,0,0,1-4.735,2.129,26.308,26.308,0,0,1-6.473,1.564c-1.394,0-1.39-.781-1.39-1.6,0-.869,0-1.738.043-2.3a3.118,3.118,0,0,1,.043-.825,2.011,2.011,0,0,1,.217-.434c.043-.087.043-.087.087-.043a1.869,1.869,0,0,0,.217.043c.129,0,.217,0,.261-.043.086,0,.086,0,.042-.348,0-.3-.042-1-.087-1.347v-.174a4.584,4.584,0,0,0,1.911-.521,4.353,4.353,0,0,1-1.911.3c.043-.043.043-.13,0-.391-.087-.434-.26-1.3-.521-2.433s-.521-2.473-.652-3.518a13.362,13.362,0,0,1-.173-2.389c.043-.651.043-1.129.13-1.695a7.389,7.389,0,0,1,.348-1.65,14.64,14.64,0,0,1,.478-1.477,1.882,1.882,0,0,0,.043-.825,3.281,3.281,0,0,0-.392-.782,3.3,3.3,0,0,0-.52-.564,8.085,8.085,0,0,1,2.258-1.825,7.048,7.048,0,0,0-2.563,1.693,7.645,7.645,0,0,1-.739.609c-.39.26-.868.608-1.172.781-.3.134-.391.134-.521.043-.129-.134-.26-.348-.608-.825a15.792,15.792,0,0,0-1.781-2.042,7.094,7.094,0,0,1-1.563-3.214,6.557,6.557,0,0,0,1.824,3.736,1.277,1.277,0,0,0-.134.26,7.445,7.445,0,0,1-.652.956,8.954,8.954,0,0,1-.651.651c-.134.087-.134.087-.3.521-.129.478-.434,1.347-.565,1.781l-.173.434a.174.174,0,0,0-.174.087,1.364,1.364,0,0,1-.3.521,3.959,3.959,0,0,1-1,.738c-.39.261-.825.478-1.3.739-.521.261-1.261-.3-1.39-.825,0,.434.3.781.956,1-.478.261-.956.434-1.216.565a2.117,2.117,0,0,0-.7.434c-.261.174-.651.478-1.128.869-.435.348-.913.825-1.391,1.216s-.956.7-1.871,1.347c-.912.7-2.258,1.693-2.954,2.215l-.521.391a4.22,4.22,0,0,1-1.476-1.086,2.484,2.484,0,0,0,1.6,1.346c.043,0,.043,0-.134.134s-.52.434-.781.651a4.051,4.051,0,0,0-.608.608c-.217.26-.477.522-.608.651s-.129.134-.043.174a1.487,1.487,0,0,1,.348.217c.134.043.134.13.087.217,0,.086-.043.217-.043.261-.043.086-.043.086.043.086.086.043.217.087.261.174.087.043.087.087.134.134l.042.043a1.126,1.126,0,0,1,.262.217.475.475,0,0,1,.087.434c-.043.174-.174.434-.261.7a1.859,1.859,0,0,1-.3.522c-.086.086-.173.043-.3-.043a1.505,1.505,0,0,1-.261-.261c-.087-.087-.087-.087-.087.087a2.649,2.649,0,0,1-.129.694,1.813,1.813,0,0,1-.3.521.978.978,0,0,0-.043.434,13.292,13.292,0,0,1,.086,1.565,4.216,4.216,0,0,1-.086,1.52,1.2,1.2,0,0,1-.735.781.869.869,0,0,1-.653.043c-.129,0-.129,0-.173.043a.285.285,0,0,1-.175.217c-.129.044-.3,0-.694-.651a27.409,27.409,0,0,1-1.564-3.041c-.521-1.173-.912-2.172-1.26-3-.348-.869-.651-1.564-.957-2.215-.347-.652-.608-1.26-.781-1.564-.134-.3-.134-.3-.086-.434a3.143,3.143,0,0,1,.26-.609,3.236,3.236,0,0,1,.782-.735,7.967,7.967,0,0,1,1.478-.652,6.8,6.8,0,0,1,1.78-.26c.521-.043.869-.043,1.042-.043s.175,0,.565-.348l1.564-1.564a8.206,8.206,0,0,0,1.085-1.173Z" transform="translate(-6623.977 1222.577)" fill="#636363" fill-rule="evenodd"/>
        <path id="Trazado_110116" data-name="Trazado 110116" d="M6677.028-1146.5c-9.6-15.551,8.34-47.738-6.816-64.94,13.726,19.286-3.346,52.169,6.471,64.94Z" transform="translate(-6632.894 1228.628)" fill="#636363" fill-rule="evenodd"/>
        <path id="Trazado_110117" data-name="Trazado 110117" d="M6659.5-1231.873c4.039-2.173,9.382-.088,11.9,4.648,2.473,4.647,1.346,10.121-2.521,12.337a4.456,4.456,0,0,0,.218.434,1.171,1.171,0,0,0,.348.435,1.437,1.437,0,0,0,.348.261c.087.086.174.13.174.174a.223.223,0,0,1-.174.217.608.608,0,0,1-.391.134c-.174.043-.3.086-.435.13a.782.782,0,0,0-.3.217,1.015,1.015,0,0,1-.434.217.151.151,0,0,1-.144-.006.155.155,0,0,1-.074-.124,1.439,1.439,0,0,1,0-.434,1.928,1.928,0,0,0-.043-.521,1.007,1.007,0,0,0-.134-.391.606.606,0,0,0-.13-.174c-3.91,1.433-8.645-.7-10.947-5.082-2.562-4.734-1.3-10.338,2.741-12.466Zm12.163,10.034c-.261-7.167-8.21-11.729-11.945-8.514C6663.839-1234.175,6671.962-1229.267,6671.658-1221.839Z" transform="translate(-6630.043 1232.733)" fill="#636363" fill-rule="evenodd"/>
      </g>
      <g id="Grupo_63658" data-name="Grupo 63658" transform="translate(502.81 112.457)">
        <g id="Grupo_63655" data-name="Grupo 63655" transform="translate(3.341 3.113)">
          <path id="Trazado_110118" data-name="Trazado 110118" d="M6655.711-1083.061a1.211,1.211,0,0,1-1.211-1.211v-36.66a1.211,1.211,0,0,1,1.211-1.211,1.211,1.211,0,0,1,1.21,1.211v36.66A1.211,1.211,0,0,1,6655.711-1083.061Z" transform="translate(-6654.5 1122.143)" fill="#fdd835"/>
        </g>
        <g id="Grupo_63656" data-name="Grupo 63656" transform="translate(0 0)">
          <circle id="Elipse_4256" data-name="Elipse 4256" cx="4.552" cy="4.552" r="4.552" transform="translate(0)" fill="#fdd835"/>
        </g>
        <g id="Grupo_63657" data-name="Grupo 63657" transform="translate(0.09 36.158)">
          <path id="Trazado_110119" data-name="Trazado 110119" d="M6654.935-1078.555l4.362-2.653.1.15-2.826,7.113-1.635,7.435q-.817-3.717-1.637-7.435l-2.825-7.113.073-.15Z" transform="translate(-6650.473 1081.208)" fill="#fdd835"/>
        </g>
      </g>
      <g id="Grupo_63662" data-name="Grupo 63662" transform="translate(503.214 169.369)">
        <g id="Grupo_63659" data-name="Grupo 63659" transform="translate(3.341 8.66)">
          <path id="Trazado_110120" data-name="Trazado 110120" d="M6656.211-994.388A1.212,1.212,0,0,1,6655-995.6v-47.961a1.212,1.212,0,0,1,1.212-1.211,1.211,1.211,0,0,1,1.211,1.211V-995.6A1.211,1.211,0,0,1,6656.211-994.388Z" transform="translate(-6654.999 1044.771)" fill="#fdd835"/>
        </g>
        <g id="Grupo_63660" data-name="Grupo 63660" transform="translate(0 53.051)">
          <path id="Trazado_110121" data-name="Trazado 110121" d="M6659.966-985.228a4.553,4.553,0,0,1-4.553,4.553,4.554,4.554,0,0,1-4.553-4.553,4.553,4.553,0,0,1,4.553-4.552A4.553,4.553,0,0,1,6659.966-985.228Z" transform="translate(-6650.86 989.78)" fill="#fdd835"/>
        </g>
        <g id="Grupo_63661" data-name="Grupo 63661" transform="translate(0.091 0)">
          <path id="Trazado_110122" data-name="Trazado 110122" d="M6655.436-1043.454l-4.363,2.654-.1-.15,2.826-7.113q.816-3.718,1.635-7.435.817,3.717,1.636,7.435l2.825,7.113-.073.15Z" transform="translate(-6650.975 1055.499)" fill="#fdd835"/>
        </g>
      </g>
      <path id="Trazado_110283" data-name="Trazado 110283" d="M8.614-11.141H3.629V-5.9H2.063V-17.773H9.422v1.281H3.629v4.071H8.614Z" transform="translate(526.348 136.921)" fill="#12263f"/>
      <path id="Trazado_110284" data-name="Trazado 110284" d="M2.884-2.392H1.941v-3.64L.815-5.685v-.76L2.783-7.15h.1Zm4.8,0H4.428v-.646L5.965-4.676a3.792,3.792,0,0,0,.468-.6.97.97,0,0,0,.152-.489.726.726,0,0,0-.16-.5.577.577,0,0,0-.457-.181.622.622,0,0,0-.5.221.873.873,0,0,0-.184.579H4.333a1.558,1.558,0,0,1,.207-.793A1.46,1.46,0,0,1,5.126-7a1.78,1.78,0,0,1,.858-.205,1.685,1.685,0,0,1,1.141.352,1.247,1.247,0,0,1,.406,1,1.6,1.6,0,0,1-.182.718,3.99,3.99,0,0,1-.626.851L5.643-3.156H7.686Z" transform="translate(536.449 136.826)" fill="#12263f"/>
      <g id="Grupo_63665" data-name="Grupo 63665" transform="translate(525.011 114.337)">
        <g id="Grupo_63663" data-name="Grupo 63663" transform="translate(0 1.512)">
          <rect id="Rectángulo_5869" data-name="Rectángulo 5869" width="12.902" height="0.807" fill="#12263f"/>
        </g>
        <g id="Grupo_63664" data-name="Grupo 63664" transform="translate(11.888 0)">
          <path id="Trazado_110123" data-name="Trazado 110123" d="M6696.04-1121.752a12.213,12.213,0,0,0-3.45,1.919l.7-1.919-.7-1.919A12.192,12.192,0,0,0,6696.04-1121.752Z" transform="translate(-6692.59 1123.671)" fill="#12263f"/>
        </g>
      </g>
      <path id="Trazado_110285" data-name="Trazado 110285" d="M8.614-11.141H3.629V-5.9H2.063V-17.773H9.422v1.281H3.629v4.071H8.614Z" transform="translate(481.143 220.068)" fill="#12263f"/>
      <path id="Trazado_110286" data-name="Trazado 110286" d="M3.693-2.392H.436v-.646L1.973-4.676a3.792,3.792,0,0,0,.468-.6.97.97,0,0,0,.152-.489.726.726,0,0,0-.159-.5.577.577,0,0,0-.457-.181.622.622,0,0,0-.5.221.873.873,0,0,0-.184.579H.342a1.558,1.558,0,0,1,.207-.793A1.46,1.46,0,0,1,1.135-7a1.78,1.78,0,0,1,.858-.2,1.685,1.685,0,0,1,1.141.352,1.247,1.247,0,0,1,.406.994,1.6,1.6,0,0,1-.182.718,3.99,3.99,0,0,1-.626.851L1.65-3.152H3.693Zm2.868,0H5.618v-3.64l-1.126.348v-.76l1.97-.705h.1Z" transform="translate(491.401 219.972)" fill="#12263f"/>
      <g id="Grupo_63668" data-name="Grupo 63668" transform="translate(479.806 197.483)">
        <g id="Grupo_63666" data-name="Grupo 63666" transform="translate(0 1.512)">
          <rect id="Rectángulo_5870" data-name="Rectángulo 5870" width="12.902" height="0.807" fill="#12263f"/>
        </g>
        <g id="Grupo_63667" data-name="Grupo 63667" transform="translate(11.888 0)">
          <path id="Trazado_110124" data-name="Trazado 110124" d="M6640.039-1018.752a12.2,12.2,0,0,0-3.45,1.919l.695-1.919-.695-1.919a12.193,12.193,0,0,0,3.45,1.918Z" transform="translate(-6636.589 1020.671)" fill="#12263f"/>
        </g>
      </g>
      <path id="Trazado_110277" data-name="Trazado 110277" d="M15.16-19.608H6.388v9.232H3.631v-20.9H16.582v2.254H6.388v7.165H15.16Z" transform="translate(562.728 89.975)" fill="#12263f"/>
      <path id="Trazado_110289" data-name="Trazado 110289" d="M5.612-6.24H2.523L1.935-4.478H.062l3.183-8.554H4.878l3.2,8.554H6.208ZM3-7.667H5.137l-1.075-3.2ZM11.41-5.729a1.113,1.113,0,0,0,.764-.259.906.906,0,0,0,.305-.687h1.592a2.177,2.177,0,0,1-.35,1.184,2.326,2.326,0,0,1-.951.834,2.969,2.969,0,0,1-1.331.3,2.759,2.759,0,0,1-2.15-.869A3.428,3.428,0,0,1,8.5-7.619v-.112a3.389,3.389,0,0,1,.781-2.345,2.727,2.727,0,0,1,2.144-.875,2.673,2.673,0,0,1,1.912.679,2.4,2.4,0,0,1,.731,1.8H12.479a1.166,1.166,0,0,0-.305-.806,1.018,1.018,0,0,0-.775-.31,1.022,1.022,0,0,0-.9.432,2.505,2.505,0,0,0-.3,1.4v.176a2.54,2.54,0,0,0,.3,1.412,1.035,1.035,0,0,0,.91.43Zm6.273,0a1.113,1.113,0,0,0,.764-.259.906.906,0,0,0,.305-.687h1.591a2.177,2.177,0,0,1-.352,1.184,2.326,2.326,0,0,1-.949.834,2.969,2.969,0,0,1-1.331.3,2.759,2.759,0,0,1-2.15-.869,3.428,3.428,0,0,1-.787-2.39v-.112a3.389,3.389,0,0,1,.781-2.344A2.727,2.727,0,0,1,17.7-10.95a2.673,2.673,0,0,1,1.912.678,2.4,2.4,0,0,1,.731,1.8H18.751a1.166,1.166,0,0,0-.305-.806,1.018,1.018,0,0,0-.775-.31,1.022,1.022,0,0,0-.9.432,2.505,2.505,0,0,0-.3,1.4v.176a2.54,2.54,0,0,0,.3,1.412A1.035,1.035,0,0,0,17.683-5.729ZM23.1-4.478H21.4v-6.355h1.7Zm-1.8-8a.836.836,0,0,1,.255-.628.96.96,0,0,1,.7-.247.962.962,0,0,1,.693.247.831.831,0,0,1,.259.628.833.833,0,0,1-.261.634.964.964,0,0,1-.69.247.964.964,0,0,1-.69-.247.833.833,0,0,1-.26-.634Zm2.937,4.764A3.769,3.769,0,0,1,24.6-9.4a2.666,2.666,0,0,1,1.049-1.145,3.059,3.059,0,0,1,1.589-.4,2.894,2.894,0,0,1,2.1.787,3.159,3.159,0,0,1,.908,2.139l.012.434a3.321,3.321,0,0,1-.817,2.346,2.838,2.838,0,0,1-2.19.883,2.852,2.852,0,0,1-2.194-.881,3.38,3.38,0,0,1-.819-2.4Zm1.7.12a2.376,2.376,0,0,0,.341,1.385,1.124,1.124,0,0,0,.975.479,1.127,1.127,0,0,0,.963-.474,2.6,2.6,0,0,0,.347-1.515A2.352,2.352,0,0,0,28.213-9.1a1.127,1.127,0,0,0-.975-.489,1.108,1.108,0,0,0-.963.485,2.643,2.643,0,0,0-.34,1.5ZM27.573-13.5h1.852L27.8-11.679h-1.38Zm5.292,2.666.053.735a2.219,2.219,0,0,1,1.826-.851,1.844,1.844,0,0,1,1.5.593,2.768,2.768,0,0,1,.505,1.774v4.1h-1.7V-8.555a1.105,1.105,0,0,0-.235-.786,1.051,1.051,0,0,0-.781-.245,1.167,1.167,0,0,0-1.075.612v4.495h-1.7v-6.355Z" transform="translate(188.715 254.151)" fill="#4dd0e1"/>
      <path id="Trazado_110292" data-name="Trazado 110292" d="M21.513-23.027H9.67L7.418-16.272H.236L12.442-49.055H18.7L30.97-16.272H23.787ZM11.494-28.5h8.2l-4.12-12.271Z" transform="translate(48.706 343.397)" fill="#4dd0e1"/>
      <path id="Trazado_110288" data-name="Trazado 110288" d="M21.513-23.027H9.67L7.418-16.272H.236L12.442-49.055H18.7L30.97-16.272H23.787ZM11.494-28.5h8.2l-4.12-12.271Z" transform="translate(248.098 343.397)" fill="#4dd0e1"/>
      <path id="Trazado_110290" data-name="Trazado 110290" d="M4.38-16.272V-49.055H15.863q5.966,0,9.051,2.286A7.815,7.815,0,0,1,28-40.071a7.407,7.407,0,0,1-1.238,4.244,7.151,7.151,0,0,1-3.445,2.691,6.921,6.921,0,0,1,3.974,2.544,7.522,7.522,0,0,1,1.452,4.683q0,4.728-3.017,7.16t-8.6,2.477Zm6.754-14.275V-21.7h5.787a5.584,5.584,0,0,0,3.726-1.136,3.9,3.9,0,0,0,1.337-3.141q0-4.5-4.661-4.57Zm0-4.774h5q5.111-.09,5.111-4.077A3.765,3.765,0,0,0,19.949-42.6a6.814,6.814,0,0,0-4.087-.98H11.134Z" transform="translate(109.472 343.397)" fill="#fdd835"/>
      <path id="Trazado_110287" data-name="Trazado 110287" d="M4.38-16.272V-49.055H15.863q5.966,0,9.051,2.286A7.815,7.815,0,0,1,28-40.071a7.407,7.407,0,0,1-1.238,4.244,7.151,7.151,0,0,1-3.445,2.691,6.921,6.921,0,0,1,3.974,2.544,7.522,7.522,0,0,1,1.452,4.683q0,4.728-3.017,7.16t-8.6,2.477Zm6.754-14.275V-21.7h5.787a5.584,5.584,0,0,0,3.726-1.136,3.9,3.9,0,0,0,1.337-3.141q0-4.5-4.661-4.57Zm0-4.774h5q5.111-.09,5.111-4.077A3.765,3.765,0,0,0,19.949-42.6a6.814,6.814,0,0,0-4.087-.98H11.134Z" transform="translate(190.526 343.397)" fill="#fdd835"/>
      <path id="Trazado_110291" data-name="Trazado 110291" d="M4.309-7.609h-1.4v3.131H1.143v-8.554H4.322a3.592,3.592,0,0,1,2.339.676,2.331,2.331,0,0,1,.822,1.909A2.631,2.631,0,0,1,7.1-8.988a2.584,2.584,0,0,1-1.151.933L7.8-4.56v.082H5.912ZM2.9-9.036H4.326a1.456,1.456,0,0,0,1.028-.337,1.207,1.207,0,0,0,.364-.931,1.292,1.292,0,0,0-.344-.952A1.428,1.428,0,0,0,4.322-11.6H2.9Zm8.729,4.678a3.12,3.12,0,0,1-2.276-.857A3.048,3.048,0,0,1,8.479-7.5v-.164a3.839,3.839,0,0,1,.37-1.712A2.716,2.716,0,0,1,9.9-10.542a2.94,2.94,0,0,1,1.548-.408,2.638,2.638,0,0,1,2.053.822A3.341,3.341,0,0,1,14.247-7.8V-7.1H10.2a1.577,1.577,0,0,0,.5,1,1.5,1.5,0,0,0,1.049.376,1.832,1.832,0,0,0,1.529-.711l.834.936a2.548,2.548,0,0,1-1.035.841,3.392,3.392,0,0,1-1.444.3Zm-.194-5.221a1.061,1.061,0,0,0-.819.342,1.772,1.772,0,0,0-.4.98H12.58v-.134a1.264,1.264,0,0,0-.305-.881,1.1,1.1,0,0,0-.835-.31Zm7.451,5.1a1.885,1.885,0,0,1-.17-.57,2.054,2.054,0,0,1-1.6.687A2.256,2.256,0,0,1,15.569-4.9a1.738,1.738,0,0,1-.613-1.363,1.8,1.8,0,0,1,.749-1.55,3.7,3.7,0,0,1,2.165-.546h.781v-.364a1.047,1.047,0,0,0-.227-.7.889.889,0,0,0-.714-.267,1.011,1.011,0,0,0-.67.207.7.7,0,0,0-.244.564H15.1a1.7,1.7,0,0,1,.341-1.022,2.252,2.252,0,0,1,.963-.735,3.511,3.511,0,0,1,1.4-.267,2.773,2.773,0,0,1,1.865.59,2.065,2.065,0,0,1,.69,1.659v2.753a3.038,3.038,0,0,0,.253,1.371v.1Zm-1.4-1.181a1.462,1.462,0,0,0,.693-.167,1.1,1.1,0,0,0,.468-.449V-7.368h-.634q-1.274,0-1.357.881l-.006.1a.68.68,0,0,0,.223.523A.869.869,0,0,0,17.487-5.659Zm6.817-.07a1.113,1.113,0,0,0,.764-.259.906.906,0,0,0,.305-.687h1.592a2.177,2.177,0,0,1-.352,1.184,2.326,2.326,0,0,1-.95.834,2.969,2.969,0,0,1-1.331.3,2.759,2.759,0,0,1-2.15-.869,3.428,3.428,0,0,1-.787-2.39v-.112a3.389,3.389,0,0,1,.781-2.344,2.727,2.727,0,0,1,2.144-.875,2.673,2.673,0,0,1,1.912.678,2.4,2.4,0,0,1,.731,1.8h-1.59a1.166,1.166,0,0,0-.305-.806,1.018,1.018,0,0,0-.775-.31,1.022,1.022,0,0,0-.9.432,2.505,2.505,0,0,0-.3,1.4v.176a2.539,2.539,0,0,0,.3,1.412A1.035,1.035,0,0,0,24.3-5.729Zm6.273,0a1.113,1.113,0,0,0,.764-.259.906.906,0,0,0,.305-.687h1.592a2.177,2.177,0,0,1-.352,1.184,2.326,2.326,0,0,1-.951.834,2.969,2.969,0,0,1-1.331.3,2.759,2.759,0,0,1-2.15-.869,3.428,3.428,0,0,1-.787-2.39v-.112a3.389,3.389,0,0,1,.779-2.345,2.727,2.727,0,0,1,2.144-.875,2.673,2.673,0,0,1,1.914.679,2.4,2.4,0,0,1,.731,1.8H31.644a1.166,1.166,0,0,0-.305-.806,1.018,1.018,0,0,0-.775-.31,1.022,1.022,0,0,0-.9.432,2.505,2.505,0,0,0-.3,1.4v.176a2.54,2.54,0,0,0,.3,1.412,1.035,1.035,0,0,0,.911.43ZM36-4.478H34.293v-6.355H36Zm-1.8-8a.836.836,0,0,1,.255-.628.96.96,0,0,1,.7-.247.962.962,0,0,1,.693.247.831.831,0,0,1,.259.628.833.833,0,0,1-.261.634.964.964,0,0,1-.69.247.964.964,0,0,1-.69-.247.833.833,0,0,1-.261-.634Zm2.937,4.764A3.769,3.769,0,0,1,37.5-9.4a2.666,2.666,0,0,1,1.049-1.145,3.059,3.059,0,0,1,1.589-.4,2.894,2.894,0,0,1,2.1.787,3.159,3.159,0,0,1,.908,2.139l.012.434a3.321,3.321,0,0,1-.818,2.346,2.838,2.838,0,0,1-2.192.884,2.852,2.852,0,0,1-2.194-.881,3.38,3.38,0,0,1-.819-2.4Zm1.7.12a2.376,2.376,0,0,0,.341,1.385,1.124,1.124,0,0,0,.975.479,1.127,1.127,0,0,0,.963-.474,2.6,2.6,0,0,0,.347-1.515A2.352,2.352,0,0,0,41.108-9.1a1.127,1.127,0,0,0-.975-.489,1.108,1.108,0,0,0-.963.485,2.643,2.643,0,0,0-.342,1.5ZM40.466-13.5h1.85L40.69-11.679H39.31Zm5.29,2.666.053.735a2.219,2.219,0,0,1,1.826-.851,1.844,1.844,0,0,1,1.5.593,2.768,2.768,0,0,1,.505,1.774v4.1h-1.7V-8.555a1.105,1.105,0,0,0-.235-.786,1.051,1.051,0,0,0-.781-.245,1.167,1.167,0,0,0-1.075.612v4.495h-1.7v-6.355Z" transform="translate(232.125 64.486)" fill="#00897b"/>
      <path id="Trazado_110278" data-name="Trazado 110278" d="M7.756-5.025H.916V-6.381l3.228-3.44a7.963,7.963,0,0,0,.983-1.27,2.037,2.037,0,0,0,.319-1.028,1.524,1.524,0,0,0-.334-1.045,1.212,1.212,0,0,0-.96-.38,1.307,1.307,0,0,0-1.059.462,1.832,1.832,0,0,0-.387,1.216H.718a3.271,3.271,0,0,1,.435-1.665,3.067,3.067,0,0,1,1.23-1.182,3.738,3.738,0,0,1,1.8-.428A3.542,3.542,0,0,1,6.58-14.4a2.618,2.618,0,0,1,.853,2.09A3.355,3.355,0,0,1,7.05-10.8,8.378,8.378,0,0,1,5.734-9.013L3.466-6.621h4.29Zm6.023,0H11.8v-7.645l-2.364.73v-1.6l4.132-1.48h.213Z" transform="translate(580.253 91.399)" fill="#12263f"/>
      <path id="Trazado_110279" data-name="Trazado 110279" d="M12.533-14.087H2.324v-2.7H12.533Zm0,4.945H2.324v-2.7H12.533Z" transform="translate(608.42 83.352)" fill="#12263f"/>
      <path id="Trazado_110280" data-name="Trazado 110280" d="M8.072-9.7H1.826v-2.585H8.072Z" transform="translate(632.044 81.192)" fill="#12263f"/>
      <g id="Grupo_63671" data-name="Grupo 63671" transform="translate(560.476 50.414)">
        <g id="Grupo_63669" data-name="Grupo 63669" transform="translate(0 2.591)">
          <rect id="Rectángulo_5871" data-name="Rectángulo 5871" width="22.055" height="1.38" fill="#12263f"/>
        </g>
        <g id="Grupo_63670" data-name="Grupo 63670" transform="translate(20.322 0)">
          <path id="Trazado_110125" data-name="Trazado 110125" d="M6698.487-1306.4a20.868,20.868,0,0,0-5.9,3.281l1.187-3.281-1.187-3.281a20.824,20.824,0,0,0,5.9,3.281Z" transform="translate(-6692.591 1309.676)" fill="#12263f"/>
        </g>
      </g>
      <path id="Trazado_110281" data-name="Trazado 110281" d="M15.16-19.608H6.388v9.232H3.631v-20.9H16.582v2.254H6.388v7.165H15.16Z" transform="translate(645.526 89.975)" fill="#12263f"/>
      <path id="Trazado_110282" data-name="Trazado 110282" d="M6.057-5.025H4.076v-7.645l-2.364.73v-1.6l4.135-1.48H6.06Zm10.082,0H9.3V-6.381l3.228-3.44a7.962,7.962,0,0,0,.983-1.27,2.037,2.037,0,0,0,.319-1.028,1.524,1.524,0,0,0-.334-1.045,1.212,1.212,0,0,0-.96-.38,1.307,1.307,0,0,0-1.059.462,1.832,1.832,0,0,0-.387,1.216H9.1a3.271,3.271,0,0,1,.435-1.665,3.067,3.067,0,0,1,1.23-1.182,3.738,3.738,0,0,1,1.8-.428,3.542,3.542,0,0,1,2.4.74,2.618,2.618,0,0,1,.851,2.092,3.355,3.355,0,0,1-.384,1.508,8.378,8.378,0,0,1-1.316,1.788L11.847-6.621h4.292Z" transform="translate(669.192 91.399)" fill="#12263f"/>
      <g id="Grupo_63674" data-name="Grupo 63674" transform="translate(643.274 50.414)">
        <g id="Grupo_63672" data-name="Grupo 63672" transform="translate(0 2.591)">
          <rect id="Rectángulo_5872" data-name="Rectángulo 5872" width="22.055" height="1.38" fill="#12263f"/>
        </g>
        <g id="Grupo_63673" data-name="Grupo 63673" transform="translate(20.323 0)">
          <path id="Trazado_110126" data-name="Trazado 110126" d="M6758.486-1306.4a20.847,20.847,0,0,0-5.9,3.281l1.188-3.281-1.188-3.281A20.815,20.815,0,0,0,6758.486-1306.4Z" transform="translate(-6752.589 1309.676)" fill="#12263f"/>
        </g>
      </g>
      <g id="Grupo_63677" data-name="Grupo 63677" transform="translate(209.356 191.627)">
        <g id="Grupo_63675" data-name="Grupo 63675" transform="translate(9.883)">
          <path id="Trazado_110127" data-name="Trazado 110127" d="M6408.159-954.924a5.552,5.552,0,0,1-3.341-1.122l.184-.216a5.272,5.272,0,0,0,4.7.823l.082.272A5.615,5.615,0,0,1,6408.159-954.924Z" transform="translate(-6404.818 956.262)" fill="#4dd0e1"/>
        </g>
        <path id="Trazado_110128" data-name="Trazado 110128" d="M6407.218-952.219a5.451,5.451,0,0,1-3.705-1.393l.208-.213a5.363,5.363,0,0,0,5.224,1.049l.086.29a6.412,6.412,0,0,1-1.812.267Z" transform="translate(-6394.336 955.143)" fill="#4dd0e1"/>
        <path id="Trazado_110129" data-name="Trazado 110129" d="M6406.28-949.516a5.5,5.5,0,0,1-4.07-1.665l.231-.21a5.525,5.525,0,0,0,5.753,1.275l.09.308A7.232,7.232,0,0,1,6406.28-949.516Z" transform="translate(-6393.736 954.024)" fill="#4dd0e1"/>
        <path id="Trazado_110130" data-name="Trazado 110130" d="M6405.334-946.811a5.636,5.636,0,0,1-4.435-1.938l.254-.208c.036.067,2.076,2.681,6.282,1.5l.094.326a8.052,8.052,0,0,1-2.195.32Z" transform="translate(-6393.134 952.905)" fill="#4dd0e1"/>
        <path id="Trazado_110131" data-name="Trazado 110131" d="M6404.392-944.105a5.823,5.823,0,0,1-4.8-2.205l.278-.206c.042.088,2.114,3.027,6.813,1.727l.1.343a8.859,8.859,0,0,1-2.388.342Z" transform="translate(-6392.533 951.783)" fill="#4dd0e1"/>
        <path id="Trazado_110132" data-name="Trazado 110132" d="M6403.45-941.4a6.036,6.036,0,0,1-5.163-2.48l.3-.2c.047.106,2.151,3.373,7.342,1.953l.1.362A9.685,9.685,0,0,1,6403.45-941.4Z" transform="translate(-6391.934 950.666)" fill="#4dd0e1"/>
        <path id="Trazado_110133" data-name="Trazado 110133" d="M6402.507-938.7a6.282,6.282,0,0,1-5.527-2.751l.323-.2c.052.123,2.187,3.719,7.871,2.178l.1.38a10.5,10.5,0,0,1-2.771.394Z" transform="translate(-6391.333 949.546)" fill="#4dd0e1"/>
        <path id="Trazado_110134" data-name="Trazado 110134" d="M6401.566-935.995a6.543,6.543,0,0,1-5.892-3.023l.347-.2c.058.141,2.224,4.065,8.4,2.406l.108.4A11.345,11.345,0,0,1,6401.566-935.995Z" transform="translate(-6390.732 948.428)" fill="#4dd0e1"/>
        <path id="Trazado_110135" data-name="Trazado 110135" d="M6400.624-933.292a6.82,6.82,0,0,1-6.257-3.294l.37-.2c.067.159,2.261,4.411,8.93,2.63l.112.416a12.168,12.168,0,0,1-3.156.449Z" transform="translate(-6390.131 947.31)" fill="#4dd0e1"/>
        <path id="Trazado_110136" data-name="Trazado 110136" d="M6399.683-930.585c-4.945,0-6.6-3.523-6.621-3.566l.393-.2c.067.176,2.3,4.758,9.459,2.856l.117.433a13,13,0,0,1-3.348.472Z" transform="translate(-6389.532 946.189)" fill="#4dd0e1"/>
        <path id="Trazado_110137" data-name="Trazado 110137" d="M6398.74-927.882c-5.273,0-6.965-3.791-6.985-3.837l.416-.193c.075.2,2.335,5.1,9.989,3.081l.121.451a13.812,13.812,0,0,1-3.54.5Z" transform="translate(-6388.932 945.07)" fill="#4dd0e1"/>
        <path id="Trazado_110138" data-name="Trazado 110138" d="M6397.8-925.177c-5.6,0-7.329-4.06-7.352-4.108l.439-.19c.081.213,2.371,5.449,10.518,3.307l.125.468A14.645,14.645,0,0,1,6397.8-925.177Z" transform="translate(-6388.329 943.949)" fill="#4dd0e1"/>
        <path id="Trazado_110139" data-name="Trazado 110139" d="M6396.856-922.467c-5.927,0-7.693-4.328-7.715-4.38l.462-.188c.085.23,2.406,5.8,11.047,3.533l.128.487a15.462,15.462,0,0,1-3.923.548Z" transform="translate(-6387.729 942.829)" fill="#4dd0e1"/>
        <path id="Trazado_110140" data-name="Trazado 110140" d="M6395.914-919.768c-6.254,0-8.058-4.6-8.078-4.651l.484-.186c.092.248,2.446,6.142,11.578,3.758l.133.5a16.3,16.3,0,0,1-4.118.574Z" transform="translate(-6387.13 941.711)" fill="#4dd0e1"/>
        <g id="Grupo_63676" data-name="Grupo 63676" transform="translate(0 18.422)">
          <path id="Trazado_110141" data-name="Trazado 110141" d="M6394.972-917.064c-6.58,0-8.42-4.865-8.443-4.923l.508-.183c.1.267,2.482,6.488,12.106,3.984l.134.523a17.134,17.134,0,0,1-4.306.6Z" transform="translate(-6386.529 922.17)" fill="#4dd0e1"/>
        </g>
      </g>
      <path id="Trazado_110142" data-name="Trazado 110142" d="M6452.863-1171.056l-4.863-1.081,9.727-4.863,4.862,8.646-4.322-1.081-3.243,13.509-5.944-1.621Z" transform="translate(-6205.427 1249.35)" fill="#00897b"/>
      <path id="Trazado_110143" data-name="Trazado 110143" d="M6385.727-893.87l4.863,1.081-9.727,4.863L6376-896.57l4.324,1.081L6383.565-909l5.944,1.621Z" transform="translate(-6172.333 1126.166)" fill="#4dd0e1"/>
      <g id="Grupo_63715" data-name="Grupo 63715" transform="translate(85.483 21.556)">
        <g id="Grupo_63680" data-name="Grupo 63680" transform="translate(37.416)">
          <g id="Grupo_63678" data-name="Grupo 63678" transform="translate(2.3 3.261)">
            <rect id="Rectángulo_5873" data-name="Rectángulo 5873" width="0.541" height="25.378" fill="#fff"/>
          </g>
          <g id="Grupo_63679" data-name="Grupo 63679" transform="translate(0)">
            <path id="Trazado_110144" data-name="Trazado 110144" d="M6269.813-1271a16.323,16.323,0,0,1-2.57,4.619l2.57-.93,2.57.93A16.344,16.344,0,0,1,6269.813-1271Z" transform="translate(-6267.243 1271)" fill="#fff"/>
          </g>
        </g>
        <g id="Grupo_63683" data-name="Grupo 63683" transform="translate(51.101 7.565)">
          <g id="Grupo_63681" data-name="Grupo 63681" transform="translate(0 2.741)">
            <rect id="Rectángulo_5874" data-name="Rectángulo 5874" width="20.674" height="0.541" transform="translate(0 18.208) rotate(-61.733)" fill="#fff"/>
          </g>
          <g id="Grupo_63682" data-name="Grupo 63682" transform="translate(7.127)">
            <path id="Trazado_110145" data-name="Trazado 110145" d="M6310.212-1257a16.323,16.323,0,0,0,.073,5.285l-1.822-2.037-2.7-.4A16.3,16.3,0,0,0,6310.212-1257Z" transform="translate(-6305.76 1257)" fill="#fff"/>
          </g>
        </g>
        <g id="Grupo_63686" data-name="Grupo 63686" transform="translate(60.934 25.236)">
          <g id="Grupo_63684" data-name="Grupo 63684" transform="translate(0 1.422)">
            <rect id="Rectángulo_5875" data-name="Rectángulo 5875" width="14.382" height="0.541" transform="translate(0 6.6) rotate(-27.316)" fill="#fff"/>
          </g>
          <g id="Grupo_63685" data-name="Grupo 63685" transform="translate(10.515)">
            <path id="Trazado_110146" data-name="Trazado 110146" d="M6335.508-1224.137a16.306,16.306,0,0,0-2.922,4.4l-.354-2.709-2.006-1.856A16.32,16.32,0,0,0,6335.508-1224.137Z" transform="translate(-6330.226 1224.297)" fill="#fff"/>
          </g>
        </g>
        <g id="Grupo_63689" data-name="Grupo 63689" transform="translate(65.913 42.636)">
          <g id="Grupo_63687" data-name="Grupo 63687" transform="translate(0 1.944)">
            <rect id="Rectángulo_5876" data-name="Rectángulo 5876" width="0.54" height="10.259" transform="matrix(0.04, -0.999, 0.999, 0.04, 0, 0.54)" fill="#fff"/>
          </g>
          <g id="Grupo_63688" data-name="Grupo 63688" transform="translate(8.803 0)">
            <path id="Trazado_110147" data-name="Trazado 110147" d="M6340.987-1189.342a16.326,16.326,0,0,0-4.717,2.383l1.03-2.531-.826-2.606a16.335,16.335,0,0,0,4.513,2.754Z" transform="translate(-6336.271 1192.096)" fill="#fff"/>
          </g>
        </g>
        <g id="Grupo_63692" data-name="Grupo 63692" transform="translate(59.296 55.968)">
          <g id="Grupo_63690" data-name="Grupo 63690" transform="translate(0 0)">
            <rect id="Rectángulo_5877" data-name="Rectángulo 5877" width="0.54" height="12.033" transform="translate(0 0.458) rotate(-57.996)" fill="#fff"/>
          </g>
          <g id="Grupo_63691" data-name="Grupo 63691" transform="translate(7.832 3.707)">
            <path id="Trazado_110148" data-name="Trazado 110148" d="M6327.509-1155.936a16.318,16.318,0,0,0-5.279-.267l2.149-1.687.574-2.673a16.334,16.334,0,0,0,2.556,4.627Z" transform="translate(-6322.23 1160.563)" fill="#fff"/>
          </g>
        </g>
        <g id="Grupo_63695" data-name="Grupo 63695" transform="translate(49.476 62.552)">
          <g id="Grupo_63693" data-name="Grupo 63693" transform="translate(0 0)">
            <rect id="Rectángulo_5878" data-name="Rectángulo 5878" width="0.541" height="15.843" transform="translate(0 0.26) rotate(-28.743)" fill="#fff"/>
          </g>
          <g id="Grupo_63694" data-name="Grupo 63694" transform="translate(4.945 11.595)">
            <path id="Trazado_110149" data-name="Trazado 110149" d="M6303.192-1128.5a16.353,16.353,0,0,0-4.478-2.814l2.7-.421,1.8-2.051a16.325,16.325,0,0,0-.027,5.286Z" transform="translate(-6298.714 1133.782)" fill="#fff"/>
          </g>
        </g>
        <g id="Grupo_63698" data-name="Grupo 63698" transform="translate(37.146 63.762)">
          <g id="Grupo_63696" data-name="Grupo 63696" transform="translate(2.3)">
            <rect id="Rectángulo_5879" data-name="Rectángulo 5879" width="0.541" height="19.434" fill="#fff"/>
          </g>
          <g id="Grupo_63697" data-name="Grupo 63697" transform="translate(0 18.077)">
            <path id="Trazado_110150" data-name="Trazado 110150" d="M6269.313-1114.928a16.325,16.325,0,0,0-2.57-4.619l2.57.93,2.569-.93a16.318,16.318,0,0,0-2.568,4.619Z" transform="translate(-6266.743 1119.547)" fill="#fff"/>
          </g>
        </g>
        <g id="Grupo_63701" data-name="Grupo 63701" transform="translate(19.921 59.308)">
          <g id="Grupo_63699" data-name="Grupo 63699" transform="translate(1.386 0)">
            <rect id="Rectángulo_5880" data-name="Rectángulo 5880" width="20.674" height="0.541" transform="translate(0 18.208) rotate(-61.733)" fill="#fff"/>
          </g>
          <g id="Grupo_63700" data-name="Grupo 63700" transform="translate(0 15.92)">
            <path id="Trazado_110151" data-name="Trazado 110151" d="M6234.939-1126.495a16.35,16.35,0,0,0-.073-5.285l1.823,2.037,2.7.4a16.333,16.333,0,0,0-4.452,2.847Z" transform="translate(-6234.866 1131.78)" fill="#fff"/>
          </g>
        </g>
        <g id="Grupo_63704" data-name="Grupo 63704" transform="translate(5.404 54.339)">
          <g id="Grupo_63702" data-name="Grupo 63702" transform="translate(2.717 0)">
            <rect id="Rectángulo_5881" data-name="Rectángulo 5881" width="17.785" height="0.541" transform="matrix(0.873, -0.488, 0.488, 0.873, 0, 8.679)" fill="#fff"/>
          </g>
          <g id="Grupo_63703" data-name="Grupo 63703" transform="translate(0 6.007)">
            <path id="Trazado_110152" data-name="Trazado 110152" d="M6208-1154.825a16.306,16.306,0,0,0,2.777-4.5l.443,2.7,2.065,1.789A16.326,16.326,0,0,0,6208-1154.825Z" transform="translate(-6208 1159.321)" fill="#fff"/>
          </g>
        </g>
        <g id="Grupo_63707" data-name="Grupo 63707" transform="translate(0 43.09)">
          <g id="Grupo_63705" data-name="Grupo 63705" transform="translate(3.261 2.3)">
            <rect id="Rectángulo_5882" data-name="Rectángulo 5882" width="14.03" height="0.541" fill="#fff"/>
          </g>
          <g id="Grupo_63706" data-name="Grupo 63706" transform="translate(0 0)">
            <path id="Trazado_110153" data-name="Trazado 110153" d="M6198-1188.686a16.332,16.332,0,0,0,4.619-2.57l-.93,2.57.93,2.57a16.315,16.315,0,0,0-4.619-2.57Z" transform="translate(-6198 1191.256)" fill="#fff"/>
          </g>
        </g>
        <g id="Grupo_63710" data-name="Grupo 63710" transform="translate(3.783 25.236)">
          <g id="Grupo_63708" data-name="Grupo 63708" transform="translate(2.773 1.418)">
            <rect id="Rectángulo_5883" data-name="Rectángulo 5883" width="0.541" height="14.382" transform="translate(0 0.48) rotate(-62.65)" fill="#fff"/>
          </g>
          <g id="Grupo_63709" data-name="Grupo 63709">
            <path id="Trazado_110154" data-name="Trazado 110154" d="M6205-1224.137a16.319,16.319,0,0,0,5.282-.16l-2,1.856-.354,2.708A16.318,16.318,0,0,0,6205-1224.137Z" transform="translate(-6205 1224.297)" fill="#fff"/>
          </g>
        </g>
        <g id="Grupo_63713" data-name="Grupo 63713" transform="translate(20.364 10.267)">
          <g id="Grupo_63711" data-name="Grupo 63711" transform="translate(1.423 2.775)">
            <rect id="Rectángulo_5884" data-name="Rectángulo 5884" width="0.54" height="16.797" transform="translate(0 0.247) rotate(-27.257)" fill="#fff"/>
          </g>
          <g id="Grupo_63712" data-name="Grupo 63712" transform="translate(0 0)">
            <path id="Trazado_110155" data-name="Trazado 110155" d="M6235.855-1252a16.351,16.351,0,0,1-.169,5.28l1.857-2.005,2.711-.35a16.314,16.314,0,0,1-4.4-2.924Z" transform="translate(-6235.687 1252)" fill="#fff"/>
          </g>
        </g>
      </g>
      <path id="Trazado_110156" data-name="Trazado 110156" d="M6343.938-741.137,6334.751-746v3.242H6318v3.242h16.751v2.7Z" transform="translate(-6235.371 1051.243)" fill="#00897b"/>
      <path id="Trazado_110157" data-name="Trazado 110157" d="M6579-741.677l9.187,4.863v-3.242h16.75V-743.3h-16.75V-746Z" transform="translate(-6355.338 1051.243)" fill="#00897b"/>
      <rect id="Rectángulo_5886" data-name="Rectángulo 5886" width="135.381" height="3.474" transform="translate(556.031 37.48)" fill="#fdd835"/>
      <rect id="Rectángulo_5892" data-name="Rectángulo 5892" width="58.942" height="3.474" transform="translate(694.886 37.48) rotate(90)" fill="#fdd835"/>
      <rect id="Rectángulo_5893" data-name="Rectángulo 5893" width="58.942" height="3.474" transform="translate(557.866 37.48) rotate(90)" fill="#fdd835"/>
      <rect id="Rectángulo_5891" data-name="Rectángulo 5891" width="135.381" height="3.474" transform="translate(556.031 92.948)" fill="#fdd835"/>
      <line id="Línea_162" data-name="Línea 162" x1="15.238" y2="25.747" transform="translate(237.686 160.975)" fill="none" stroke="#3ecea8" stroke-width="1"/>
      <line id="Línea_163" data-name="Línea 163" x1="15.238" y2="25.747" transform="translate(203.667 146.788)" fill="none" stroke="#3ecea8" stroke-width="1"/>
      <line id="Línea_164" data-name="Línea 164" x1="6.333" y2="9.458" transform="translate(204.554 151.517)" fill="none" stroke="#3ecea8" stroke-width="1"/>
      <line id="Línea_165" data-name="Línea 165" x1="6.333" y2="9.458" transform="translate(213.612 104.226)" fill="none" stroke="#3ecea8" stroke-width="1"/>
    </g>
  </g>
</svg>
