<svg xmlns="http://www.w3.org/2000/svg" xmlns:xlink="http://www.w3.org/1999/xlink" width="78" height="78" viewBox="0 0 78 78">
  <defs>
    <filter id="Elipse_12115" x="0" y="0" width="78" height="78" filterUnits="userSpaceOnUse">
      <feOffset dy="3" input="SourceAlpha"/>
      <feGaussianBlur stdDeviation="3" result="blur"/>
      <feFlood flood-opacity="0.161"/>
      <feComposite operator="in" in2="blur"/>
      <feComposite in="SourceGraphic"/>
    </filter>
  </defs>
  <g id="Grupo_1190748" data-name="Grupo 1190748" transform="translate(-898.051 -1644)">
    <g id="Grupo_1190747" data-name="Grupo 1190747" transform="translate(458.542 788.542)">
      <g id="Grupo_1188930" data-name="Grupo 1188930" transform="translate(448.051 861)">
        <g id="Grupo_1181949" data-name="Grupo 1181949" transform="translate(0)">
          <g transform="matrix(1, 0, 0, 1, -8.54, -5.54)" filter="url(#Elipse_12115)">
            <g id="Elipse_12115-2" data-name="Elipse 12115" transform="translate(9 6)" fill="#ffe69b" stroke="#b18603" stroke-width="2">
              <circle cx="30" cy="30" r="30" stroke="none"/>
              <circle cx="30" cy="30" r="29" fill="none"/>
            </g>
          </g>
        </g>
      </g>
    </g>
    <g id="dimension" transform="translate(905.958 1638.671)">
      <g id="Grupo_1190745" data-name="Grupo 1190745" transform="translate(8.801 19.594)">
        <path id="Trazado_1054955" data-name="Trazado 1054955" d="M58.3,46.009l-12.7,5.35-12.7-5.35L45.6,40.7Z" transform="translate(-23.507 -32.491)" fill="#ff8101" fill-rule="evenodd"/>
        <path id="Trazado_1054956" data-name="Trazado 1054956" d="M110.232,98.4l-5.432-.082,2.655-4.615Z" transform="translate(-66.043 -63.846)" fill="#00d3dc" fill-rule="evenodd"/>
        <path id="Trazado_1054957" data-name="Trazado 1054957" d="M9.9,98.4l5.432-.082L12.677,93.7Z" transform="translate(-9.9 -63.846)" fill="#00d3dc" fill-rule="evenodd"/>
        <path id="Trazado_1054958" data-name="Trazado 1054958" d="M60.155,20.6l2.655,4.737H57.5Z" transform="translate(-38.06 -20.6)" fill="#00d3dc" fill-rule="evenodd"/>
      </g>
      <path id="Trazado_1054959" data-name="Trazado 1054959" d="M76.7,53.7V70.322L64,75.631V59.05Z" transform="translate(-33.105 -20.588)" fill="#ffd92d"/>
      <path id="Trazado_1054960" data-name="Trazado 1054960" d="M45.6,59.05V75.631L32.9,70.322V53.7Z" transform="translate(-14.706 -20.588)" fill="#fbbc02"/>
      <path id="Trazado_1054961" data-name="Trazado 1054961" d="M25.3,30.131a.7.7,0,0,1,.368-.939l.776-.327a.713.713,0,0,1,.572,1.307l-.776.327A.673.673,0,0,1,25.3,30.131ZM35.224,47l.408.163a.713.713,0,0,0,.572-1.307l-.408-.163a.722.722,0,0,0-.939.408A.712.712,0,0,0,35.224,47Zm17.765,7.841-5.472-.082A.712.712,0,0,1,46.9,53.7l.817-1.429L43.555,50.51S32.324,55.206,31.14,55.7a.7.7,0,0,1-.572,0c-1.1-.449-12.415-5.187-12.415-5.187l-4.166,1.756L14.8,53.7a.7.7,0,0,1-.613,1.062l-5.432.082a.7.7,0,0,1-.613-1.062l2.777-4.7a.725.725,0,0,1,1.225,0L13.252,51l4.166-1.756V33.112a.767.767,0,0,1,.449-.653l5.554-2.328a.713.713,0,1,1,.572,1.307l-4,1.674,10.9,4.574,10.863-4.533L30.9,28.579l-1.879.776a.713.713,0,1,1-.572-1.307l1.715-.735V25.067H28.24A.7.7,0,0,1,27.628,24l2.655-4.737a.729.729,0,0,1,1.266,0L34.162,24a.718.718,0,0,1-.613,1.062h-1.96v2.287L43.841,32.5a.764.764,0,0,1,.449.653V49.285l4.166,1.756,1.1-1.919a.694.694,0,0,1,1.225,0l2.777,4.7A.648.648,0,0,1,52.989,54.839Zm-20.665-31.2L30.9,21.064l-1.429,2.573ZM13.007,53.368l-1.429-2.491-1.511,2.532ZM30.2,45.486,20.032,49.734,30.16,53.981Zm0-6.575-11.272-4.7V48.672L30.2,43.935Zm12.66-4.7-11.231,4.7v5.023l2.205.939a.713.713,0,0,1-.572,1.307l-1.634-.694v8.495l10.128-4.247-4.043-1.674a.724.724,0,1,1,.531-1.348h.041L42.9,48.631V34.215Zm8.862,19.195-1.511-2.532-1.429,2.491Z" fill="#123251"/>
    </g>
  </g>
</svg>
