<svg xmlns="http://www.w3.org/2000/svg" xmlns:xlink="http://www.w3.org/1999/xlink" width="92" height="92" viewBox="0 0 92 92">
  <defs>
    <filter id="Elipse_12115" x="0" y="0" width="92" height="92" filterUnits="userSpaceOnUse">
      <feOffset dy="3" input="SourceAlpha"/>
      <feGaussianBlur stdDeviation="3" result="blur"/>
      <feFlood flood-opacity="0.161"/>
      <feComposite operator="in" in2="blur"/>
      <feComposite in="SourceGraphic"/>
    </filter>
    <clipPath id="clip-path">
      <path id="path3134" d="M0-682.665H50.412v50.412H0Z" transform="translate(0 682.665)"/>
    </clipPath>
  </defs>
  <g id="Grupo_1188957" data-name="Grupo 1188957" transform="translate(-1069.051 -855)">
    <g id="Grupo_1188933" data-name="Grupo 1188933" transform="translate(323.27 -2991)">
      <g id="Grupo_1181949" data-name="Grupo 1181949" transform="translate(754.781 3852)">
        <g transform="matrix(1, 0, 0, 1, -9, -6)" filter="url(#Elipse_12115)">
          <g id="Elipse_12115-2" data-name="Elipse 12115" transform="translate(9 6)" fill="#ffe69b" stroke="#b18603" stroke-width="2">
            <circle cx="37" cy="37" r="37" stroke="none"/>
            <circle cx="37" cy="37" r="36" fill="none"/>
          </g>
        </g>
      </g>
    </g>
    <g id="g3120" transform="translate(1089.845 1554.459)">
      <g id="g3122" transform="translate(35.911 -672.373)">
        <path id="path3124" d="M0-47.454l3.786,3.434L7.222-47.8,3.436-51.237Z" transform="translate(0 51.237)" fill="#ffda8f"/>
      </g>
      <g id="g3126" transform="translate(7.407 -672.373)">
        <path id="path3128" d="M-90.576-47.454l-3.786,3.434L-97.8-47.8l3.786-3.434Z" transform="translate(97.798 51.237)" fill="#ffda8f"/>
      </g>
      <g id="g3130" transform="translate(0 -682.665)">
        <g id="g3132" clip-path="url(#clip-path)">
          <g id="g3138" transform="translate(6.006 11.063)">
            <path id="path3140" d="M-481.6-240.664a19.2,19.2,0,0,1-19.2,19.189A19.2,19.2,0,0,1-520-240.664a19.194,19.194,0,0,1,19.2-19.189,19.2,19.2,0,0,1,19.2,19.189" transform="translate(519.999 259.853)" fill="#fff3cd"/>
          </g>
          <g id="g3142" transform="translate(9.945 14.999)">
            <path id="path3144" d="M-382.809-191.3a15.257,15.257,0,0,1-15.261,15.253A15.257,15.257,0,0,1-413.332-191.3a15.257,15.257,0,0,1,15.261-15.253A15.257,15.257,0,0,1-382.809-191.3" transform="translate(413.332 206.549)" fill="#fff"/>
          </g>
          <g id="g3146" transform="translate(18.815 0.998)">
            <path id="path3148" d="M0-25.635v3.066l2.556,1.277,1.278,3.832H8.947l1.278-3.832,2.556-1.277v-3.066a2.045,2.045,0,0,0-2.045-2.044H2.045A2.045,2.045,0,0,0,0-25.635" transform="translate(0 27.679)" fill="#fff3cd"/>
          </g>
          <g id="g3150" transform="translate(25.206 14.999)">
            <path id="path3152" d="M-191.4-191.3a15.238,15.238,0,0,1-7.106,12.894l-8.156-12.922v-15.225A15.257,15.257,0,0,1-191.4-191.3" transform="translate(206.666 206.549)" fill="#f855fc"/>
          </g>
          <g id="g3154" transform="translate(8.96 14.015)">
            <path id="path3156" d="M-191.4-25.131V-10.64l7.762,12.3a14.2,14.2,0,0,1-6.777,1.713A14.289,14.289,0,0,1-204.7-10.9,14.312,14.312,0,0,1-191.4-25.131M-176.143-10.9A14.254,14.254,0,0,1-181.98.6l-6.984-11.066,9.358-3.883a.984.984,0,0,0,.532-1.287.984.984,0,0,0-1.287-.532l-9.075,3.765V-25.131A14.313,14.313,0,0,1-176.143-10.9M-190.42,5.34A16.26,16.26,0,0,0-174.174-10.9,16.26,16.26,0,0,0-190.42-27.135,16.26,16.26,0,0,0-206.666-10.9,16.26,16.26,0,0,0-190.42,5.34" transform="translate(206.666 27.135)"/>
          </g>
          <g id="g3158" transform="translate(5.021 0)">
            <path id="path3160" d="M-404.849-175.684l2.112-2.326,2.327,2.111-2.112,2.326Zm-15.869-7.69-1.642-.818v-2.457a1.081,1.081,0,0,1,1.07-1.073h8.692a1.081,1.081,0,0,1,1.07,1.073v2.457l-1.649.823a12.155,12.155,0,0,0-7.539,0m5.62,3.922h-3.694l-.737-2.214a10.335,10.335,0,0,1,5.167.006Zm-16.119,5.747-.074.076-2.061-2.27,2.327-2.111,2.112,2.325a20.328,20.328,0,0,0-2.3,1.98m34.046,10.2a20.079,20.079,0,0,0-1.176-3.787,20.2,20.2,0,0,0-1.861-3.427c-.316-.467-.654-.921-1.009-1.362l2.927-3.223a.985.985,0,0,0,.255-.71.985.985,0,0,0-.322-.682l-3.786-3.434a.985.985,0,0,0-1.39.067l-3.02,3.326a20.192,20.192,0,0,0-2.535-1.292,20.056,20.056,0,0,0-3.789-1.176l-.215-.042.787-2.361,2.2-1.1a.99.99,0,0,0,.549-.882v-3.066a3.052,3.052,0,0,0-3.039-3.042h-8.692a3.052,3.052,0,0,0-3.039,3.042v3.066a.989.989,0,0,0,.549.881l2.194,1.1.788,2.364c-.071.014-.143.026-.213.04a20.055,20.055,0,0,0-3.789,1.176,20.248,20.248,0,0,0-2.453,1.242l-2.976-3.276a.984.984,0,0,0-1.39-.067l-3.786,3.434a.985.985,0,0,0-.322.682.984.984,0,0,0,.255.71l2.859,3.148c-.377.464-.735.943-1.069,1.437a20.191,20.191,0,0,0-1.861,3.427,20.077,20.077,0,0,0-1.176,3.787,20.278,20.278,0,0,0-.411,4.066,20.063,20.063,0,0,0,1.382,7.351.981.981,0,0,0,.368.459.991.991,0,0,0,.908.1.986.986,0,0,0,.557-1.276,18.117,18.117,0,0,1-1.247-6.633,18.091,18.091,0,0,1,5.335-12.873,18.1,18.1,0,0,1,10.447-5.17h4.868a18.1,18.1,0,0,1,10.447,5.17,18.092,18.092,0,0,1,5.335,12.873,18.087,18.087,0,0,1-5.335,12.872,18.109,18.109,0,0,1-12.881,5.333,18.187,18.187,0,0,1-12.235-4.718.985.985,0,0,0-.662-.255.989.989,0,0,0-.73.323.987.987,0,0,0,.068,1.391,20.3,20.3,0,0,0,2.9,2.187,20.143,20.143,0,0,0,3.27,1.638,20.087,20.087,0,0,0,7.391,1.389h0a20.28,20.28,0,0,0,4.067-.4,19.99,19.99,0,0,0,3.789-1.172,20.154,20.154,0,0,0,3.428-1.857,20.287,20.287,0,0,0,2.987-2.463,20.393,20.393,0,0,0,2.465-2.985,20.24,20.24,0,0,0,1.861-3.427,20.037,20.037,0,0,0,1.176-3.787,20.27,20.27,0,0,0,.411-4.065,20.278,20.278,0,0,0-.411-4.066" transform="translate(437.13 189.692)"/>
          </g>
          <g id="g3162" transform="translate(12.898 29.28)">
            <path id="path3164" d="M-12.336,0a.985.985,0,0,0-.984.986.985.985,0,0,0,.986.984.985.985,0,0,0,.984-.986A.984.984,0,0,0-12.336,0" transform="translate(13.32 0)"/>
          </g>
          <g id="g3166" transform="translate(24.228 40.584)">
            <path id="path3168" d="M-12.349-24.7a.985.985,0,0,0,.985-.985.986.986,0,0,0-.986-.985.984.984,0,0,0-.984.986.983.983,0,0,0,.985.984" transform="translate(13.333 26.667)"/>
          </g>
          <g id="g3170" transform="translate(35.544 29.242)">
            <path id="path3172" d="M0-12.373v.024a.985.985,0,0,0,.985.985.985.985,0,0,0,.985-.985v-.029a.983.983,0,0,0-.987-.982A.984.984,0,0,0,0-12.373" transform="translate(0 13.36)"/>
          </g>
          <g id="g3174" transform="translate(8.412 40.159)">
            <path id="path3176" d="M-12.349,0a.985.985,0,0,0-.985.985.985.985,0,0,0,.985.985.985.985,0,0,0,.985-.985A.985.985,0,0,0-12.349,0" transform="translate(13.333 0)"/>
          </g>
        </g>
      </g>
    </g>
  </g>
</svg>
