<svg xmlns="http://www.w3.org/2000/svg" xmlns:xlink="http://www.w3.org/1999/xlink" width="515" height="227" viewBox="0 0 515 227">
  <defs>
    <clipPath id="clip-path">
      <rect id="Rect치ngulo_412674" data-name="Rect치ngulo 412674" width="415.26" height="106.326" transform="translate(0 0)" fill="none"/>
    </clipPath>
    <linearGradient id="linear-gradient" x1="-0.001" y1="1.003" x2="0.002" y2="1.003" gradientUnits="objectBoundingBox">
      <stop offset="0" stop-color="#4c00eb"/>
      <stop offset="1" stop-color="#6ca4fb"/>
    </linearGradient>
    <linearGradient id="linear-gradient-2" x1="-0.001" y1="1.193" x2="0.002" y2="1.193" gradientUnits="objectBoundingBox">
      <stop offset="0" stop-color="#d03791"/>
      <stop offset="1" stop-color="#e16b4e"/>
    </linearGradient>
  </defs>
  <g id="Grupo_1190870" data-name="Grupo 1190870" transform="translate(-285 -1853.179)">
    <g id="Grupo_1190867" data-name="Grupo 1190867" transform="translate(0 1205.179)">
      <rect id="Rect치ngulo_412162" data-name="Rect치ngulo 412162" width="515" height="227" transform="translate(285 648)" fill="#d2e4e7"/>
    </g>
    <g id="Grupo_1190869" data-name="Grupo 1190869" transform="translate(323.523 1913.516)">
      <g id="Grupo_1190868" data-name="Grupo 1190868" clip-path="url(#clip-path)">
        <path id="Trazado_1055116" data-name="Trazado 1055116" d="M1.218,22.96c.1,0,.306-.04.611-.043,18.536.775,18.536,41.891,34.359,41.116,15.974.575,15.974-28.273,34.355-28.849C89.076,35.959,89.076,77.075,104.9,76.3c15.816.775,15.816-40.341,34.341-41.116,18.679,1.045,18.679,69.916,34.351,68.871,6.969.695,12.159-21.476,16.191-43.847,4.555-22.287,7.951-44.774,18.155-45.469,18.59.875,18.59,50.169,34.346,49.294,15.967.576,15.967-28.273,34.342-28.849,18.53.775,18.53,41.891,34.348,41.116,15.754.875,15.754-48.419,34.342-49.294,18.485.716,18.485,37.743,34.339,37.027,15.942.6,15.942-29.68,34.338-30.283a1,1,0,0,1,0,2c-15.942-.6-15.942,29.68-34.338,30.283-18.484-.717-18.484-37.744-34.339-37.027C329.558,28.13,329.558,77.424,310.97,78.3c-18.529-.776-18.529-41.892-34.348-41.116-15.967-.576-15.967,28.273-34.342,28.849-18.59-.876-18.59-50.17-34.346-49.294-6.968-.695-12.159,21.476-16.191,43.847-4.554,22.287-7.95,44.774-18.155,45.469h0c-18.679-1.046-18.679-69.917-34.351-68.871-15.814-.776-15.814,40.34-34.341,41.116-18.531-.776-18.531-41.892-34.353-41.116C54.57,36.608,54.57,65.457,36.188,66.033,17.654,65.257,17.654,24.142,1.829,24.917c-.079,0-.236.023-.5.04a1,1,0,0,1-.107-2Z" fill="url(#linear-gradient)"/>
        <path id="Trazado_1055117" data-name="Trazado 1055117" d="M413.936,35.838c-.269-.018-.426-.044-.505-.041-15.825-.775-15.825,40.341-34.359,41.116-18.5-.722-18.5-38.119-34.355-37.4-15.758-.879-15.758,48.785-34.353,49.664C291.7,88.154,291.7,22.03,276.023,23.056c-15.732-.922-15.732,52.935-34.351,53.857-10.07-.55-13.654-19.512-18.148-38.1-4.092-18.736-9.1-37.1-16.2-36.545-7.1-.55-12.106,17.809-16.2,36.545-4.494,18.585-8.078,37.547-18.148,38.1-18.587-.873-18.587-49.987-34.342-49.114-15.7-.989-15.7,60.392-34.348,61.381-10.07-.551-13.652-19.545-18.146-38.162-4.091-18.769-9.095-37.162-16.2-36.611-15.688-1-15.688,61.507-34.339,62.506-18.6-.9-18.6-52.948-34.338-52.044a1,1,0,1,1,0-2c18.6.905,18.6,52.949,34.338,52.044,15.687,1,15.687-61.507,34.339-62.506,10.07.552,13.652,19.545,18.146,38.163,4.091,18.769,9.1,37.162,16.2,36.61,15.7.99,15.7-60.391,34.348-61.381,18.587.874,18.587,49.988,34.342,49.114,7.1.55,12.106-17.809,16.2-36.545,4.494-18.585,8.078-37.547,18.148-38.1,10.07.55,13.654,19.512,18.148,38.1,4.092,18.736,9.1,37.095,16.2,36.545,15.733.923,15.733-52.934,34.351-53.857,18.665,1.026,18.665,67.15,34.341,66.124,15.757.88,15.757-48.785,34.353-49.664,18.5.722,18.5,38.119,34.355,37.4C394.9,75.688,394.9,34.572,413.431,33.8c.3,0,.506.041.611.044a1,1,0,1,1-.106,2Z" fill="url(#linear-gradient-2)"/>
      </g>
    </g>
  </g>
</svg>
